<?xml version="1.0" encoding="UTF-8" standalone="no"?>
<!DOCTYPE svg PUBLIC "-//W3C//DTD SVG 1.1//EN"
 "http://www.w3.org/Graphics/SVG/1.1/DTD/svg11.dtd">
<!-- Generated by graphviz version 13.1.2 (20250808.2320)
 -->
<!-- Title: application/src/Application.cpp Pages: 1 -->
<!--zoomable 320 -->

<svg id="main" version="1.1" xmlns="http://www.w3.org/2000/svg" xmlns:xlink="http://www.w3.org/1999/xlink" xml:space="preserve" onload="init(evt)">

<style type="text/css"><![CDATA[
.node, .edge {opacity: 0.7;}
.node.selected, .edge.selected {opacity: 1;}
.edge:hover path { stroke: red; }
.edge:hover polygon { stroke: red; fill: red; }
]]></style>

<defs>
  <circle id="rim" cx="0" cy="0" r="7"/>
  <circle id="rim2" cx="0" cy="0" r="3.5"/>
  <g id="zoomPlus">
    <use xlink:href="#rim" fill="#404040"><set attributeName="fill" to="#808080" begin="zoomplus.mouseover" end="zoomplus.mouseout"/></use>
    <path d="M-4,0h8M0,-4v8" fill="none" stroke="white" stroke-width="1.5" pointer-events="none"/>
  </g>
  <g id="zoomMin">
    <use xlink:href="#rim" fill="#404040"><set attributeName="fill" to="#808080" begin="zoomminus.mouseover" end="zoomminus.mouseout"/></use>
    <path d="M-4,0h8" fill="none" stroke="white" stroke-width="1.5" pointer-events="none"/>
  </g>
  <g id="arrowUp" transform="translate(30 24)">
    <use xlink:href="#rim"/>
    <path pointer-events="none" fill="none" stroke="white" stroke-width="1.5" d="M0,-3.0v7 M-2.5,-0.5L0,-3.0L2.5,-0.5"/>
  </g>
  <g id="arrowRight" transform="rotate(90) translate(36 -43)">
    <use xlink:href="#rim"/>
    <path pointer-events="none" fill="none" stroke="white" stroke-width="1.5" d="M0,-3.0v7 M-2.5,-0.5L0,-3.0L2.5,-0.5"/>
  </g>
  <g id="arrowDown" transform="rotate(180) translate(-30 -48)">
    <use xlink:href="#rim"/>
    <path pointer-events="none" fill="none" stroke="white" stroke-width="1.5" d="M0,-3.0v7 M-2.5,-0.5L0,-3.0L2.5,-0.5"/>
  </g>
  <g id="arrowLeft" transform="rotate(270) translate(-36 17)">
    <use xlink:href="#rim"/>
    <path pointer-events="none" fill="none" stroke="white" stroke-width="1.5" d="M0,-3.0v7 M-2.5,-0.5L0,-3.0L2.5,-0.5"/>
  </g>
  <g id="resetDef">
    <use xlink:href="#rim2" fill="#404040"><set attributeName="fill" to="#808080" begin="reset.mouseover" end="reset.mouseout"/></use>
  </g>
</defs>
<script type="application/ecmascript">
var viewWidth = 1923;
var viewHeight = 320;
var sectionId = 'dynsection-0';
</script>
<script type="application/ecmascript" xlink:href="svg.min.js"/>
<svg id="graph" class="graph">
<g id="viewport">
<title>application/src/Application.cpp</title>
<!-- Node1 -->
<g id="Node000001" class="node">
<title>Node1</title>
<g id="a_Node000001"><a xlink:title=" ">
<polygon fill="#999999" stroke="#666666" points="1229.12,-312 1080.38,-312 1080.38,-292 1229.12,-292 1229.12,-312"/>
<text xml:space="preserve" text-anchor="middle" x="1154.75" y="-298.5" font-family="Helvetica,sans-Serif" font-size="10.00">application/src/Application.cpp</text>
</a>
</g>
</g>
<!-- Node2 -->
<g id="Node000002" class="node">
<title>Node2</title>
<g id="a_Node000002"><a xlink:href="DotNameLib_8hpp.html" target="_top" xlink:title=" ">
<polygon fill="white" stroke="#666666" points="1095.38,-256 948.12,-256 948.12,-236 1095.38,-236 1095.38,-256"/>
<text xml:space="preserve" text-anchor="middle" x="1021.75" y="-242.5" font-family="Helvetica,sans-Serif" font-size="10.00">DotNameLib/DotNameLib.hpp</text>
</a>
</g>
</g>
<!-- Node1&#45;&gt;Node2 -->
<g id="edge1_Node000001_Node000002" class="edge">
<title>Node1&#45;&gt;Node2</title>
<g id="a_edge1_Node000001_Node000002"><a xlink:title=" ">
<path fill="none" stroke="#63b8ff" d="M1131.58,-291.59C1110.54,-283.05 1079.25,-270.35 1055.45,-260.68"/>
<polygon fill="#63b8ff" stroke="#63b8ff" points="1057.08,-257.57 1046.5,-257.05 1054.45,-264.05 1057.08,-257.57"/>
</a>
</g>
</g>
<!-- Node4 -->
<g id="Node000004" class="node">
<title>Node4</title>
<g id="a_Node000004"><a xlink:href="UtilsFactory_8hpp.html" target="_top" xlink:title=" ">
<polygon fill="white" stroke="#666666" points="1149,-200 1038.5,-200 1038.5,-180 1149,-180 1149,-200"/>
<text xml:space="preserve" text-anchor="middle" x="1093.75" y="-186.5" font-family="Helvetica,sans-Serif" font-size="10.00">Utils/UtilsFactory.hpp</text>
</a>
</g>
</g>
<!-- Node1&#45;&gt;Node4 -->
<g id="edge65_Node000001_Node000004" class="edge">
<title>Node1&#45;&gt;Node4</title>
<g id="a_edge65_Node000001_Node000004"><a xlink:title=" ">
<path fill="none" stroke="#63b8ff" d="M1149.55,-291.62C1139.6,-273.68 1117.69,-234.17 1104.48,-210.35"/>
<polygon fill="#63b8ff" stroke="#63b8ff" points="1107.58,-208.73 1099.67,-201.68 1101.46,-212.12 1107.58,-208.73"/>
</a>
</g>
</g>
<!-- Node29 -->
<g id="Node000029" class="node">
<title>Node29</title>
<g id="a_Node000029"><a xlink:title=" ">
<polygon fill="#e0e0e0" stroke="#999999" points="1221.38,-256 1152.12,-256 1152.12,-236 1221.38,-236 1221.38,-256"/>
<text xml:space="preserve" text-anchor="middle" x="1186.75" y="-242.5" font-family="Helvetica,sans-Serif" font-size="10.00">cxxopts.hpp</text>
</a>
</g>
</g>
<!-- Node1&#45;&gt;Node29 -->
<g id="edge66_Node000001_Node000029" class="edge">
<title>Node1&#45;&gt;Node29</title>
<g id="a_edge66_Node000001_Node000029"><a xlink:title=" ">
<path fill="none" stroke="#63b8ff" d="M1160.32,-291.59C1164.5,-284.55 1170.35,-274.67 1175.49,-266"/>
<polygon fill="#63b8ff" stroke="#63b8ff" points="1178.38,-267.99 1180.47,-257.6 1172.36,-264.42 1178.38,-267.99"/>
</a>
</g>
</g>
<!-- Node30 -->
<g id="Node000030" class="node">
<title>Node30</title>
<g id="a_Node000030"><a xlink:title=" ">
<polygon fill="#e0e0e0" stroke="#999999" points="1292.5,-256 1239,-256 1239,-236 1292.5,-236 1292.5,-256"/>
<text xml:space="preserve" text-anchor="middle" x="1265.75" y="-242.5" font-family="Helvetica,sans-Serif" font-size="10.00">iostream</text>
</a>
</g>
</g>
<!-- Node1&#45;&gt;Node30 -->
<g id="edge67_Node000001_Node000030" class="edge">
<title>Node1&#45;&gt;Node30</title>
<g id="a_edge67_Node000001_Node000030"><a xlink:title=" ">
<path fill="none" stroke="#63b8ff" d="M1174.08,-291.59C1191.17,-283.28 1216.35,-271.03 1236,-261.47"/>
<polygon fill="#63b8ff" stroke="#63b8ff" points="1237.44,-264.66 1244.9,-257.14 1234.38,-258.37 1237.44,-264.66"/>
</a>
</g>
</g>
<!-- Node3 -->
<g id="Node000003" class="node">
<title>Node3</title>
<g id="a_Node000003"><a xlink:title=" ">
<polygon fill="#e0e0e0" stroke="#999999" points="113.5,-138 0,-138 0,-118 113.5,-118 113.5,-138"/>
<text xml:space="preserve" text-anchor="middle" x="56.75" y="-124.5" font-family="Helvetica,sans-Serif" font-size="10.00">DotNameLib/version.h</text>
</a>
</g>
</g>
<!-- Node2&#45;&gt;Node3 -->
<g id="edge2_Node000002_Node000003" class="edge">
<title>Node2&#45;&gt;Node3</title>
<g id="a_edge2_Node000002_Node000003"><a xlink:title=" ">
<path fill="none" stroke="#63b8ff" d="M947.85,-239.6C793.57,-227.7 426.29,-196.05 121.75,-144 116.46,-143.1 110.96,-142.03 105.5,-140.89"/>
<polygon fill="#63b8ff" stroke="#63b8ff" points="106.41,-137.5 95.89,-138.79 104.91,-144.34 106.41,-137.5"/>
</a>
</g>
</g>
<!-- Node2&#45;&gt;Node4 -->
<g id="edge3_Node000002_Node000004" class="edge">
<title>Node2&#45;&gt;Node4</title>
<g id="a_edge3_Node000002_Node000004"><a xlink:title=" ">
<path fill="none" stroke="#63b8ff" d="M1034.29,-235.59C1044.72,-227.77 1059.8,-216.46 1072.16,-207.19"/>
<polygon fill="#63b8ff" stroke="#63b8ff" points="1074.24,-210.01 1080.14,-201.21 1070.04,-204.41 1074.24,-210.01"/>
</a>
</g>
</g>
<!-- Node23 -->
<g id="Node000023" class="node">
<title>Node23</title>
<g id="a_Node000023"><a xlink:title=" ">
<polygon fill="#e0e0e0" stroke="#999999" points="1895.38,-20 1844.12,-20 1844.12,0 1895.38,0 1895.38,-20"/>
<text xml:space="preserve" text-anchor="middle" x="1869.75" y="-6.5" font-family="Helvetica,sans-Serif" font-size="10.00">memory</text>
</a>
</g>
</g>
<!-- Node2&#45;&gt;Node23 -->
<g id="edge64_Node000002_Node000023" class="edge">
<title>Node2&#45;&gt;Node23</title>
<g id="a_edge64_Node000002_Node000023"><a xlink:title=" ">
<path fill="none" stroke="#63b8ff" d="M1095.58,-239.05C1301.68,-222.09 1870.01,-172.91 1897.75,-144 1924.87,-115.73 1914.94,-93.23 1902.75,-56 1899.49,-46.05 1893.11,-36.48 1886.81,-28.75"/>
<polygon fill="#63b8ff" stroke="#63b8ff" points="1889.63,-26.65 1880.4,-21.45 1884.37,-31.27 1889.63,-26.65"/>
</a>
</g>
</g>
<!-- Node4&#45;&gt;Node3 -->
<g id="edge4_Node000004_Node000003" class="edge">
<title>Node4&#45;&gt;Node3</title>
<g id="a_edge4_Node000004_Node000003"><a xlink:title=" ">
<path fill="none" stroke="#63b8ff" d="M1038.03,-183.45C1023.92,-182.18 1008.79,-180.93 994.75,-180 607.26,-154.41 506.6,-195.88 121.75,-144 115.72,-143.19 109.44,-142.08 103.25,-140.83"/>
<polygon fill="#63b8ff" stroke="#63b8ff" points="104.28,-137.47 93.77,-138.77 102.8,-144.31 104.28,-137.47"/>
</a>
</g>
</g>
<!-- Node5 -->
<g id="Node000005" class="node">
<title>Node5</title>
<g id="a_Node000005"><a xlink:href="IAssetManager_8hpp.html" target="_top" xlink:title=" ">
<polygon fill="white" stroke="#666666" points="637.62,-138 479.88,-138 479.88,-118 637.62,-118 637.62,-138"/>
<text xml:space="preserve" text-anchor="middle" x="558.75" y="-124.5" font-family="Helvetica,sans-Serif" font-size="10.00">Utils/Assets/IAssetManager.hpp</text>
</a>
</g>
</g>
<!-- Node4&#45;&gt;Node5 -->
<g id="edge5_Node000004_Node000005" class="edge">
<title>Node4&#45;&gt;Node5</title>
<g id="a_edge5_Node000004_Node000005"><a xlink:title=" ">
<path fill="none" stroke="#63b8ff" d="M1038.06,-183.74C936.53,-174.08 725.07,-153.64 651.75,-144 643.2,-142.88 634.22,-141.58 625.36,-140.23"/>
<polygon fill="#63b8ff" stroke="#63b8ff" points="626.16,-136.81 615.74,-138.73 625.08,-143.73 626.16,-136.81"/>
</a>
</g>
</g>
<!-- Node6 -->
<g id="Node000006" class="node">
<title>Node6</title>
<g id="a_Node000006"><a xlink:title=" ">
<polygon fill="#e0e0e0" stroke="#999999" points="786.25,-76 725.25,-76 725.25,-56 786.25,-56 786.25,-76"/>
<text xml:space="preserve" text-anchor="middle" x="755.75" y="-62.5" font-family="Helvetica,sans-Serif" font-size="10.00">filesystem</text>
</a>
</g>
</g>
<!-- Node4&#45;&gt;Node6 -->
<g id="edge62_Node000004_Node000006" class="edge">
<title>Node4&#45;&gt;Node6</title>
<g id="a_edge62_Node000004_Node000006"><a xlink:title=" ">
<path fill="none" stroke="#63b8ff" d="M1038.27,-183.86C927.84,-173.49 690.6,-150.53 684.75,-144 675.26,-133.41 677.89,-124.46 684.75,-112 692.21,-98.45 705.66,-88.4 718.86,-81.29"/>
<polygon fill="#63b8ff" stroke="#63b8ff" points="720.01,-84.62 727.45,-77.07 716.93,-78.34 720.01,-84.62"/>
</a>
</g>
</g>
<!-- Node7 -->
<g id="Node000007" class="node">
<title>Node7</title>
<g id="a_Node000007"><a xlink:href="IDirectoryManager_8hpp.html" target="_top" xlink:title=" ">
<polygon fill="white" stroke="#666666" points="827.25,-144 694.25,-144 694.25,-112 827.25,-112 827.25,-144"/>
<text xml:space="preserve" text-anchor="start" x="702.25" y="-130.5" font-family="Helvetica,sans-Serif" font-size="10.00">Utils/Filesystem/IDirectory</text>
<text xml:space="preserve" text-anchor="middle" x="760.75" y="-118.5" font-family="Helvetica,sans-Serif" font-size="10.00">Manager.hpp</text>
</a>
</g>
</g>
<!-- Node4&#45;&gt;Node7 -->
<g id="edge7_Node000004_Node000007" class="edge">
<title>Node4&#45;&gt;Node7</title>
<g id="a_edge7_Node000004_Node000007"><a xlink:title=" ">
<path fill="none" stroke="#63b8ff" d="M1038.07,-179.7C988.22,-171.28 912.83,-158.31 838.37,-144.47"/>
<polygon fill="#63b8ff" stroke="#63b8ff" points="839.35,-141.09 828.88,-142.69 838.07,-147.97 839.35,-141.09"/>
</a>
</g>
</g>
<!-- Node15 -->
<g id="Node000015" class="node">
<title>Node15</title>
<g id="a_Node000015"><a xlink:href="IFileReader_8hpp.html" target="_top" xlink:title=" ">
<polygon fill="white" stroke="#666666" points="461.38,-138 302.12,-138 302.12,-118 461.38,-118 461.38,-138"/>
<text xml:space="preserve" text-anchor="middle" x="381.75" y="-124.5" font-family="Helvetica,sans-Serif" font-size="10.00">Utils/Filesystem/IFileReader.hpp</text>
</a>
</g>
</g>
<!-- Node4&#45;&gt;Node15 -->
<g id="edge16_Node000004_Node000015" class="edge">
<title>Node4&#45;&gt;Node15</title>
<g id="a_edge16_Node000004_Node000015"><a xlink:title=" ">
<path fill="none" stroke="#63b8ff" d="M1038.01,-183.72C1023.9,-182.44 1008.77,-181.12 994.75,-180 762.05,-161.43 702.57,-171.43 470.75,-144 462,-142.96 452.79,-141.66 443.76,-140.25"/>
<polygon fill="#63b8ff" stroke="#63b8ff" points="444.38,-136.81 433.95,-138.67 443.27,-143.72 444.38,-136.81"/>
</a>
</g>
</g>
<!-- Node16 -->
<g id="Node000016" class="node">
<title>Node16</title>
<g id="a_Node000016"><a xlink:href="IFileWriter_8hpp.html" target="_top" xlink:title=" ">
<polygon fill="white" stroke="#666666" points="284.38,-138 131.12,-138 131.12,-118 284.38,-118 284.38,-138"/>
<text xml:space="preserve" text-anchor="middle" x="207.75" y="-124.5" font-family="Helvetica,sans-Serif" font-size="10.00">Utils/Filesystem/IFileWriter.hpp</text>
</a>
</g>
</g>
<!-- Node4&#45;&gt;Node16 -->
<g id="edge22_Node000004_Node000016" class="edge">
<title>Node4&#45;&gt;Node16</title>
<g id="a_edge22_Node000004_Node000016"><a xlink:title=" ">
<path fill="none" stroke="#63b8ff" d="M1038.02,-183.55C1023.91,-182.27 1008.78,-181 994.75,-180 683.13,-157.85 603.17,-179.21 292.75,-144 284.26,-143.04 275.34,-141.76 266.59,-140.35"/>
<polygon fill="#63b8ff" stroke="#63b8ff" points="267.19,-136.9 256.75,-138.7 266.03,-143.81 267.19,-136.9"/>
</a>
</g>
</g>
<!-- Node17 -->
<g id="Node000017" class="node">
<title>Node17</title>
<g id="a_Node000017"><a xlink:href="IPathResolver_8hpp.html" target="_top" xlink:title=" ">
<polygon fill="white" stroke="#666666" points="1016.38,-138 845.12,-138 845.12,-118 1016.38,-118 1016.38,-138"/>
<text xml:space="preserve" text-anchor="middle" x="930.75" y="-124.5" font-family="Helvetica,sans-Serif" font-size="10.00">Utils/Filesystem/IPathResolver.hpp</text>
</a>
</g>
</g>
<!-- Node4&#45;&gt;Node17 -->
<g id="edge28_Node000004_Node000017" class="edge">
<title>Node4&#45;&gt;Node17</title>
<g id="a_edge28_Node000004_Node000017"><a xlink:title=" ">
<path fill="none" stroke="#63b8ff" d="M1068.28,-179.62C1041.09,-169.62 997.76,-153.67 967.02,-142.35"/>
<polygon fill="#63b8ff" stroke="#63b8ff" points="968.32,-139.1 957.73,-138.93 965.9,-145.67 968.32,-139.1"/>
</a>
</g>
</g>
<!-- Node18 -->
<g id="Node000018" class="node">
<title>Node18</title>
<g id="a_Node000018"><a xlink:href="ICustomStringsLoader_8hpp.html" target="_top" xlink:title=" ">
<polygon fill="white" stroke="#666666" points="1467.5,-144 1336,-144 1336,-112 1467.5,-112 1467.5,-144"/>
<text xml:space="preserve" text-anchor="start" x="1344" y="-130.5" font-family="Helvetica,sans-Serif" font-size="10.00">Utils/Json/ICustomStrings</text>
<text xml:space="preserve" text-anchor="middle" x="1401.75" y="-118.5" font-family="Helvetica,sans-Serif" font-size="10.00">Loader.hpp</text>
</a>
</g>
</g>
<!-- Node4&#45;&gt;Node18 -->
<g id="edge33_Node000004_Node000018" class="edge">
<title>Node4&#45;&gt;Node18</title>
<g id="a_edge33_Node000004_Node000018"><a xlink:title=" ">
<path fill="none" stroke="#63b8ff" d="M1143.31,-179.53C1188.1,-170.94 1256.14,-157.85 1324.53,-144.43"/>
<polygon fill="#63b8ff" stroke="#63b8ff" points="1324.88,-147.93 1334.02,-142.57 1323.53,-141.06 1324.88,-147.93"/>
</a>
</g>
</g>
<!-- Node20 -->
<g id="Node000020" class="node">
<title>Node20</title>
<g id="a_Node000020"><a xlink:href="IJsonSerializer_8hpp.html" target="_top" xlink:title=" ">
<polygon fill="white" stroke="#666666" points="1318,-138 1171.5,-138 1171.5,-118 1318,-118 1318,-138"/>
<text xml:space="preserve" text-anchor="middle" x="1244.75" y="-124.5" font-family="Helvetica,sans-Serif" font-size="10.00">Utils/Json/IJsonSerializer.hpp</text>
</a>
</g>
</g>
<!-- Node4&#45;&gt;Node20 -->
<g id="edge38_Node000004_Node000020" class="edge">
<title>Node4&#45;&gt;Node20</title>
<g id="a_edge38_Node000004_Node000020"><a xlink:title=" ">
<path fill="none" stroke="#63b8ff" d="M1117.34,-179.62C1142.39,-169.67 1182.2,-153.85 1210.65,-142.55"/>
<polygon fill="#63b8ff" stroke="#63b8ff" points="1211.91,-145.81 1219.92,-138.87 1209.33,-139.31 1211.91,-145.81"/>
</a>
</g>
</g>
<!-- Node21 -->
<g id="Node000021" class="node">
<title>Node21</title>
<g id="a_Node000021"><a xlink:href="ILogger_8hpp.html" target="_top" xlink:title=" ">
<polygon fill="white" stroke="#666666" points="1749,-76 1626.5,-76 1626.5,-56 1749,-56 1749,-76"/>
<text xml:space="preserve" text-anchor="middle" x="1687.75" y="-62.5" font-family="Helvetica,sans-Serif" font-size="10.00">Utils/Logger/ILogger.hpp</text>
</a>
</g>
</g>
<!-- Node4&#45;&gt;Node21 -->
<g id="edge43_Node000004_Node000021" class="edge">
<title>Node4&#45;&gt;Node21</title>
<g id="a_edge43_Node000004_Node000021"><a xlink:title=" ">
<path fill="none" stroke="#63b8ff" d="M1149.46,-188.29C1286.12,-186.04 1629.71,-177.12 1668.75,-144 1684.8,-130.38 1688.46,-105.57 1688.8,-87.78"/>
<polygon fill="#63b8ff" stroke="#63b8ff" points="1692.3,-87.79 1688.62,-77.85 1685.3,-87.92 1692.3,-87.79"/>
</a>
</g>
</g>
<!-- Node4&#45;&gt;Node23 -->
<g id="edge63_Node000004_Node000023" class="edge">
<title>Node4&#45;&gt;Node23</title>
<g id="a_edge63_Node000004_Node000023"><a xlink:title=" ">
<path fill="none" stroke="#63b8ff" d="M1149.26,-187.88C1323.87,-184.07 1851.8,-170.42 1876.75,-144 1905.49,-113.56 1890.08,-59.65 1878.59,-30.7"/>
<polygon fill="#63b8ff" stroke="#63b8ff" points="1881.89,-29.52 1874.78,-21.67 1875.44,-32.24 1881.89,-29.52"/>
</a>
</g>
</g>
<!-- Node25 -->
<g id="Node000025" class="node">
<title>Node25</title>
<g id="a_Node000025"><a xlink:href="LoggerFactory_8hpp.html" target="_top" xlink:title=" ">
<polygon fill="white" stroke="#666666" points="1867.62,-138 1715.88,-138 1715.88,-118 1867.62,-118 1867.62,-138"/>
<text xml:space="preserve" text-anchor="middle" x="1791.75" y="-124.5" font-family="Helvetica,sans-Serif" font-size="10.00">Utils/Logger/LoggerFactory.hpp</text>
</a>
</g>
</g>
<!-- Node4&#45;&gt;Node25 -->
<g id="edge49_Node000004_Node000025" class="edge">
<title>Node4&#45;&gt;Node25</title>
<g id="a_edge49_Node000004_Node000025"><a xlink:title=" ">
<path fill="none" stroke="#63b8ff" d="M1149.24,-186.59C1256.35,-181.56 1498.93,-168.36 1701.75,-144 1710.49,-142.95 1719.67,-141.65 1728.69,-140.26"/>
<polygon fill="#63b8ff" stroke="#63b8ff" points="1729.17,-143.73 1738.5,-138.69 1728.07,-136.81 1729.17,-143.73"/>
</a>
</g>
</g>
<!-- Node26 -->
<g id="Node000026" class="node">
<title>Node26</title>
<g id="a_Node000026"><a xlink:href="NullLogger_8hpp.html" target="_top" xlink:title=" ">
<polygon fill="white" stroke="#666666" points="1660.12,-138 1523.38,-138 1523.38,-118 1660.12,-118 1660.12,-138"/>
<text xml:space="preserve" text-anchor="middle" x="1591.75" y="-124.5" font-family="Helvetica,sans-Serif" font-size="10.00">Utils/Logger/NullLogger.hpp</text>
</a>
</g>
</g>
<!-- Node4&#45;&gt;Node26 -->
<g id="edge53_Node000004_Node000026" class="edge">
<title>Node4&#45;&gt;Node26</title>
<g id="a_edge53_Node000004_Node000026"><a xlink:title=" ">
<path fill="none" stroke="#63b8ff" d="M1149.43,-184.28C1229.38,-177.21 1381.25,-162.68 1509.75,-144 1516.98,-142.95 1524.54,-141.73 1532.03,-140.45"/>
<polygon fill="#63b8ff" stroke="#63b8ff" points="1532.55,-143.91 1541.79,-138.73 1531.34,-137.02 1532.55,-143.91"/>
</a>
</g>
</g>
<!-- Node27 -->
<g id="Node000027" class="node">
<title>Node27</title>
<g id="a_Node000027"><a xlink:href="IPlatformInfo_8hpp.html" target="_top" xlink:title=" ">
<polygon fill="white" stroke="#666666" points="1153.12,-144 1034.38,-144 1034.38,-112 1153.12,-112 1153.12,-144"/>
<text xml:space="preserve" text-anchor="start" x="1042.38" y="-130.5" font-family="Helvetica,sans-Serif" font-size="10.00">Utils/Platform/IPlatform</text>
<text xml:space="preserve" text-anchor="middle" x="1093.75" y="-118.5" font-family="Helvetica,sans-Serif" font-size="10.00">Info.hpp</text>
</a>
</g>
</g>
<!-- Node4&#45;&gt;Node27 -->
<g id="edge55_Node000004_Node000027" class="edge">
<title>Node4&#45;&gt;Node27</title>
<g id="a_edge55_Node000004_Node000027"><a xlink:title=" ">
<path fill="none" stroke="#63b8ff" d="M1093.75,-179.62C1093.75,-173.1 1093.75,-164.05 1093.75,-155.4"/>
<polygon fill="#63b8ff" stroke="#63b8ff" points="1097.25,-155.65 1093.75,-145.65 1090.25,-155.65 1097.25,-155.65"/>
</a>
</g>
</g>
<!-- Node28 -->
<g id="Node000028" class="node">
<title>Node28</title>
<g id="a_Node000028"><a xlink:href="IStringFormatter_8hpp.html" target="_top" xlink:title=" ">
<polygon fill="white" stroke="#666666" points="1570.25,-76 1413.25,-76 1413.25,-56 1570.25,-56 1570.25,-76"/>
<text xml:space="preserve" text-anchor="middle" x="1491.75" y="-62.5" font-family="Helvetica,sans-Serif" font-size="10.00">Utils/String/IStringFormatter.hpp</text>
</a>
</g>
</g>
<!-- Node4&#45;&gt;Node28 -->
<g id="edge60_Node000004_Node000028" class="edge">
<title>Node4&#45;&gt;Node28</title>
<g id="a_edge60_Node000004_Node000028"><a xlink:title=" ">
<path fill="none" stroke="#63b8ff" d="M1149.18,-186.07C1249.53,-180.24 1453.19,-165.85 1476.75,-144 1491.94,-129.92 1494.37,-105.39 1493.85,-87.8"/>
<polygon fill="#63b8ff" stroke="#63b8ff" points="1497.35,-87.72 1493.19,-77.98 1490.37,-88.19 1497.35,-87.72"/>
</a>
</g>
</g>
<!-- Node5&#45;&gt;Node6 -->
<g id="edge6_Node000005_Node000006" class="edge">
<title>Node5&#45;&gt;Node6</title>
<g id="a_edge6_Node000005_Node000006"><a xlink:title=" ">
<path fill="none" stroke="#63b8ff" d="M589.53,-117.62C622.97,-107.44 676.6,-91.11 713.86,-79.76"/>
<polygon fill="#63b8ff" stroke="#63b8ff" points="714.87,-83.11 723.41,-76.85 712.83,-76.41 714.87,-83.11"/>
</a>
</g>
</g>
<!-- Node7&#45;&gt;Node6 -->
<g id="edge14_Node000007_Node000006" class="edge">
<title>Node7&#45;&gt;Node6</title>
<g id="a_edge14_Node000007_Node000006"><a xlink:title=" ">
<path fill="none" stroke="#63b8ff" d="M759.46,-111.55C758.85,-104.26 758.12,-95.45 757.47,-87.6"/>
<polygon fill="#63b8ff" stroke="#63b8ff" points="760.98,-87.59 756.66,-77.92 754,-88.17 760.98,-87.59"/>
</a>
</g>
</g>
<!-- Node8 -->
<g id="Node000008" class="node">
<title>Node8</title>
<g id="a_Node000008"><a xlink:href="UtilsError_8hpp.html" target="_top" xlink:title=" ">
<polygon fill="white" stroke="#666666" points="1072.38,-76 973.12,-76 973.12,-56 1072.38,-56 1072.38,-76"/>
<text xml:space="preserve" text-anchor="middle" x="1022.75" y="-62.5" font-family="Helvetica,sans-Serif" font-size="10.00">Utils/UtilsError.hpp</text>
</a>
</g>
</g>
<!-- Node7&#45;&gt;Node8 -->
<g id="edge8_Node000007_Node000008" class="edge">
<title>Node7&#45;&gt;Node8</title>
<g id="a_edge8_Node000007_Node000008"><a xlink:title=" ">
<path fill="none" stroke="#63b8ff" d="M827.54,-111.7C871.89,-101.55 929.28,-88.41 970.33,-79"/>
<polygon fill="#63b8ff" stroke="#63b8ff" points="971.01,-82.44 979.98,-76.8 969.45,-75.62 971.01,-82.44"/>
</a>
</g>
</g>
<!-- Node14 -->
<g id="Node000014" class="node">
<title>Node14</title>
<g id="a_Node000014"><a xlink:title=" ">
<polygon fill="#e0e0e0" stroke="#999999" points="697.25,-76 654.25,-76 654.25,-56 697.25,-56 697.25,-76"/>
<text xml:space="preserve" text-anchor="middle" x="675.75" y="-62.5" font-family="Helvetica,sans-Serif" font-size="10.00">vector</text>
</a>
</g>
</g>
<!-- Node7&#45;&gt;Node14 -->
<g id="edge15_Node000007_Node000014" class="edge">
<title>Node7&#45;&gt;Node14</title>
<g id="a_edge15_Node000007_Node000014"><a xlink:title=" ">
<path fill="none" stroke="#63b8ff" d="M738.86,-111.55C726.44,-102.78 710.92,-91.83 698.38,-82.97"/>
<polygon fill="#63b8ff" stroke="#63b8ff" points="700.5,-80.19 690.31,-77.28 696.47,-85.91 700.5,-80.19"/>
</a>
</g>
</g>
<!-- Node9 -->
<g id="Node000009" class="node">
<title>Node9</title>
<g id="a_Node000009"><a xlink:title=" ">
<polygon fill="#e0e0e0" stroke="#999999" points="946.38,-20 901.12,-20 901.12,0 946.38,0 946.38,-20"/>
<text xml:space="preserve" text-anchor="middle" x="923.75" y="-6.5" font-family="Helvetica,sans-Serif" font-size="10.00">cstdint</text>
</a>
</g>
</g>
<!-- Node8&#45;&gt;Node9 -->
<g id="edge9_Node000008_Node000009" class="edge">
<title>Node8&#45;&gt;Node9</title>
<g id="a_edge9_Node000008_Node000009"><a xlink:title=" ">
<path fill="none" stroke="#63b8ff" d="M1005.51,-55.59C990.41,-47.36 968.22,-35.26 950.77,-25.74"/>
<polygon fill="#63b8ff" stroke="#63b8ff" points="952.91,-22.92 942.46,-21.2 949.56,-29.07 952.91,-22.92"/>
</a>
</g>
</g>
<!-- Node10 -->
<g id="Node000010" class="node">
<title>Node10</title>
<g id="a_Node000010"><a xlink:title=" ">
<polygon fill="#e0e0e0" stroke="#999999" points="1154.62,-20 1104.88,-20 1104.88,0 1154.62,0 1154.62,-20"/>
<text xml:space="preserve" text-anchor="middle" x="1129.75" y="-6.5" font-family="Helvetica,sans-Serif" font-size="10.00">optional</text>
</a>
</g>
</g>
<!-- Node8&#45;&gt;Node10 -->
<g id="edge10_Node000008_Node000010" class="edge">
<title>Node8&#45;&gt;Node10</title>
<g id="a_edge10_Node000008_Node000010"><a xlink:title=" ">
<path fill="none" stroke="#63b8ff" d="M1041.39,-55.59C1057.78,-47.32 1081.91,-35.14 1100.81,-25.6"/>
<polygon fill="#63b8ff" stroke="#63b8ff" points="1102.26,-28.79 1109.62,-21.16 1099.11,-22.54 1102.26,-28.79"/>
</a>
</g>
</g>
<!-- Node11 -->
<g id="Node000011" class="node">
<title>Node11</title>
<g id="a_Node000011"><a xlink:title=" ">
<polygon fill="#e0e0e0" stroke="#999999" points="1023.12,-20 964.38,-20 964.38,0 1023.12,0 1023.12,-20"/>
<text xml:space="preserve" text-anchor="middle" x="993.75" y="-6.5" font-family="Helvetica,sans-Serif" font-size="10.00">stdexcept</text>
</a>
</g>
</g>
<!-- Node8&#45;&gt;Node11 -->
<g id="edge11_Node000008_Node000011" class="edge">
<title>Node8&#45;&gt;Node11</title>
<g id="a_edge11_Node000008_Node000011"><a xlink:title=" ">
<path fill="none" stroke="#63b8ff" d="M1017.7,-55.59C1013.96,-48.63 1008.73,-38.89 1004.11,-30.29"/>
<polygon fill="#63b8ff" stroke="#63b8ff" points="1007.27,-28.79 999.46,-21.63 1001.11,-32.1 1007.27,-28.79"/>
</a>
</g>
</g>
<!-- Node12 -->
<g id="Node000012" class="node">
<title>Node12</title>
<g id="a_Node000012"><a xlink:title=" ">
<polygon fill="#e0e0e0" stroke="#999999" points="1212.75,-20 1172.75,-20 1172.75,0 1212.75,0 1212.75,-20"/>
<text xml:space="preserve" text-anchor="middle" x="1192.75" y="-6.5" font-family="Helvetica,sans-Serif" font-size="10.00">string</text>
</a>
</g>
</g>
<!-- Node8&#45;&gt;Node12 -->
<g id="edge12_Node000008_Node000012" class="edge">
<title>Node8&#45;&gt;Node12</title>
<g id="a_edge12_Node000008_Node000012"><a xlink:title=" ">
<path fill="none" stroke="#63b8ff" d="M1052.36,-55.59C1083.03,-45.85 1130.74,-30.7 1161.87,-20.81"/>
<polygon fill="#63b8ff" stroke="#63b8ff" points="1162.62,-24.24 1171.09,-17.88 1160.5,-17.57 1162.62,-24.24"/>
</a>
</g>
</g>
<!-- Node13 -->
<g id="Node000013" class="node">
<title>Node13</title>
<g id="a_Node000013"><a xlink:title=" ">
<polygon fill="#e0e0e0" stroke="#999999" points="1086.38,-20 1041.12,-20 1041.12,0 1086.38,0 1086.38,-20"/>
<text xml:space="preserve" text-anchor="middle" x="1063.75" y="-6.5" font-family="Helvetica,sans-Serif" font-size="10.00">variant</text>
</a>
</g>
</g>
<!-- Node8&#45;&gt;Node13 -->
<g id="edge13_Node000008_Node000013" class="edge">
<title>Node8&#45;&gt;Node13</title>
<g id="a_edge13_Node000008_Node000013"><a xlink:title=" ">
<path fill="none" stroke="#63b8ff" d="M1029.89,-55.59C1035.36,-48.39 1043.07,-38.23 1049.76,-29.43"/>
<polygon fill="#63b8ff" stroke="#63b8ff" points="1052.52,-31.58 1055.77,-21.5 1046.94,-27.35 1052.52,-31.58"/>
</a>
</g>
</g>
<!-- Node15&#45;&gt;Node6 -->
<g id="edge19_Node000015_Node000006" class="edge">
<title>Node15&#45;&gt;Node6</title>
<g id="a_edge19_Node000015_Node000006"><a xlink:title=" ">
<path fill="none" stroke="#63b8ff" d="M437.28,-117.51C448.36,-115.65 459.92,-113.74 470.75,-112 575.07,-95.22 601.52,-93.36 705.75,-76 708.36,-75.57 711.04,-75.11 713.74,-74.64"/>
<polygon fill="#63b8ff" stroke="#63b8ff" points="714.1,-78.13 723.34,-72.96 712.89,-71.24 714.1,-78.13"/>
</a>
</g>
</g>
<!-- Node15&#45;&gt;Node8 -->
<g id="edge17_Node000015_Node000008" class="edge">
<title>Node15&#45;&gt;Node8</title>
<g id="a_edge17_Node000015_Node000008"><a xlink:title=" ">
<path fill="none" stroke="#63b8ff" d="M433.41,-117.52C445.62,-115.5 458.62,-113.51 470.75,-112 648.29,-89.84 859.38,-76.12 961.44,-70.28"/>
<polygon fill="#63b8ff" stroke="#63b8ff" points="961.45,-73.78 971.24,-69.72 961.05,-66.79 961.45,-73.78"/>
</a>
</g>
</g>
<!-- Node15&#45;&gt;Node9 -->
<g id="edge18_Node000015_Node000009" class="edge">
<title>Node15&#45;&gt;Node9</title>
<g id="a_edge18_Node000015_Node000009"><a xlink:title=" ">
<path fill="none" stroke="#63b8ff" d="M404.94,-117.52C443.21,-102.26 522.25,-72.3 591.75,-56 698.99,-30.85 829.25,-18.28 889.78,-13.45"/>
<polygon fill="#63b8ff" stroke="#63b8ff" points="889.73,-16.96 899.43,-12.7 889.18,-9.98 889.73,-16.96"/>
</a>
</g>
</g>
<!-- Node15&#45;&gt;Node12 -->
<g id="edge20_Node000015_Node000012" class="edge">
<title>Node15&#45;&gt;Node12</title>
<g id="a_edge20_Node000015_Node000012"><a xlink:title=" ">
<path fill="none" stroke="#63b8ff" d="M416.93,-117.51C454.89,-107.27 517.1,-90.49 570.75,-76 603.64,-67.12 611.15,-61.65 644.75,-56 869.1,-18.27 934.38,-61.13 1161.04,-20.07"/>
<polygon fill="#63b8ff" stroke="#63b8ff" points="1161.62,-23.53 1170.81,-18.26 1160.34,-16.64 1161.62,-23.53"/>
</a>
</g>
</g>
<!-- Node15&#45;&gt;Node14 -->
<g id="edge21_Node000015_Node000014" class="edge">
<title>Node15&#45;&gt;Node14</title>
<g id="a_edge21_Node000015_Node000014"><a xlink:title=" ">
<path fill="none" stroke="#63b8ff" d="M428.01,-117.56C487.85,-105.35 590.58,-84.38 642.97,-73.69"/>
<polygon fill="#63b8ff" stroke="#63b8ff" points="643.36,-77.18 652.46,-71.75 641.96,-70.32 643.36,-77.18"/>
</a>
</g>
</g>
<!-- Node16&#45;&gt;Node6 -->
<g id="edge25_Node000016_Node000006" class="edge">
<title>Node16&#45;&gt;Node6</title>
<g id="a_edge25_Node000016_Node000006"><a xlink:title=" ">
<path fill="none" stroke="#63b8ff" d="M257.08,-117.54C268.74,-115.51 281.16,-113.52 292.75,-112 475.43,-87.97 523.11,-100.35 705.75,-76 708.37,-75.65 711.06,-75.26 713.77,-74.84"/>
<polygon fill="#63b8ff" stroke="#63b8ff" points="714.09,-78.34 723.39,-73.26 712.95,-71.43 714.09,-78.34"/>
</a>
</g>
</g>
<!-- Node16&#45;&gt;Node8 -->
<g id="edge23_Node000016_Node000008" class="edge">
<title>Node16&#45;&gt;Node8</title>
<g id="a_edge23_Node000016_Node000008"><a xlink:title=" ">
<path fill="none" stroke="#63b8ff" d="M255.71,-117.56C267.76,-115.46 280.7,-113.43 292.75,-112 421.63,-96.71 810.17,-77.14 961.49,-69.88"/>
<polygon fill="#63b8ff" stroke="#63b8ff" points="961.49,-73.39 971.32,-69.41 961.16,-66.39 961.49,-73.39"/>
</a>
</g>
</g>
<!-- Node16&#45;&gt;Node9 -->
<g id="edge24_Node000016_Node000009" class="edge">
<title>Node16&#45;&gt;Node9</title>
<g id="a_edge24_Node000016_Node000009"><a xlink:title=" ">
<path fill="none" stroke="#63b8ff" d="M227.22,-117.58C260.76,-101.83 331.95,-70.47 395.75,-56 578.32,-14.59 804.26,-10.58 889.27,-10.68"/>
<polygon fill="#63b8ff" stroke="#63b8ff" points="889.24,-14.18 899.25,-10.71 889.26,-7.18 889.24,-14.18"/>
</a>
</g>
</g>
<!-- Node16&#45;&gt;Node12 -->
<g id="edge26_Node000016_Node000012" class="edge">
<title>Node16&#45;&gt;Node12</title>
<g id="a_edge26_Node000016_Node000012"><a xlink:title=" ">
<path fill="none" stroke="#63b8ff" d="M246.51,-117.54C312.04,-101.96 449.07,-71.12 566.75,-56 826.79,-22.6 900.26,-66.51 1161.34,-20"/>
<polygon fill="#63b8ff" stroke="#63b8ff" points="1161.6,-23.51 1170.82,-18.28 1160.35,-16.62 1161.6,-23.51"/>
</a>
</g>
</g>
<!-- Node16&#45;&gt;Node14 -->
<g id="edge27_Node000016_Node000014" class="edge">
<title>Node16&#45;&gt;Node14</title>
<g id="a_edge27_Node000016_Node000014"><a xlink:title=" ">
<path fill="none" stroke="#63b8ff" d="M258.46,-117.56C269.73,-115.6 281.63,-113.63 292.75,-112 421.83,-93.04 576.32,-76.87 642.75,-70.23"/>
<polygon fill="#63b8ff" stroke="#63b8ff" points="642.99,-73.72 652.59,-69.25 642.29,-66.76 642.99,-73.72"/>
</a>
</g>
</g>
<!-- Node17&#45;&gt;Node6 -->
<g id="edge30_Node000017_Node000006" class="edge">
<title>Node17&#45;&gt;Node6</title>
<g id="a_edge30_Node000017_Node000006"><a xlink:title=" ">
<path fill="none" stroke="#63b8ff" d="M903.41,-117.62C873.96,-107.53 826.88,-91.39 793.82,-80.05"/>
<polygon fill="#63b8ff" stroke="#63b8ff" points="795.22,-76.83 784.62,-76.9 792.95,-83.45 795.22,-76.83"/>
</a>
</g>
</g>
<!-- Node17&#45;&gt;Node8 -->
<g id="edge29_Node000017_Node000008" class="edge">
<title>Node17&#45;&gt;Node8</title>
<g id="a_edge29_Node000017_Node000008"><a xlink:title=" ">
<path fill="none" stroke="#63b8ff" d="M945.12,-117.62C959.57,-108.2 982.09,-93.52 999.16,-82.39"/>
<polygon fill="#63b8ff" stroke="#63b8ff" points="1000.74,-85.53 1007.21,-77.14 996.92,-79.67 1000.74,-85.53"/>
</a>
</g>
</g>
<!-- Node17&#45;&gt;Node12 -->
<g id="edge31_Node000017_Node000012" class="edge">
<title>Node17&#45;&gt;Node12</title>
<g id="a_edge31_Node000017_Node000012"><a xlink:title=" ">
<path fill="none" stroke="#63b8ff" d="M965.1,-117.58C996.21,-108.54 1042.98,-93.68 1081.75,-76 1113.33,-61.61 1147.47,-40.74 1169.42,-26.56"/>
<polygon fill="#63b8ff" stroke="#63b8ff" points="1171.16,-29.61 1177.61,-21.2 1167.33,-23.75 1171.16,-29.61"/>
</a>
</g>
</g>
<!-- Node17&#45;&gt;Node14 -->
<g id="edge32_Node000017_Node000014" class="edge">
<title>Node17&#45;&gt;Node14</title>
<g id="a_edge32_Node000017_Node000014"><a xlink:title=" ">
<path fill="none" stroke="#63b8ff" d="M890.63,-117.56C840.33,-105.72 755.08,-85.66 708.51,-74.71"/>
<polygon fill="#63b8ff" stroke="#63b8ff" points="709.56,-71.36 699.02,-72.48 707.95,-78.17 709.56,-71.36"/>
</a>
</g>
</g>
<!-- Node18&#45;&gt;Node8 -->
<g id="edge34_Node000018_Node000008" class="edge">
<title>Node18&#45;&gt;Node8</title>
<g id="a_edge34_Node000018_Node000008"><a xlink:title=" ">
<path fill="none" stroke="#63b8ff" d="M1335.53,-113.57C1332.57,-113.03 1329.63,-112.5 1326.75,-112 1242.75,-97.39 1145.16,-83.49 1083.68,-75.1"/>
<polygon fill="#63b8ff" stroke="#63b8ff" points="1084.52,-71.68 1074.13,-73.8 1083.57,-78.62 1084.52,-71.68"/>
</a>
</g>
</g>
<!-- Node18&#45;&gt;Node10 -->
<g id="edge36_Node000018_Node000010" class="edge">
<title>Node18&#45;&gt;Node10</title>
<g id="a_edge36_Node000018_Node000010"><a xlink:title=" ">
<path fill="none" stroke="#63b8ff" d="M1390.17,-111.71C1376.91,-95.33 1353.66,-69.84 1327.75,-56 1265.01,-22.5 1238.77,-36.1 1166.05,-20.35"/>
<polygon fill="#63b8ff" stroke="#63b8ff" points="1166.98,-16.97 1156.45,-18.14 1165.41,-23.79 1166.98,-16.97"/>
</a>
</g>
</g>
<!-- Node18&#45;&gt;Node12 -->
<g id="edge37_Node000018_Node000012" class="edge">
<title>Node18&#45;&gt;Node12</title>
<g id="a_edge37_Node000018_Node000012"><a xlink:title=" ">
<path fill="none" stroke="#63b8ff" d="M1396.85,-111.59C1390.89,-95.35 1379.27,-70.21 1360.75,-56 1320.5,-25.12 1260.72,-15.39 1224.38,-12.35"/>
<polygon fill="#63b8ff" stroke="#63b8ff" points="1224.75,-8.87 1214.53,-11.66 1224.26,-15.85 1224.75,-8.87"/>
</a>
</g>
</g>
<!-- Node19 -->
<g id="Node000019" class="node">
<title>Node19</title>
<g id="a_Node000019"><a xlink:title=" ">
<polygon fill="#e0e0e0" stroke="#999999" points="1318.62,-76 1220.88,-76 1220.88,-56 1318.62,-56 1318.62,-76"/>
<text xml:space="preserve" text-anchor="middle" x="1269.75" y="-62.5" font-family="Helvetica,sans-Serif" font-size="10.00">nlohmann/json.hpp</text>
</a>
</g>
</g>
<!-- Node18&#45;&gt;Node19 -->
<g id="edge35_Node000018_Node000019" class="edge">
<title>Node18&#45;&gt;Node19</title>
<g id="a_edge35_Node000018_Node000019"><a xlink:title=" ">
<path fill="none" stroke="#63b8ff" d="M1367.76,-111.55C1347.13,-102.17 1321.01,-90.3 1300.91,-81.17"/>
<polygon fill="#63b8ff" stroke="#63b8ff" points="1302.38,-77.99 1291.83,-77.03 1299.48,-84.36 1302.38,-77.99"/>
</a>
</g>
</g>
<!-- Node20&#45;&gt;Node6 -->
<g id="edge40_Node000020_Node000006" class="edge">
<title>Node20&#45;&gt;Node6</title>
<g id="a_edge40_Node000020_Node000006"><a xlink:title=" ">
<path fill="none" stroke="#63b8ff" d="M1195.69,-117.56C1184.55,-115.58 1172.76,-113.6 1161.75,-112 1029.35,-92.72 871.6,-77.42 797.77,-70.7"/>
<polygon fill="#63b8ff" stroke="#63b8ff" points="798.44,-67.25 788.16,-69.83 797.81,-74.22 798.44,-67.25"/>
</a>
</g>
</g>
<!-- Node20&#45;&gt;Node8 -->
<g id="edge39_Node000020_Node000008" class="edge">
<title>Node20&#45;&gt;Node8</title>
<g id="a_edge39_Node000020_Node000008"><a xlink:title=" ">
<path fill="none" stroke="#63b8ff" d="M1210.06,-117.62C1171.97,-107.33 1110.64,-90.75 1068.6,-79.39"/>
<polygon fill="#63b8ff" stroke="#63b8ff" points="1069.59,-76.03 1059.02,-76.8 1067.76,-82.79 1069.59,-76.03"/>
</a>
</g>
</g>
<!-- Node20&#45;&gt;Node12 -->
<g id="edge42_Node000020_Node000012" class="edge">
<title>Node20&#45;&gt;Node12</title>
<g id="a_edge42_Node000020_Node000012"><a xlink:title=" ">
<path fill="none" stroke="#63b8ff" d="M1237.55,-117.7C1230.19,-107.83 1218.86,-91.53 1211.75,-76 1205.15,-61.58 1200.23,-44.31 1197.05,-31.2"/>
<polygon fill="#63b8ff" stroke="#63b8ff" points="1200.5,-30.58 1194.88,-21.6 1193.67,-32.13 1200.5,-30.58"/>
</a>
</g>
</g>
<!-- Node20&#45;&gt;Node19 -->
<g id="edge41_Node000020_Node000019" class="edge">
<title>Node20&#45;&gt;Node19</title>
<g id="a_edge41_Node000020_Node000019"><a xlink:title=" ">
<path fill="none" stroke="#63b8ff" d="M1248.66,-117.62C1252.09,-109.39 1257.2,-97.13 1261.53,-86.74"/>
<polygon fill="#63b8ff" stroke="#63b8ff" points="1264.76,-88.09 1265.37,-77.51 1258.29,-85.39 1264.76,-88.09"/>
</a>
</g>
</g>
<!-- Node21&#45;&gt;Node9 -->
<g id="edge45_Node000021_Node000009" class="edge">
<title>Node21&#45;&gt;Node9</title>
<g id="a_edge45_Node000021_Node000009"><a xlink:title=" ">
<path fill="none" stroke="#63b8ff" d="M1626.09,-59.59C1610.94,-58.33 1594.76,-57.06 1579.75,-56 1306.3,-36.72 1231.69,-65.11 957.77,-19.94"/>
<polygon fill="#63b8ff" stroke="#63b8ff" points="958.62,-16.54 948.18,-18.34 957.47,-23.44 958.62,-16.54"/>
</a>
</g>
</g>
<!-- Node21&#45;&gt;Node12 -->
<g id="edge48_Node000021_Node000012" class="edge">
<title>Node21&#45;&gt;Node12</title>
<g id="a_edge48_Node000021_Node000012"><a xlink:title=" ">
<path fill="none" stroke="#63b8ff" d="M1626.36,-57.57C1621.76,-57.03 1617.18,-56.5 1612.75,-56 1467.41,-39.49 1293.58,-21.39 1223.89,-14.2"/>
<polygon fill="#63b8ff" stroke="#63b8ff" points="1224.68,-10.76 1214.37,-13.22 1223.96,-17.73 1224.68,-10.76"/>
</a>
</g>
</g>
<!-- Node22 -->
<g id="Node000022" class="node">
<title>Node22</title>
<g id="a_Node000022"><a xlink:title=" ">
<polygon fill="#e0e0e0" stroke="#999999" points="1680.88,-20 1620.62,-20 1620.62,0 1680.88,0 1680.88,-20"/>
<text xml:space="preserve" text-anchor="middle" x="1650.75" y="-6.5" font-family="Helvetica,sans-Serif" font-size="10.00">fmt/core.h</text>
</a>
</g>
</g>
<!-- Node21&#45;&gt;Node22 -->
<g id="edge44_Node000021_Node000022" class="edge">
<title>Node21&#45;&gt;Node22</title>
<g id="a_edge44_Node000021_Node000022"><a xlink:title=" ">
<path fill="none" stroke="#63b8ff" d="M1681.31,-55.59C1676.42,-48.47 1669.56,-38.45 1663.57,-29.72"/>
<polygon fill="#63b8ff" stroke="#63b8ff" points="1666.52,-27.82 1657.98,-21.55 1660.74,-31.77 1666.52,-27.82"/>
</a>
</g>
</g>
<!-- Node21&#45;&gt;Node23 -->
<g id="edge46_Node000021_Node000023" class="edge">
<title>Node21&#45;&gt;Node23</title>
<g id="a_edge46_Node000021_Node000023"><a xlink:title=" ">
<path fill="none" stroke="#63b8ff" d="M1719.45,-55.59C1751.11,-46.2 1799.73,-31.77 1833.05,-21.89"/>
<polygon fill="#63b8ff" stroke="#63b8ff" points="1833.67,-25.36 1842.26,-19.16 1831.68,-18.65 1833.67,-25.36"/>
</a>
</g>
</g>
<!-- Node24 -->
<g id="Node000024" class="node">
<title>Node24</title>
<g id="a_Node000024"><a xlink:title=" ">
<polygon fill="#e0e0e0" stroke="#999999" points="1750.38,-20 1699.12,-20 1699.12,0 1750.38,0 1750.38,-20"/>
<text xml:space="preserve" text-anchor="middle" x="1724.75" y="-6.5" font-family="Helvetica,sans-Serif" font-size="10.00">sstream</text>
</a>
</g>
</g>
<!-- Node21&#45;&gt;Node24 -->
<g id="edge47_Node000021_Node000024" class="edge">
<title>Node21&#45;&gt;Node24</title>
<g id="a_edge47_Node000021_Node000024"><a xlink:title=" ">
<path fill="none" stroke="#63b8ff" d="M1694.19,-55.59C1699.08,-48.47 1705.94,-38.45 1711.93,-29.72"/>
<polygon fill="#63b8ff" stroke="#63b8ff" points="1714.76,-31.77 1717.52,-21.55 1708.98,-27.82 1714.76,-31.77"/>
</a>
</g>
</g>
<!-- Node25&#45;&gt;Node12 -->
<g id="edge52_Node000025_Node000012" class="edge">
<title>Node25&#45;&gt;Node12</title>
<g id="a_edge52_Node000025_Node000012"><a xlink:title=" ">
<path fill="none" stroke="#63b8ff" d="M1751.24,-117.57C1715.47,-108.67 1662.25,-94.02 1617.75,-76 1600.06,-68.84 1597.98,-61.64 1579.75,-56 1452.31,-16.56 1291.54,-11.18 1224.43,-10.79"/>
<polygon fill="#63b8ff" stroke="#63b8ff" points="1224.54,-7.29 1214.53,-10.77 1224.52,-14.29 1224.54,-7.29"/>
</a>
</g>
</g>
<!-- Node25&#45;&gt;Node21 -->
<g id="edge50_Node000025_Node000021" class="edge">
<title>Node25&#45;&gt;Node21</title>
<g id="a_edge50_Node000025_Node000021"><a xlink:title=" ">
<path fill="none" stroke="#63b8ff" d="M1775.5,-117.62C1758.94,-108.07 1733,-93.11 1713.61,-81.92"/>
<polygon fill="#63b8ff" stroke="#63b8ff" points="1715.61,-79.03 1705.2,-77.07 1712.11,-85.09 1715.61,-79.03"/>
</a>
</g>
</g>
<!-- Node25&#45;&gt;Node23 -->
<g id="edge51_Node000025_Node000023" class="edge">
<title>Node25&#45;&gt;Node23</title>
<g id="a_edge51_Node000025_Node000023"><a xlink:title=" ">
<path fill="none" stroke="#63b8ff" d="M1798.13,-117.51C1810.99,-98.38 1840.24,-54.89 1857.11,-29.8"/>
<polygon fill="#63b8ff" stroke="#63b8ff" points="1859.98,-31.81 1862.65,-21.56 1854.17,-27.9 1859.98,-31.81"/>
</a>
</g>
</g>
<!-- Node26&#45;&gt;Node21 -->
<g id="edge54_Node000026_Node000021" class="edge">
<title>Node26&#45;&gt;Node21</title>
<g id="a_edge54_Node000026_Node000021"><a xlink:title=" ">
<path fill="none" stroke="#63b8ff" d="M1606.75,-117.62C1621.83,-108.2 1645.32,-93.52 1663.13,-82.39"/>
<polygon fill="#63b8ff" stroke="#63b8ff" points="1664.95,-85.38 1671.57,-77.11 1661.24,-79.44 1664.95,-85.38"/>
</a>
</g>
</g>
<!-- Node27&#45;&gt;Node6 -->
<g id="edge58_Node000027_Node000006" class="edge">
<title>Node27&#45;&gt;Node6</title>
<g id="a_edge58_Node000027_Node000006"><a xlink:title=" ">
<path fill="none" stroke="#63b8ff" d="M1034.08,-113.65C1031.27,-113.08 1028.48,-112.53 1025.75,-112 945.5,-96.47 851.21,-81.5 797.97,-73.34"/>
<polygon fill="#63b8ff" stroke="#63b8ff" points="798.53,-69.89 788.11,-71.84 797.47,-76.81 798.53,-69.89"/>
</a>
</g>
</g>
<!-- Node27&#45;&gt;Node8 -->
<g id="edge56_Node000027_Node000008" class="edge">
<title>Node27&#45;&gt;Node8</title>
<g id="a_edge56_Node000027_Node000008"><a xlink:title=" ">
<path fill="none" stroke="#63b8ff" d="M1075.47,-111.55C1065.4,-103.04 1052.9,-92.48 1042.59,-83.77"/>
<polygon fill="#63b8ff" stroke="#63b8ff" points="1044.94,-81.17 1035.04,-77.38 1040.42,-86.51 1044.94,-81.17"/>
</a>
</g>
</g>
<!-- Node27&#45;&gt;Node9 -->
<g id="edge57_Node000027_Node000009" class="edge">
<title>Node27&#45;&gt;Node9</title>
<g id="a_edge57_Node000027_Node000009"><a xlink:title=" ">
<path fill="none" stroke="#63b8ff" d="M1034.11,-112.52C1010.35,-104.61 983.93,-92.88 963.75,-76 949.15,-63.79 938.35,-44.83 931.67,-30.53"/>
<polygon fill="#63b8ff" stroke="#63b8ff" points="935.01,-29.44 927.81,-21.66 928.59,-32.23 935.01,-29.44"/>
</a>
</g>
</g>
<!-- Node27&#45;&gt;Node12 -->
<g id="edge59_Node000027_Node000012" class="edge">
<title>Node27&#45;&gt;Node12</title>
<g id="a_edge59_Node000027_Node000012"><a xlink:title=" ">
<path fill="none" stroke="#63b8ff" d="M1106.69,-111.84C1124.85,-90.56 1157.85,-51.9 1177.28,-29.13"/>
<polygon fill="#63b8ff" stroke="#63b8ff" points="1179.88,-31.47 1183.71,-21.59 1174.56,-26.92 1179.88,-31.47"/>
</a>
</g>
</g>
<!-- Node28&#45;&gt;Node12 -->
<g id="edge61_Node000028_Node000012" class="edge">
<title>Node28&#45;&gt;Node12</title>
<g id="a_edge61_Node000028_Node000012"><a xlink:title=" ">
<path fill="none" stroke="#63b8ff" d="M1439.33,-55.53C1377.15,-44.3 1275.5,-25.95 1224.32,-16.7"/>
<polygon fill="#63b8ff" stroke="#63b8ff" points="1224.98,-13.26 1214.51,-14.93 1223.73,-20.15 1224.98,-13.26"/>
</a>
</g>
</g>
</g>
</svg>

<g id="navigator" transform="translate(0 0)" fill="#404254">
  <rect fill="#f2f5e9" fill-opacity="0.5" stroke="#606060" stroke-width=".5" x="0" y="0" width="60" height="60"/>
  <use id="zoomplus" xlink:href="#zoomPlus" x="17" y="9" onmousedown="handleZoom(evt,'in')"/>
  <use id="zoomminus" xlink:href="#zoomMin" x="42" y="9" onmousedown="handleZoom(evt,'out')"/>
  <use id="reset" xlink:href="#resetDef" x="30" y="36" onmousedown="handleReset()"/>
   <use id="arrowup" xlink:href="#arrowUp" x="0" y="0" onmousedown="handlePan(0,-1)"/>
  <use id="arrowright" xlink:href="#arrowRight" x="0" y="0" onmousedown="handlePan(1,0)"/>
  <use id="arrowdown" xlink:href="#arrowDown" x="0" y="0" onmousedown="handlePan(0,1)"/>
  <use id="arrowleft" xlink:href="#arrowLeft" x="0" y="0" onmousedown="handlePan(-1,0)"/>
</g>
<svg viewBox="0 0 15 15" width="100%" height="30px" preserveAspectRatio="xMaxYMin meet">
 <g id="arrow_out" transform="scale(0.3 0.3)">
  <a xlink:href="Application_8cpp__incl_org.svg" target="_base">
   <rect id="button" ry="5" rx="5" y="6" x="6" height="38" width="38"
        fill="#f2f5e9" fill-opacity="0.5" stroke="#606060" stroke-width="1.0"/>
   <path id="arrow"
     d="M 11.500037,31.436501 C 11.940474,20.09759 22.043105,11.32322 32.158766,21.979434 L 37.068811,17.246167 C 37.068811,17.246167 37.088388,32 37.088388,32 L 22.160133,31.978069 C 22.160133,31.978069 26.997745,27.140456 26.997745,27.140456 C 18.528582,18.264221 13.291696,25.230495 11.500037,31.436501 z"
     style="fill:#404040;"/>
  </a>
 </g>
</svg>

<style type='text/css'>
<![CDATA[
[data-mouse-over-selected='false'] { opacity: 0.7; }
[data-mouse-over-selected='true']  { opacity: 1.0; }
]]>
</style>
<script type="application/ecmascript"><![CDATA[
document.addEventListener('DOMContentLoaded', (event) => {
  highlightEdges();
  highlightAdjacentNodes();
});
]]></script>
</svg>
