<?xml version="1.0" encoding="UTF-8" standalone="no"?>
<!DOCTYPE svg PUBLIC "-//W3C//DTD SVG 1.1//EN"
 "http://www.w3.org/Graphics/SVG/1.1/DTD/svg11.dtd">
<!-- Generated by graphviz version 13.1.2 (20250808.2320)
 -->
<!-- Title: dotnamecpp::utils::UtilsFactory::createJsonSerializer Pages: 1 -->
<svg width="631pt" height="172pt"
 viewBox="0.00 0.00 631.00 172.00" xmlns="http://www.w3.org/2000/svg" xmlns:xlink="http://www.w3.org/1999/xlink">
<g id="graph0" class="graph" transform="scale(1 1) rotate(0) translate(4 168.22)">
<title>dotnamecpp::utils::UtilsFactory::createJsonSerializer</title>
<!-- Node1 -->
<g id="Node000001" class="node">
<title>Node1</title>
<g id="a_Node000001"><a xlink:title=" ">
<polygon fill="#999999" stroke="#666666" points="622.75,-86.22 459,-86.22 459,-54.22 622.75,-54.22 622.75,-86.22"/>
<text xml:space="preserve" text-anchor="start" x="467" y="-72.72" font-family="Helvetica,sans-Serif" font-size="10.00">dotnamecpp::utils::</text>
<text xml:space="preserve" text-anchor="middle" x="540.88" y="-60.72" font-family="Helvetica,sans-Serif" font-size="10.00">UtilsFactory::createJsonSerializer</text>
</a>
</g>
</g>
<!-- Node2 -->
<g id="Node000002" class="node">
<title>Node2</title>
<g id="a_Node000002"><a xlink:href="classdotnamecpp_1_1utils_1_1UtilsFactory.html#aeaf4149909c078d06a163612d5e9cb6e" target="_top" xlink:title="Create basic utilities context with default logger.">
<polygon fill="white" stroke="#666666" points="423,-164.22 261.5,-164.22 261.5,-132.22 423,-132.22 423,-164.22"/>
<text xml:space="preserve" text-anchor="start" x="269.5" y="-150.72" font-family="Helvetica,sans-Serif" font-size="10.00">dotnamecpp::utils::</text>
<text xml:space="preserve" text-anchor="middle" x="342.25" y="-138.72" font-family="Helvetica,sans-Serif" font-size="10.00">UtilsFactory::createBasicContext</text>
</a>
</g>
</g>
<!-- Node1&#45;&gt;Node2 -->
<g id="edge1_Node000001_Node000002" class="edge">
<title>Node1&#45;&gt;Node2</title>
<g id="a_edge1_Node000001_Node000002"><a xlink:title=" ">
<path fill="none" stroke="#63b8ff" d="M496.34,-91.49C474.58,-101.72 447.68,-113.79 423,-123.22 415.27,-126.17 407.03,-129.04 398.89,-131.73"/>
<polygon fill="#63b8ff" stroke="#63b8ff" points="497.68,-94.73 505.21,-87.28 494.68,-88.4 497.68,-94.73"/>
</a>
</g>
</g>
<!-- Node3 -->
<g id="Node000003" class="node">
<title>Node3</title>
<g id="a_Node000003"><a xlink:href="classdotnamecpp_1_1utils_1_1UtilsFactory.html#a392047dd9934efdef6b1333296e5b70a" target="_top" xlink:title="Create minimal context without app&#45;specific components.">
<polygon fill="white" stroke="#666666" points="421.12,-114.22 263.38,-114.22 263.38,-82.22 421.12,-82.22 421.12,-114.22"/>
<text xml:space="preserve" text-anchor="start" x="271.38" y="-100.72" font-family="Helvetica,sans-Serif" font-size="10.00">dotnamecpp::utils::</text>
<text xml:space="preserve" text-anchor="middle" x="342.25" y="-88.72" font-family="Helvetica,sans-Serif" font-size="10.00">UtilsFactory::createCoreContext</text>
</a>
</g>
</g>
<!-- Node1&#45;&gt;Node3 -->
<g id="edge2_Node000001_Node000003" class="edge">
<title>Node1&#45;&gt;Node3</title>
<g id="a_edge2_Node000001_Node000003"><a xlink:title=" ">
<path fill="none" stroke="#63b8ff" d="M447.37,-83.39C438.66,-84.63 429.88,-85.88 421.33,-87.1"/>
<polygon fill="#63b8ff" stroke="#63b8ff" points="447.86,-86.86 457.27,-81.98 446.87,-79.93 447.86,-86.86"/>
</a>
</g>
</g>
<!-- Node4 -->
<g id="Node000004" class="node">
<title>Node4</title>
<g id="a_Node000004"><a xlink:href="classdotnamecpp_1_1utils_1_1UtilsFactory.html#aa0d9f669087b9bc6a0859324fe2afe50" target="_top" xlink:title=" ">
<polygon fill="white" stroke="#666666" points="410.62,-64.22 273.88,-64.22 273.88,-20.22 410.62,-20.22 410.62,-64.22"/>
<text xml:space="preserve" text-anchor="start" x="281.88" y="-50.72" font-family="Helvetica,sans-Serif" font-size="10.00">dotnamecpp::utils::</text>
<text xml:space="preserve" text-anchor="start" x="281.88" y="-38.72" font-family="Helvetica,sans-Serif" font-size="10.00">UtilsFactory::createCustom</text>
<text xml:space="preserve" text-anchor="middle" x="342.25" y="-26.72" font-family="Helvetica,sans-Serif" font-size="10.00">StringsLoader</text>
</a>
</g>
</g>
<!-- Node1&#45;&gt;Node4 -->
<g id="edge3_Node000001_Node000004" class="edge">
<title>Node1&#45;&gt;Node4</title>
<g id="a_edge3_Node000001_Node000004"><a xlink:title=" ">
<path fill="none" stroke="#63b8ff" d="M447.53,-57.07C435.23,-55.32 422.81,-53.55 411.03,-51.87"/>
<polygon fill="#63b8ff" stroke="#63b8ff" points="446.87,-60.51 457.27,-58.45 447.86,-53.58 446.87,-60.51"/>
</a>
</g>
</g>
<!-- Node5 -->
<g id="Node000005" class="node">
<title>Node5</title>
<g id="a_Node000005"><a xlink:href="classdotnamecpp_1_1utils_1_1UtilsFactory.html#a98799ec5918fdefe4c195ae9c88335bc" target="_top" xlink:title="Create full application context with all components.">
<polygon fill="white" stroke="#666666" points="225.5,-33.22 73,-33.22 73,-1.22 225.5,-1.22 225.5,-33.22"/>
<text xml:space="preserve" text-anchor="start" x="81" y="-19.72" font-family="Helvetica,sans-Serif" font-size="10.00">dotnamecpp::utils::</text>
<text xml:space="preserve" text-anchor="middle" x="149.25" y="-7.72" font-family="Helvetica,sans-Serif" font-size="10.00">UtilsFactory::createFullContext</text>
</a>
</g>
</g>
<!-- Node1&#45;&gt;Node5 -->
<g id="edge6_Node000001_Node000005" class="edge">
<title>Node1&#45;&gt;Node5</title>
<g id="a_edge6_Node000001_Node000005"><a xlink:title=" ">
<path fill="none" stroke="#63b8ff" d="M505.94,-47.72C483.45,-34.2 452.72,-18.29 423,-11.22 357.69,4.33 281.08,0.82 225.71,-5.41"/>
<polygon fill="#63b8ff" stroke="#63b8ff" points="504.02,-50.65 514.37,-52.93 507.7,-44.7 504.02,-50.65"/>
</a>
</g>
</g>
<!-- Node4&#45;&gt;Node5 -->
<g id="edge4_Node000004_Node000005" class="edge">
<title>Node4&#45;&gt;Node5</title>
<g id="a_edge4_Node000004_Node000005"><a xlink:title=" ">
<path fill="none" stroke="#63b8ff" d="M262.25,-31.88C250.23,-30.3 237.85,-28.68 225.9,-27.12"/>
<polygon fill="#63b8ff" stroke="#63b8ff" points="261.77,-35.34 272.14,-33.17 262.68,-28.4 261.77,-35.34"/>
</a>
</g>
</g>
<!-- Node6 -->
<g id="Node000006" class="node">
<title>Node6</title>
<g id="a_Node000006"><a xlink:href="Application_8cpp.html#a3c04138a5bfe5d72780bb7e82a18e627" target="_top" xlink:title=" ">
<polygon fill="white" stroke="#666666" points="37,-27.22 0,-27.22 0,-7.22 37,-7.22 37,-27.22"/>
<text xml:space="preserve" text-anchor="middle" x="18.5" y="-13.72" font-family="Helvetica,sans-Serif" font-size="10.00">main</text>
</a>
</g>
</g>
<!-- Node5&#45;&gt;Node6 -->
<g id="edge5_Node000005_Node000006" class="edge">
<title>Node5&#45;&gt;Node6</title>
<g id="a_edge5_Node000005_Node000006"><a xlink:title=" ">
<path fill="none" stroke="#63b8ff" d="M61.14,-17.22C52.32,-17.22 44.14,-17.22 37.42,-17.22"/>
<polygon fill="#63b8ff" stroke="#63b8ff" points="61.1,-20.72 71.1,-17.22 61.1,-13.72 61.1,-20.72"/>
</a>
</g>
</g>
</g>
</svg>
