<?xml version="1.0" encoding="UTF-8" standalone="no"?>
<!DOCTYPE svg PUBLIC "-//W3C//DTD SVG 1.1//EN"
 "http://www.w3.org/Graphics/SVG/1.1/DTD/svg11.dtd">
<!-- Generated by graphviz version 13.1.2 (20250808.2320)
 -->
<!-- Title: dotnamecpp::utils::UtilsFactory::createFileWriter Pages: 1 -->
<svg width="810pt" height="216pt"
 viewBox="0.00 0.00 810.00 216.00" xmlns="http://www.w3.org/2000/svg" xmlns:xlink="http://www.w3.org/1999/xlink">
<g id="graph0" class="graph" transform="scale(1 1) rotate(0) translate(4 212.46)">
<title>dotnamecpp::utils::UtilsFactory::createFileWriter</title>
<!-- Node1 -->
<g id="Node000001" class="node">
<title>Node1</title>
<g id="a_Node000001"><a xlink:title=" ">
<polygon fill="#999999" stroke="#666666" points="802.25,-80.46 658.75,-80.46 658.75,-48.46 802.25,-48.46 802.25,-80.46"/>
<text xml:space="preserve" text-anchor="start" x="666.75" y="-66.96" font-family="Helvetica,sans-Serif" font-size="10.00">dotnamecpp::utils::</text>
<text xml:space="preserve" text-anchor="middle" x="730.5" y="-54.96" font-family="Helvetica,sans-Serif" font-size="10.00">UtilsFactory::createFileWriter</text>
</a>
</g>
</g>
<!-- Node2 -->
<g id="Node000002" class="node">
<title>Node2</title>
<g id="a_Node000002"><a xlink:href="classdotnamecpp_1_1utils_1_1UtilsFactory.html#aeaf4149909c078d06a163612d5e9cb6e" target="_top" xlink:title="Create basic utilities context with default logger.">
<polygon fill="white" stroke="#666666" points="423,-208.46 261.5,-208.46 261.5,-176.46 423,-176.46 423,-208.46"/>
<text xml:space="preserve" text-anchor="start" x="269.5" y="-194.96" font-family="Helvetica,sans-Serif" font-size="10.00">dotnamecpp::utils::</text>
<text xml:space="preserve" text-anchor="middle" x="342.25" y="-182.96" font-family="Helvetica,sans-Serif" font-size="10.00">UtilsFactory::createBasicContext</text>
</a>
</g>
</g>
<!-- Node1&#45;&gt;Node2 -->
<g id="edge1_Node000001_Node000002" class="edge">
<title>Node1&#45;&gt;Node2</title>
<g id="a_edge1_Node000001_Node000002"><a xlink:title=" ">
<path fill="none" stroke="#63b8ff" d="M684.94,-85.66C666,-94.25 643.53,-103.91 622.75,-111.46 550.93,-137.55 466.41,-161.08 409.27,-175.97"/>
<polygon fill="#63b8ff" stroke="#63b8ff" points="686.35,-88.86 693.98,-81.51 683.43,-82.5 686.35,-88.86"/>
</a>
</g>
</g>
<!-- Node3 -->
<g id="Node000003" class="node">
<title>Node3</title>
<g id="a_Node000003"><a xlink:href="classdotnamecpp_1_1utils_1_1UtilsFactory.html#a392047dd9934efdef6b1333296e5b70a" target="_top" xlink:title="Create minimal context without app&#45;specific components.">
<polygon fill="white" stroke="#666666" points="421.12,-58.46 263.38,-58.46 263.38,-26.46 421.12,-26.46 421.12,-58.46"/>
<text xml:space="preserve" text-anchor="start" x="271.38" y="-44.96" font-family="Helvetica,sans-Serif" font-size="10.00">dotnamecpp::utils::</text>
<text xml:space="preserve" text-anchor="middle" x="342.25" y="-32.96" font-family="Helvetica,sans-Serif" font-size="10.00">UtilsFactory::createCoreContext</text>
</a>
</g>
</g>
<!-- Node1&#45;&gt;Node3 -->
<g id="edge2_Node000001_Node000003" class="edge">
<title>Node1&#45;&gt;Node3</title>
<g id="a_edge2_Node000001_Node000003"><a xlink:title=" ">
<path fill="none" stroke="#63b8ff" d="M647.36,-59.78C580.68,-55.98 487.27,-50.66 421.62,-46.92"/>
<polygon fill="#63b8ff" stroke="#63b8ff" points="646.96,-63.26 657.14,-60.34 647.36,-56.27 646.96,-63.26"/>
</a>
</g>
</g>
<!-- Node4 -->
<g id="Node000004" class="node">
<title>Node4</title>
<g id="a_Node000004"><a xlink:href="classdotnamecpp_1_1utils_1_1UtilsFactory.html#a98799ec5918fdefe4c195ae9c88335bc" target="_top" xlink:title="Create full application context with all components.">
<polygon fill="white" stroke="#666666" points="225.5,-102.46 73,-102.46 73,-70.46 225.5,-70.46 225.5,-102.46"/>
<text xml:space="preserve" text-anchor="start" x="81" y="-88.96" font-family="Helvetica,sans-Serif" font-size="10.00">dotnamecpp::utils::</text>
<text xml:space="preserve" text-anchor="middle" x="149.25" y="-76.96" font-family="Helvetica,sans-Serif" font-size="10.00">UtilsFactory::createFullContext</text>
</a>
</g>
</g>
<!-- Node1&#45;&gt;Node4 -->
<g id="edge3_Node000001_Node000004" class="edge">
<title>Node1&#45;&gt;Node4</title>
<g id="a_edge3_Node000001_Node000004"><a xlink:title=" ">
<path fill="none" stroke="#63b8ff" d="M670.49,-44.7C580.5,-17.63 404.36,23.25 261.5,-17.46 225.65,-27.67 190.08,-53.12 169.14,-70.09"/>
<polygon fill="#63b8ff" stroke="#63b8ff" points="669.26,-47.98 679.85,-47.56 671.31,-41.29 669.26,-47.98"/>
</a>
</g>
</g>
<!-- Node6 -->
<g id="Node000006" class="node">
<title>Node6</title>
<g id="a_Node000006"><a xlink:href="classdotnamecpp_1_1utils_1_1UtilsFactory.html#a9fcea5e7ff94872b54a8c01eb2d9c965" target="_top" xlink:title=" ">
<polygon fill="white" stroke="#666666" points="622.75,-102.46 459,-102.46 459,-70.46 622.75,-70.46 622.75,-102.46"/>
<text xml:space="preserve" text-anchor="start" x="467" y="-88.96" font-family="Helvetica,sans-Serif" font-size="10.00">dotnamecpp::utils::</text>
<text xml:space="preserve" text-anchor="middle" x="540.88" y="-76.96" font-family="Helvetica,sans-Serif" font-size="10.00">UtilsFactory::createJsonSerializer</text>
</a>
</g>
</g>
<!-- Node1&#45;&gt;Node6 -->
<g id="edge5_Node000001_Node000006" class="edge">
<title>Node1&#45;&gt;Node6</title>
<g id="a_edge5_Node000001_Node000006"><a xlink:title=" ">
<path fill="none" stroke="#63b8ff" d="M647.12,-74.12C639.14,-75.05 631.05,-76 623.08,-76.94"/>
<polygon fill="#63b8ff" stroke="#63b8ff" points="647.27,-77.62 656.8,-72.98 646.46,-70.67 647.27,-77.62"/>
</a>
</g>
</g>
<!-- Node5 -->
<g id="Node000005" class="node">
<title>Node5</title>
<g id="a_Node000005"><a xlink:href="Application_8cpp.html#a3c04138a5bfe5d72780bb7e82a18e627" target="_top" xlink:title=" ">
<polygon fill="white" stroke="#666666" points="37,-96.46 0,-96.46 0,-76.46 37,-76.46 37,-96.46"/>
<text xml:space="preserve" text-anchor="middle" x="18.5" y="-82.96" font-family="Helvetica,sans-Serif" font-size="10.00">main</text>
</a>
</g>
</g>
<!-- Node4&#45;&gt;Node5 -->
<g id="edge4_Node000004_Node000005" class="edge">
<title>Node4&#45;&gt;Node5</title>
<g id="a_edge4_Node000004_Node000005"><a xlink:title=" ">
<path fill="none" stroke="#63b8ff" d="M61.14,-86.46C52.32,-86.46 44.14,-86.46 37.42,-86.46"/>
<polygon fill="#63b8ff" stroke="#63b8ff" points="61.1,-89.96 71.1,-86.46 61.1,-82.96 61.1,-89.96"/>
</a>
</g>
</g>
<!-- Node6&#45;&gt;Node2 -->
<g id="edge6_Node000006_Node000002" class="edge">
<title>Node6&#45;&gt;Node2</title>
<g id="a_edge6_Node000006_Node000002"><a xlink:title=" ">
<path fill="none" stroke="#63b8ff" d="M511.57,-109.74C488.79,-127.54 455.36,-151.63 423,-167.46 416.61,-170.58 409.75,-173.43 402.83,-175.98"/>
<polygon fill="#63b8ff" stroke="#63b8ff" points="513.5,-112.67 519.16,-103.72 509.15,-107.19 513.5,-112.67"/>
</a>
</g>
</g>
<!-- Node6&#45;&gt;Node3 -->
<g id="edge7_Node000006_Node000003" class="edge">
<title>Node6&#45;&gt;Node3</title>
<g id="a_edge7_Node000006_Node000003"><a xlink:title=" ">
<path fill="none" stroke="#63b8ff" d="M455.28,-67.53C442.54,-64.68 429.48,-61.75 416.98,-58.96"/>
<polygon fill="#63b8ff" stroke="#63b8ff" points="454.38,-70.91 464.9,-69.68 455.91,-64.08 454.38,-70.91"/>
</a>
</g>
</g>
<!-- Node6&#45;&gt;Node4 -->
<g id="edge10_Node000006_Node000004" class="edge">
<title>Node6&#45;&gt;Node4</title>
<g id="a_edge10_Node000006_Node000004"><a xlink:title=" ">
<path fill="none" stroke="#63b8ff" d="M447.17,-86.46C379.52,-86.46 288.98,-86.46 225.73,-86.46"/>
<polygon fill="#63b8ff" stroke="#63b8ff" points="447.16,-89.96 457.16,-86.46 447.16,-82.96 447.16,-89.96"/>
</a>
</g>
</g>
<!-- Node7 -->
<g id="Node000007" class="node">
<title>Node7</title>
<g id="a_Node000007"><a xlink:href="classdotnamecpp_1_1utils_1_1UtilsFactory.html#aa0d9f669087b9bc6a0859324fe2afe50" target="_top" xlink:title=" ">
<polygon fill="white" stroke="#666666" points="410.62,-158.46 273.88,-158.46 273.88,-114.46 410.62,-114.46 410.62,-158.46"/>
<text xml:space="preserve" text-anchor="start" x="281.88" y="-144.96" font-family="Helvetica,sans-Serif" font-size="10.00">dotnamecpp::utils::</text>
<text xml:space="preserve" text-anchor="start" x="281.88" y="-132.96" font-family="Helvetica,sans-Serif" font-size="10.00">UtilsFactory::createCustom</text>
<text xml:space="preserve" text-anchor="middle" x="342.25" y="-120.96" font-family="Helvetica,sans-Serif" font-size="10.00">StringsLoader</text>
</a>
</g>
</g>
<!-- Node6&#45;&gt;Node7 -->
<g id="edge8_Node000006_Node000007" class="edge">
<title>Node6&#45;&gt;Node7</title>
<g id="a_edge8_Node000006_Node000007"><a xlink:title=" ">
<path fill="none" stroke="#63b8ff" d="M464.42,-105.64C446.83,-110.12 428.21,-114.85 410.98,-119.23"/>
<polygon fill="#63b8ff" stroke="#63b8ff" points="464.92,-109.13 473.75,-103.27 463.2,-102.34 464.92,-109.13"/>
</a>
</g>
</g>
<!-- Node7&#45;&gt;Node4 -->
<g id="edge9_Node000007_Node000004" class="edge">
<title>Node7&#45;&gt;Node4</title>
<g id="a_edge9_Node000007_Node000004"><a xlink:title=" ">
<path fill="none" stroke="#63b8ff" d="M262.85,-115.93C246.24,-111.59 228.92,-107.05 212.98,-102.88"/>
<polygon fill="#63b8ff" stroke="#63b8ff" points="261.62,-119.23 272.18,-118.38 263.39,-112.46 261.62,-119.23"/>
</a>
</g>
</g>
</g>
</svg>
