<?xml version="1.0" encoding="UTF-8" standalone="no"?>
<!DOCTYPE svg PUBLIC "-//W3C//DTD SVG 1.1//EN"
 "http://www.w3.org/Graphics/SVG/1.1/DTD/svg11.dtd">
<!-- Generated by graphviz version 13.1.2 (20250808.2320)
 -->
<!-- Title: dotnamecpp::utils::UtilsFactory::createFileReader Pages: 1 -->
<svg width="816pt" height="217pt"
 viewBox="0.00 0.00 816.00 217.00" xmlns="http://www.w3.org/2000/svg" xmlns:xlink="http://www.w3.org/1999/xlink">
<g id="graph0" class="graph" transform="scale(1 1) rotate(0) translate(4 212.6)">
<title>dotnamecpp::utils::UtilsFactory::createFileReader</title>
<!-- Node1 -->
<g id="Node000001" class="node">
<title>Node1</title>
<g id="a_Node000001"><a xlink:title=" ">
<polygon fill="#999999" stroke="#666666" points="808.25,-80.6 658.75,-80.6 658.75,-48.6 808.25,-48.6 808.25,-80.6"/>
<text xml:space="preserve" text-anchor="start" x="666.75" y="-67.1" font-family="Helvetica,sans-Serif" font-size="10.00">dotnamecpp::utils::</text>
<text xml:space="preserve" text-anchor="middle" x="733.5" y="-55.1" font-family="Helvetica,sans-Serif" font-size="10.00">UtilsFactory::createFileReader</text>
</a>
</g>
</g>
<!-- Node2 -->
<g id="Node000002" class="node">
<title>Node2</title>
<g id="a_Node000002"><a xlink:href="classdotnamecpp_1_1utils_1_1UtilsFactory.html#aeaf4149909c078d06a163612d5e9cb6e" target="_top" xlink:title="Create basic utilities context with default logger.">
<polygon fill="white" stroke="#666666" points="423,-208.6 261.5,-208.6 261.5,-176.6 423,-176.6 423,-208.6"/>
<text xml:space="preserve" text-anchor="start" x="269.5" y="-195.1" font-family="Helvetica,sans-Serif" font-size="10.00">dotnamecpp::utils::</text>
<text xml:space="preserve" text-anchor="middle" x="342.25" y="-183.1" font-family="Helvetica,sans-Serif" font-size="10.00">UtilsFactory::createBasicContext</text>
</a>
</g>
</g>
<!-- Node1&#45;&gt;Node2 -->
<g id="edge1_Node000001_Node000002" class="edge">
<title>Node1&#45;&gt;Node2</title>
<g id="a_edge1_Node000001_Node000002"><a xlink:title=" ">
<path fill="none" stroke="#63b8ff" d="M686.91,-85.61C667.37,-94.23 644.16,-103.95 622.75,-111.6 550.44,-137.45 465.46,-161.16 408.35,-176.16"/>
<polygon fill="#63b8ff" stroke="#63b8ff" points="688.26,-88.84 695.97,-81.58 685.41,-82.45 688.26,-88.84"/>
</a>
</g>
</g>
<!-- Node3 -->
<g id="Node000003" class="node">
<title>Node3</title>
<g id="a_Node000003"><a xlink:href="classdotnamecpp_1_1utils_1_1UtilsFactory.html#a392047dd9934efdef6b1333296e5b70a" target="_top" xlink:title="Create minimal context without app&#45;specific components.">
<polygon fill="white" stroke="#666666" points="421.12,-58.6 263.38,-58.6 263.38,-26.6 421.12,-26.6 421.12,-58.6"/>
<text xml:space="preserve" text-anchor="start" x="271.38" y="-45.1" font-family="Helvetica,sans-Serif" font-size="10.00">dotnamecpp::utils::</text>
<text xml:space="preserve" text-anchor="middle" x="342.25" y="-33.1" font-family="Helvetica,sans-Serif" font-size="10.00">UtilsFactory::createCoreContext</text>
</a>
</g>
</g>
<!-- Node1&#45;&gt;Node3 -->
<g id="edge2_Node000001_Node000003" class="edge">
<title>Node1&#45;&gt;Node3</title>
<g id="a_edge2_Node000001_Node000003"><a xlink:title=" ">
<path fill="none" stroke="#63b8ff" d="M646.96,-59.77C579.69,-55.97 486.74,-50.71 421.44,-47.02"/>
<polygon fill="#63b8ff" stroke="#63b8ff" points="646.68,-63.26 656.86,-60.33 647.07,-56.27 646.68,-63.26"/>
</a>
</g>
</g>
<!-- Node4 -->
<g id="Node000004" class="node">
<title>Node4</title>
<g id="a_Node000004"><a xlink:href="classdotnamecpp_1_1utils_1_1UtilsFactory.html#a98799ec5918fdefe4c195ae9c88335bc" target="_top" xlink:title="Create full application context with all components.">
<polygon fill="white" stroke="#666666" points="225.5,-102.6 73,-102.6 73,-70.6 225.5,-70.6 225.5,-102.6"/>
<text xml:space="preserve" text-anchor="start" x="81" y="-89.1" font-family="Helvetica,sans-Serif" font-size="10.00">dotnamecpp::utils::</text>
<text xml:space="preserve" text-anchor="middle" x="149.25" y="-77.1" font-family="Helvetica,sans-Serif" font-size="10.00">UtilsFactory::createFullContext</text>
</a>
</g>
</g>
<!-- Node1&#45;&gt;Node4 -->
<g id="edge3_Node000001_Node000004" class="edge">
<title>Node1&#45;&gt;Node4</title>
<g id="a_edge3_Node000001_Node000004"><a xlink:title=" ">
<path fill="none" stroke="#63b8ff" d="M673.47,-44.89C583.01,-17.73 405.46,23.42 261.5,-17.6 225.65,-27.82 190.08,-53.26 169.14,-70.23"/>
<polygon fill="#63b8ff" stroke="#63b8ff" points="672.29,-48.19 682.88,-47.76 674.34,-41.49 672.29,-48.19"/>
</a>
</g>
</g>
<!-- Node6 -->
<g id="Node000006" class="node">
<title>Node6</title>
<g id="a_Node000006"><a xlink:href="classdotnamecpp_1_1utils_1_1UtilsFactory.html#a9fcea5e7ff94872b54a8c01eb2d9c965" target="_top" xlink:title=" ">
<polygon fill="white" stroke="#666666" points="622.75,-102.6 459,-102.6 459,-70.6 622.75,-70.6 622.75,-102.6"/>
<text xml:space="preserve" text-anchor="start" x="467" y="-89.1" font-family="Helvetica,sans-Serif" font-size="10.00">dotnamecpp::utils::</text>
<text xml:space="preserve" text-anchor="middle" x="540.88" y="-77.1" font-family="Helvetica,sans-Serif" font-size="10.00">UtilsFactory::createJsonSerializer</text>
</a>
</g>
</g>
<!-- Node1&#45;&gt;Node6 -->
<g id="edge5_Node000001_Node000006" class="edge">
<title>Node1&#45;&gt;Node6</title>
<g id="a_edge5_Node000001_Node000006"><a xlink:title=" ">
<path fill="none" stroke="#63b8ff" d="M646.82,-74.49C638.96,-75.4 631,-76.32 623.18,-77.22"/>
<polygon fill="#63b8ff" stroke="#63b8ff" points="647.22,-77.97 656.75,-73.35 646.41,-71.02 647.22,-77.97"/>
</a>
</g>
</g>
<!-- Node5 -->
<g id="Node000005" class="node">
<title>Node5</title>
<g id="a_Node000005"><a xlink:href="Application_8cpp.html#a3c04138a5bfe5d72780bb7e82a18e627" target="_top" xlink:title=" ">
<polygon fill="white" stroke="#666666" points="37,-96.6 0,-96.6 0,-76.6 37,-76.6 37,-96.6"/>
<text xml:space="preserve" text-anchor="middle" x="18.5" y="-83.1" font-family="Helvetica,sans-Serif" font-size="10.00">main</text>
</a>
</g>
</g>
<!-- Node4&#45;&gt;Node5 -->
<g id="edge4_Node000004_Node000005" class="edge">
<title>Node4&#45;&gt;Node5</title>
<g id="a_edge4_Node000004_Node000005"><a xlink:title=" ">
<path fill="none" stroke="#63b8ff" d="M61.14,-86.6C52.32,-86.6 44.14,-86.6 37.42,-86.6"/>
<polygon fill="#63b8ff" stroke="#63b8ff" points="61.1,-90.1 71.1,-86.6 61.1,-83.1 61.1,-90.1"/>
</a>
</g>
</g>
<!-- Node6&#45;&gt;Node2 -->
<g id="edge6_Node000006_Node000002" class="edge">
<title>Node6&#45;&gt;Node2</title>
<g id="a_edge6_Node000006_Node000002"><a xlink:title=" ">
<path fill="none" stroke="#63b8ff" d="M511.57,-109.88C488.79,-127.68 455.36,-151.78 423,-167.6 416.61,-170.73 409.75,-173.57 402.83,-176.13"/>
<polygon fill="#63b8ff" stroke="#63b8ff" points="513.5,-112.82 519.16,-103.86 509.15,-107.33 513.5,-112.82"/>
</a>
</g>
</g>
<!-- Node6&#45;&gt;Node3 -->
<g id="edge7_Node000006_Node000003" class="edge">
<title>Node6&#45;&gt;Node3</title>
<g id="a_edge7_Node000006_Node000003"><a xlink:title=" ">
<path fill="none" stroke="#63b8ff" d="M455.28,-67.67C442.54,-64.82 429.48,-61.9 416.98,-59.1"/>
<polygon fill="#63b8ff" stroke="#63b8ff" points="454.38,-71.06 464.9,-69.83 455.91,-64.23 454.38,-71.06"/>
</a>
</g>
</g>
<!-- Node6&#45;&gt;Node4 -->
<g id="edge10_Node000006_Node000004" class="edge">
<title>Node6&#45;&gt;Node4</title>
<g id="a_edge10_Node000006_Node000004"><a xlink:title=" ">
<path fill="none" stroke="#63b8ff" d="M447.17,-86.6C379.52,-86.6 288.98,-86.6 225.73,-86.6"/>
<polygon fill="#63b8ff" stroke="#63b8ff" points="447.16,-90.1 457.16,-86.6 447.16,-83.1 447.16,-90.1"/>
</a>
</g>
</g>
<!-- Node7 -->
<g id="Node000007" class="node">
<title>Node7</title>
<g id="a_Node000007"><a xlink:href="classdotnamecpp_1_1utils_1_1UtilsFactory.html#aa0d9f669087b9bc6a0859324fe2afe50" target="_top" xlink:title=" ">
<polygon fill="white" stroke="#666666" points="410.62,-158.6 273.88,-158.6 273.88,-114.6 410.62,-114.6 410.62,-158.6"/>
<text xml:space="preserve" text-anchor="start" x="281.88" y="-145.1" font-family="Helvetica,sans-Serif" font-size="10.00">dotnamecpp::utils::</text>
<text xml:space="preserve" text-anchor="start" x="281.88" y="-133.1" font-family="Helvetica,sans-Serif" font-size="10.00">UtilsFactory::createCustom</text>
<text xml:space="preserve" text-anchor="middle" x="342.25" y="-121.1" font-family="Helvetica,sans-Serif" font-size="10.00">StringsLoader</text>
</a>
</g>
</g>
<!-- Node6&#45;&gt;Node7 -->
<g id="edge8_Node000006_Node000007" class="edge">
<title>Node6&#45;&gt;Node7</title>
<g id="a_edge8_Node000006_Node000007"><a xlink:title=" ">
<path fill="none" stroke="#63b8ff" d="M464.42,-105.79C446.83,-110.26 428.21,-115 410.98,-119.38"/>
<polygon fill="#63b8ff" stroke="#63b8ff" points="464.92,-109.27 473.75,-103.42 463.2,-102.49 464.92,-109.27"/>
</a>
</g>
</g>
<!-- Node7&#45;&gt;Node4 -->
<g id="edge9_Node000007_Node000004" class="edge">
<title>Node7&#45;&gt;Node4</title>
<g id="a_edge9_Node000007_Node000004"><a xlink:title=" ">
<path fill="none" stroke="#63b8ff" d="M262.85,-116.08C246.24,-111.73 228.92,-107.2 212.98,-103.02"/>
<polygon fill="#63b8ff" stroke="#63b8ff" points="261.62,-119.37 272.18,-118.52 263.39,-112.6 261.62,-119.37"/>
</a>
</g>
</g>
</g>
</svg>
