<?xml version="1.0" encoding="UTF-8" standalone="no"?>
<!DOCTYPE svg PUBLIC "-//W3C//DTD SVG 1.1//EN"
 "http://www.w3.org/Graphics/SVG/1.1/DTD/svg11.dtd">
<!-- Generated by graphviz version 13.1.2 (20250808.2320)
 -->
<!-- Title: dotnamecpp::assets::AssetManager::create Pages: 1 -->
<svg width="916pt" height="109pt"
 viewBox="0.00 0.00 916.00 109.00" xmlns="http://www.w3.org/2000/svg" xmlns:xlink="http://www.w3.org/1999/xlink">
<g id="graph0" class="graph" transform="scale(1 1) rotate(0) translate(4 105)">
<title>dotnamecpp::assets::AssetManager::create</title>
<!-- Node1 -->
<g id="Node000001" class="node">
<title>Node1</title>
<g id="a_Node000001"><a xlink:title="Create a new Asset Manager instance.">
<polygon fill="#999999" stroke="#666666" points="907.5,-48 789.5,-48 789.5,-16 907.5,-16 907.5,-48"/>
<text xml:space="preserve" text-anchor="start" x="797.5" y="-34.5" font-family="Helvetica,sans-Serif" font-size="10.00">dotnamecpp::assets</text>
<text xml:space="preserve" text-anchor="middle" x="848.5" y="-22.5" font-family="Helvetica,sans-Serif" font-size="10.00">::AssetManager::create</text>
</a>
</g>
</g>
<!-- Node2 -->
<g id="Node000002" class="node">
<title>Node2</title>
<g id="a_Node000002"><a xlink:href="classdotnamecpp_1_1assets_1_1AssetManagerFactory.html#ac8586007318eb5a7692241afdaed9ba9" target="_top" xlink:title="Create a Default object.">
<polygon fill="white" stroke="#666666" points="753.5,-54 635.5,-54 635.5,-10 753.5,-10 753.5,-54"/>
<text xml:space="preserve" text-anchor="start" x="643.5" y="-40.5" font-family="Helvetica,sans-Serif" font-size="10.00">dotnamecpp::assets</text>
<text xml:space="preserve" text-anchor="start" x="643.5" y="-28.5" font-family="Helvetica,sans-Serif" font-size="10.00">::AssetManagerFactory</text>
<text xml:space="preserve" text-anchor="middle" x="694.5" y="-16.5" font-family="Helvetica,sans-Serif" font-size="10.00">::createDefault</text>
</a>
</g>
</g>
<!-- Node1&#45;&gt;Node2 -->
<g id="edge1_Node000001_Node000002" class="edge">
<title>Node1&#45;&gt;Node2</title>
<g id="a_edge1_Node000001_Node000002"><a xlink:title=" ">
<path fill="none" stroke="#63b8ff" d="M777.93,-32C769.9,-32 761.78,-32 753.93,-32"/>
<polygon fill="#63b8ff" stroke="#63b8ff" points="777.65,-35.5 787.65,-32 777.65,-28.5 777.65,-35.5"/>
</a>
</g>
</g>
<!-- Node3 -->
<g id="Node000003" class="node">
<title>Node3</title>
<g id="a_Node000003"><a xlink:href="classdotnamecpp_1_1utils_1_1UtilsFactory.html#adb1debe875686643fe487a625750400f" target="_top" xlink:title=" ">
<polygon fill="white" stroke="#666666" points="599.5,-70 434.25,-70 434.25,-38 599.5,-38 599.5,-70"/>
<text xml:space="preserve" text-anchor="start" x="442.25" y="-56.5" font-family="Helvetica,sans-Serif" font-size="10.00">dotnamecpp::utils::</text>
<text xml:space="preserve" text-anchor="middle" x="516.88" y="-44.5" font-family="Helvetica,sans-Serif" font-size="10.00">UtilsFactory::createAssetManager</text>
</a>
</g>
</g>
<!-- Node2&#45;&gt;Node3 -->
<g id="edge2_Node000002_Node000003" class="edge">
<title>Node2&#45;&gt;Node3</title>
<g id="a_edge2_Node000002_Node000003"><a xlink:title=" ">
<path fill="none" stroke="#63b8ff" d="M623.72,-40.74C615.88,-41.72 607.85,-42.73 599.88,-43.73"/>
<polygon fill="#63b8ff" stroke="#63b8ff" points="624.03,-44.23 633.52,-39.51 623.16,-37.28 624.03,-44.23"/>
</a>
</g>
</g>
<!-- Node7 -->
<g id="Node000007" class="node">
<title>Node7</title>
<g id="a_Node000007"><a xlink:href="AssetManagerTest_8cpp.html#a351b0b825a033c19c191b803ef3ed412" target="_top" xlink:title=" ">
<polygon fill="white" stroke="#666666" points="543.25,-20 490.5,-20 490.5,0 543.25,0 543.25,-20"/>
<text xml:space="preserve" text-anchor="middle" x="516.88" y="-6.5" font-family="Helvetica,sans-Serif" font-size="10.00">TEST_F</text>
</a>
</g>
</g>
<!-- Node2&#45;&gt;Node7 -->
<g id="edge7_Node000002_Node000007" class="edge">
<title>Node2&#45;&gt;Node7</title>
<g id="a_edge7_Node000002_Node000007"><a xlink:title=" ">
<path fill="none" stroke="#63b8ff" d="M623.95,-23.29C595.72,-19.75 564.86,-15.89 543.74,-13.24"/>
<polygon fill="#63b8ff" stroke="#63b8ff" points="623.16,-26.72 633.52,-24.49 624.03,-19.77 623.16,-26.72"/>
</a>
</g>
</g>
<!-- Node4 -->
<g id="Node000004" class="node">
<title>Node4</title>
<g id="a_Node000004"><a xlink:href="classdotnamecpp_1_1utils_1_1UtilsFactory.html#aa0d9f669087b9bc6a0859324fe2afe50" target="_top" xlink:title=" ">
<polygon fill="white" stroke="#666666" points="398.25,-101 261.5,-101 261.5,-57 398.25,-57 398.25,-101"/>
<text xml:space="preserve" text-anchor="start" x="269.5" y="-87.5" font-family="Helvetica,sans-Serif" font-size="10.00">dotnamecpp::utils::</text>
<text xml:space="preserve" text-anchor="start" x="269.5" y="-75.5" font-family="Helvetica,sans-Serif" font-size="10.00">UtilsFactory::createCustom</text>
<text xml:space="preserve" text-anchor="middle" x="329.88" y="-63.5" font-family="Helvetica,sans-Serif" font-size="10.00">StringsLoader</text>
</a>
</g>
</g>
<!-- Node3&#45;&gt;Node4 -->
<g id="edge3_Node000003_Node000004" class="edge">
<title>Node3&#45;&gt;Node4</title>
<g id="a_edge3_Node000003_Node000004"><a xlink:title=" ">
<path fill="none" stroke="#63b8ff" d="M422.55,-66.61C414.49,-67.7 406.43,-68.79 398.63,-69.84"/>
<polygon fill="#63b8ff" stroke="#63b8ff" points="422.98,-70.08 432.42,-65.28 422.04,-63.15 422.98,-70.08"/>
</a>
</g>
</g>
<!-- Node5 -->
<g id="Node000005" class="node">
<title>Node5</title>
<g id="a_Node000005"><a xlink:href="classdotnamecpp_1_1utils_1_1UtilsFactory.html#a98799ec5918fdefe4c195ae9c88335bc" target="_top" xlink:title="Create full application context with all components.">
<polygon fill="white" stroke="#666666" points="225.5,-70 73,-70 73,-38 225.5,-38 225.5,-70"/>
<text xml:space="preserve" text-anchor="start" x="81" y="-56.5" font-family="Helvetica,sans-Serif" font-size="10.00">dotnamecpp::utils::</text>
<text xml:space="preserve" text-anchor="middle" x="149.25" y="-44.5" font-family="Helvetica,sans-Serif" font-size="10.00">UtilsFactory::createFullContext</text>
</a>
</g>
</g>
<!-- Node3&#45;&gt;Node5 -->
<g id="edge6_Node000003_Node000005" class="edge">
<title>Node3&#45;&gt;Node5</title>
<g id="a_edge6_Node000003_Node000005"><a xlink:title=" ">
<path fill="none" stroke="#63b8ff" d="M422.69,-48.81C414.43,-48.48 406.19,-48.2 398.25,-48 337.49,-46.45 322.26,-46.36 261.5,-48 250,-48.31 237.83,-48.8 225.93,-49.37"/>
<polygon fill="#63b8ff" stroke="#63b8ff" points="422.3,-52.3 432.44,-49.22 422.6,-45.3 422.3,-52.3"/>
</a>
</g>
</g>
<!-- Node4&#45;&gt;Node5 -->
<g id="edge4_Node000004_Node000005" class="edge">
<title>Node4&#45;&gt;Node5</title>
<g id="a_edge4_Node000004_Node000005"><a xlink:title=" ">
<path fill="none" stroke="#63b8ff" d="M249.86,-67.94C241.85,-66.82 233.73,-65.68 225.75,-64.57"/>
<polygon fill="#63b8ff" stroke="#63b8ff" points="249.2,-71.38 259.59,-69.3 250.17,-64.45 249.2,-71.38"/>
</a>
</g>
</g>
<!-- Node6 -->
<g id="Node000006" class="node">
<title>Node6</title>
<g id="a_Node000006"><a xlink:href="Application_8cpp.html#a3c04138a5bfe5d72780bb7e82a18e627" target="_top" xlink:title=" ">
<polygon fill="white" stroke="#666666" points="37,-64 0,-64 0,-44 37,-44 37,-64"/>
<text xml:space="preserve" text-anchor="middle" x="18.5" y="-50.5" font-family="Helvetica,sans-Serif" font-size="10.00">main</text>
</a>
</g>
</g>
<!-- Node5&#45;&gt;Node6 -->
<g id="edge5_Node000005_Node000006" class="edge">
<title>Node5&#45;&gt;Node6</title>
<g id="a_edge5_Node000005_Node000006"><a xlink:title=" ">
<path fill="none" stroke="#63b8ff" d="M61.14,-54C52.32,-54 44.14,-54 37.42,-54"/>
<polygon fill="#63b8ff" stroke="#63b8ff" points="61.1,-57.5 71.1,-54 61.1,-50.5 61.1,-57.5"/>
</a>
</g>
</g>
</g>
</svg>
