<?xml version="1.0" encoding="UTF-8" standalone="no"?>
<!DOCTYPE svg PUBLIC "-//W3C//DTD SVG 1.1//EN"
 "http://www.w3.org/Graphics/SVG/1.1/DTD/svg11.dtd">
<!-- Generated by graphviz version 13.1.2 (20250808.2320)
 -->
<!-- Title: dotnamecpp::utils::UtilsFactory::createFullContext Pages: 1 -->
<!--zoomable 473 -->

<svg id="main" version="1.1" xmlns="http://www.w3.org/2000/svg" xmlns:xlink="http://www.w3.org/1999/xlink" xml:space="preserve" onload="init(evt)">

<style type="text/css"><![CDATA[
.node, .edge {opacity: 0.7;}
.node.selected, .edge.selected {opacity: 1;}
.edge:hover path { stroke: red; }
.edge:hover polygon { stroke: red; fill: red; }
]]></style>

<defs>
  <circle id="rim" cx="0" cy="0" r="7"/>
  <circle id="rim2" cx="0" cy="0" r="3.5"/>
  <g id="zoomPlus">
    <use xlink:href="#rim" fill="#404040"><set attributeName="fill" to="#808080" begin="zoomplus.mouseover" end="zoomplus.mouseout"/></use>
    <path d="M-4,0h8M0,-4v8" fill="none" stroke="white" stroke-width="1.5" pointer-events="none"/>
  </g>
  <g id="zoomMin">
    <use xlink:href="#rim" fill="#404040"><set attributeName="fill" to="#808080" begin="zoomminus.mouseover" end="zoomminus.mouseout"/></use>
    <path d="M-4,0h8" fill="none" stroke="white" stroke-width="1.5" pointer-events="none"/>
  </g>
  <g id="arrowUp" transform="translate(30 24)">
    <use xlink:href="#rim"/>
    <path pointer-events="none" fill="none" stroke="white" stroke-width="1.5" d="M0,-3.0v7 M-2.5,-0.5L0,-3.0L2.5,-0.5"/>
  </g>
  <g id="arrowRight" transform="rotate(90) translate(36 -43)">
    <use xlink:href="#rim"/>
    <path pointer-events="none" fill="none" stroke="white" stroke-width="1.5" d="M0,-3.0v7 M-2.5,-0.5L0,-3.0L2.5,-0.5"/>
  </g>
  <g id="arrowDown" transform="rotate(180) translate(-30 -48)">
    <use xlink:href="#rim"/>
    <path pointer-events="none" fill="none" stroke="white" stroke-width="1.5" d="M0,-3.0v7 M-2.5,-0.5L0,-3.0L2.5,-0.5"/>
  </g>
  <g id="arrowLeft" transform="rotate(270) translate(-36 17)">
    <use xlink:href="#rim"/>
    <path pointer-events="none" fill="none" stroke="white" stroke-width="1.5" d="M0,-3.0v7 M-2.5,-0.5L0,-3.0L2.5,-0.5"/>
  </g>
  <g id="resetDef">
    <use xlink:href="#rim2" fill="#404040"><set attributeName="fill" to="#808080" begin="reset.mouseover" end="reset.mouseout"/></use>
  </g>
</defs>
<script type="application/ecmascript">
var viewWidth = 903;
var viewHeight = 473;
var sectionId = 'dynsection-12';
</script>
<script type="application/ecmascript" xlink:href="svg.min.js"/>
<svg id="graph" class="graph">
<g id="viewport">
<title>dotnamecpp::utils::UtilsFactory::createFullContext</title>
<!-- Node1 -->
<g id="Node000001" class="node">
<title>Node1</title>
<g id="a_Node000001"><a xlink:title="Create full application context with all components.">
<polygon fill="#999999" stroke="#666666" points="152.5,-275 0,-275 0,-243 152.5,-243 152.5,-275"/>
<text xml:space="preserve" text-anchor="start" x="8" y="-261.5" font-family="Helvetica,sans-Serif" font-size="10.00">dotnamecpp::utils::</text>
<text xml:space="preserve" text-anchor="middle" x="76.25" y="-249.5" font-family="Helvetica,sans-Serif" font-size="10.00">UtilsFactory::createFullContext</text>
</a>
</g>
</g>
<!-- Node2 -->
<g id="Node000002" class="node">
<title>Node2</title>
<g id="a_Node000002"><a xlink:href="classdotnamecpp_1_1utils_1_1UtilsFactory.html#adb1debe875686643fe487a625750400f" target="_top" xlink:title=" ">
<polygon fill="white" stroke="#666666" points="551.25,-431 386,-431 386,-399 551.25,-399 551.25,-431"/>
<text xml:space="preserve" text-anchor="start" x="394" y="-417.5" font-family="Helvetica,sans-Serif" font-size="10.00">dotnamecpp::utils::</text>
<text xml:space="preserve" text-anchor="middle" x="468.62" y="-405.5" font-family="Helvetica,sans-Serif" font-size="10.00">UtilsFactory::createAssetManager</text>
</a>
</g>
</g>
<!-- Node1&#45;&gt;Node2 -->
<g id="edge1_Node000001_Node000002" class="edge">
<title>Node1&#45;&gt;Node2</title>
<g id="a_edge1_Node000001_Node000002"><a xlink:title=" ">
<path fill="none" stroke="#63b8ff" d="M81.32,-275.44C91.68,-313.27 122.98,-406.05 188.5,-443 261.38,-484.1 362.16,-457.42 420.56,-435.43"/>
<polygon fill="#63b8ff" stroke="#63b8ff" points="421.49,-438.82 429.55,-431.94 418.96,-432.3 421.49,-438.82"/>
</a>
</g>
</g>
<!-- Node5 -->
<g id="Node000005" class="node">
<title>Node5</title>
<g id="a_Node000005"><a xlink:href="classdotnamecpp_1_1utils_1_1UtilsFactory.html#aa0d9f669087b9bc6a0859324fe2afe50" target="_top" xlink:title=" ">
<polygon fill="white" stroke="#666666" points="337.62,-434 200.88,-434 200.88,-390 337.62,-390 337.62,-434"/>
<text xml:space="preserve" text-anchor="start" x="208.88" y="-420.5" font-family="Helvetica,sans-Serif" font-size="10.00">dotnamecpp::utils::</text>
<text xml:space="preserve" text-anchor="start" x="208.88" y="-408.5" font-family="Helvetica,sans-Serif" font-size="10.00">UtilsFactory::createCustom</text>
<text xml:space="preserve" text-anchor="middle" x="269.25" y="-396.5" font-family="Helvetica,sans-Serif" font-size="10.00">StringsLoader</text>
</a>
</g>
</g>
<!-- Node1&#45;&gt;Node5 -->
<g id="edge4_Node000001_Node000005" class="edge">
<title>Node1&#45;&gt;Node5</title>
<g id="a_edge4_Node000001_Node000005"><a xlink:title=" ">
<path fill="none" stroke="#63b8ff" d="M89.34,-275.27C108.22,-299.79 146.9,-346.47 188.5,-376 192.58,-378.9 196.93,-381.65 201.42,-384.23"/>
<polygon fill="#63b8ff" stroke="#63b8ff" points="199.61,-387.23 210.07,-388.92 202.95,-381.08 199.61,-387.23"/>
</a>
</g>
</g>
<!-- Node6 -->
<g id="Node000006" class="node">
<title>Node6</title>
<g id="a_Node000006"><a xlink:href="classdotnamecpp_1_1utils_1_1UtilsFactory.html#a9fcea5e7ff94872b54a8c01eb2d9c965" target="_top" xlink:title=" ">
<polygon fill="white" stroke="#666666" points="550.5,-343 386.75,-343 386.75,-311 550.5,-311 550.5,-343"/>
<text xml:space="preserve" text-anchor="start" x="394.75" y="-329.5" font-family="Helvetica,sans-Serif" font-size="10.00">dotnamecpp::utils::</text>
<text xml:space="preserve" text-anchor="middle" x="468.62" y="-317.5" font-family="Helvetica,sans-Serif" font-size="10.00">UtilsFactory::createJsonSerializer</text>
</a>
</g>
</g>
<!-- Node1&#45;&gt;Node6 -->
<g id="edge12_Node000001_Node000006" class="edge">
<title>Node1&#45;&gt;Node6</title>
<g id="a_edge12_Node000001_Node000006"><a xlink:title=" ">
<path fill="none" stroke="#63b8ff" d="M117.01,-275.48C137.94,-283.5 164.23,-292.56 188.5,-298 249.86,-311.74 320.3,-319 375.07,-322.82"/>
<polygon fill="#63b8ff" stroke="#63b8ff" points="374.79,-326.31 385,-323.48 375.25,-319.32 374.79,-326.31"/>
</a>
</g>
</g>
<!-- Node7 -->
<g id="Node000007" class="node">
<title>Node7</title>
<g id="a_Node000007"><a xlink:href="classdotnamecpp_1_1utils_1_1UtilsFactory.html#ad559863ad0bfa1fe1805f82089cfe948" target="_top" xlink:title=" ">
<polygon fill="white" stroke="#666666" points="738.62,-369 589.12,-369 589.12,-337 738.62,-337 738.62,-369"/>
<text xml:space="preserve" text-anchor="start" x="597.12" y="-355.5" font-family="Helvetica,sans-Serif" font-size="10.00">dotnamecpp::utils::</text>
<text xml:space="preserve" text-anchor="middle" x="663.88" y="-343.5" font-family="Helvetica,sans-Serif" font-size="10.00">UtilsFactory::createFileReader</text>
</a>
</g>
</g>
<!-- Node1&#45;&gt;Node7 -->
<g id="edge10_Node000001_Node000007" class="edge">
<title>Node1&#45;&gt;Node7</title>
<g id="a_edge10_Node000001_Node000007"><a xlink:title=" ">
<path fill="none" stroke="#63b8ff" d="M99.88,-275.45C121.53,-290.33 155.66,-311.61 188.5,-323 318.61,-368.14 480.69,-367.17 577.76,-361.03"/>
<polygon fill="#63b8ff" stroke="#63b8ff" points="577.72,-364.54 587.46,-360.38 577.25,-357.56 577.72,-364.54"/>
</a>
</g>
</g>
<!-- Node8 -->
<g id="Node000008" class="node">
<title>Node8</title>
<g id="a_Node000008"><a xlink:href="classdotnamecpp_1_1utils_1_1UtilsFactory.html#aa935a454b1b16e1f69ee05949cf37701" target="_top" xlink:title=" ">
<polygon fill="white" stroke="#666666" points="735.62,-306 592.12,-306 592.12,-274 735.62,-274 735.62,-306"/>
<text xml:space="preserve" text-anchor="start" x="600.12" y="-292.5" font-family="Helvetica,sans-Serif" font-size="10.00">dotnamecpp::utils::</text>
<text xml:space="preserve" text-anchor="middle" x="663.88" y="-280.5" font-family="Helvetica,sans-Serif" font-size="10.00">UtilsFactory::createFileWriter</text>
</a>
</g>
</g>
<!-- Node1&#45;&gt;Node8 -->
<g id="edge11_Node000001_Node000008" class="edge">
<title>Node1&#45;&gt;Node8</title>
<g id="a_edge11_Node000001_Node000008"><a xlink:title=" ">
<path fill="none" stroke="#63b8ff" d="M152.95,-263.1C164.85,-263.74 177.01,-264.39 188.5,-265 325.86,-272.32 485.6,-280.72 580.25,-285.68"/>
<polygon fill="#63b8ff" stroke="#63b8ff" points="580.07,-289.17 590.24,-286.2 580.43,-282.18 580.07,-289.17"/>
</a>
</g>
</g>
<!-- Node9 -->
<g id="Node000009" class="node">
<title>Node9</title>
<g id="a_Node000009"><a xlink:href="classdotnamecpp_1_1utils_1_1UtilsFactory.html#a6071a4ce383be760fd0f5f278871fc78" target="_top" xlink:title=" ">
<polygon fill="white" stroke="#666666" points="340.25,-256 198.25,-256 198.25,-212 340.25,-212 340.25,-256"/>
<text xml:space="preserve" text-anchor="start" x="206.25" y="-242.5" font-family="Helvetica,sans-Serif" font-size="10.00">dotnamecpp::utils::</text>
<text xml:space="preserve" text-anchor="start" x="206.25" y="-230.5" font-family="Helvetica,sans-Serif" font-size="10.00">UtilsFactory::createDirectory</text>
<text xml:space="preserve" text-anchor="middle" x="269.25" y="-218.5" font-family="Helvetica,sans-Serif" font-size="10.00">Manager</text>
</a>
</g>
</g>
<!-- Node1&#45;&gt;Node9 -->
<g id="edge9_Node000001_Node000009" class="edge">
<title>Node1&#45;&gt;Node9</title>
<g id="a_edge9_Node000001_Node000009"><a xlink:title=" ">
<path fill="none" stroke="#63b8ff" d="M152.74,-249.12C163.92,-247.66 175.49,-246.14 186.79,-244.66"/>
<polygon fill="#63b8ff" stroke="#63b8ff" points="187.01,-248.16 196.47,-243.4 186.1,-241.22 187.01,-248.16"/>
</a>
</g>
</g>
<!-- Node10 -->
<g id="Node000010" class="node">
<title>Node10</title>
<g id="a_Node000010"><a xlink:href="classdotnamecpp_1_1utils_1_1UtilsFactory.html#accf95777b78081e29cd677b633ab9461" target="_top" xlink:title=" ">
<polygon fill="white" stroke="#666666" points="335,-194 203.5,-194 203.5,-162 335,-162 335,-194"/>
<text xml:space="preserve" text-anchor="start" x="211.5" y="-180.5" font-family="Helvetica,sans-Serif" font-size="10.00">dotnamecpp::utils::</text>
<text xml:space="preserve" text-anchor="middle" x="269.25" y="-168.5" font-family="Helvetica,sans-Serif" font-size="10.00">UtilsFactory::createLogger</text>
</a>
</g>
</g>
<!-- Node1&#45;&gt;Node10 -->
<g id="edge13_Node000001_Node000010" class="edge">
<title>Node1&#45;&gt;Node10</title>
<g id="a_edge13_Node000001_Node000010"><a xlink:title=" ">
<path fill="none" stroke="#63b8ff" d="M106.39,-242.69C128.49,-230.73 159.84,-214.61 188.5,-203 192.54,-201.36 196.74,-199.76 200.99,-198.22"/>
<polygon fill="#63b8ff" stroke="#63b8ff" points="201.93,-201.6 210.21,-194.99 199.62,-194.99 201.93,-201.6"/>
</a>
</g>
</g>
<!-- Node14 -->
<g id="Node000014" class="node">
<title>Node14</title>
<g id="a_Node000014"><a xlink:href="classdotnamecpp_1_1utils_1_1UtilsFactory.html#a0c936eaf300e6f9b9014659d4ce6801c" target="_top" xlink:title=" ">
<polygon fill="white" stroke="#666666" points="350,-144 188.5,-144 188.5,-112 350,-112 350,-144"/>
<text xml:space="preserve" text-anchor="start" x="196.5" y="-130.5" font-family="Helvetica,sans-Serif" font-size="10.00">dotnamecpp::utils::</text>
<text xml:space="preserve" text-anchor="middle" x="269.25" y="-118.5" font-family="Helvetica,sans-Serif" font-size="10.00">UtilsFactory::createPathResolver</text>
</a>
</g>
</g>
<!-- Node1&#45;&gt;Node14 -->
<g id="edge17_Node000001_Node000014" class="edge">
<title>Node1&#45;&gt;Node14</title>
<g id="a_edge17_Node000001_Node000014"><a xlink:title=" ">
<path fill="none" stroke="#63b8ff" d="M90.22,-242.58C109.36,-219.41 147.36,-177.24 188.5,-153 190.82,-151.63 193.22,-150.33 195.69,-149.1"/>
<polygon fill="#63b8ff" stroke="#63b8ff" points="197.04,-152.32 204.7,-145 194.14,-145.95 197.04,-152.32"/>
</a>
</g>
</g>
<!-- Node15 -->
<g id="Node000015" class="node">
<title>Node15</title>
<g id="a_Node000015"><a xlink:href="classdotnamecpp_1_1utils_1_1UtilsFactory.html#a5dd47e86b64ad3d8efb881d5b6db1f9d" target="_top" xlink:title=" ">
<polygon fill="white" stroke="#666666" points="347,-94 191.5,-94 191.5,-62 347,-62 347,-94"/>
<text xml:space="preserve" text-anchor="start" x="199.5" y="-80.5" font-family="Helvetica,sans-Serif" font-size="10.00">dotnamecpp::utils::</text>
<text xml:space="preserve" text-anchor="middle" x="269.25" y="-68.5" font-family="Helvetica,sans-Serif" font-size="10.00">UtilsFactory::createPlatformInfo</text>
</a>
</g>
</g>
<!-- Node1&#45;&gt;Node15 -->
<g id="edge18_Node000001_Node000015" class="edge">
<title>Node1&#45;&gt;Node15</title>
<g id="a_edge18_Node000001_Node000015"><a xlink:title=" ">
<path fill="none" stroke="#63b8ff" d="M84.47,-242.65C99.31,-210.94 136.26,-140.89 188.5,-103 190.03,-101.89 191.62,-100.82 193.25,-99.8"/>
<polygon fill="#63b8ff" stroke="#63b8ff" points="194.55,-103.08 201.63,-95.2 191.18,-96.94 194.55,-103.08"/>
</a>
</g>
</g>
<!-- Node17 -->
<g id="Node000017" class="node">
<title>Node17</title>
<g id="a_Node000017"><a xlink:href="classdotnamecpp_1_1utils_1_1UtilsFactory.html#af91cb262af886be48e1ec821f2f9e8db" target="_top" xlink:title=" ">
<polygon fill="white" stroke="#666666" points="333.12,-44 205.38,-44 205.38,0 333.12,0 333.12,-44"/>
<text xml:space="preserve" text-anchor="start" x="213.38" y="-30.5" font-family="Helvetica,sans-Serif" font-size="10.00">dotnamecpp::utils::</text>
<text xml:space="preserve" text-anchor="start" x="213.38" y="-18.5" font-family="Helvetica,sans-Serif" font-size="10.00">UtilsFactory::createString</text>
<text xml:space="preserve" text-anchor="middle" x="269.25" y="-6.5" font-family="Helvetica,sans-Serif" font-size="10.00">Formatter</text>
</a>
</g>
</g>
<!-- Node1&#45;&gt;Node17 -->
<g id="edge20_Node000001_Node000017" class="edge">
<title>Node1&#45;&gt;Node17</title>
<g id="a_edge20_Node000001_Node000017"><a xlink:title=" ">
<path fill="none" stroke="#63b8ff" d="M81.8,-242.62C93.27,-204.18 126.95,-107.33 188.5,-53 190.77,-51 193.19,-49.11 195.71,-47.35"/>
<polygon fill="#63b8ff" stroke="#63b8ff" points="197.29,-50.48 203.95,-42.24 193.61,-44.53 197.29,-50.48"/>
</a>
</g>
</g>
<!-- Node3 -->
<g id="Node000003" class="node">
<title>Node3</title>
<g id="a_Node000003"><a xlink:href="classdotnamecpp_1_1assets_1_1AssetManagerFactory.html#ac8586007318eb5a7692241afdaed9ba9" target="_top" xlink:title="Create a Default object.">
<polygon fill="white" stroke="#666666" points="722.88,-437 604.88,-437 604.88,-393 722.88,-393 722.88,-437"/>
<text xml:space="preserve" text-anchor="start" x="612.88" y="-423.5" font-family="Helvetica,sans-Serif" font-size="10.00">dotnamecpp::assets</text>
<text xml:space="preserve" text-anchor="start" x="612.88" y="-411.5" font-family="Helvetica,sans-Serif" font-size="10.00">::AssetManagerFactory</text>
<text xml:space="preserve" text-anchor="middle" x="663.88" y="-399.5" font-family="Helvetica,sans-Serif" font-size="10.00">::createDefault</text>
</a>
</g>
</g>
<!-- Node2&#45;&gt;Node3 -->
<g id="edge2_Node000002_Node000003" class="edge">
<title>Node2&#45;&gt;Node3</title>
<g id="a_edge2_Node000002_Node000003"><a xlink:title=" ">
<path fill="none" stroke="#63b8ff" d="M551.58,-415C565.48,-415 579.8,-415 593.35,-415"/>
<polygon fill="#63b8ff" stroke="#63b8ff" points="593.01,-418.5 603.01,-415 593.01,-411.5 593.01,-418.5"/>
</a>
</g>
</g>
<!-- Node4 -->
<g id="Node000004" class="node">
<title>Node4</title>
<g id="a_Node000004"><a xlink:href="classdotnamecpp_1_1assets_1_1AssetManager.html#af6846c31c10bcf4a5e937f1627aa0f48" target="_top" xlink:title="Create a new Asset Manager instance.">
<polygon fill="white" stroke="#666666" points="894.5,-431 776.5,-431 776.5,-399 894.5,-399 894.5,-431"/>
<text xml:space="preserve" text-anchor="start" x="784.5" y="-417.5" font-family="Helvetica,sans-Serif" font-size="10.00">dotnamecpp::assets</text>
<text xml:space="preserve" text-anchor="middle" x="835.5" y="-405.5" font-family="Helvetica,sans-Serif" font-size="10.00">::AssetManager::create</text>
</a>
</g>
</g>
<!-- Node3&#45;&gt;Node4 -->
<g id="edge3_Node000003_Node000004" class="edge">
<title>Node3&#45;&gt;Node4</title>
<g id="a_edge3_Node000003_Node000004"><a xlink:title=" ">
<path fill="none" stroke="#63b8ff" d="M723.25,-415C736.58,-415 750.87,-415 764.62,-415"/>
<polygon fill="#63b8ff" stroke="#63b8ff" points="764.5,-418.5 774.5,-415 764.5,-411.5 764.5,-418.5"/>
</a>
</g>
</g>
<!-- Node5&#45;&gt;Node2 -->
<g id="edge5_Node000005_Node000002" class="edge">
<title>Node5&#45;&gt;Node2</title>
<g id="a_edge5_Node000005_Node000002"><a xlink:title=" ">
<path fill="none" stroke="#63b8ff" d="M337.9,-413.03C349.69,-413.21 362.14,-413.4 374.47,-413.58"/>
<polygon fill="#63b8ff" stroke="#63b8ff" points="374.18,-417.08 384.23,-413.73 374.28,-410.08 374.18,-417.08"/>
</a>
</g>
</g>
<!-- Node5&#45;&gt;Node6 -->
<g id="edge6_Node000005_Node000006" class="edge">
<title>Node5&#45;&gt;Node6</title>
<g id="a_edge6_Node000005_Node000006"><a xlink:title=" ">
<path fill="none" stroke="#63b8ff" d="M322.37,-389.56C352.37,-376.63 389.83,-360.5 419.2,-347.86"/>
<polygon fill="#63b8ff" stroke="#63b8ff" points="420.43,-351.14 428.23,-343.97 417.66,-344.71 420.43,-351.14"/>
</a>
</g>
</g>
<!-- Node6&#45;&gt;Node7 -->
<g id="edge7_Node000006_Node000007" class="edge">
<title>Node6&#45;&gt;Node7</title>
<g id="a_edge7_Node000006_Node000007"><a xlink:title=" ">
<path fill="none" stroke="#63b8ff" d="M550.74,-337.91C559.6,-339.11 568.64,-340.32 577.55,-341.52"/>
<polygon fill="#63b8ff" stroke="#63b8ff" points="576.86,-344.96 587.24,-342.82 577.8,-338.02 576.86,-344.96"/>
</a>
</g>
</g>
<!-- Node6&#45;&gt;Node8 -->
<g id="edge8_Node000006_Node000008" class="edge">
<title>Node6&#45;&gt;Node8</title>
<g id="a_edge8_Node000006_Node000008"><a xlink:title=" ">
<path fill="none" stroke="#63b8ff" d="M550.74,-311.47C560.65,-309.57 570.78,-307.63 580.7,-305.73"/>
<polygon fill="#63b8ff" stroke="#63b8ff" points="581.14,-309.21 590.3,-303.9 579.82,-302.34 581.14,-309.21"/>
</a>
</g>
</g>
<!-- Node11 -->
<g id="Node000011" class="node">
<title>Node11</title>
<g id="a_Node000011"><a xlink:href="classdotnamecpp_1_1logging_1_1LoggerFactory.html#a2811f86fe84698397f09f3ae18959511" target="_top" xlink:title="Create a logger instance based on the specified type and configuration.">
<polygon fill="white" stroke="#666666" points="527.25,-194 410,-194 410,-162 527.25,-162 527.25,-194"/>
<text xml:space="preserve" text-anchor="start" x="418" y="-180.5" font-family="Helvetica,sans-Serif" font-size="10.00">dotnamecpp::logging</text>
<text xml:space="preserve" text-anchor="middle" x="468.62" y="-168.5" font-family="Helvetica,sans-Serif" font-size="10.00">::LoggerFactory::create</text>
</a>
</g>
</g>
<!-- Node10&#45;&gt;Node11 -->
<g id="edge14_Node000010_Node000011" class="edge">
<title>Node10&#45;&gt;Node11</title>
<g id="a_edge14_Node000010_Node000011"><a xlink:title=" ">
<path fill="none" stroke="#63b8ff" d="M335.42,-178C355.61,-178 377.91,-178 398.36,-178"/>
<polygon fill="#63b8ff" stroke="#63b8ff" points="398.31,-181.5 408.31,-178 398.31,-174.5 398.31,-181.5"/>
</a>
</g>
</g>
<!-- Node12 -->
<g id="Node000012" class="node">
<title>Node12</title>
<g id="a_Node000012"><a xlink:href="classdotnamecpp_1_1logging_1_1LoggerFactory.html#a66665981d61ca1baae6f1801a597bb65" target="_top" xlink:title="Create a Console object logger.">
<polygon fill="white" stroke="#666666" points="740.5,-169 587.25,-169 587.25,-137 740.5,-137 740.5,-169"/>
<text xml:space="preserve" text-anchor="start" x="595.25" y="-155.5" font-family="Helvetica,sans-Serif" font-size="10.00">dotnamecpp::logging</text>
<text xml:space="preserve" text-anchor="middle" x="663.88" y="-143.5" font-family="Helvetica,sans-Serif" font-size="10.00">::LoggerFactory::createConsole</text>
</a>
</g>
</g>
<!-- Node11&#45;&gt;Node12 -->
<g id="edge15_Node000011_Node000012" class="edge">
<title>Node11&#45;&gt;Node12</title>
<g id="a_edge15_Node000011_Node000012"><a xlink:title=" ">
<path fill="none" stroke="#63b8ff" d="M527.61,-170.5C542.78,-168.54 559.48,-166.38 575.81,-164.26"/>
<polygon fill="#63b8ff" stroke="#63b8ff" points="576.07,-167.76 585.53,-163.01 575.17,-160.82 576.07,-167.76"/>
</a>
</g>
</g>
<!-- Node13 -->
<g id="Node000013" class="node">
<title>Node13</title>
<g id="a_Node000013"><a xlink:href="classdotnamecpp_1_1logging_1_1LoggerFactory.html#a1cf52c1ddb57eae93a5aab46b593d021" target="_top" xlink:title="Create a Null object logger.">
<polygon fill="white" stroke="#666666" points="731.12,-219 596.62,-219 596.62,-187 731.12,-187 731.12,-219"/>
<text xml:space="preserve" text-anchor="start" x="604.62" y="-205.5" font-family="Helvetica,sans-Serif" font-size="10.00">dotnamecpp::logging</text>
<text xml:space="preserve" text-anchor="middle" x="663.88" y="-193.5" font-family="Helvetica,sans-Serif" font-size="10.00">::LoggerFactory::createNull</text>
</a>
</g>
</g>
<!-- Node11&#45;&gt;Node13 -->
<g id="edge16_Node000011_Node000013" class="edge">
<title>Node11&#45;&gt;Node13</title>
<g id="a_edge16_Node000011_Node000013"><a xlink:title=" ">
<path fill="none" stroke="#63b8ff" d="M527.61,-185.5C545.73,-187.85 566.02,-190.47 585.27,-192.96"/>
<polygon fill="#63b8ff" stroke="#63b8ff" points="584.59,-196.4 594.95,-194.21 585.49,-189.46 584.59,-196.4"/>
</a>
</g>
</g>
<!-- Node16 -->
<g id="Node000016" class="node">
<title>Node16</title>
<g id="a_Node000016"><a xlink:href="classdotnamecpp_1_1utils_1_1PlatformInfoFactory.html#ab7dafcf5ba115a99f7d80fa045639f84" target="_top" xlink:title=" ">
<polygon fill="white" stroke="#666666" points="534.75,-100 402.5,-100 402.5,-56 534.75,-56 534.75,-100"/>
<text xml:space="preserve" text-anchor="start" x="410.5" y="-86.5" font-family="Helvetica,sans-Serif" font-size="10.00">dotnamecpp::utils::</text>
<text xml:space="preserve" text-anchor="start" x="410.5" y="-74.5" font-family="Helvetica,sans-Serif" font-size="10.00">PlatformInfoFactory</text>
<text xml:space="preserve" text-anchor="middle" x="468.62" y="-62.5" font-family="Helvetica,sans-Serif" font-size="10.00">::createForCurrentPlatform</text>
</a>
</g>
</g>
<!-- Node15&#45;&gt;Node16 -->
<g id="edge19_Node000015_Node000016" class="edge">
<title>Node15&#45;&gt;Node16</title>
<g id="a_edge19_Node000015_Node000016"><a xlink:title=" ">
<path fill="none" stroke="#63b8ff" d="M347.41,-78C361.66,-78 376.53,-78 390.77,-78"/>
<polygon fill="#63b8ff" stroke="#63b8ff" points="390.52,-81.5 400.52,-78 390.52,-74.5 390.52,-81.5"/>
</a>
</g>
</g>
</g>
</svg>

<g id="navigator" transform="translate(0 0)" fill="#404254">
  <rect fill="#f2f5e9" fill-opacity="0.5" stroke="#606060" stroke-width=".5" x="0" y="0" width="60" height="60"/>
  <use id="zoomplus" xlink:href="#zoomPlus" x="17" y="9" onmousedown="handleZoom(evt,'in')"/>
  <use id="zoomminus" xlink:href="#zoomMin" x="42" y="9" onmousedown="handleZoom(evt,'out')"/>
  <use id="reset" xlink:href="#resetDef" x="30" y="36" onmousedown="handleReset()"/>
   <use id="arrowup" xlink:href="#arrowUp" x="0" y="0" onmousedown="handlePan(0,-1)"/>
  <use id="arrowright" xlink:href="#arrowRight" x="0" y="0" onmousedown="handlePan(1,0)"/>
  <use id="arrowdown" xlink:href="#arrowDown" x="0" y="0" onmousedown="handlePan(0,1)"/>
  <use id="arrowleft" xlink:href="#arrowLeft" x="0" y="0" onmousedown="handlePan(-1,0)"/>
</g>
<svg viewBox="0 0 15 15" width="100%" height="30px" preserveAspectRatio="xMaxYMin meet">
 <g id="arrow_out" transform="scale(0.3 0.3)">
  <a xlink:href="classdotnamecpp_1_1utils_1_1UtilsFactory_a98799ec5918fdefe4c195ae9c88335bc_cgraph_org.svg" target="_base">
   <rect id="button" ry="5" rx="5" y="6" x="6" height="38" width="38"
        fill="#f2f5e9" fill-opacity="0.5" stroke="#606060" stroke-width="1.0"/>
   <path id="arrow"
     d="M 11.500037,31.436501 C 11.940474,20.09759 22.043105,11.32322 32.158766,21.979434 L 37.068811,17.246167 C 37.068811,17.246167 37.088388,32 37.088388,32 L 22.160133,31.978069 C 22.160133,31.978069 26.997745,27.140456 26.997745,27.140456 C 18.528582,18.264221 13.291696,25.230495 11.500037,31.436501 z"
     style="fill:#404040;"/>
  </a>
 </g>
</svg>

<style type='text/css'>
<![CDATA[
[data-mouse-over-selected='false'] { opacity: 0.7; }
[data-mouse-over-selected='true']  { opacity: 1.0; }
]]>
</style>
<script type="application/ecmascript"><![CDATA[
document.addEventListener('DOMContentLoaded', (event) => {
  highlightEdges();
  highlightAdjacentNodes();
});
]]></script>
</svg>
