<?xml version="1.0" encoding="UTF-8" standalone="no"?>
<!DOCTYPE svg PUBLIC "-//W3C//DTD SVG 1.1//EN"
 "http://www.w3.org/Graphics/SVG/1.1/DTD/svg11.dtd">
<!-- Generated by graphviz version 13.1.2 (20250808.2320)
 -->
<!-- Title: dotnamecpp::utils::UtilsFactory::createCoreContext Pages: 1 -->
<svg width="740pt" height="390pt"
 viewBox="0.00 0.00 740.00 390.00" xmlns="http://www.w3.org/2000/svg" xmlns:xlink="http://www.w3.org/1999/xlink">
<g id="graph0" class="graph" transform="scale(1 1) rotate(0) translate(4 386)">
<title>dotnamecpp::utils::UtilsFactory::createCoreContext</title>
<!-- Node1 -->
<g id="Node000001" class="node">
<title>Node1</title>
<g id="a_Node000001"><a xlink:title="Create minimal context without app&#45;specific components.">
<polygon fill="#999999" stroke="#666666" points="157.75,-216 0,-216 0,-184 157.75,-184 157.75,-216"/>
<text xml:space="preserve" text-anchor="start" x="8" y="-202.5" font-family="Helvetica,sans-Serif" font-size="10.00">dotnamecpp::utils::</text>
<text xml:space="preserve" text-anchor="middle" x="78.88" y="-190.5" font-family="Helvetica,sans-Serif" font-size="10.00">UtilsFactory::createCoreContext</text>
</a>
</g>
</g>
<!-- Node2 -->
<g id="Node000002" class="node">
<title>Node2</title>
<g id="a_Node000002"><a xlink:href="classdotnamecpp_1_1utils_1_1UtilsFactory.html#a6071a4ce383be760fd0f5f278871fc78" target="_top" xlink:title=" ">
<polygon fill="white" stroke="#666666" points="346.62,-382 204.62,-382 204.62,-338 346.62,-338 346.62,-382"/>
<text xml:space="preserve" text-anchor="start" x="212.62" y="-368.5" font-family="Helvetica,sans-Serif" font-size="10.00">dotnamecpp::utils::</text>
<text xml:space="preserve" text-anchor="start" x="212.62" y="-356.5" font-family="Helvetica,sans-Serif" font-size="10.00">UtilsFactory::createDirectory</text>
<text xml:space="preserve" text-anchor="middle" x="275.62" y="-344.5" font-family="Helvetica,sans-Serif" font-size="10.00">Manager</text>
</a>
</g>
</g>
<!-- Node1&#45;&gt;Node2 -->
<g id="edge1_Node000001_Node000002" class="edge">
<title>Node1&#45;&gt;Node2</title>
<g id="a_edge1_Node000001_Node000002"><a xlink:title=" ">
<path fill="none" stroke="#63b8ff" d="M91.47,-216.46C110.36,-242.28 150.08,-292.6 193.75,-324 197.79,-326.9 202.1,-329.65 206.55,-332.23"/>
<polygon fill="#63b8ff" stroke="#63b8ff" points="204.67,-335.19 215.13,-336.89 208.02,-329.04 204.67,-335.19"/>
</a>
</g>
</g>
<!-- Node3 -->
<g id="Node000003" class="node">
<title>Node3</title>
<g id="a_Node000003"><a xlink:href="classdotnamecpp_1_1utils_1_1UtilsFactory.html#ad559863ad0bfa1fe1805f82089cfe948" target="_top" xlink:title=" ">
<polygon fill="white" stroke="#666666" points="543,-318 393.5,-318 393.5,-286 543,-286 543,-318"/>
<text xml:space="preserve" text-anchor="start" x="401.5" y="-304.5" font-family="Helvetica,sans-Serif" font-size="10.00">dotnamecpp::utils::</text>
<text xml:space="preserve" text-anchor="middle" x="468.25" y="-292.5" font-family="Helvetica,sans-Serif" font-size="10.00">UtilsFactory::createFileReader</text>
</a>
</g>
</g>
<!-- Node1&#45;&gt;Node3 -->
<g id="edge2_Node000001_Node000003" class="edge">
<title>Node1&#45;&gt;Node3</title>
<g id="a_edge2_Node000001_Node000003"><a xlink:title=" ">
<path fill="none" stroke="#63b8ff" d="M93.73,-216.17C113.41,-237.83 151.78,-275.34 193.75,-291 253.83,-313.42 326.57,-315.26 381.93,-311.99"/>
<polygon fill="#63b8ff" stroke="#63b8ff" points="381.86,-315.5 391.6,-311.34 381.39,-308.52 381.86,-315.5"/>
</a>
</g>
</g>
<!-- Node4 -->
<g id="Node000004" class="node">
<title>Node4</title>
<g id="a_Node000004"><a xlink:href="classdotnamecpp_1_1utils_1_1UtilsFactory.html#aa935a454b1b16e1f69ee05949cf37701" target="_top" xlink:title=" ">
<polygon fill="white" stroke="#666666" points="540,-260 396.5,-260 396.5,-228 540,-228 540,-260"/>
<text xml:space="preserve" text-anchor="start" x="404.5" y="-246.5" font-family="Helvetica,sans-Serif" font-size="10.00">dotnamecpp::utils::</text>
<text xml:space="preserve" text-anchor="middle" x="468.25" y="-234.5" font-family="Helvetica,sans-Serif" font-size="10.00">UtilsFactory::createFileWriter</text>
</a>
</g>
</g>
<!-- Node1&#45;&gt;Node4 -->
<g id="edge3_Node000001_Node000004" class="edge">
<title>Node1&#45;&gt;Node4</title>
<g id="a_edge3_Node000001_Node000004"><a xlink:title=" ">
<path fill="none" stroke="#63b8ff" d="M157.8,-208.85C223.69,-216.34 317.82,-227.03 384.93,-234.65"/>
<polygon fill="#63b8ff" stroke="#63b8ff" points="384.46,-238.12 394.79,-235.77 385.25,-231.16 384.46,-238.12"/>
</a>
</g>
</g>
<!-- Node5 -->
<g id="Node000005" class="node">
<title>Node5</title>
<g id="a_Node000005"><a xlink:href="classdotnamecpp_1_1utils_1_1UtilsFactory.html#a9fcea5e7ff94872b54a8c01eb2d9c965" target="_top" xlink:title=" ">
<polygon fill="white" stroke="#666666" points="357.5,-282 193.75,-282 193.75,-250 357.5,-250 357.5,-282"/>
<text xml:space="preserve" text-anchor="start" x="201.75" y="-268.5" font-family="Helvetica,sans-Serif" font-size="10.00">dotnamecpp::utils::</text>
<text xml:space="preserve" text-anchor="middle" x="275.62" y="-256.5" font-family="Helvetica,sans-Serif" font-size="10.00">UtilsFactory::createJsonSerializer</text>
</a>
</g>
</g>
<!-- Node1&#45;&gt;Node5 -->
<g id="edge4_Node000001_Node000005" class="edge">
<title>Node1&#45;&gt;Node5</title>
<g id="a_edge4_Node000001_Node000005"><a xlink:title=" ">
<path fill="none" stroke="#63b8ff" d="M128.52,-216.48C154.87,-225.42 187.65,-236.52 215.47,-245.95"/>
<polygon fill="#63b8ff" stroke="#63b8ff" points="214.24,-249.23 224.83,-249.13 216.49,-242.6 214.24,-249.23"/>
</a>
</g>
</g>
<!-- Node6 -->
<g id="Node000006" class="node">
<title>Node6</title>
<g id="a_Node000006"><a xlink:href="classdotnamecpp_1_1utils_1_1UtilsFactory.html#accf95777b78081e29cd677b633ab9461" target="_top" xlink:title=" ">
<polygon fill="white" stroke="#666666" points="341.38,-194 209.88,-194 209.88,-162 341.38,-162 341.38,-194"/>
<text xml:space="preserve" text-anchor="start" x="217.88" y="-180.5" font-family="Helvetica,sans-Serif" font-size="10.00">dotnamecpp::utils::</text>
<text xml:space="preserve" text-anchor="middle" x="275.62" y="-168.5" font-family="Helvetica,sans-Serif" font-size="10.00">UtilsFactory::createLogger</text>
</a>
</g>
</g>
<!-- Node1&#45;&gt;Node6 -->
<g id="edge7_Node000001_Node000006" class="edge">
<title>Node1&#45;&gt;Node6</title>
<g id="a_edge7_Node000001_Node000006"><a xlink:title=" ">
<path fill="none" stroke="#63b8ff" d="M158.25,-191.15C171.41,-189.66 185.05,-188.12 198.16,-186.64"/>
<polygon fill="#63b8ff" stroke="#63b8ff" points="198.48,-190.12 208.02,-185.52 197.69,-183.17 198.48,-190.12"/>
</a>
</g>
</g>
<!-- Node10 -->
<g id="Node000010" class="node">
<title>Node10</title>
<g id="a_Node000010"><a xlink:href="classdotnamecpp_1_1utils_1_1UtilsFactory.html#a0c936eaf300e6f9b9014659d4ce6801c" target="_top" xlink:title=" ">
<polygon fill="white" stroke="#666666" points="356.38,-144 194.88,-144 194.88,-112 356.38,-112 356.38,-144"/>
<text xml:space="preserve" text-anchor="start" x="202.88" y="-130.5" font-family="Helvetica,sans-Serif" font-size="10.00">dotnamecpp::utils::</text>
<text xml:space="preserve" text-anchor="middle" x="275.62" y="-118.5" font-family="Helvetica,sans-Serif" font-size="10.00">UtilsFactory::createPathResolver</text>
</a>
</g>
</g>
<!-- Node1&#45;&gt;Node10 -->
<g id="edge11_Node000001_Node000010" class="edge">
<title>Node1&#45;&gt;Node10</title>
<g id="a_edge11_Node000001_Node000010"><a xlink:title=" ">
<path fill="none" stroke="#63b8ff" d="M117.24,-183.57C139.3,-174.12 167.89,-162.31 193.75,-153 198.47,-151.3 203.36,-149.61 208.3,-147.96"/>
<polygon fill="#63b8ff" stroke="#63b8ff" points="209.3,-151.32 217.71,-144.88 207.12,-144.66 209.3,-151.32"/>
</a>
</g>
</g>
<!-- Node11 -->
<g id="Node000011" class="node">
<title>Node11</title>
<g id="a_Node000011"><a xlink:href="classdotnamecpp_1_1utils_1_1UtilsFactory.html#a5dd47e86b64ad3d8efb881d5b6db1f9d" target="_top" xlink:title=" ">
<polygon fill="white" stroke="#666666" points="353.38,-94 197.88,-94 197.88,-62 353.38,-62 353.38,-94"/>
<text xml:space="preserve" text-anchor="start" x="205.88" y="-80.5" font-family="Helvetica,sans-Serif" font-size="10.00">dotnamecpp::utils::</text>
<text xml:space="preserve" text-anchor="middle" x="275.62" y="-68.5" font-family="Helvetica,sans-Serif" font-size="10.00">UtilsFactory::createPlatformInfo</text>
</a>
</g>
</g>
<!-- Node1&#45;&gt;Node11 -->
<g id="edge12_Node000001_Node000011" class="edge">
<title>Node1&#45;&gt;Node11</title>
<g id="a_edge12_Node000001_Node000011"><a xlink:title=" ">
<path fill="none" stroke="#63b8ff" d="M94.9,-183.59C115.33,-162.18 153.92,-124.9 193.75,-103 196.38,-101.56 199.1,-100.18 201.88,-98.88"/>
<polygon fill="#63b8ff" stroke="#63b8ff" points="202.98,-102.22 210.79,-95.06 200.22,-95.79 202.98,-102.22"/>
</a>
</g>
</g>
<!-- Node13 -->
<g id="Node000013" class="node">
<title>Node13</title>
<g id="a_Node000013"><a xlink:href="classdotnamecpp_1_1utils_1_1UtilsFactory.html#af91cb262af886be48e1ec821f2f9e8db" target="_top" xlink:title=" ">
<polygon fill="white" stroke="#666666" points="339.5,-44 211.75,-44 211.75,0 339.5,0 339.5,-44"/>
<text xml:space="preserve" text-anchor="start" x="219.75" y="-30.5" font-family="Helvetica,sans-Serif" font-size="10.00">dotnamecpp::utils::</text>
<text xml:space="preserve" text-anchor="start" x="219.75" y="-18.5" font-family="Helvetica,sans-Serif" font-size="10.00">UtilsFactory::createString</text>
<text xml:space="preserve" text-anchor="middle" x="275.62" y="-6.5" font-family="Helvetica,sans-Serif" font-size="10.00">Formatter</text>
</a>
</g>
</g>
<!-- Node1&#45;&gt;Node13 -->
<g id="edge14_Node000001_Node000013" class="edge">
<title>Node1&#45;&gt;Node13</title>
<g id="a_edge14_Node000001_Node000013"><a xlink:title=" ">
<path fill="none" stroke="#63b8ff" d="M88.34,-183.96C104.82,-154.17 143.99,-89.96 193.75,-53 196.21,-51.17 198.79,-49.44 201.46,-47.8"/>
<polygon fill="#63b8ff" stroke="#63b8ff" points="203.08,-50.9 210.12,-42.98 199.68,-44.78 203.08,-50.9"/>
</a>
</g>
</g>
<!-- Node5&#45;&gt;Node3 -->
<g id="edge5_Node000005_Node000003" class="edge">
<title>Node5&#45;&gt;Node3</title>
<g id="a_edge5_Node000005_Node000003"><a xlink:title=" ">
<path fill="none" stroke="#63b8ff" d="M357.74,-281.32C365.73,-282.83 373.86,-284.36 381.89,-285.88"/>
<polygon fill="#63b8ff" stroke="#63b8ff" points="381.19,-289.31 391.67,-287.73 382.49,-282.43 381.19,-289.31"/>
</a>
</g>
</g>
<!-- Node5&#45;&gt;Node4 -->
<g id="edge6_Node000005_Node000004" class="edge">
<title>Node5&#45;&gt;Node4</title>
<g id="a_edge6_Node000005_Node000004"><a xlink:title=" ">
<path fill="none" stroke="#63b8ff" d="M357.74,-256.64C366.72,-255.6 375.87,-254.55 384.86,-253.51"/>
<polygon fill="#63b8ff" stroke="#63b8ff" points="385.11,-257 394.64,-252.38 384.31,-250.05 385.11,-257"/>
</a>
</g>
</g>
<!-- Node7 -->
<g id="Node000007" class="node">
<title>Node7</title>
<g id="a_Node000007"><a xlink:href="classdotnamecpp_1_1logging_1_1LoggerFactory.html#a2811f86fe84698397f09f3ae18959511" target="_top" xlink:title="Create a logger instance based on the specified type and configuration.">
<polygon fill="white" stroke="#666666" points="526.88,-194 409.62,-194 409.62,-162 526.88,-162 526.88,-194"/>
<text xml:space="preserve" text-anchor="start" x="417.62" y="-180.5" font-family="Helvetica,sans-Serif" font-size="10.00">dotnamecpp::logging</text>
<text xml:space="preserve" text-anchor="middle" x="468.25" y="-168.5" font-family="Helvetica,sans-Serif" font-size="10.00">::LoggerFactory::create</text>
</a>
</g>
</g>
<!-- Node6&#45;&gt;Node7 -->
<g id="edge8_Node000006_Node000007" class="edge">
<title>Node6&#45;&gt;Node7</title>
<g id="a_edge8_Node000006_Node000007"><a xlink:title=" ">
<path fill="none" stroke="#63b8ff" d="M341.69,-178C359.74,-178 379.4,-178 397.69,-178"/>
<polygon fill="#63b8ff" stroke="#63b8ff" points="397.67,-181.5 407.67,-178 397.67,-174.5 397.67,-181.5"/>
</a>
</g>
</g>
<!-- Node8 -->
<g id="Node000008" class="node">
<title>Node8</title>
<g id="a_Node000008"><a xlink:href="classdotnamecpp_1_1logging_1_1LoggerFactory.html#a66665981d61ca1baae6f1801a597bb65" target="_top" xlink:title="Create a Console object logger.">
<polygon fill="white" stroke="#666666" points="732.25,-219 579,-219 579,-187 732.25,-187 732.25,-219"/>
<text xml:space="preserve" text-anchor="start" x="587" y="-205.5" font-family="Helvetica,sans-Serif" font-size="10.00">dotnamecpp::logging</text>
<text xml:space="preserve" text-anchor="middle" x="655.62" y="-193.5" font-family="Helvetica,sans-Serif" font-size="10.00">::LoggerFactory::createConsole</text>
</a>
</g>
</g>
<!-- Node7&#45;&gt;Node8 -->
<g id="edge9_Node000007_Node000008" class="edge">
<title>Node7&#45;&gt;Node8</title>
<g id="a_edge9_Node000007_Node000008"><a xlink:title=" ">
<path fill="none" stroke="#63b8ff" d="M527.14,-185.81C539.92,-187.53 553.74,-189.39 567.39,-191.24"/>
<polygon fill="#63b8ff" stroke="#63b8ff" points="566.92,-194.7 577.3,-192.57 567.86,-187.77 566.92,-194.7"/>
</a>
</g>
</g>
<!-- Node9 -->
<g id="Node000009" class="node">
<title>Node9</title>
<g id="a_Node000009"><a xlink:href="classdotnamecpp_1_1logging_1_1LoggerFactory.html#a1cf52c1ddb57eae93a5aab46b593d021" target="_top" xlink:title="Create a Null object logger.">
<polygon fill="white" stroke="#666666" points="722.88,-169 588.38,-169 588.38,-137 722.88,-137 722.88,-169"/>
<text xml:space="preserve" text-anchor="start" x="596.38" y="-155.5" font-family="Helvetica,sans-Serif" font-size="10.00">dotnamecpp::logging</text>
<text xml:space="preserve" text-anchor="middle" x="655.62" y="-143.5" font-family="Helvetica,sans-Serif" font-size="10.00">::LoggerFactory::createNull</text>
</a>
</g>
</g>
<!-- Node7&#45;&gt;Node9 -->
<g id="edge10_Node000007_Node000009" class="edge">
<title>Node7&#45;&gt;Node9</title>
<g id="a_edge10_Node000007_Node000009"><a xlink:title=" ">
<path fill="none" stroke="#63b8ff" d="M527.14,-170.19C542.85,-168.07 560.12,-165.75 576.74,-163.5"/>
<polygon fill="#63b8ff" stroke="#63b8ff" points="577.17,-166.98 586.61,-162.17 576.23,-160.04 577.17,-166.98"/>
</a>
</g>
</g>
<!-- Node12 -->
<g id="Node000012" class="node">
<title>Node12</title>
<g id="a_Node000012"><a xlink:href="classdotnamecpp_1_1utils_1_1PlatformInfoFactory.html#ab7dafcf5ba115a99f7d80fa045639f84" target="_top" xlink:title=" ">
<polygon fill="white" stroke="#666666" points="534.38,-100 402.12,-100 402.12,-56 534.38,-56 534.38,-100"/>
<text xml:space="preserve" text-anchor="start" x="410.12" y="-86.5" font-family="Helvetica,sans-Serif" font-size="10.00">dotnamecpp::utils::</text>
<text xml:space="preserve" text-anchor="start" x="410.12" y="-74.5" font-family="Helvetica,sans-Serif" font-size="10.00">PlatformInfoFactory</text>
<text xml:space="preserve" text-anchor="middle" x="468.25" y="-62.5" font-family="Helvetica,sans-Serif" font-size="10.00">::createForCurrentPlatform</text>
</a>
</g>
</g>
<!-- Node11&#45;&gt;Node12 -->
<g id="edge13_Node000011_Node000012" class="edge">
<title>Node11&#45;&gt;Node12</title>
<g id="a_edge13_Node000011_Node000012"><a xlink:title=" ">
<path fill="none" stroke="#63b8ff" d="M353.61,-78C365.75,-78 378.3,-78 390.43,-78"/>
<polygon fill="#63b8ff" stroke="#63b8ff" points="390.4,-81.5 400.4,-78 390.4,-74.5 390.4,-81.5"/>
</a>
</g>
</g>
</g>
</svg>
