<?xml version="1.0" encoding="UTF-8" standalone="no"?>
<!DOCTYPE svg PUBLIC "-//W3C//DTD SVG 1.1//EN"
 "http://www.w3.org/Graphics/SVG/1.1/DTD/svg11.dtd">
<!-- Generated by graphviz version 13.1.2 (20250808.2320)
 -->
<!-- Title: include/DotNameLib/DotNameLib.hpp Pages: 1 -->
<!--zoomable 276 -->

<svg id="main" version="1.1" xmlns="http://www.w3.org/2000/svg" xmlns:xlink="http://www.w3.org/1999/xlink" xml:space="preserve" onload="init(evt)">

<style type="text/css"><![CDATA[
.node, .edge {opacity: 0.7;}
.node.selected, .edge.selected {opacity: 1;}
.edge:hover path { stroke: red; }
.edge:hover polygon { stroke: red; fill: red; }
]]></style>

<defs>
  <circle id="rim" cx="0" cy="0" r="7"/>
  <circle id="rim2" cx="0" cy="0" r="3.5"/>
  <g id="zoomPlus">
    <use xlink:href="#rim" fill="#404040"><set attributeName="fill" to="#808080" begin="zoomplus.mouseover" end="zoomplus.mouseout"/></use>
    <path d="M-4,0h8M0,-4v8" fill="none" stroke="white" stroke-width="1.5" pointer-events="none"/>
  </g>
  <g id="zoomMin">
    <use xlink:href="#rim" fill="#404040"><set attributeName="fill" to="#808080" begin="zoomminus.mouseover" end="zoomminus.mouseout"/></use>
    <path d="M-4,0h8" fill="none" stroke="white" stroke-width="1.5" pointer-events="none"/>
  </g>
  <g id="arrowUp" transform="translate(30 24)">
    <use xlink:href="#rim"/>
    <path pointer-events="none" fill="none" stroke="white" stroke-width="1.5" d="M0,-3.0v7 M-2.5,-0.5L0,-3.0L2.5,-0.5"/>
  </g>
  <g id="arrowRight" transform="rotate(90) translate(36 -43)">
    <use xlink:href="#rim"/>
    <path pointer-events="none" fill="none" stroke="white" stroke-width="1.5" d="M0,-3.0v7 M-2.5,-0.5L0,-3.0L2.5,-0.5"/>
  </g>
  <g id="arrowDown" transform="rotate(180) translate(-30 -48)">
    <use xlink:href="#rim"/>
    <path pointer-events="none" fill="none" stroke="white" stroke-width="1.5" d="M0,-3.0v7 M-2.5,-0.5L0,-3.0L2.5,-0.5"/>
  </g>
  <g id="arrowLeft" transform="rotate(270) translate(-36 17)">
    <use xlink:href="#rim"/>
    <path pointer-events="none" fill="none" stroke="white" stroke-width="1.5" d="M0,-3.0v7 M-2.5,-0.5L0,-3.0L2.5,-0.5"/>
  </g>
  <g id="resetDef">
    <use xlink:href="#rim2" fill="#404040"><set attributeName="fill" to="#808080" begin="reset.mouseover" end="reset.mouseout"/></use>
  </g>
</defs>
<script type="application/ecmascript">
var viewWidth = 1923;
var viewHeight = 276;
var sectionId = 'dynsection-0';
</script>
<script type="application/ecmascript" xlink:href="svg.min.js"/>
<svg id="graph" class="graph">
<g id="viewport">
<title>include/DotNameLib/DotNameLib.hpp</title>
<!-- Node1 -->
<g id="Node000001" class="node">
<title>Node1</title>
<g id="a_Node000001"><a xlink:title=" ">
<polygon fill="#999999" stroke="#666666" points="1010,-268 905.5,-268 905.5,-236 1010,-236 1010,-268"/>
<text xml:space="preserve" text-anchor="start" x="913.5" y="-254.5" font-family="Helvetica,sans-Serif" font-size="10.00">include/DotNameLib</text>
<text xml:space="preserve" text-anchor="middle" x="957.75" y="-242.5" font-family="Helvetica,sans-Serif" font-size="10.00">/DotNameLib.hpp</text>
</a>
</g>
</g>
<!-- Node2 -->
<g id="Node000002" class="node">
<title>Node2</title>
<g id="a_Node000002"><a xlink:title=" ">
<polygon fill="#e0e0e0" stroke="#999999" points="113.5,-138 0,-138 0,-118 113.5,-118 113.5,-138"/>
<text xml:space="preserve" text-anchor="middle" x="56.75" y="-124.5" font-family="Helvetica,sans-Serif" font-size="10.00">DotNameLib/version.h</text>
</a>
</g>
</g>
<!-- Node1&#45;&gt;Node2 -->
<g id="edge1_Node000001_Node000002" class="edge">
<title>Node1&#45;&gt;Node2</title>
<g id="a_edge1_Node000001_Node000002"><a xlink:title=" ">
<path fill="none" stroke="#63b8ff" d="M905.21,-246.04C773.12,-233.18 416.68,-196.11 122.75,-144 117.46,-143.06 111.95,-141.98 106.48,-140.84"/>
<polygon fill="#63b8ff" stroke="#63b8ff" points="107.36,-137.45 96.84,-138.75 105.87,-144.29 107.36,-137.45"/>
</a>
</g>
</g>
<!-- Node3 -->
<g id="Node000003" class="node">
<title>Node3</title>
<g id="a_Node000003"><a xlink:href="UtilsFactory_8hpp.html" target="_top" xlink:title=" ">
<polygon fill="white" stroke="#666666" points="1013,-200 902.5,-200 902.5,-180 1013,-180 1013,-200"/>
<text xml:space="preserve" text-anchor="middle" x="957.75" y="-186.5" font-family="Helvetica,sans-Serif" font-size="10.00">Utils/UtilsFactory.hpp</text>
</a>
</g>
</g>
<!-- Node1&#45;&gt;Node3 -->
<g id="edge2_Node000001_Node000003" class="edge">
<title>Node1&#45;&gt;Node3</title>
<g id="a_edge2_Node000001_Node000003"><a xlink:title=" ">
<path fill="none" stroke="#63b8ff" d="M957.75,-235.55C957.75,-228.34 957.75,-219.66 957.75,-211.88"/>
<polygon fill="#63b8ff" stroke="#63b8ff" points="961.25,-211.92 957.75,-201.92 954.25,-211.92 961.25,-211.92"/>
</a>
</g>
</g>
<!-- Node22 -->
<g id="Node000022" class="node">
<title>Node22</title>
<g id="a_Node000022"><a xlink:title=" ">
<polygon fill="#e0e0e0" stroke="#999999" points="1895.38,-20 1844.12,-20 1844.12,0 1895.38,0 1895.38,-20"/>
<text xml:space="preserve" text-anchor="middle" x="1869.75" y="-6.5" font-family="Helvetica,sans-Serif" font-size="10.00">memory</text>
</a>
</g>
</g>
<!-- Node1&#45;&gt;Node22 -->
<g id="edge63_Node000001_Node000022" class="edge">
<title>Node1&#45;&gt;Node22</title>
<g id="a_edge63_Node000001_Node000022"><a xlink:title=" ">
<path fill="none" stroke="#63b8ff" d="M1010.29,-248.87C1199.15,-240.68 1835.8,-208.47 1897.75,-144 1924.89,-115.75 1914.94,-93.23 1902.75,-56 1899.49,-46.05 1893.11,-36.48 1886.81,-28.75"/>
<polygon fill="#63b8ff" stroke="#63b8ff" points="1889.63,-26.65 1880.4,-21.45 1884.37,-31.27 1889.63,-26.65"/>
</a>
</g>
</g>
<!-- Node3&#45;&gt;Node2 -->
<g id="edge3_Node000003_Node000002" class="edge">
<title>Node3&#45;&gt;Node2</title>
<g id="a_edge3_Node000003_Node000002"><a xlink:title=" ">
<path fill="none" stroke="#63b8ff" d="M902.24,-189.25C767.78,-189.15 414.27,-184.68 122.75,-144 116.71,-143.16 110.41,-142.04 104.2,-140.79"/>
<polygon fill="#63b8ff" stroke="#63b8ff" points="105.19,-137.43 94.68,-138.76 103.73,-144.27 105.19,-137.43"/>
</a>
</g>
</g>
<!-- Node4 -->
<g id="Node000004" class="node">
<title>Node4</title>
<g id="a_Node000004"><a xlink:href="IAssetManager_8hpp.html" target="_top" xlink:title=" ">
<polygon fill="white" stroke="#666666" points="778.62,-138 620.88,-138 620.88,-118 778.62,-118 778.62,-138"/>
<text xml:space="preserve" text-anchor="middle" x="699.75" y="-124.5" font-family="Helvetica,sans-Serif" font-size="10.00">Utils/Assets/IAssetManager.hpp</text>
</a>
</g>
</g>
<!-- Node3&#45;&gt;Node4 -->
<g id="edge4_Node000003_Node000004" class="edge">
<title>Node3&#45;&gt;Node4</title>
<g id="a_edge4_Node000003_Node000004"><a xlink:title=" ">
<path fill="none" stroke="#63b8ff" d="M917.15,-179.56C872.39,-169.15 800.27,-152.38 751.49,-141.03"/>
<polygon fill="#63b8ff" stroke="#63b8ff" points="752.54,-137.68 742.01,-138.83 750.96,-144.5 752.54,-137.68"/>
</a>
</g>
</g>
<!-- Node5 -->
<g id="Node000005" class="node">
<title>Node5</title>
<g id="a_Node000005"><a xlink:title=" ">
<polygon fill="#e0e0e0" stroke="#999999" points="1002.25,-76 941.25,-76 941.25,-56 1002.25,-56 1002.25,-76"/>
<text xml:space="preserve" text-anchor="middle" x="971.75" y="-62.5" font-family="Helvetica,sans-Serif" font-size="10.00">filesystem</text>
</a>
</g>
</g>
<!-- Node3&#45;&gt;Node5 -->
<g id="edge61_Node000003_Node000005" class="edge">
<title>Node3&#45;&gt;Node5</title>
<g id="a_edge61_Node000003_Node000005"><a xlink:title=" ">
<path fill="none" stroke="#63b8ff" d="M958.8,-179.83C961.04,-160.31 966.33,-114.25 969.41,-87.4"/>
<polygon fill="#63b8ff" stroke="#63b8ff" points="972.85,-88.11 970.51,-77.78 965.9,-87.32 972.85,-88.11"/>
</a>
</g>
</g>
<!-- Node6 -->
<g id="Node000006" class="node">
<title>Node6</title>
<g id="a_Node000006"><a xlink:href="IDirectoryManager_8hpp.html" target="_top" xlink:title=" ">
<polygon fill="white" stroke="#666666" points="929.25,-144 796.25,-144 796.25,-112 929.25,-112 929.25,-144"/>
<text xml:space="preserve" text-anchor="start" x="804.25" y="-130.5" font-family="Helvetica,sans-Serif" font-size="10.00">Utils/Filesystem/IDirectory</text>
<text xml:space="preserve" text-anchor="middle" x="862.75" y="-118.5" font-family="Helvetica,sans-Serif" font-size="10.00">Manager.hpp</text>
</a>
</g>
</g>
<!-- Node3&#45;&gt;Node6 -->
<g id="edge6_Node000003_Node000006" class="edge">
<title>Node3&#45;&gt;Node6</title>
<g id="a_edge6_Node000003_Node000006"><a xlink:title=" ">
<path fill="none" stroke="#63b8ff" d="M942.91,-179.62C930.55,-171.82 912.47,-160.4 896.61,-150.38"/>
<polygon fill="#63b8ff" stroke="#63b8ff" points="898.7,-147.56 888.37,-145.18 894.96,-153.48 898.7,-147.56"/>
</a>
</g>
</g>
<!-- Node14 -->
<g id="Node000014" class="node">
<title>Node14</title>
<g id="a_Node000014"><a xlink:href="IFileReader_8hpp.html" target="_top" xlink:title=" ">
<polygon fill="white" stroke="#666666" points="1334.38,-138 1175.12,-138 1175.12,-118 1334.38,-118 1334.38,-138"/>
<text xml:space="preserve" text-anchor="middle" x="1254.75" y="-124.5" font-family="Helvetica,sans-Serif" font-size="10.00">Utils/Filesystem/IFileReader.hpp</text>
</a>
</g>
</g>
<!-- Node3&#45;&gt;Node14 -->
<g id="edge15_Node000003_Node000014" class="edge">
<title>Node3&#45;&gt;Node14</title>
<g id="a_edge15_Node000003_Node000014"><a xlink:title=" ">
<path fill="none" stroke="#63b8ff" d="M1004.48,-179.56C1056.44,-169.06 1140.44,-152.09 1196.61,-140.75"/>
<polygon fill="#63b8ff" stroke="#63b8ff" points="1197.21,-144.2 1206.32,-138.78 1195.82,-137.33 1197.21,-144.2"/>
</a>
</g>
</g>
<!-- Node15 -->
<g id="Node000015" class="node">
<title>Node15</title>
<g id="a_Node000015"><a xlink:href="IFileWriter_8hpp.html" target="_top" xlink:title=" ">
<polygon fill="white" stroke="#666666" points="1505.38,-138 1352.12,-138 1352.12,-118 1505.38,-118 1505.38,-138"/>
<text xml:space="preserve" text-anchor="middle" x="1428.75" y="-124.5" font-family="Helvetica,sans-Serif" font-size="10.00">Utils/Filesystem/IFileWriter.hpp</text>
</a>
</g>
</g>
<!-- Node3&#45;&gt;Node15 -->
<g id="edge21_Node000003_Node000015" class="edge">
<title>Node3&#45;&gt;Node15</title>
<g id="a_edge21_Node000003_Node000015"><a xlink:title=" ">
<path fill="none" stroke="#63b8ff" d="M1013.5,-183.54C1088.66,-175.94 1226.59,-161.15 1343.75,-144 1351.22,-142.91 1359.04,-141.66 1366.79,-140.37"/>
<polygon fill="#63b8ff" stroke="#63b8ff" points="1367.28,-143.84 1376.55,-138.71 1366.1,-136.94 1367.28,-143.84"/>
</a>
</g>
</g>
<!-- Node16 -->
<g id="Node000016" class="node">
<title>Node16</title>
<g id="a_Node000016"><a xlink:href="IPathResolver_8hpp.html" target="_top" xlink:title=" ">
<polygon fill="white" stroke="#666666" points="1157.38,-138 986.12,-138 986.12,-118 1157.38,-118 1157.38,-138"/>
<text xml:space="preserve" text-anchor="middle" x="1071.75" y="-124.5" font-family="Helvetica,sans-Serif" font-size="10.00">Utils/Filesystem/IPathResolver.hpp</text>
</a>
</g>
</g>
<!-- Node3&#45;&gt;Node16 -->
<g id="edge27_Node000003_Node000016" class="edge">
<title>Node3&#45;&gt;Node16</title>
<g id="a_edge27_Node000003_Node000016"><a xlink:title=" ">
<path fill="none" stroke="#63b8ff" d="M975.56,-179.62C993.88,-169.98 1022.67,-154.83 1043.99,-143.61"/>
<polygon fill="#63b8ff" stroke="#63b8ff" points="1045.5,-146.77 1052.72,-139.01 1042.24,-140.57 1045.5,-146.77"/>
</a>
</g>
</g>
<!-- Node17 -->
<g id="Node000017" class="node">
<title>Node17</title>
<g id="a_Node000017"><a xlink:href="ICustomStringsLoader_8hpp.html" target="_top" xlink:title=" ">
<polygon fill="white" stroke="#666666" points="263.5,-144 132,-144 132,-112 263.5,-112 263.5,-144"/>
<text xml:space="preserve" text-anchor="start" x="140" y="-130.5" font-family="Helvetica,sans-Serif" font-size="10.00">Utils/Json/ICustomStrings</text>
<text xml:space="preserve" text-anchor="middle" x="197.75" y="-118.5" font-family="Helvetica,sans-Serif" font-size="10.00">Loader.hpp</text>
</a>
</g>
</g>
<!-- Node3&#45;&gt;Node17 -->
<g id="edge32_Node000003_Node000017" class="edge">
<title>Node3&#45;&gt;Node17</title>
<g id="a_edge32_Node000003_Node000017"><a xlink:title=" ">
<path fill="none" stroke="#63b8ff" d="M902,-187.56C785.61,-184.06 508.4,-173.15 277.75,-144 276.74,-143.87 275.72,-143.74 274.7,-143.6"/>
<polygon fill="#63b8ff" stroke="#63b8ff" points="275.47,-140.18 265.07,-142.2 274.46,-147.11 275.47,-140.18"/>
</a>
</g>
</g>
<!-- Node19 -->
<g id="Node000019" class="node">
<title>Node19</title>
<g id="a_Node000019"><a xlink:href="IJsonSerializer_8hpp.html" target="_top" xlink:title=" ">
<polygon fill="white" stroke="#666666" points="466,-138 319.5,-138 319.5,-118 466,-118 466,-138"/>
<text xml:space="preserve" text-anchor="middle" x="392.75" y="-124.5" font-family="Helvetica,sans-Serif" font-size="10.00">Utils/Json/IJsonSerializer.hpp</text>
</a>
</g>
</g>
<!-- Node3&#45;&gt;Node19 -->
<g id="edge37_Node000003_Node000019" class="edge">
<title>Node3&#45;&gt;Node19</title>
<g id="a_edge37_Node000003_Node000019"><a xlink:title=" ">
<path fill="none" stroke="#63b8ff" d="M902.27,-185.37C812.42,-179.15 629.59,-165.04 475.75,-144 468.06,-142.95 459.99,-141.69 452.04,-140.35"/>
<polygon fill="#63b8ff" stroke="#63b8ff" points="452.86,-136.94 442.41,-138.68 451.66,-143.84 452.86,-136.94"/>
</a>
</g>
</g>
<!-- Node20 -->
<g id="Node000020" class="node">
<title>Node20</title>
<g id="a_Node000020"><a xlink:href="ILogger_8hpp.html" target="_top" xlink:title=" ">
<polygon fill="white" stroke="#666666" points="1643,-76 1520.5,-76 1520.5,-56 1643,-56 1643,-76"/>
<text xml:space="preserve" text-anchor="middle" x="1581.75" y="-62.5" font-family="Helvetica,sans-Serif" font-size="10.00">Utils/Logger/ILogger.hpp</text>
</a>
</g>
</g>
<!-- Node3&#45;&gt;Node20 -->
<g id="edge42_Node000003_Node000020" class="edge">
<title>Node3&#45;&gt;Node20</title>
<g id="a_edge42_Node000003_Node000020"><a xlink:title=" ">
<path fill="none" stroke="#63b8ff" d="M1013.16,-189.76C1136.17,-190.61 1428.04,-187.79 1514.75,-144 1539.89,-131.3 1559.63,-104.7 1571,-86.34"/>
<polygon fill="#63b8ff" stroke="#63b8ff" points="1574.01,-88.12 1576.06,-77.73 1567.98,-84.57 1574.01,-88.12"/>
</a>
</g>
</g>
<!-- Node3&#45;&gt;Node22 -->
<g id="edge62_Node000003_Node000022" class="edge">
<title>Node3&#45;&gt;Node22</title>
<g id="a_edge62_Node000003_Node000022"><a xlink:title=" ">
<path fill="none" stroke="#63b8ff" d="M1013.49,-188.37C1208.06,-185.88 1846.89,-175.36 1876.75,-144 1905.62,-113.68 1890.15,-59.72 1878.62,-30.73"/>
<polygon fill="#63b8ff" stroke="#63b8ff" points="1881.92,-29.53 1874.8,-21.69 1875.47,-32.26 1881.92,-29.53"/>
</a>
</g>
</g>
<!-- Node24 -->
<g id="Node000024" class="node">
<title>Node24</title>
<g id="a_Node000024"><a xlink:href="LoggerFactory_8hpp.html" target="_top" xlink:title=" ">
<polygon fill="white" stroke="#666666" points="1867.62,-138 1715.88,-138 1715.88,-118 1867.62,-118 1867.62,-138"/>
<text xml:space="preserve" text-anchor="middle" x="1791.75" y="-124.5" font-family="Helvetica,sans-Serif" font-size="10.00">Utils/Logger/LoggerFactory.hpp</text>
</a>
</g>
</g>
<!-- Node3&#45;&gt;Node24 -->
<g id="edge48_Node000003_Node000024" class="edge">
<title>Node3&#45;&gt;Node24</title>
<g id="a_edge48_Node000003_Node000024"><a xlink:title=" ">
<path fill="none" stroke="#63b8ff" d="M1013.38,-187.84C1137.95,-184.76 1448.65,-174.43 1706.75,-144 1715.13,-143.01 1723.94,-141.73 1732.58,-140.34"/>
<polygon fill="#63b8ff" stroke="#63b8ff" points="1733.02,-143.81 1742.3,-138.7 1731.86,-136.91 1733.02,-143.81"/>
</a>
</g>
</g>
<!-- Node25 -->
<g id="Node000025" class="node">
<title>Node25</title>
<g id="a_Node000025"><a xlink:href="NullLogger_8hpp.html" target="_top" xlink:title=" ">
<polygon fill="white" stroke="#666666" points="1698.12,-138 1561.38,-138 1561.38,-118 1698.12,-118 1698.12,-138"/>
<text xml:space="preserve" text-anchor="middle" x="1629.75" y="-124.5" font-family="Helvetica,sans-Serif" font-size="10.00">Utils/Logger/NullLogger.hpp</text>
</a>
</g>
</g>
<!-- Node3&#45;&gt;Node25 -->
<g id="edge52_Node000003_Node000025" class="edge">
<title>Node3&#45;&gt;Node25</title>
<g id="a_edge52_Node000003_Node000025"><a xlink:title=" ">
<path fill="none" stroke="#63b8ff" d="M1013.26,-186.71C1118.07,-181.95 1352.14,-169.28 1547.75,-144 1555.46,-143 1563.54,-141.77 1571.5,-140.43"/>
<polygon fill="#63b8ff" stroke="#63b8ff" points="1571.88,-143.92 1581.13,-138.75 1570.68,-137.02 1571.88,-143.92"/>
</a>
</g>
</g>
<!-- Node26 -->
<g id="Node000026" class="node">
<title>Node26</title>
<g id="a_Node000026"><a xlink:href="IPlatformInfo_8hpp.html" target="_top" xlink:title=" ">
<polygon fill="white" stroke="#666666" points="603.12,-144 484.38,-144 484.38,-112 603.12,-112 603.12,-144"/>
<text xml:space="preserve" text-anchor="start" x="492.38" y="-130.5" font-family="Helvetica,sans-Serif" font-size="10.00">Utils/Platform/IPlatform</text>
<text xml:space="preserve" text-anchor="middle" x="543.75" y="-118.5" font-family="Helvetica,sans-Serif" font-size="10.00">Info.hpp</text>
</a>
</g>
</g>
<!-- Node3&#45;&gt;Node26 -->
<g id="edge54_Node000003_Node000026" class="edge">
<title>Node3&#45;&gt;Node26</title>
<g id="a_edge54_Node000003_Node000026"><a xlink:title=" ">
<path fill="none" stroke="#63b8ff" d="M902.09,-183.28C835.88,-176.15 721.77,-162.78 614.73,-144.43"/>
<polygon fill="#63b8ff" stroke="#63b8ff" points="615.34,-140.99 604.89,-142.73 614.14,-147.88 615.34,-140.99"/>
</a>
</g>
</g>
<!-- Node27 -->
<g id="Node000027" class="node">
<title>Node27</title>
<g id="a_Node000027"><a xlink:href="IStringFormatter_8hpp.html" target="_top" xlink:title=" ">
<polygon fill="white" stroke="#666666" points="402.25,-76 245.25,-76 245.25,-56 402.25,-56 402.25,-76"/>
<text xml:space="preserve" text-anchor="middle" x="323.75" y="-62.5" font-family="Helvetica,sans-Serif" font-size="10.00">Utils/String/IStringFormatter.hpp</text>
</a>
</g>
</g>
<!-- Node3&#45;&gt;Node27 -->
<g id="edge59_Node000003_Node000027" class="edge">
<title>Node3&#45;&gt;Node27</title>
<g id="a_edge59_Node000003_Node000027"><a xlink:title=" ">
<path fill="none" stroke="#63b8ff" d="M902.25,-189.36C752.85,-189.76 350.69,-186.81 310.75,-144 296.49,-128.71 304.13,-103.9 312.46,-86.59"/>
<polygon fill="#63b8ff" stroke="#63b8ff" points="315.52,-88.28 317.1,-77.81 309.33,-85.01 315.52,-88.28"/>
</a>
</g>
</g>
<!-- Node4&#45;&gt;Node5 -->
<g id="edge5_Node000004_Node000005" class="edge">
<title>Node4&#45;&gt;Node5</title>
<g id="a_edge5_Node000004_Node000005"><a xlink:title=" ">
<path fill="none" stroke="#63b8ff" d="M742.55,-117.56C793.76,-106.26 878.96,-87.47 929.8,-76.25"/>
<polygon fill="#63b8ff" stroke="#63b8ff" points="930.53,-79.68 939.54,-74.11 929.02,-72.84 930.53,-79.68"/>
</a>
</g>
</g>
<!-- Node6&#45;&gt;Node5 -->
<g id="edge13_Node000006_Node000005" class="edge">
<title>Node6&#45;&gt;Node5</title>
<g id="a_edge13_Node000006_Node000005"><a xlink:title=" ">
<path fill="none" stroke="#63b8ff" d="M890.82,-111.55C907.38,-102.43 928.23,-90.96 944.62,-81.93"/>
<polygon fill="#63b8ff" stroke="#63b8ff" points="946.26,-85.03 953.33,-77.14 942.88,-78.89 946.26,-85.03"/>
</a>
</g>
</g>
<!-- Node7 -->
<g id="Node000007" class="node">
<title>Node7</title>
<g id="a_Node000007"><a xlink:href="UtilsError_8hpp.html" target="_top" xlink:title=" ">
<polygon fill="white" stroke="#666666" points="846.38,-76 747.12,-76 747.12,-56 846.38,-56 846.38,-76"/>
<text xml:space="preserve" text-anchor="middle" x="796.75" y="-62.5" font-family="Helvetica,sans-Serif" font-size="10.00">Utils/UtilsError.hpp</text>
</a>
</g>
</g>
<!-- Node6&#45;&gt;Node7 -->
<g id="edge7_Node000006_Node000007" class="edge">
<title>Node6&#45;&gt;Node7</title>
<g id="a_edge7_Node000006_Node000007"><a xlink:title=" ">
<path fill="none" stroke="#63b8ff" d="M845.75,-111.55C836.49,-103.13 825.01,-92.69 815.49,-84.04"/>
<polygon fill="#63b8ff" stroke="#63b8ff" points="817.97,-81.56 808.22,-77.43 813.26,-86.74 817.97,-81.56"/>
</a>
</g>
</g>
<!-- Node13 -->
<g id="Node000013" class="node">
<title>Node13</title>
<g id="a_Node000013"><a xlink:title=" ">
<polygon fill="#e0e0e0" stroke="#999999" points="1144.25,-76 1101.25,-76 1101.25,-56 1144.25,-56 1144.25,-76"/>
<text xml:space="preserve" text-anchor="middle" x="1122.75" y="-62.5" font-family="Helvetica,sans-Serif" font-size="10.00">vector</text>
</a>
</g>
</g>
<!-- Node6&#45;&gt;Node13 -->
<g id="edge14_Node000006_Node000013" class="edge">
<title>Node6&#45;&gt;Node13</title>
<g id="a_edge14_Node000006_Node000013"><a xlink:title=" ">
<path fill="none" stroke="#63b8ff" d="M929.71,-111.55C981.06,-99.7 1049.73,-83.85 1089.81,-74.6"/>
<polygon fill="#63b8ff" stroke="#63b8ff" points="1090.37,-78.06 1099.33,-72.41 1088.8,-71.24 1090.37,-78.06"/>
</a>
</g>
</g>
<!-- Node8 -->
<g id="Node000008" class="node">
<title>Node8</title>
<g id="a_Node000008"><a xlink:title=" ">
<polygon fill="#e0e0e0" stroke="#999999" points="1277.38,-20 1232.12,-20 1232.12,0 1277.38,0 1277.38,-20"/>
<text xml:space="preserve" text-anchor="middle" x="1254.75" y="-6.5" font-family="Helvetica,sans-Serif" font-size="10.00">cstdint</text>
</a>
</g>
</g>
<!-- Node7&#45;&gt;Node8 -->
<g id="edge8_Node000007_Node000008" class="edge">
<title>Node7&#45;&gt;Node8</title>
<g id="a_edge8_Node000007_Node000008"><a xlink:title=" ">
<path fill="none" stroke="#63b8ff" d="M846.64,-59.12C940.36,-48.07 1140.5,-24.47 1220.58,-15.03"/>
<polygon fill="#63b8ff" stroke="#63b8ff" points="1220.91,-18.51 1230.44,-13.87 1220.09,-11.56 1220.91,-18.51"/>
</a>
</g>
</g>
<!-- Node9 -->
<g id="Node000009" class="node">
<title>Node9</title>
<g id="a_Node000009"><a xlink:title=" ">
<polygon fill="#e0e0e0" stroke="#999999" points="463.62,-20 413.88,-20 413.88,0 463.62,0 463.62,-20"/>
<text xml:space="preserve" text-anchor="middle" x="438.75" y="-6.5" font-family="Helvetica,sans-Serif" font-size="10.00">optional</text>
</a>
</g>
</g>
<!-- Node7&#45;&gt;Node9 -->
<g id="edge9_Node000007_Node000009" class="edge">
<title>Node7&#45;&gt;Node9</title>
<g id="a_edge9_Node000007_Node000009"><a xlink:title=" ">
<path fill="none" stroke="#63b8ff" d="M746.97,-57.49C673.9,-46.47 539.31,-26.17 474.92,-16.46"/>
<polygon fill="#63b8ff" stroke="#63b8ff" points="475.65,-13.03 465.24,-15 474.61,-19.95 475.65,-13.03"/>
</a>
</g>
</g>
<!-- Node10 -->
<g id="Node000010" class="node">
<title>Node10</title>
<g id="a_Node000010"><a xlink:title=" ">
<polygon fill="#e0e0e0" stroke="#999999" points="861.12,-20 802.38,-20 802.38,0 861.12,0 861.12,-20"/>
<text xml:space="preserve" text-anchor="middle" x="831.75" y="-6.5" font-family="Helvetica,sans-Serif" font-size="10.00">stdexcept</text>
</a>
</g>
</g>
<!-- Node7&#45;&gt;Node10 -->
<g id="edge10_Node000007_Node000010" class="edge">
<title>Node7&#45;&gt;Node10</title>
<g id="a_edge10_Node000007_Node000010"><a xlink:title=" ">
<path fill="none" stroke="#63b8ff" d="M802.85,-55.59C807.46,-48.47 813.96,-38.45 819.62,-29.72"/>
<polygon fill="#63b8ff" stroke="#63b8ff" points="822.4,-31.86 824.9,-21.57 816.52,-28.06 822.4,-31.86"/>
</a>
</g>
</g>
<!-- Node11 -->
<g id="Node000011" class="node">
<title>Node11</title>
<g id="a_Node000011"><a xlink:title=" ">
<polygon fill="#e0e0e0" stroke="#999999" points="985.75,-20 945.75,-20 945.75,0 985.75,0 985.75,-20"/>
<text xml:space="preserve" text-anchor="middle" x="965.75" y="-6.5" font-family="Helvetica,sans-Serif" font-size="10.00">string</text>
</a>
</g>
</g>
<!-- Node7&#45;&gt;Node11 -->
<g id="edge11_Node000007_Node000011" class="edge">
<title>Node7&#45;&gt;Node11</title>
<g id="a_edge11_Node000007_Node000011"><a xlink:title=" ">
<path fill="none" stroke="#63b8ff" d="M826.19,-55.59C856.68,-45.85 904.11,-30.7 935.05,-20.81"/>
<polygon fill="#63b8ff" stroke="#63b8ff" points="935.75,-24.26 944.21,-17.88 933.62,-17.59 935.75,-24.26"/>
</a>
</g>
</g>
<!-- Node12 -->
<g id="Node000012" class="node">
<title>Node12</title>
<g id="a_Node000012"><a xlink:title=" ">
<polygon fill="#e0e0e0" stroke="#999999" points="784.38,-20 739.12,-20 739.12,0 784.38,0 784.38,-20"/>
<text xml:space="preserve" text-anchor="middle" x="761.75" y="-6.5" font-family="Helvetica,sans-Serif" font-size="10.00">variant</text>
</a>
</g>
</g>
<!-- Node7&#45;&gt;Node12 -->
<g id="edge12_Node000007_Node000012" class="edge">
<title>Node7&#45;&gt;Node12</title>
<g id="a_edge12_Node000007_Node000012"><a xlink:title=" ">
<path fill="none" stroke="#63b8ff" d="M790.65,-55.59C786.04,-48.47 779.54,-38.45 773.88,-29.72"/>
<polygon fill="#63b8ff" stroke="#63b8ff" points="776.98,-28.06 768.6,-21.57 771.1,-31.86 776.98,-28.06"/>
</a>
</g>
</g>
<!-- Node14&#45;&gt;Node5 -->
<g id="edge18_Node000014_Node000005" class="edge">
<title>Node14&#45;&gt;Node5</title>
<g id="a_edge18_Node000014_Node000005"><a xlink:title=" ">
<path fill="none" stroke="#63b8ff" d="M1210.22,-117.56C1156.27,-106.12 1066.1,-87 1013.45,-75.84"/>
<polygon fill="#63b8ff" stroke="#63b8ff" points="1014.49,-72.48 1003.98,-73.83 1013.04,-79.33 1014.49,-72.48"/>
</a>
</g>
</g>
<!-- Node14&#45;&gt;Node7 -->
<g id="edge16_Node000014_Node000007" class="edge">
<title>Node14&#45;&gt;Node7</title>
<g id="a_edge16_Node000014_Node000007"><a xlink:title=" ">
<path fill="none" stroke="#63b8ff" d="M1201.77,-117.55C1190.24,-115.61 1178.1,-113.66 1166.75,-112 1058.41,-96.19 931.65,-81.62 858.15,-73.56"/>
<polygon fill="#63b8ff" stroke="#63b8ff" points="858.65,-70.09 848.33,-72.49 857.89,-77.05 858.65,-70.09"/>
</a>
</g>
</g>
<!-- Node14&#45;&gt;Node8 -->
<g id="edge17_Node000014_Node000008" class="edge">
<title>Node14&#45;&gt;Node8</title>
<g id="a_edge17_Node000014_Node000008"><a xlink:title=" ">
<path fill="none" stroke="#63b8ff" d="M1254.75,-117.51C1254.75,-98.81 1254.75,-56.82 1254.75,-31.51"/>
<polygon fill="#63b8ff" stroke="#63b8ff" points="1258.25,-31.81 1254.75,-21.81 1251.25,-31.81 1258.25,-31.81"/>
</a>
</g>
</g>
<!-- Node14&#45;&gt;Node11 -->
<g id="edge19_Node000014_Node000011" class="edge">
<title>Node14&#45;&gt;Node11</title>
<g id="a_edge19_Node000014_Node000011"><a xlink:title=" ">
<path fill="none" stroke="#63b8ff" d="M1244.38,-117.66C1226.94,-102.45 1190.09,-72.4 1153.75,-56 1101.49,-32.42 1035.26,-20.27 996.98,-14.8"/>
<polygon fill="#63b8ff" stroke="#63b8ff" points="997.92,-11.4 987.54,-13.51 996.98,-18.33 997.92,-11.4"/>
</a>
</g>
</g>
<!-- Node14&#45;&gt;Node13 -->
<g id="edge20_Node000014_Node000013" class="edge">
<title>Node14&#45;&gt;Node13</title>
<g id="a_edge20_Node000014_Node000013"><a xlink:title=" ">
<path fill="none" stroke="#63b8ff" d="M1234.12,-117.62C1212.52,-107.81 1178.35,-92.27 1153.55,-81"/>
<polygon fill="#63b8ff" stroke="#63b8ff" points="1155.16,-77.89 1144.61,-76.94 1152.26,-84.26 1155.16,-77.89"/>
</a>
</g>
</g>
<!-- Node15&#45;&gt;Node5 -->
<g id="edge24_Node000015_Node000005" class="edge">
<title>Node15&#45;&gt;Node5</title>
<g id="a_edge24_Node000015_Node000005"><a xlink:title=" ">
<path fill="none" stroke="#63b8ff" d="M1377.58,-117.51C1366.45,-115.57 1354.72,-113.63 1343.75,-112 1224.53,-94.28 1083.02,-78.64 1013.94,-71.35"/>
<polygon fill="#63b8ff" stroke="#63b8ff" points="1014.51,-67.89 1004.2,-70.33 1013.78,-74.85 1014.51,-67.89"/>
</a>
</g>
</g>
<!-- Node15&#45;&gt;Node7 -->
<g id="edge22_Node000015_Node000007" class="edge">
<title>Node15&#45;&gt;Node7</title>
<g id="a_edge22_Node000015_Node000007"><a xlink:title=" ">
<path fill="none" stroke="#63b8ff" d="M1379.88,-117.58C1368.08,-115.52 1355.49,-113.52 1343.75,-112 1251.29,-100.06 980.56,-80.08 858.13,-71.33"/>
<polygon fill="#63b8ff" stroke="#63b8ff" points="858.49,-67.85 848.27,-70.63 857.99,-74.83 858.49,-67.85"/>
</a>
</g>
</g>
<!-- Node15&#45;&gt;Node8 -->
<g id="edge23_Node000015_Node000008" class="edge">
<title>Node15&#45;&gt;Node8</title>
<g id="a_edge23_Node000015_Node000008"><a xlink:title=" ">
<path fill="none" stroke="#63b8ff" d="M1414.51,-117.51C1384.54,-97.53 1314.69,-50.96 1278.08,-26.56"/>
<polygon fill="#63b8ff" stroke="#63b8ff" points="1280.22,-23.77 1269.96,-21.14 1276.34,-29.6 1280.22,-23.77"/>
</a>
</g>
</g>
<!-- Node15&#45;&gt;Node11 -->
<g id="edge25_Node000015_Node000011" class="edge">
<title>Node15&#45;&gt;Node11</title>
<g id="a_edge25_Node000015_Node000011"><a xlink:title=" ">
<path fill="none" stroke="#63b8ff" d="M1399.41,-117.58C1353.95,-103.17 1263.6,-75.3 1185.75,-56 1119.17,-39.49 1040.18,-24.42 997.3,-16.61"/>
<polygon fill="#63b8ff" stroke="#63b8ff" points="998.15,-13.2 987.69,-14.87 996.9,-20.09 998.15,-13.2"/>
</a>
</g>
</g>
<!-- Node15&#45;&gt;Node13 -->
<g id="edge26_Node000015_Node000013" class="edge">
<title>Node15&#45;&gt;Node13</title>
<g id="a_edge26_Node000015_Node000013"><a xlink:title=" ">
<path fill="none" stroke="#63b8ff" d="M1380.6,-117.56C1317.88,-105.26 1209.86,-84.08 1155.71,-73.46"/>
<polygon fill="#63b8ff" stroke="#63b8ff" points="1156.67,-70.09 1146.19,-71.6 1155.33,-76.95 1156.67,-70.09"/>
</a>
</g>
</g>
<!-- Node16&#45;&gt;Node5 -->
<g id="edge29_Node000016_Node000005" class="edge">
<title>Node16&#45;&gt;Node5</title>
<g id="a_edge29_Node000016_Node000005"><a xlink:title=" ">
<path fill="none" stroke="#63b8ff" d="M1056.12,-117.62C1040.35,-108.16 1015.72,-93.38 997.13,-82.23"/>
<polygon fill="#63b8ff" stroke="#63b8ff" points="998.94,-79.23 988.56,-77.09 995.34,-85.23 998.94,-79.23"/>
</a>
</g>
</g>
<!-- Node16&#45;&gt;Node7 -->
<g id="edge28_Node000016_Node000007" class="edge">
<title>Node16&#45;&gt;Node7</title>
<g id="a_edge28_Node000016_Node000007"><a xlink:title=" ">
<path fill="none" stroke="#63b8ff" d="M1028.48,-117.56C980.57,-107.11 903.24,-90.24 851.24,-78.89"/>
<polygon fill="#63b8ff" stroke="#63b8ff" points="852.22,-75.52 841.7,-76.81 850.73,-82.36 852.22,-75.52"/>
</a>
</g>
</g>
<!-- Node16&#45;&gt;Node11 -->
<g id="edge30_Node000016_Node000011" class="edge">
<title>Node16&#45;&gt;Node11</title>
<g id="a_edge30_Node000016_Node000011"><a xlink:title=" ">
<path fill="none" stroke="#63b8ff" d="M1064.26,-117.57C1053.16,-103.73 1031.53,-77.27 1011.75,-56 1002.94,-46.53 992.69,-36.42 984.11,-28.19"/>
<polygon fill="#63b8ff" stroke="#63b8ff" points="986.65,-25.78 976.99,-21.43 981.83,-30.86 986.65,-25.78"/>
</a>
</g>
</g>
<!-- Node16&#45;&gt;Node13 -->
<g id="edge31_Node000016_Node000013" class="edge">
<title>Node16&#45;&gt;Node13</title>
<g id="a_edge31_Node000016_Node000013"><a xlink:title=" ">
<path fill="none" stroke="#63b8ff" d="M1079.72,-117.62C1087.17,-108.86 1098.5,-95.53 1107.66,-84.75"/>
<polygon fill="#63b8ff" stroke="#63b8ff" points="1110.21,-87.15 1114.02,-77.27 1104.88,-82.62 1110.21,-87.15"/>
</a>
</g>
</g>
<!-- Node17&#45;&gt;Node7 -->
<g id="edge33_Node000017_Node000007" class="edge">
<title>Node17&#45;&gt;Node7</title>
<g id="a_edge33_Node000017_Node000007"><a xlink:title=" ">
<path fill="none" stroke="#63b8ff" d="M263.72,-117.8C279.14,-115.77 295.51,-113.72 310.75,-112 463.17,-94.83 643.02,-79.45 735.31,-71.9"/>
<polygon fill="#63b8ff" stroke="#63b8ff" points="735.47,-75.4 745.15,-71.1 734.9,-68.42 735.47,-75.4"/>
</a>
</g>
</g>
<!-- Node17&#45;&gt;Node9 -->
<g id="edge35_Node000017_Node000009" class="edge">
<title>Node17&#45;&gt;Node9</title>
<g id="a_edge35_Node000017_Node000009"><a xlink:title=" ">
<path fill="none" stroke="#63b8ff" d="M193.95,-111.66C191,-95.72 189.37,-71.06 202.75,-56 228.66,-26.84 342.68,-16.27 402.23,-12.69"/>
<polygon fill="#63b8ff" stroke="#63b8ff" points="402.08,-16.2 411.86,-12.15 401.68,-9.21 402.08,-16.2"/>
</a>
</g>
</g>
<!-- Node17&#45;&gt;Node11 -->
<g id="edge36_Node000017_Node000011" class="edge">
<title>Node17&#45;&gt;Node11</title>
<g id="a_edge36_Node000017_Node000011"><a xlink:title=" ">
<path fill="none" stroke="#63b8ff" d="M201.41,-111.77C206.34,-94.93 216.88,-68.53 236.75,-56 296.34,-18.42 799.5,-25.29 869.75,-20 891.25,-18.38 915.41,-16.11 934.12,-14.26"/>
<polygon fill="#63b8ff" stroke="#63b8ff" points="934.44,-17.75 944.04,-13.26 933.74,-10.78 934.44,-17.75"/>
</a>
</g>
</g>
<!-- Node18 -->
<g id="Node000018" class="node">
<title>Node18</title>
<g id="a_Node000018"><a xlink:title=" ">
<polygon fill="#e0e0e0" stroke="#999999" points="517.62,-76 419.88,-76 419.88,-56 517.62,-56 517.62,-76"/>
<text xml:space="preserve" text-anchor="middle" x="468.75" y="-62.5" font-family="Helvetica,sans-Serif" font-size="10.00">nlohmann/json.hpp</text>
</a>
</g>
</g>
<!-- Node17&#45;&gt;Node18 -->
<g id="edge34_Node000017_Node000018" class="edge">
<title>Node17&#45;&gt;Node18</title>
<g id="a_edge34_Node000017_Node000018"><a xlink:title=" ">
<path fill="none" stroke="#63b8ff" d="M263.7,-112.4C310.15,-102.11 371.57,-88.52 415.04,-78.89"/>
<polygon fill="#63b8ff" stroke="#63b8ff" points="415.76,-82.32 424.76,-76.74 414.24,-75.48 415.76,-82.32"/>
</a>
</g>
</g>
<!-- Node19&#45;&gt;Node5 -->
<g id="edge39_Node000019_Node000005" class="edge">
<title>Node19&#45;&gt;Node5</title>
<g id="a_edge39_Node000019_Node000005"><a xlink:title=" ">
<path fill="none" stroke="#63b8ff" d="M440.91,-117.55C452.31,-115.52 464.43,-113.53 475.75,-112 563.2,-100.15 826.56,-78.59 929.69,-70.33"/>
<polygon fill="#63b8ff" stroke="#63b8ff" points="929.68,-73.85 939.37,-69.56 929.12,-66.87 929.68,-73.85"/>
</a>
</g>
</g>
<!-- Node19&#45;&gt;Node7 -->
<g id="edge38_Node000019_Node000007" class="edge">
<title>Node19&#45;&gt;Node7</title>
<g id="a_edge38_Node000019_Node000007"><a xlink:title=" ">
<path fill="none" stroke="#63b8ff" d="M443.17,-117.56C453.91,-115.64 465.2,-113.69 475.75,-112 566.04,-97.52 671.04,-83.29 735.69,-74.83"/>
<polygon fill="#63b8ff" stroke="#63b8ff" points="735.93,-78.33 745.39,-73.56 735.02,-71.39 735.93,-78.33"/>
</a>
</g>
</g>
<!-- Node19&#45;&gt;Node11 -->
<g id="edge41_Node000019_Node000011" class="edge">
<title>Node19&#45;&gt;Node11</title>
<g id="a_edge41_Node000019_Node000011"><a xlink:title=" ">
<path fill="none" stroke="#63b8ff" d="M438.21,-117.52C504.18,-103.8 630.3,-77.66 737.75,-56 807.85,-41.87 890.18,-25.73 934.2,-17.14"/>
<polygon fill="#63b8ff" stroke="#63b8ff" points="934.67,-20.62 943.82,-15.27 933.33,-13.75 934.67,-20.62"/>
</a>
</g>
</g>
<!-- Node19&#45;&gt;Node18 -->
<g id="edge40_Node000019_Node000018" class="edge">
<title>Node19&#45;&gt;Node18</title>
<g id="a_edge40_Node000019_Node000018"><a xlink:title=" ">
<path fill="none" stroke="#63b8ff" d="M404.62,-117.62C416.29,-108.41 434.33,-94.17 448.31,-83.14"/>
<polygon fill="#63b8ff" stroke="#63b8ff" points="450.34,-85.99 456.02,-77.05 446,-80.5 450.34,-85.99"/>
</a>
</g>
</g>
<!-- Node20&#45;&gt;Node8 -->
<g id="edge44_Node000020_Node000008" class="edge">
<title>Node20&#45;&gt;Node8</title>
<g id="a_edge44_Node000020_Node000008"><a xlink:title=" ">
<path fill="none" stroke="#63b8ff" d="M1524.42,-55.53C1456.19,-44.26 1344.5,-25.82 1288.7,-16.61"/>
<polygon fill="#63b8ff" stroke="#63b8ff" points="1289.61,-13.21 1279.17,-15.03 1288.47,-20.12 1289.61,-13.21"/>
</a>
</g>
</g>
<!-- Node20&#45;&gt;Node11 -->
<g id="edge47_Node000020_Node000011" class="edge">
<title>Node20&#45;&gt;Node11</title>
<g id="a_edge47_Node000020_Node000011"><a xlink:title=" ">
<path fill="none" stroke="#63b8ff" d="M1520.15,-59.6C1390.85,-48.26 1095.05,-22.33 997.56,-13.79"/>
<polygon fill="#63b8ff" stroke="#63b8ff" points="997.94,-10.31 987.68,-12.92 997.33,-17.28 997.94,-10.31"/>
</a>
</g>
</g>
<!-- Node21 -->
<g id="Node000021" class="node">
<title>Node21</title>
<g id="a_Node000021"><a xlink:title=" ">
<polygon fill="#e0e0e0" stroke="#999999" points="1648.88,-20 1588.62,-20 1588.62,0 1648.88,0 1648.88,-20"/>
<text xml:space="preserve" text-anchor="middle" x="1618.75" y="-6.5" font-family="Helvetica,sans-Serif" font-size="10.00">fmt/core.h</text>
</a>
</g>
</g>
<!-- Node20&#45;&gt;Node21 -->
<g id="edge43_Node000020_Node000021" class="edge">
<title>Node20&#45;&gt;Node21</title>
<g id="a_edge43_Node000020_Node000021"><a xlink:title=" ">
<path fill="none" stroke="#63b8ff" d="M1588.19,-55.59C1593.08,-48.47 1599.94,-38.45 1605.93,-29.72"/>
<polygon fill="#63b8ff" stroke="#63b8ff" points="1608.76,-31.77 1611.52,-21.55 1602.98,-27.82 1608.76,-31.77"/>
</a>
</g>
</g>
<!-- Node20&#45;&gt;Node22 -->
<g id="edge45_Node000020_Node000022" class="edge">
<title>Node20&#45;&gt;Node22</title>
<g id="a_edge45_Node000020_Node000022"><a xlink:title=" ">
<path fill="none" stroke="#63b8ff" d="M1632.25,-55.53C1689.57,-44.78 1781.71,-27.51 1832.74,-17.94"/>
<polygon fill="#63b8ff" stroke="#63b8ff" points="1833.21,-21.41 1842.4,-16.13 1831.92,-14.53 1833.21,-21.41"/>
</a>
</g>
</g>
<!-- Node23 -->
<g id="Node000023" class="node">
<title>Node23</title>
<g id="a_Node000023"><a xlink:title=" ">
<polygon fill="#e0e0e0" stroke="#999999" points="1570.38,-20 1519.12,-20 1519.12,0 1570.38,0 1570.38,-20"/>
<text xml:space="preserve" text-anchor="middle" x="1544.75" y="-6.5" font-family="Helvetica,sans-Serif" font-size="10.00">sstream</text>
</a>
</g>
</g>
<!-- Node20&#45;&gt;Node23 -->
<g id="edge46_Node000020_Node000023" class="edge">
<title>Node20&#45;&gt;Node23</title>
<g id="a_edge46_Node000020_Node000023"><a xlink:title=" ">
<path fill="none" stroke="#63b8ff" d="M1575.31,-55.59C1570.42,-48.47 1563.56,-38.45 1557.57,-29.72"/>
<polygon fill="#63b8ff" stroke="#63b8ff" points="1560.52,-27.82 1551.98,-21.55 1554.74,-31.77 1560.52,-27.82"/>
</a>
</g>
</g>
<!-- Node24&#45;&gt;Node11 -->
<g id="edge51_Node000024_Node000011" class="edge">
<title>Node24&#45;&gt;Node11</title>
<g id="a_edge51_Node000024_Node000011"><a xlink:title=" ">
<path fill="none" stroke="#63b8ff" d="M1740.11,-117.55C1729.11,-115.64 1717.56,-113.69 1706.75,-112 1432.79,-69.17 1100.22,-27.51 997.49,-14.87"/>
<polygon fill="#63b8ff" stroke="#63b8ff" points="997.98,-11.41 987.63,-13.66 997.13,-18.36 997.98,-11.41"/>
</a>
</g>
</g>
<!-- Node24&#45;&gt;Node20 -->
<g id="edge49_Node000024_Node000020" class="edge">
<title>Node24&#45;&gt;Node20</title>
<g id="a_edge49_Node000024_Node000020"><a xlink:title=" ">
<path fill="none" stroke="#63b8ff" d="M1758.94,-117.62C1723.06,-107.37 1665.38,-90.9 1625.63,-79.54"/>
<polygon fill="#63b8ff" stroke="#63b8ff" points="1626.71,-76.21 1616.13,-76.82 1624.79,-82.94 1626.71,-76.21"/>
</a>
</g>
</g>
<!-- Node24&#45;&gt;Node22 -->
<g id="edge50_Node000024_Node000022" class="edge">
<title>Node24&#45;&gt;Node22</title>
<g id="a_edge50_Node000024_Node000022"><a xlink:title=" ">
<path fill="none" stroke="#63b8ff" d="M1798.13,-117.51C1810.99,-98.38 1840.24,-54.89 1857.11,-29.8"/>
<polygon fill="#63b8ff" stroke="#63b8ff" points="1859.98,-31.81 1862.65,-21.56 1854.17,-27.9 1859.98,-31.81"/>
</a>
</g>
</g>
<!-- Node25&#45;&gt;Node20 -->
<g id="edge53_Node000025_Node000020" class="edge">
<title>Node25&#45;&gt;Node20</title>
<g id="a_edge53_Node000025_Node000020"><a xlink:title=" ">
<path fill="none" stroke="#63b8ff" d="M1622.25,-117.62C1615.31,-108.94 1604.79,-95.8 1596.21,-85.08"/>
<polygon fill="#63b8ff" stroke="#63b8ff" points="1598.97,-82.92 1589.99,-77.29 1593.5,-87.29 1598.97,-82.92"/>
</a>
</g>
</g>
<!-- Node26&#45;&gt;Node5 -->
<g id="edge57_Node000026_Node000005" class="edge">
<title>Node26&#45;&gt;Node5</title>
<g id="a_edge57_Node000026_Node000005"><a xlink:title=" ">
<path fill="none" stroke="#63b8ff" d="M603.39,-113.48C606.21,-112.95 609.01,-112.46 611.75,-112 750.74,-88.79 787.54,-97.84 926.75,-76 927.75,-75.84 928.76,-75.68 929.78,-75.51"/>
<polygon fill="#63b8ff" stroke="#63b8ff" points="930.11,-79.01 939.34,-73.8 928.88,-72.12 930.11,-79.01"/>
</a>
</g>
</g>
<!-- Node26&#45;&gt;Node7 -->
<g id="edge55_Node000026_Node000007" class="edge">
<title>Node26&#45;&gt;Node7</title>
<g id="a_edge55_Node000026_Node000007"><a xlink:title=" ">
<path fill="none" stroke="#63b8ff" d="M603.39,-112.86C646.65,-102.6 704.56,-88.86 745.7,-79.11"/>
<polygon fill="#63b8ff" stroke="#63b8ff" points="746.43,-82.53 755.36,-76.82 744.82,-75.72 746.43,-82.53"/>
</a>
</g>
</g>
<!-- Node26&#45;&gt;Node8 -->
<g id="edge56_Node000026_Node000008" class="edge">
<title>Node26&#45;&gt;Node8</title>
<g id="a_edge56_Node000026_Node000008"><a xlink:title=" ">
<path fill="none" stroke="#63b8ff" d="M603.4,-113.53C606.22,-112.99 609.01,-112.48 611.75,-112 734.04,-90.61 769.37,-110.06 888.75,-76 909.41,-70.11 912.12,-61.99 932.75,-56 1034.68,-26.39 1160.6,-16 1220.27,-12.57"/>
<polygon fill="#63b8ff" stroke="#63b8ff" points="1220.33,-16.07 1230.12,-12.04 1219.95,-9.08 1220.33,-16.07"/>
</a>
</g>
</g>
<!-- Node26&#45;&gt;Node11 -->
<g id="edge58_Node000026_Node000011" class="edge">
<title>Node26&#45;&gt;Node11</title>
<g id="a_edge58_Node000026_Node000011"><a xlink:title=" ">
<path fill="none" stroke="#63b8ff" d="M603.41,-113.59C606.22,-113.04 609.02,-112.5 611.75,-112 719.56,-92.18 752.41,-112.57 855.75,-76 873.37,-69.77 915.44,-43.59 942.15,-26.41"/>
<polygon fill="#63b8ff" stroke="#63b8ff" points="943.78,-29.52 950.28,-21.15 939.98,-23.65 943.78,-29.52"/>
</a>
</g>
</g>
<!-- Node27&#45;&gt;Node11 -->
<g id="edge60_Node000027_Node000011" class="edge">
<title>Node27&#45;&gt;Node11</title>
<g id="a_edge60_Node000027_Node000011"><a xlink:title=" ">
<path fill="none" stroke="#63b8ff" d="M402.46,-56.77C405.26,-56.5 408.03,-56.25 410.75,-56 614.54,-37.47 665.88,-37.55 869.75,-20 891.23,-18.15 915.39,-15.88 934.11,-14.09"/>
<polygon fill="#63b8ff" stroke="#63b8ff" points="934.41,-17.58 944.02,-13.13 933.73,-10.61 934.41,-17.58"/>
</a>
</g>
</g>
</g>
</svg>

<g id="navigator" transform="translate(0 0)" fill="#404254">
  <rect fill="#f2f5e9" fill-opacity="0.5" stroke="#606060" stroke-width=".5" x="0" y="0" width="60" height="60"/>
  <use id="zoomplus" xlink:href="#zoomPlus" x="17" y="9" onmousedown="handleZoom(evt,'in')"/>
  <use id="zoomminus" xlink:href="#zoomMin" x="42" y="9" onmousedown="handleZoom(evt,'out')"/>
  <use id="reset" xlink:href="#resetDef" x="30" y="36" onmousedown="handleReset()"/>
   <use id="arrowup" xlink:href="#arrowUp" x="0" y="0" onmousedown="handlePan(0,-1)"/>
  <use id="arrowright" xlink:href="#arrowRight" x="0" y="0" onmousedown="handlePan(1,0)"/>
  <use id="arrowdown" xlink:href="#arrowDown" x="0" y="0" onmousedown="handlePan(0,1)"/>
  <use id="arrowleft" xlink:href="#arrowLeft" x="0" y="0" onmousedown="handlePan(-1,0)"/>
</g>
<svg viewBox="0 0 15 15" width="100%" height="30px" preserveAspectRatio="xMaxYMin meet">
 <g id="arrow_out" transform="scale(0.3 0.3)">
  <a xlink:href="DotNameLib_8hpp__incl_org.svg" target="_base">
   <rect id="button" ry="5" rx="5" y="6" x="6" height="38" width="38"
        fill="#f2f5e9" fill-opacity="0.5" stroke="#606060" stroke-width="1.0"/>
   <path id="arrow"
     d="M 11.500037,31.436501 C 11.940474,20.09759 22.043105,11.32322 32.158766,21.979434 L 37.068811,17.246167 C 37.068811,17.246167 37.088388,32 37.088388,32 L 22.160133,31.978069 C 22.160133,31.978069 26.997745,27.140456 26.997745,27.140456 C 18.528582,18.264221 13.291696,25.230495 11.500037,31.436501 z"
     style="fill:#404040;"/>
  </a>
 </g>
</svg>

<style type='text/css'>
<![CDATA[
[data-mouse-over-selected='false'] { opacity: 0.7; }
[data-mouse-over-selected='true']  { opacity: 1.0; }
]]>
</style>
<script type="application/ecmascript"><![CDATA[
document.addEventListener('DOMContentLoaded', (event) => {
  highlightEdges();
  highlightAdjacentNodes();
});
]]></script>
</svg>
