<?xml version="1.0" encoding="UTF-8" standalone="no"?>
<!DOCTYPE svg PUBLIC "-//W3C//DTD SVG 1.1//EN"
 "http://www.w3.org/Graphics/SVG/1.1/DTD/svg11.dtd">
<!-- Generated by graphviz version 13.1.2 (20250808.2320)
 -->
<!-- Title: src/Utils/Assets/IAssetManager.hpp Pages: 1 -->
<svg width="941pt" height="232pt"
 viewBox="0.00 0.00 941.00 232.00" xmlns="http://www.w3.org/2000/svg" xmlns:xlink="http://www.w3.org/1999/xlink">
<g id="graph0" class="graph" transform="scale(1 1) rotate(0) translate(4 228)">
<title>src/Utils/Assets/IAssetManager.hpp</title>
<!-- Node1 -->
<g id="Node000001" class="node">
<title>Node1</title>
<g id="a_Node000001"><a xlink:title=" ">
<polygon fill="#999999" stroke="#666666" points="478,-224 303.75,-224 303.75,-204 478,-204 478,-224"/>
<text xml:space="preserve" text-anchor="middle" x="390.88" y="-210.5" font-family="Helvetica,sans-Serif" font-size="10.00">src/Utils/Assets/IAssetManager.hpp</text>
</a>
</g>
</g>
<!-- Node2 -->
<g id="Node000002" class="node">
<title>Node2</title>
<g id="a_Node000002"><a xlink:href="MockAssetManager_8hpp.html" target="_top" xlink:title=" ">
<polygon fill="white" stroke="#666666" points="139.75,-168 0,-168 0,-136 139.75,-136 139.75,-168"/>
<text xml:space="preserve" text-anchor="start" x="8" y="-154.5" font-family="Helvetica,sans-Serif" font-size="10.00">application/tests/MockAsset</text>
<text xml:space="preserve" text-anchor="middle" x="69.88" y="-142.5" font-family="Helvetica,sans-Serif" font-size="10.00">Manager.hpp</text>
</a>
</g>
</g>
<!-- Node1&#45;&gt;Node2 -->
<g id="edge1_Node000001_Node000002" class="edge">
<title>Node1&#45;&gt;Node2</title>
<g id="a_edge1_Node000001_Node000002"><a xlink:title=" ">
<path fill="none" stroke="#63b8ff" d="M329.21,-201.47C275.13,-191.37 196.54,-176.68 140.06,-166.12"/>
<polygon fill="#63b8ff" stroke="#63b8ff" points="328.4,-204.88 338.88,-203.28 329.69,-198 328.4,-204.88"/>
</a>
</g>
</g>
<!-- Node4 -->
<g id="Node000004" class="node">
<title>Node4</title>
<g id="a_Node000004"><a xlink:href="AssetManager_8hpp.html" target="_top" xlink:title=" ">
<polygon fill="white" stroke="#666666" points="351.5,-162 180.25,-162 180.25,-142 351.5,-142 351.5,-162"/>
<text xml:space="preserve" text-anchor="middle" x="265.88" y="-148.5" font-family="Helvetica,sans-Serif" font-size="10.00">src/Utils/Assets/AssetManager.hpp</text>
</a>
</g>
</g>
<!-- Node1&#45;&gt;Node4 -->
<g id="edge3_Node000001_Node000004" class="edge">
<title>Node1&#45;&gt;Node4</title>
<g id="a_edge3_Node000001_Node000004"><a xlink:title=" ">
<path fill="none" stroke="#63b8ff" d="M361.23,-198.77C337.73,-187.49 305.58,-172.06 285.27,-162.31"/>
<polygon fill="#63b8ff" stroke="#63b8ff" points="359.45,-201.8 369.98,-202.97 362.48,-195.49 359.45,-201.8"/>
</a>
</g>
</g>
<!-- Node6 -->
<g id="Node000006" class="node">
<title>Node6</title>
<g id="a_Node000006"><a xlink:href="AssetManagerFactory_8hpp.html" target="_top" xlink:title=" ">
<polygon fill="white" stroke="#666666" points="467.12,-100 314.62,-100 314.62,-68 467.12,-68 467.12,-100"/>
<text xml:space="preserve" text-anchor="start" x="322.62" y="-86.5" font-family="Helvetica,sans-Serif" font-size="10.00">src/Utils/Assets/AssetManager</text>
<text xml:space="preserve" text-anchor="middle" x="390.88" y="-74.5" font-family="Helvetica,sans-Serif" font-size="10.00">Factory.hpp</text>
</a>
</g>
</g>
<!-- Node1&#45;&gt;Node6 -->
<g id="edge9_Node000001_Node000006" class="edge">
<title>Node1&#45;&gt;Node6</title>
<g id="a_edge9_Node000001_Node000006"><a xlink:title=" ">
<path fill="none" stroke="#63b8ff" d="M390.88,-192.46C390.88,-166.73 390.88,-123.24 390.88,-100.27"/>
<polygon fill="#63b8ff" stroke="#63b8ff" points="387.38,-192.28 390.88,-202.28 394.38,-192.28 387.38,-192.28"/>
</a>
</g>
</g>
<!-- Node8 -->
<g id="Node000008" class="node">
<title>Node8</title>
<g id="a_Node000008"><a xlink:href="CustomStringsLoader_8hpp.html" target="_top" xlink:title=" ">
<polygon fill="white" stroke="#666666" points="567.38,-168 422.38,-168 422.38,-136 567.38,-136 567.38,-168"/>
<text xml:space="preserve" text-anchor="start" x="430.38" y="-154.5" font-family="Helvetica,sans-Serif" font-size="10.00">src/Utils/Json/CustomStrings</text>
<text xml:space="preserve" text-anchor="middle" x="494.88" y="-142.5" font-family="Helvetica,sans-Serif" font-size="10.00">Loader.hpp</text>
</a>
</g>
</g>
<!-- Node1&#45;&gt;Node8 -->
<g id="edge10_Node000001_Node000008" class="edge">
<title>Node1&#45;&gt;Node8</title>
<g id="a_edge10_Node000001_Node000008"><a xlink:title=" ">
<path fill="none" stroke="#63b8ff" d="M416.73,-198.08C432.42,-189.03 452.4,-177.51 468.23,-168.37"/>
<polygon fill="#63b8ff" stroke="#63b8ff" points="415.35,-194.84 408.44,-202.87 418.85,-200.9 415.35,-194.84"/>
</a>
</g>
</g>
<!-- Node10 -->
<g id="Node000010" class="node">
<title>Node10</title>
<g id="a_Node000010"><a xlink:href="UtilsFactory_8hpp.html" target="_top" xlink:title=" ">
<polygon fill="white" stroke="#666666" points="779.38,-162 652.38,-162 652.38,-142 779.38,-142 779.38,-162"/>
<text xml:space="preserve" text-anchor="middle" x="715.88" y="-148.5" font-family="Helvetica,sans-Serif" font-size="10.00">src/Utils/UtilsFactory.hpp</text>
</a>
</g>
</g>
<!-- Node1&#45;&gt;Node10 -->
<g id="edge13_Node000001_Node000010" class="edge">
<title>Node1&#45;&gt;Node10</title>
<g id="a_edge13_Node000001_Node000010"><a xlink:title=" ">
<path fill="none" stroke="#63b8ff" d="M453.09,-201.51C514.47,-190.18 607.18,-173.07 664.5,-162.48"/>
<polygon fill="#63b8ff" stroke="#63b8ff" points="452.7,-198.03 443.5,-203.28 453.97,-204.91 452.7,-198.03"/>
</a>
</g>
</g>
<!-- Node3 -->
<g id="Node000003" class="node">
<title>Node3</title>
<g id="a_Node000003"><a xlink:href="AssetManagerTest_8cpp.html" target="_top" xlink:title=" ">
<polygon fill="white" stroke="#666666" points="173.5,-32 20.25,-32 20.25,0 173.5,0 173.5,-32"/>
<text xml:space="preserve" text-anchor="start" x="28.25" y="-18.5" font-family="Helvetica,sans-Serif" font-size="10.00">application/tests/AssetManager</text>
<text xml:space="preserve" text-anchor="middle" x="96.88" y="-6.5" font-family="Helvetica,sans-Serif" font-size="10.00">Test.cpp</text>
</a>
</g>
</g>
<!-- Node2&#45;&gt;Node3 -->
<g id="edge2_Node000002_Node000003" class="edge">
<title>Node2&#45;&gt;Node3</title>
<g id="a_edge2_Node000002_Node000003"><a xlink:title=" ">
<path fill="none" stroke="#63b8ff" d="M73.29,-124.2C75.57,-107.88 78.87,-86.64 82.88,-68 85.5,-55.79 89.29,-42.16 92.26,-32.06"/>
<polygon fill="#63b8ff" stroke="#63b8ff" points="69.82,-123.73 71.96,-134.11 76.76,-124.66 69.82,-123.73"/>
</a>
</g>
</g>
<!-- Node4&#45;&gt;Node3 -->
<g id="edge4_Node000004_Node000003" class="edge">
<title>Node4&#45;&gt;Node3</title>
<g id="a_edge4_Node000004_Node000003"><a xlink:title=" ">
<path fill="none" stroke="#63b8ff" d="M182.22,-138.56C157.83,-131.08 133.13,-119.12 115.88,-100 99.04,-81.34 96.19,-50.86 96.17,-32.49"/>
<polygon fill="#63b8ff" stroke="#63b8ff" points="180.98,-141.84 191.55,-141.18 182.87,-135.1 180.98,-141.84"/>
</a>
</g>
</g>
<!-- Node5 -->
<g id="Node000005" class="node">
<title>Node5</title>
<g id="a_Node000005"><a xlink:href="AssetManager_8cpp.html" target="_top" xlink:title=" ">
<polygon fill="white" stroke="#666666" points="296.5,-94 125.25,-94 125.25,-74 296.5,-74 296.5,-94"/>
<text xml:space="preserve" text-anchor="middle" x="210.88" y="-80.5" font-family="Helvetica,sans-Serif" font-size="10.00">src/Utils/Assets/AssetManager.cpp</text>
</a>
</g>
</g>
<!-- Node4&#45;&gt;Node5 -->
<g id="edge5_Node000004_Node000005" class="edge">
<title>Node4&#45;&gt;Node5</title>
<g id="a_edge5_Node000004_Node000005"><a xlink:title=" ">
<path fill="none" stroke="#63b8ff" d="M250.78,-132.88C240.41,-120.44 227.07,-104.43 218.74,-94.44"/>
<polygon fill="#63b8ff" stroke="#63b8ff" points="247.94,-134.94 257.03,-140.38 253.31,-130.46 247.94,-134.94"/>
</a>
</g>
</g>
<!-- Node4&#45;&gt;Node6 -->
<g id="edge6_Node000004_Node000006" class="edge">
<title>Node4&#45;&gt;Node6</title>
<g id="a_edge6_Node000004_Node000006"><a xlink:title=" ">
<path fill="none" stroke="#63b8ff" d="M293.94,-136.18C314.19,-125.49 341.44,-111.1 361.9,-100.3"/>
<polygon fill="#63b8ff" stroke="#63b8ff" points="292.33,-133.07 285.12,-140.84 295.6,-139.26 292.33,-133.07"/>
</a>
</g>
</g>
<!-- Node6&#45;&gt;Node3 -->
<g id="edge7_Node000006_Node000003" class="edge">
<title>Node6&#45;&gt;Node3</title>
<g id="a_edge7_Node000006_Node000003"><a xlink:title=" ">
<path fill="none" stroke="#63b8ff" d="M310.95,-65.06C265.57,-54.87 209.33,-42.24 165.88,-32.49"/>
<polygon fill="#63b8ff" stroke="#63b8ff" points="309.94,-68.42 320.47,-67.19 311.48,-61.59 309.94,-68.42"/>
</a>
</g>
</g>
<!-- Node7 -->
<g id="Node000007" class="node">
<title>Node7</title>
<g id="a_Node000007"><a xlink:href="UtilsFactory_8cpp.html" target="_top" xlink:title=" ">
<polygon fill="white" stroke="#666666" points="558.38,-26 431.38,-26 431.38,-6 558.38,-6 558.38,-26"/>
<text xml:space="preserve" text-anchor="middle" x="494.88" y="-12.5" font-family="Helvetica,sans-Serif" font-size="10.00">src/Utils/UtilsFactory.cpp</text>
</a>
</g>
</g>
<!-- Node6&#45;&gt;Node7 -->
<g id="edge8_Node000006_Node000007" class="edge">
<title>Node6&#45;&gt;Node7</title>
<g id="a_edge8_Node000006_Node000007"><a xlink:title=" ">
<path fill="none" stroke="#63b8ff" d="M424.89,-61.41C443.52,-49.59 465.65,-35.54 479.97,-26.46"/>
<polygon fill="#63b8ff" stroke="#63b8ff" points="423.1,-58.4 416.54,-66.71 426.86,-64.31 423.1,-58.4"/>
</a>
</g>
</g>
<!-- Node8&#45;&gt;Node7 -->
<g id="edge12_Node000008_Node000007" class="edge">
<title>Node8&#45;&gt;Node7</title>
<g id="a_edge12_Node000008_Node000007"><a xlink:title=" ">
<path fill="none" stroke="#63b8ff" d="M494.88,-124.21C494.88,-93.9 494.88,-46.16 494.88,-26.22"/>
<polygon fill="#63b8ff" stroke="#63b8ff" points="491.38,-124.11 494.88,-134.11 498.38,-124.11 491.38,-124.11"/>
</a>
</g>
</g>
<!-- Node9 -->
<g id="Node000009" class="node">
<title>Node9</title>
<g id="a_Node000009"><a xlink:href="CustomStringsLoader_8cpp.html" target="_top" xlink:title=" ">
<polygon fill="white" stroke="#666666" points="668.38,-100 523.38,-100 523.38,-68 668.38,-68 668.38,-100"/>
<text xml:space="preserve" text-anchor="start" x="531.38" y="-86.5" font-family="Helvetica,sans-Serif" font-size="10.00">src/Utils/Json/CustomStrings</text>
<text xml:space="preserve" text-anchor="middle" x="595.88" y="-74.5" font-family="Helvetica,sans-Serif" font-size="10.00">Loader.cpp</text>
</a>
</g>
</g>
<!-- Node8&#45;&gt;Node9 -->
<g id="edge11_Node000008_Node000009" class="edge">
<title>Node8&#45;&gt;Node9</title>
<g id="a_edge11_Node000008_Node000009"><a xlink:title=" ">
<path fill="none" stroke="#63b8ff" d="M528.15,-129.25C542.61,-119.81 559.2,-108.97 572.34,-100.38"/>
<polygon fill="#63b8ff" stroke="#63b8ff" points="526.28,-126.3 519.82,-134.7 530.11,-132.16 526.28,-126.3"/>
</a>
</g>
</g>
<!-- Node10&#45;&gt;Node7 -->
<g id="edge18_Node000010_Node000007" class="edge">
<title>Node10&#45;&gt;Node7</title>
<g id="a_edge18_Node000010_Node000007"><a xlink:title=" ">
<path fill="none" stroke="#63b8ff" d="M711.69,-130.52C706.77,-111.62 696.77,-84.13 677.88,-68 644.76,-39.73 597.14,-27.06 558.78,-21.41"/>
<polygon fill="#63b8ff" stroke="#63b8ff" points="708.28,-131.3 713.94,-140.26 715.1,-129.73 708.28,-131.3"/>
</a>
</g>
</g>
<!-- Node11 -->
<g id="Node000011" class="node">
<title>Node11</title>
<g id="a_Node000011"><a xlink:href="Application_8cpp.html" target="_top" xlink:title=" ">
<polygon fill="white" stroke="#666666" points="809.25,-26 660.5,-26 660.5,-6 809.25,-6 809.25,-26"/>
<text xml:space="preserve" text-anchor="middle" x="734.88" y="-12.5" font-family="Helvetica,sans-Serif" font-size="10.00">application/src/Application.cpp</text>
</a>
</g>
</g>
<!-- Node10&#45;&gt;Node11 -->
<g id="edge14_Node000010_Node000011" class="edge">
<title>Node10&#45;&gt;Node11</title>
<g id="a_edge14_Node000010_Node000011"><a xlink:title=" ">
<path fill="none" stroke="#63b8ff" d="M718.79,-130.41C722.98,-100.87 730.53,-47.66 733.56,-26.27"/>
<polygon fill="#63b8ff" stroke="#63b8ff" points="715.33,-129.9 717.39,-140.29 722.26,-130.88 715.33,-129.9"/>
</a>
</g>
</g>
<!-- Node12 -->
<g id="Node000012" class="node">
<title>Node12</title>
<g id="a_Node000012"><a xlink:href="DotNameLib_8hpp.html" target="_top" xlink:title=" ">
<polygon fill="white" stroke="#666666" points="867.12,-100 762.62,-100 762.62,-68 867.12,-68 867.12,-100"/>
<text xml:space="preserve" text-anchor="start" x="770.62" y="-86.5" font-family="Helvetica,sans-Serif" font-size="10.00">include/DotNameLib</text>
<text xml:space="preserve" text-anchor="middle" x="814.88" y="-74.5" font-family="Helvetica,sans-Serif" font-size="10.00">/DotNameLib.hpp</text>
</a>
</g>
</g>
<!-- Node10&#45;&gt;Node12 -->
<g id="edge15_Node000010_Node000012" class="edge">
<title>Node10&#45;&gt;Node12</title>
<g id="a_edge15_Node000010_Node000012"><a xlink:title=" ">
<path fill="none" stroke="#63b8ff" d="M739.22,-135.44C755.13,-124.83 776.1,-110.85 791.92,-100.3"/>
<polygon fill="#63b8ff" stroke="#63b8ff" points="737.7,-132.25 731.32,-140.7 741.58,-138.07 737.7,-132.25"/>
</a>
</g>
</g>
<!-- Node12&#45;&gt;Node11 -->
<g id="edge16_Node000012_Node000011" class="edge">
<title>Node12&#45;&gt;Node11</title>
<g id="a_edge16_Node000012_Node000011"><a xlink:title=" ">
<path fill="none" stroke="#63b8ff" d="M787.45,-60.38C773.32,-48.72 756.85,-35.13 746.17,-26.32"/>
<polygon fill="#63b8ff" stroke="#63b8ff" points="785.21,-63.07 795.15,-66.73 789.67,-57.67 785.21,-63.07"/>
</a>
</g>
</g>
<!-- Node13 -->
<g id="Node000013" class="node">
<title>Node13</title>
<g id="a_Node000013"><a xlink:href="DotNameLib_8cpp.html" target="_top" xlink:title=" ">
<polygon fill="white" stroke="#666666" points="932.88,-26 826.88,-26 826.88,-6 932.88,-6 932.88,-26"/>
<text xml:space="preserve" text-anchor="middle" x="879.88" y="-12.5" font-family="Helvetica,sans-Serif" font-size="10.00">src/DotNameLib.cpp</text>
</a>
</g>
</g>
<!-- Node12&#45;&gt;Node13 -->
<g id="edge17_Node000012_Node000013" class="edge">
<title>Node12&#45;&gt;Node13</title>
<g id="a_edge17_Node000012_Node000013"><a xlink:title=" ">
<path fill="none" stroke="#63b8ff" d="M837.81,-59.71C849.15,-48.2 862.18,-34.97 870.7,-26.32"/>
<polygon fill="#63b8ff" stroke="#63b8ff" points="835.54,-57.03 831.01,-66.61 840.52,-61.95 835.54,-57.03"/>
</a>
</g>
</g>
</g>
</svg>
