<?xml version="1.0" encoding="UTF-8" standalone="no"?>
<!DOCTYPE svg PUBLIC "-//W3C//DTD SVG 1.1//EN"
 "http://www.w3.org/Graphics/SVG/1.1/DTD/svg11.dtd">
<!-- Generated by graphviz version 13.1.2 (20250808.2320)
 -->
<!-- Title: src/Utils/Filesystem/IFileReader.hpp Pages: 1 -->
<svg width="817pt" height="232pt"
 viewBox="0.00 0.00 817.00 232.00" xmlns="http://www.w3.org/2000/svg" xmlns:xlink="http://www.w3.org/1999/xlink">
<g id="graph0" class="graph" transform="scale(1 1) rotate(0) translate(4 228)">
<title>src/Utils/Filesystem/IFileReader.hpp</title>
<!-- Node1 -->
<g id="Node000001" class="node">
<title>Node1</title>
<g id="a_Node000001"><a xlink:title=" ">
<polygon fill="#999999" stroke="#666666" points="477.62,-224 373.88,-224 373.88,-192 477.62,-192 477.62,-224"/>
<text xml:space="preserve" text-anchor="start" x="381.88" y="-210.5" font-family="Helvetica,sans-Serif" font-size="10.00">src/Utils/Filesystem</text>
<text xml:space="preserve" text-anchor="middle" x="425.75" y="-198.5" font-family="Helvetica,sans-Serif" font-size="10.00">/IFileReader.hpp</text>
</a>
</g>
</g>
<!-- Node2 -->
<g id="Node000002" class="node">
<title>Node2</title>
<g id="a_Node000002"><a xlink:href="FileReader_8hpp.html" target="_top" xlink:title=" ">
<polygon fill="white" stroke="#666666" points="304.62,-156 200.88,-156 200.88,-124 304.62,-124 304.62,-156"/>
<text xml:space="preserve" text-anchor="start" x="208.88" y="-142.5" font-family="Helvetica,sans-Serif" font-size="10.00">src/Utils/Filesystem</text>
<text xml:space="preserve" text-anchor="middle" x="252.75" y="-130.5" font-family="Helvetica,sans-Serif" font-size="10.00">/FileReader.hpp</text>
</a>
</g>
</g>
<!-- Node1&#45;&gt;Node2 -->
<g id="edge1_Node000001_Node000002" class="edge">
<title>Node1&#45;&gt;Node2</title>
<g id="a_edge1_Node000001_Node000002"><a xlink:title=" ">
<path fill="none" stroke="#63b8ff" d="M374.44,-187.42C348.54,-177.54 317.57,-165.73 293.36,-156.49"/>
<polygon fill="#63b8ff" stroke="#63b8ff" points="373.18,-190.69 383.78,-190.99 375.68,-184.15 373.18,-190.69"/>
</a>
</g>
</g>
<!-- Node6 -->
<g id="Node000006" class="node">
<title>Node6</title>
<g id="a_Node000006"><a xlink:href="JsonSerializer_8hpp.html" target="_top" xlink:title=" ">
<polygon fill="white" stroke="#666666" points="505.75,-150 345.75,-150 345.75,-130 505.75,-130 505.75,-150"/>
<text xml:space="preserve" text-anchor="middle" x="425.75" y="-136.5" font-family="Helvetica,sans-Serif" font-size="10.00">src/Utils/Json/JsonSerializer.hpp</text>
</a>
</g>
</g>
<!-- Node1&#45;&gt;Node6 -->
<g id="edge5_Node000001_Node000006" class="edge">
<title>Node1&#45;&gt;Node6</title>
<g id="a_edge5_Node000001_Node000006"><a xlink:title=" ">
<path fill="none" stroke="#63b8ff" d="M425.75,-180.31C425.75,-169.67 425.75,-158.13 425.75,-150.32"/>
<polygon fill="#63b8ff" stroke="#63b8ff" points="422.25,-180.18 425.75,-190.18 429.25,-180.18 422.25,-180.18"/>
</a>
</g>
</g>
<!-- Node8 -->
<g id="Node000008" class="node">
<title>Node8</title>
<g id="a_Node000008"><a xlink:href="UtilsFactory_8hpp.html" target="_top" xlink:title=" ">
<polygon fill="white" stroke="#666666" points="662.25,-150 535.25,-150 535.25,-130 662.25,-130 662.25,-150"/>
<text xml:space="preserve" text-anchor="middle" x="598.75" y="-136.5" font-family="Helvetica,sans-Serif" font-size="10.00">src/Utils/UtilsFactory.hpp</text>
</a>
</g>
</g>
<!-- Node1&#45;&gt;Node8 -->
<g id="edge8_Node000001_Node000008" class="edge">
<title>Node1&#45;&gt;Node8</title>
<g id="a_edge8_Node000001_Node000008"><a xlink:title=" ">
<path fill="none" stroke="#63b8ff" d="M476.84,-187.51C508.86,-175.29 548.72,-160.09 573.95,-150.46"/>
<polygon fill="#63b8ff" stroke="#63b8ff" points="475.82,-184.15 467.72,-190.99 478.32,-190.69 475.82,-184.15"/>
</a>
</g>
</g>
<!-- Node3 -->
<g id="Node000003" class="node">
<title>Node3</title>
<g id="a_Node000003"><a xlink:href="FileReaderTest_8cpp.html" target="_top" xlink:title=" ">
<polygon fill="white" stroke="#666666" points="137.5,-88 0,-88 0,-56 137.5,-56 137.5,-88"/>
<text xml:space="preserve" text-anchor="start" x="8" y="-74.5" font-family="Helvetica,sans-Serif" font-size="10.00">application/tests/FileReader</text>
<text xml:space="preserve" text-anchor="middle" x="68.75" y="-62.5" font-family="Helvetica,sans-Serif" font-size="10.00">Test.cpp</text>
</a>
</g>
</g>
<!-- Node2&#45;&gt;Node3 -->
<g id="edge2_Node000002_Node000003" class="edge">
<title>Node2&#45;&gt;Node3</title>
<g id="a_edge2_Node000002_Node000003"><a xlink:title=" ">
<path fill="none" stroke="#63b8ff" d="M198.91,-119.69C171.22,-109.76 137.92,-97.81 111.94,-88.49"/>
<polygon fill="#63b8ff" stroke="#63b8ff" points="197.59,-122.93 208.19,-123.01 199.95,-116.34 197.59,-122.93"/>
</a>
</g>
</g>
<!-- Node4 -->
<g id="Node000004" class="node">
<title>Node4</title>
<g id="a_Node000004"><a xlink:href="FileReader_8cpp.html" target="_top" xlink:title=" ">
<polygon fill="white" stroke="#666666" points="259.62,-88 155.88,-88 155.88,-56 259.62,-56 259.62,-88"/>
<text xml:space="preserve" text-anchor="start" x="163.88" y="-74.5" font-family="Helvetica,sans-Serif" font-size="10.00">src/Utils/Filesystem</text>
<text xml:space="preserve" text-anchor="middle" x="207.75" y="-62.5" font-family="Helvetica,sans-Serif" font-size="10.00">/FileReader.cpp</text>
</a>
</g>
</g>
<!-- Node2&#45;&gt;Node4 -->
<g id="edge3_Node000002_Node000004" class="edge">
<title>Node2&#45;&gt;Node4</title>
<g id="a_edge3_Node000002_Node000004"><a xlink:title=" ">
<path fill="none" stroke="#63b8ff" d="M235.91,-114.3C229.94,-105.55 223.4,-95.96 218.13,-88.22"/>
<polygon fill="#63b8ff" stroke="#63b8ff" points="232.94,-116.15 241.46,-122.44 238.72,-112.21 232.94,-116.15"/>
</a>
</g>
</g>
<!-- Node5 -->
<g id="Node000005" class="node">
<title>Node5</title>
<g id="a_Node000005"><a xlink:href="UtilsFactory_8cpp.html" target="_top" xlink:title=" ">
<polygon fill="white" stroke="#666666" points="404.25,-82 277.25,-82 277.25,-62 404.25,-62 404.25,-82"/>
<text xml:space="preserve" text-anchor="middle" x="340.75" y="-68.5" font-family="Helvetica,sans-Serif" font-size="10.00">src/Utils/UtilsFactory.cpp</text>
</a>
</g>
</g>
<!-- Node2&#45;&gt;Node5 -->
<g id="edge4_Node000002_Node000005" class="edge">
<title>Node2&#45;&gt;Node5</title>
<g id="a_edge4_Node000002_Node000005"><a xlink:title=" ">
<path fill="none" stroke="#63b8ff" d="M282.03,-117.04C297.77,-105.24 316.35,-91.3 328.33,-82.32"/>
<polygon fill="#63b8ff" stroke="#63b8ff" points="280.27,-113.98 274.37,-122.78 284.47,-119.58 280.27,-113.98"/>
</a>
</g>
</g>
<!-- Node6&#45;&gt;Node5 -->
<g id="edge7_Node000006_Node000005" class="edge">
<title>Node6&#45;&gt;Node5</title>
<g id="a_edge7_Node000006_Node000005"><a xlink:title=" ">
<path fill="none" stroke="#63b8ff" d="M404.74,-122.69C388.44,-110.03 366.4,-92.92 352.91,-82.44"/>
<polygon fill="#63b8ff" stroke="#63b8ff" points="402.33,-125.25 412.38,-128.62 406.62,-119.72 402.33,-125.25"/>
</a>
</g>
</g>
<!-- Node7 -->
<g id="Node000007" class="node">
<title>Node7</title>
<g id="a_Node000007"><a xlink:href="JsonSerializer_8cpp.html" target="_top" xlink:title=" ">
<polygon fill="white" stroke="#666666" points="582.75,-82 422.75,-82 422.75,-62 582.75,-62 582.75,-82"/>
<text xml:space="preserve" text-anchor="middle" x="502.75" y="-68.5" font-family="Helvetica,sans-Serif" font-size="10.00">src/Utils/Json/JsonSerializer.cpp</text>
</a>
</g>
</g>
<!-- Node6&#45;&gt;Node7 -->
<g id="edge6_Node000006_Node000007" class="edge">
<title>Node6&#45;&gt;Node7</title>
<g id="a_edge6_Node000006_Node000007"><a xlink:title=" ">
<path fill="none" stroke="#63b8ff" d="M445.2,-122.33C459.92,-109.71 479.62,-92.82 491.74,-82.44"/>
<polygon fill="#63b8ff" stroke="#63b8ff" points="443.25,-119.39 437.93,-128.56 447.8,-124.71 443.25,-119.39"/>
</a>
</g>
</g>
<!-- Node8&#45;&gt;Node5 -->
<g id="edge13_Node000008_Node000005" class="edge">
<title>Node8&#45;&gt;Node5</title>
<g id="a_edge13_Node000008_Node000005"><a xlink:title=" ">
<path fill="none" stroke="#63b8ff" d="M550.92,-126.76C500.82,-113.95 423.21,-94.09 377.65,-82.44"/>
<polygon fill="#63b8ff" stroke="#63b8ff" points="549.76,-130.08 560.32,-129.17 551.5,-123.3 549.76,-130.08"/>
</a>
</g>
</g>
<!-- Node9 -->
<g id="Node000009" class="node">
<title>Node9</title>
<g id="a_Node000009"><a xlink:href="Application_8cpp.html" target="_top" xlink:title=" ">
<polygon fill="white" stroke="#666666" points="685.12,-20 536.38,-20 536.38,0 685.12,0 685.12,-20"/>
<text xml:space="preserve" text-anchor="middle" x="610.75" y="-6.5" font-family="Helvetica,sans-Serif" font-size="10.00">application/src/Application.cpp</text>
</a>
</g>
</g>
<!-- Node8&#45;&gt;Node9 -->
<g id="edge9_Node000008_Node000009" class="edge">
<title>Node8&#45;&gt;Node9</title>
<g id="a_edge9_Node000008_Node000009"><a xlink:title=" ">
<path fill="none" stroke="#63b8ff" d="M600.67,-118.57C603.3,-90.49 607.93,-41.09 609.86,-20.47"/>
<polygon fill="#63b8ff" stroke="#63b8ff" points="597.2,-118 599.75,-128.29 604.17,-118.66 597.2,-118"/>
</a>
</g>
</g>
<!-- Node10 -->
<g id="Node000010" class="node">
<title>Node10</title>
<g id="a_Node000010"><a xlink:href="DotNameLib_8hpp.html" target="_top" xlink:title=" ">
<polygon fill="white" stroke="#666666" points="743,-88 638.5,-88 638.5,-56 743,-56 743,-88"/>
<text xml:space="preserve" text-anchor="start" x="646.5" y="-74.5" font-family="Helvetica,sans-Serif" font-size="10.00">include/DotNameLib</text>
<text xml:space="preserve" text-anchor="middle" x="690.75" y="-62.5" font-family="Helvetica,sans-Serif" font-size="10.00">/DotNameLib.hpp</text>
</a>
</g>
</g>
<!-- Node8&#45;&gt;Node10 -->
<g id="edge10_Node000008_Node000010" class="edge">
<title>Node8&#45;&gt;Node10</title>
<g id="a_edge10_Node000008_Node000010"><a xlink:title=" ">
<path fill="none" stroke="#63b8ff" d="M620.86,-123.14C635.6,-112.57 654.85,-98.75 669.42,-88.3"/>
<polygon fill="#63b8ff" stroke="#63b8ff" points="619.25,-119.99 613.16,-128.66 623.33,-125.68 619.25,-119.99"/>
</a>
</g>
</g>
<!-- Node10&#45;&gt;Node9 -->
<g id="edge11_Node000010_Node000009" class="edge">
<title>Node10&#45;&gt;Node9</title>
<g id="a_edge11_Node000010_Node000009"><a xlink:title=" ">
<path fill="none" stroke="#63b8ff" d="M661.02,-48.7C647.98,-38.92 633.39,-27.98 623.29,-20.41"/>
<polygon fill="#63b8ff" stroke="#63b8ff" points="658.84,-51.44 668.94,-54.64 663.04,-45.84 658.84,-51.44"/>
</a>
</g>
</g>
<!-- Node11 -->
<g id="Node000011" class="node">
<title>Node11</title>
<g id="a_Node000011"><a xlink:href="DotNameLib_8cpp.html" target="_top" xlink:title=" ">
<polygon fill="white" stroke="#666666" points="808.75,-20 702.75,-20 702.75,0 808.75,0 808.75,-20"/>
<text xml:space="preserve" text-anchor="middle" x="755.75" y="-6.5" font-family="Helvetica,sans-Serif" font-size="10.00">src/DotNameLib.cpp</text>
</a>
</g>
</g>
<!-- Node10&#45;&gt;Node11 -->
<g id="edge12_Node000010_Node000011" class="edge">
<title>Node10&#45;&gt;Node11</title>
<g id="a_edge12_Node000010_Node000011"><a xlink:title=" ">
<path fill="none" stroke="#63b8ff" d="M715.84,-47.84C726.19,-38.29 737.6,-27.76 745.56,-20.41"/>
<polygon fill="#63b8ff" stroke="#63b8ff" points="713.58,-45.17 708.6,-54.52 718.32,-50.31 713.58,-45.17"/>
</a>
</g>
</g>
</g>
</svg>
