<?xml version="1.0" encoding="UTF-8" standalone="no"?>
<!DOCTYPE svg PUBLIC "-//W3C//DTD SVG 1.1//EN"
 "http://www.w3.org/Graphics/SVG/1.1/DTD/svg11.dtd">
<!-- Generated by graphviz version 13.1.2 (20250808.2320)
 -->
<!-- Title: src/Utils/Json/IJsonSerializer.hpp Pages: 1 -->
<svg width="702pt" height="220pt"
 viewBox="0.00 0.00 702.00 220.00" xmlns="http://www.w3.org/2000/svg" xmlns:xlink="http://www.w3.org/1999/xlink">
<g id="graph0" class="graph" transform="scale(1 1) rotate(0) translate(4 216)">
<title>src/Utils/Json/IJsonSerializer.hpp</title>
<!-- Node1 -->
<g id="Node000001" class="node">
<title>Node1</title>
<g id="a_Node000001"><a xlink:title=" ">
<polygon fill="#999999" stroke="#666666" points="459,-212 296,-212 296,-192 459,-192 459,-212"/>
<text xml:space="preserve" text-anchor="middle" x="377.5" y="-198.5" font-family="Helvetica,sans-Serif" font-size="10.00">src/Utils/Json/IJsonSerializer.hpp</text>
</a>
</g>
</g>
<!-- Node2 -->
<g id="Node000002" class="node">
<title>Node2</title>
<g id="a_Node000002"><a xlink:href="CustomStringsLoader_8hpp.html" target="_top" xlink:title=" ">
<polygon fill="white" stroke="#666666" points="279,-156 134,-156 134,-124 279,-124 279,-156"/>
<text xml:space="preserve" text-anchor="start" x="142" y="-142.5" font-family="Helvetica,sans-Serif" font-size="10.00">src/Utils/Json/CustomStrings</text>
<text xml:space="preserve" text-anchor="middle" x="206.5" y="-130.5" font-family="Helvetica,sans-Serif" font-size="10.00">Loader.hpp</text>
</a>
</g>
</g>
<!-- Node1&#45;&gt;Node2 -->
<g id="edge1_Node000001_Node000002" class="edge">
<title>Node1&#45;&gt;Node2</title>
<g id="a_edge1_Node000001_Node000002"><a xlink:title=" ">
<path fill="none" stroke="#63b8ff" d="M340.09,-187.87C313.75,-178.63 278.38,-166.22 250.65,-156.49"/>
<polygon fill="#63b8ff" stroke="#63b8ff" points="338.76,-191.12 349.35,-191.12 341.08,-184.51 338.76,-191.12"/>
</a>
</g>
</g>
<!-- Node5 -->
<g id="Node000005" class="node">
<title>Node5</title>
<g id="a_Node000005"><a xlink:href="JsonSerializer_8hpp.html" target="_top" xlink:title=" ">
<polygon fill="white" stroke="#666666" points="457.5,-150 297.5,-150 297.5,-130 457.5,-130 457.5,-150"/>
<text xml:space="preserve" text-anchor="middle" x="377.5" y="-136.5" font-family="Helvetica,sans-Serif" font-size="10.00">src/Utils/Json/JsonSerializer.hpp</text>
</a>
</g>
</g>
<!-- Node1&#45;&gt;Node5 -->
<g id="edge4_Node000001_Node000005" class="edge">
<title>Node1&#45;&gt;Node5</title>
<g id="a_edge4_Node000001_Node000005"><a xlink:title=" ">
<path fill="none" stroke="#63b8ff" d="M377.5,-180.25C377.5,-169.97 377.5,-158.09 377.5,-150.11"/>
<polygon fill="#63b8ff" stroke="#63b8ff" points="374,-180.11 377.5,-190.11 381,-180.11 374,-180.11"/>
</a>
</g>
</g>
<!-- Node7 -->
<g id="Node000007" class="node">
<title>Node7</title>
<g id="a_Node000007"><a xlink:href="UtilsFactory_8hpp.html" target="_top" xlink:title=" ">
<polygon fill="white" stroke="#666666" points="603,-150 476,-150 476,-130 603,-130 603,-150"/>
<text xml:space="preserve" text-anchor="middle" x="539.5" y="-136.5" font-family="Helvetica,sans-Serif" font-size="10.00">src/Utils/UtilsFactory.hpp</text>
</a>
</g>
</g>
<!-- Node1&#45;&gt;Node7 -->
<g id="edge7_Node000001_Node000007" class="edge">
<title>Node1&#45;&gt;Node7</title>
<g id="a_edge7_Node000001_Node000007"><a xlink:title=" ">
<path fill="none" stroke="#63b8ff" d="M413.44,-187.69C443.98,-176.38 487.04,-160.43 514.1,-150.41"/>
<polygon fill="#63b8ff" stroke="#63b8ff" points="412.39,-184.34 404.23,-191.1 414.82,-190.91 412.39,-184.34"/>
</a>
</g>
</g>
<!-- Node3 -->
<g id="Node000003" class="node">
<title>Node3</title>
<g id="a_Node000003"><a xlink:href="CustomStringsLoader_8cpp.html" target="_top" xlink:title=" ">
<polygon fill="white" stroke="#666666" points="145,-88 0,-88 0,-56 145,-56 145,-88"/>
<text xml:space="preserve" text-anchor="start" x="8" y="-74.5" font-family="Helvetica,sans-Serif" font-size="10.00">src/Utils/Json/CustomStrings</text>
<text xml:space="preserve" text-anchor="middle" x="72.5" y="-62.5" font-family="Helvetica,sans-Serif" font-size="10.00">Loader.cpp</text>
</a>
</g>
</g>
<!-- Node2&#45;&gt;Node3 -->
<g id="edge2_Node000002_Node000003" class="edge">
<title>Node2&#45;&gt;Node3</title>
<g id="a_edge2_Node000002_Node000003"><a xlink:title=" ">
<path fill="none" stroke="#63b8ff" d="M164.82,-118.47C145.09,-108.75 121.91,-97.34 103.72,-88.38"/>
<polygon fill="#63b8ff" stroke="#63b8ff" points="163.21,-121.58 173.73,-122.86 166.3,-115.3 163.21,-121.58"/>
</a>
</g>
</g>
<!-- Node4 -->
<g id="Node000004" class="node">
<title>Node4</title>
<g id="a_Node000004"><a xlink:href="UtilsFactory_8cpp.html" target="_top" xlink:title=" ">
<polygon fill="white" stroke="#666666" points="469,-82 342,-82 342,-62 469,-62 469,-82"/>
<text xml:space="preserve" text-anchor="middle" x="405.5" y="-68.5" font-family="Helvetica,sans-Serif" font-size="10.00">src/Utils/UtilsFactory.cpp</text>
</a>
</g>
</g>
<!-- Node2&#45;&gt;Node4 -->
<g id="edge3_Node000002_Node000004" class="edge">
<title>Node2&#45;&gt;Node4</title>
<g id="a_edge3_Node000002_Node000004"><a xlink:title=" ">
<path fill="none" stroke="#63b8ff" d="M263.83,-119.99C300.91,-107.69 347.57,-92.21 376.98,-82.46"/>
<polygon fill="#63b8ff" stroke="#63b8ff" points="262.98,-116.58 254.59,-123.05 265.19,-123.22 262.98,-116.58"/>
</a>
</g>
</g>
<!-- Node5&#45;&gt;Node4 -->
<g id="edge6_Node000005_Node000004" class="edge">
<title>Node5&#45;&gt;Node4</title>
<g id="a_edge6_Node000005_Node000004"><a xlink:title=" ">
<path fill="none" stroke="#63b8ff" d="M385.97,-119.03C391.12,-106.89 397.46,-91.94 401.5,-82.44"/>
<polygon fill="#63b8ff" stroke="#63b8ff" points="382.79,-117.58 382.1,-128.15 389.23,-120.31 382.79,-117.58"/>
</a>
</g>
</g>
<!-- Node6 -->
<g id="Node000006" class="node">
<title>Node6</title>
<g id="a_Node000006"><a xlink:href="JsonSerializer_8cpp.html" target="_top" xlink:title=" ">
<polygon fill="white" stroke="#666666" points="323.5,-82 163.5,-82 163.5,-62 323.5,-62 323.5,-82"/>
<text xml:space="preserve" text-anchor="middle" x="243.5" y="-68.5" font-family="Helvetica,sans-Serif" font-size="10.00">src/Utils/Json/JsonSerializer.cpp</text>
</a>
</g>
</g>
<!-- Node5&#45;&gt;Node6 -->
<g id="edge5_Node000005_Node000006" class="edge">
<title>Node5&#45;&gt;Node6</title>
<g id="a_edge5_Node000005_Node000006"><a xlink:title=" ">
<path fill="none" stroke="#63b8ff" d="M348.27,-124.6C322.28,-111.8 285.04,-93.46 262.66,-82.44"/>
<polygon fill="#63b8ff" stroke="#63b8ff" points="346.43,-127.6 356.94,-128.88 349.52,-121.32 346.43,-127.6"/>
</a>
</g>
</g>
<!-- Node7&#45;&gt;Node4 -->
<g id="edge12_Node000007_Node000004" class="edge">
<title>Node7&#45;&gt;Node4</title>
<g id="a_edge12_Node000007_Node000004"><a xlink:title=" ">
<path fill="none" stroke="#63b8ff" d="M510.27,-124.6C484.28,-111.8 447.04,-93.46 424.66,-82.44"/>
<polygon fill="#63b8ff" stroke="#63b8ff" points="508.43,-127.6 518.94,-128.88 511.52,-121.32 508.43,-127.6"/>
</a>
</g>
</g>
<!-- Node8 -->
<g id="Node000008" class="node">
<title>Node8</title>
<g id="a_Node000008"><a xlink:href="Application_8cpp.html" target="_top" xlink:title=" ">
<polygon fill="white" stroke="#666666" points="693.88,-20 545.12,-20 545.12,0 693.88,0 693.88,-20"/>
<text xml:space="preserve" text-anchor="middle" x="619.5" y="-6.5" font-family="Helvetica,sans-Serif" font-size="10.00">application/src/Application.cpp</text>
</a>
</g>
</g>
<!-- Node7&#45;&gt;Node8 -->
<g id="edge8_Node000007_Node000008" class="edge">
<title>Node7&#45;&gt;Node8</title>
<g id="a_edge8_Node000007_Node000008"><a xlink:title=" ">
<path fill="none" stroke="#63b8ff" d="M565.2,-123.17C577.61,-114.28 591.67,-102.14 600.5,-88 614.06,-66.28 617.95,-35.47 619.06,-20.25"/>
<polygon fill="#63b8ff" stroke="#63b8ff" points="563.32,-120.22 557,-128.73 567.24,-126.02 563.32,-120.22"/>
</a>
</g>
</g>
<!-- Node9 -->
<g id="Node000009" class="node">
<title>Node9</title>
<g id="a_Node000009"><a xlink:href="DotNameLib_8hpp.html" target="_top" xlink:title=" ">
<polygon fill="white" stroke="#666666" points="591.75,-88 487.25,-88 487.25,-56 591.75,-56 591.75,-88"/>
<text xml:space="preserve" text-anchor="start" x="495.25" y="-74.5" font-family="Helvetica,sans-Serif" font-size="10.00">include/DotNameLib</text>
<text xml:space="preserve" text-anchor="middle" x="539.5" y="-62.5" font-family="Helvetica,sans-Serif" font-size="10.00">/DotNameLib.hpp</text>
</a>
</g>
</g>
<!-- Node7&#45;&gt;Node9 -->
<g id="edge9_Node000007_Node000009" class="edge">
<title>Node7&#45;&gt;Node9</title>
<g id="a_edge9_Node000007_Node000009"><a xlink:title=" ">
<path fill="none" stroke="#63b8ff" d="M539.5,-118.1C539.5,-108.43 539.5,-97.16 539.5,-88.3"/>
<polygon fill="#63b8ff" stroke="#63b8ff" points="536,-118.03 539.5,-128.03 543,-118.03 536,-118.03"/>
</a>
</g>
</g>
<!-- Node9&#45;&gt;Node8 -->
<g id="edge10_Node000009_Node000008" class="edge">
<title>Node9&#45;&gt;Node8</title>
<g id="a_edge10_Node000009_Node000008"><a xlink:title=" ">
<path fill="none" stroke="#63b8ff" d="M569.23,-48.7C582.27,-38.92 596.86,-27.98 606.96,-20.41"/>
<polygon fill="#63b8ff" stroke="#63b8ff" points="567.21,-45.84 561.31,-54.64 571.41,-51.44 567.21,-45.84"/>
</a>
</g>
</g>
<!-- Node10 -->
<g id="Node000010" class="node">
<title>Node10</title>
<g id="a_Node000010"><a xlink:href="DotNameLib_8cpp.html" target="_top" xlink:title=" ">
<polygon fill="white" stroke="#666666" points="527.5,-20 421.5,-20 421.5,0 527.5,0 527.5,-20"/>
<text xml:space="preserve" text-anchor="middle" x="474.5" y="-6.5" font-family="Helvetica,sans-Serif" font-size="10.00">src/DotNameLib.cpp</text>
</a>
</g>
</g>
<!-- Node9&#45;&gt;Node10 -->
<g id="edge11_Node000009_Node000010" class="edge">
<title>Node9&#45;&gt;Node10</title>
<g id="a_edge11_Node000009_Node000010"><a xlink:title=" ">
<path fill="none" stroke="#63b8ff" d="M514.41,-47.84C504.06,-38.29 492.65,-27.76 484.69,-20.41"/>
<polygon fill="#63b8ff" stroke="#63b8ff" points="511.93,-50.31 521.65,-54.52 516.67,-45.17 511.93,-50.31"/>
</a>
</g>
</g>
</g>
</svg>
