<?xml version="1.0" encoding="UTF-8" standalone="no"?>
<!DOCTYPE svg PUBLIC "-//W3C//DTD SVG 1.1//EN"
 "http://www.w3.org/Graphics/SVG/1.1/DTD/svg11.dtd">
<!-- Generated by graphviz version 13.1.2 (20250808.2320)
 -->
<!-- Title: src/Utils/Logger/ILogger.hpp Pages: 1 -->
<svg width="626pt" height="288pt"
 viewBox="0.00 0.00 626.00 288.00" xmlns="http://www.w3.org/2000/svg" xmlns:xlink="http://www.w3.org/1999/xlink">
<g id="graph0" class="graph" transform="scale(1 1) rotate(0) translate(4 284)">
<title>src/Utils/Logger/ILogger.hpp</title>
<!-- Node1 -->
<g id="Node000001" class="node">
<title>Node1</title>
<g id="a_Node000001"><a xlink:title=" ">
<polygon fill="#999999" stroke="#666666" points="409.62,-280 270.62,-280 270.62,-260 409.62,-260 409.62,-280"/>
<text xml:space="preserve" text-anchor="middle" x="340.12" y="-266.5" font-family="Helvetica,sans-Serif" font-size="10.00">src/Utils/Logger/ILogger.hpp</text>
</a>
</g>
</g>
<!-- Node2 -->
<g id="Node000002" class="node">
<title>Node2</title>
<g id="a_Node000002"><a xlink:href="ConsoleLogger_8hpp.html" target="_top" xlink:title=" ">
<polygon fill="white" stroke="#666666" points="149.12,-224 25.12,-224 25.12,-192 149.12,-192 149.12,-224"/>
<text xml:space="preserve" text-anchor="start" x="33.12" y="-210.5" font-family="Helvetica,sans-Serif" font-size="10.00">src/Utils/Logger/Console</text>
<text xml:space="preserve" text-anchor="middle" x="87.12" y="-198.5" font-family="Helvetica,sans-Serif" font-size="10.00">Logger.hpp</text>
</a>
</g>
</g>
<!-- Node1&#45;&gt;Node2 -->
<g id="edge1_Node000001_Node000002" class="edge">
<title>Node1&#45;&gt;Node2</title>
<g id="a_edge1_Node000001_Node000002"><a xlink:title=" ">
<path fill="none" stroke="#63b8ff" d="M289.14,-256.91C248.81,-247.35 192.35,-233.95 149.36,-223.76"/>
<polygon fill="#63b8ff" stroke="#63b8ff" points="288.3,-260.31 298.84,-259.21 289.92,-253.5 288.3,-260.31"/>
</a>
</g>
</g>
<!-- Node5 -->
<g id="Node000005" class="node">
<title>Node5</title>
<g id="a_Node000005"><a xlink:href="LoggerFactory_8hpp.html" target="_top" xlink:title=" ">
<polygon fill="white" stroke="#666666" points="335.25,-218 167,-218 167,-198 335.25,-198 335.25,-218"/>
<text xml:space="preserve" text-anchor="middle" x="251.12" y="-204.5" font-family="Helvetica,sans-Serif" font-size="10.00">src/Utils/Logger/LoggerFactory.hpp</text>
</a>
</g>
</g>
<!-- Node1&#45;&gt;Node5 -->
<g id="edge4_Node000001_Node000005" class="edge">
<title>Node1&#45;&gt;Node5</title>
<g id="a_edge4_Node000001_Node000005"><a xlink:title=" ">
<path fill="none" stroke="#63b8ff" d="M316.72,-253.22C300.24,-242.11 278.74,-227.62 264.93,-218.31"/>
<polygon fill="#63b8ff" stroke="#63b8ff" points="314.72,-256.09 324.96,-258.78 318.63,-250.29 314.72,-256.09"/>
</a>
</g>
</g>
<!-- Node7 -->
<g id="Node000007" class="node">
<title>Node7</title>
<g id="a_Node000007"><a xlink:href="UtilsFactory_8hpp.html" target="_top" xlink:title=" ">
<polygon fill="white" stroke="#666666" points="516.62,-150 389.62,-150 389.62,-130 516.62,-130 516.62,-150"/>
<text xml:space="preserve" text-anchor="middle" x="453.12" y="-136.5" font-family="Helvetica,sans-Serif" font-size="10.00">src/Utils/UtilsFactory.hpp</text>
</a>
</g>
</g>
<!-- Node1&#45;&gt;Node7 -->
<g id="edge16_Node000001_Node000007" class="edge">
<title>Node1&#45;&gt;Node7</title>
<g id="a_edge16_Node000001_Node000007"><a xlink:title=" ">
<path fill="none" stroke="#63b8ff" d="M421.06,-258.06C461.33,-250.78 503.97,-239.65 516.12,-224 536.76,-197.42 494.15,-165.65 469.31,-150.26"/>
<polygon fill="#63b8ff" stroke="#63b8ff" points="420.55,-254.6 411.29,-259.75 421.74,-261.49 420.55,-254.6"/>
</a>
</g>
</g>
<!-- Node11 -->
<g id="Node000011" class="node">
<title>Node11</title>
<g id="a_Node000011"><a xlink:href="NullLogger_8hpp.html" target="_top" xlink:title=" ">
<polygon fill="white" stroke="#666666" points="506.75,-218 353.5,-218 353.5,-198 506.75,-198 506.75,-218"/>
<text xml:space="preserve" text-anchor="middle" x="430.12" y="-204.5" font-family="Helvetica,sans-Serif" font-size="10.00">src/Utils/Logger/NullLogger.hpp</text>
</a>
</g>
</g>
<!-- Node1&#45;&gt;Node11 -->
<g id="edge13_Node000001_Node000011" class="edge">
<title>Node1&#45;&gt;Node11</title>
<g id="a_edge13_Node000001_Node000011"><a xlink:title=" ">
<path fill="none" stroke="#63b8ff" d="M363.32,-253.54C380.04,-242.39 402.06,-227.71 416.16,-218.31"/>
<polygon fill="#63b8ff" stroke="#63b8ff" points="361.83,-250.33 355.45,-258.79 365.71,-256.15 361.83,-250.33"/>
</a>
</g>
</g>
<!-- Node3 -->
<g id="Node000003" class="node">
<title>Node3</title>
<g id="a_Node000003"><a xlink:href="ConsoleLoggerTest_8cpp.html" target="_top" xlink:title=" ">
<polygon fill="white" stroke="#666666" points="126.25,-156 0,-156 0,-124 126.25,-124 126.25,-156"/>
<text xml:space="preserve" text-anchor="start" x="8" y="-142.5" font-family="Helvetica,sans-Serif" font-size="10.00">application/tests/Console</text>
<text xml:space="preserve" text-anchor="middle" x="63.12" y="-130.5" font-family="Helvetica,sans-Serif" font-size="10.00">LoggerTest.cpp</text>
</a>
</g>
</g>
<!-- Node2&#45;&gt;Node3 -->
<g id="edge2_Node000002_Node000003" class="edge">
<title>Node2&#45;&gt;Node3</title>
<g id="a_edge2_Node000002_Node000003"><a xlink:title=" ">
<path fill="none" stroke="#63b8ff" d="M77.63,-180.89C74.59,-172.52 71.32,-163.54 68.66,-156.22"/>
<polygon fill="#63b8ff" stroke="#63b8ff" points="74.33,-182.07 81.04,-190.27 80.91,-179.68 74.33,-182.07"/>
</a>
</g>
</g>
<!-- Node4 -->
<g id="Node000004" class="node">
<title>Node4</title>
<g id="a_Node000004"><a xlink:href="LoggerFactory_8cpp.html" target="_top" xlink:title=" ">
<polygon fill="white" stroke="#666666" points="312.25,-150 144,-150 144,-130 312.25,-130 312.25,-150"/>
<text xml:space="preserve" text-anchor="middle" x="228.12" y="-136.5" font-family="Helvetica,sans-Serif" font-size="10.00">src/Utils/Logger/LoggerFactory.cpp</text>
</a>
</g>
</g>
<!-- Node2&#45;&gt;Node4 -->
<g id="edge3_Node000002_Node000004" class="edge">
<title>Node2&#45;&gt;Node4</title>
<g id="a_edge3_Node000002_Node000004"><a xlink:title=" ">
<path fill="none" stroke="#63b8ff" d="M130.48,-186.71C156.27,-174.63 187.79,-159.88 207.91,-150.46"/>
<polygon fill="#63b8ff" stroke="#63b8ff" points="129.13,-183.47 121.55,-190.88 132.09,-189.81 129.13,-183.47"/>
</a>
</g>
</g>
<!-- Node5&#45;&gt;Node4 -->
<g id="edge5_Node000005_Node000004" class="edge">
<title>Node5&#45;&gt;Node4</title>
<g id="a_edge5_Node000005_Node000004"><a xlink:title=" ">
<path fill="none" stroke="#63b8ff" d="M244.17,-187.03C239.93,-174.89 234.73,-159.94 231.41,-150.44"/>
<polygon fill="#63b8ff" stroke="#63b8ff" points="240.74,-187.82 247.33,-196.11 247.35,-185.52 240.74,-187.82"/>
</a>
</g>
</g>
<!-- Node6 -->
<g id="Node000006" class="node">
<title>Node6</title>
<g id="a_Node000006"><a xlink:href="UtilsFactory_8cpp.html" target="_top" xlink:title=" ">
<polygon fill="white" stroke="#666666" points="392.62,-82 265.62,-82 265.62,-62 392.62,-62 392.62,-82"/>
<text xml:space="preserve" text-anchor="middle" x="329.12" y="-68.5" font-family="Helvetica,sans-Serif" font-size="10.00">src/Utils/UtilsFactory.cpp</text>
</a>
</g>
</g>
<!-- Node5&#45;&gt;Node6 -->
<g id="edge6_Node000005_Node000006" class="edge">
<title>Node5&#45;&gt;Node6</title>
<g id="a_edge6_Node000005_Node000006"><a xlink:title=" ">
<path fill="none" stroke="#63b8ff" d="M282.45,-192.01C296.69,-183.51 312.31,-171.45 321.12,-156 334.62,-132.36 332.61,-98.68 330.59,-82.45"/>
<polygon fill="#63b8ff" stroke="#63b8ff" points="280.8,-188.93 273.75,-196.84 284.2,-195.05 280.8,-188.93"/>
</a>
</g>
</g>
<!-- Node5&#45;&gt;Node7 -->
<g id="edge7_Node000005_Node000007" class="edge">
<title>Node5&#45;&gt;Node7</title>
<g id="a_edge7_Node000005_Node000007"><a xlink:title=" ">
<path fill="none" stroke="#63b8ff" d="M290.82,-194.03C330.09,-181.2 389.24,-161.87 424.24,-150.44"/>
<polygon fill="#63b8ff" stroke="#63b8ff" points="289.92,-190.64 281.51,-197.07 292.1,-197.29 289.92,-190.64"/>
</a>
</g>
</g>
<!-- Node7&#45;&gt;Node6 -->
<g id="edge12_Node000007_Node000006" class="edge">
<title>Node7&#45;&gt;Node6</title>
<g id="a_edge12_Node000007_Node000006"><a xlink:title=" ">
<path fill="none" stroke="#63b8ff" d="M425.43,-124.26C401.42,-111.48 367.38,-93.36 346.86,-82.44"/>
<polygon fill="#63b8ff" stroke="#63b8ff" points="423.55,-127.22 434.02,-128.83 426.84,-121.04 423.55,-127.22"/>
</a>
</g>
</g>
<!-- Node8 -->
<g id="Node000008" class="node">
<title>Node8</title>
<g id="a_Node000008"><a xlink:href="Application_8cpp.html" target="_top" xlink:title=" ">
<polygon fill="white" stroke="#666666" points="617.5,-20 468.75,-20 468.75,0 617.5,0 617.5,-20"/>
<text xml:space="preserve" text-anchor="middle" x="543.12" y="-6.5" font-family="Helvetica,sans-Serif" font-size="10.00">application/src/Application.cpp</text>
</a>
</g>
</g>
<!-- Node7&#45;&gt;Node8 -->
<g id="edge8_Node000007_Node000008" class="edge">
<title>Node7&#45;&gt;Node8</title>
<g id="a_edge8_Node000007_Node000008"><a xlink:title=" ">
<path fill="none" stroke="#63b8ff" d="M483.34,-123.86C497.71,-115.21 513.93,-103.07 524.12,-88 538.48,-66.79 542,-35.75 542.86,-20.37"/>
<polygon fill="#63b8ff" stroke="#63b8ff" points="481.62,-120.82 474.64,-128.79 485.07,-126.91 481.62,-120.82"/>
</a>
</g>
</g>
<!-- Node9 -->
<g id="Node000009" class="node">
<title>Node9</title>
<g id="a_Node000009"><a xlink:href="DotNameLib_8hpp.html" target="_top" xlink:title=" ">
<polygon fill="white" stroke="#666666" points="515.38,-88 410.88,-88 410.88,-56 515.38,-56 515.38,-88"/>
<text xml:space="preserve" text-anchor="start" x="418.88" y="-74.5" font-family="Helvetica,sans-Serif" font-size="10.00">include/DotNameLib</text>
<text xml:space="preserve" text-anchor="middle" x="463.12" y="-62.5" font-family="Helvetica,sans-Serif" font-size="10.00">/DotNameLib.hpp</text>
</a>
</g>
</g>
<!-- Node7&#45;&gt;Node9 -->
<g id="edge9_Node000007_Node000009" class="edge">
<title>Node7&#45;&gt;Node9</title>
<g id="a_edge9_Node000007_Node000009"><a xlink:title=" ">
<path fill="none" stroke="#63b8ff" d="M456.24,-118.43C457.72,-108.69 459.45,-97.26 460.81,-88.3"/>
<polygon fill="#63b8ff" stroke="#63b8ff" points="452.82,-117.64 454.78,-128.05 459.74,-118.68 452.82,-117.64"/>
</a>
</g>
</g>
<!-- Node9&#45;&gt;Node8 -->
<g id="edge10_Node000009_Node000008" class="edge">
<title>Node9&#45;&gt;Node8</title>
<g id="a_edge10_Node000009_Node000008"><a xlink:title=" ">
<path fill="none" stroke="#63b8ff" d="M492.86,-48.7C505.89,-38.92 520.49,-27.98 530.58,-20.41"/>
<polygon fill="#63b8ff" stroke="#63b8ff" points="490.84,-45.84 484.94,-54.64 495.04,-51.44 490.84,-45.84"/>
</a>
</g>
</g>
<!-- Node10 -->
<g id="Node000010" class="node">
<title>Node10</title>
<g id="a_Node000010"><a xlink:href="DotNameLib_8cpp.html" target="_top" xlink:title=" ">
<polygon fill="white" stroke="#666666" points="451.12,-20 345.12,-20 345.12,0 451.12,0 451.12,-20"/>
<text xml:space="preserve" text-anchor="middle" x="398.12" y="-6.5" font-family="Helvetica,sans-Serif" font-size="10.00">src/DotNameLib.cpp</text>
</a>
</g>
</g>
<!-- Node9&#45;&gt;Node10 -->
<g id="edge11_Node000009_Node000010" class="edge">
<title>Node9&#45;&gt;Node10</title>
<g id="a_edge11_Node000009_Node000010"><a xlink:title=" ">
<path fill="none" stroke="#63b8ff" d="M438.04,-47.84C427.69,-38.29 416.28,-27.76 408.32,-20.41"/>
<polygon fill="#63b8ff" stroke="#63b8ff" points="435.55,-50.31 445.27,-54.52 440.3,-45.17 435.55,-50.31"/>
</a>
</g>
</g>
<!-- Node11&#45;&gt;Node4 -->
<g id="edge14_Node000011_Node000004" class="edge">
<title>Node11&#45;&gt;Node4</title>
<g id="a_edge14_Node000011_Node000004"><a xlink:title=" ">
<path fill="none" stroke="#63b8ff" d="M390.43,-194.03C351.16,-181.2 292.01,-161.87 257.01,-150.44"/>
<polygon fill="#63b8ff" stroke="#63b8ff" points="389.15,-197.29 399.74,-197.07 391.33,-190.64 389.15,-197.29"/>
</a>
</g>
</g>
<!-- Node11&#45;&gt;Node7 -->
<g id="edge15_Node000011_Node000007" class="edge">
<title>Node11&#45;&gt;Node7</title>
<g id="a_edge15_Node000011_Node000007"><a xlink:title=" ">
<path fill="none" stroke="#63b8ff" d="M437.08,-187.03C441.32,-174.89 446.52,-159.94 449.84,-150.44"/>
<polygon fill="#63b8ff" stroke="#63b8ff" points="433.9,-185.52 433.92,-196.11 440.51,-187.82 433.9,-185.52"/>
</a>
</g>
</g>
</g>
</svg>
