<?xml version="1.0" encoding="UTF-8" standalone="no"?>
<!DOCTYPE svg PUBLIC "-//W3C//DTD SVG 1.1//EN"
 "http://www.w3.org/Graphics/SVG/1.1/DTD/svg11.dtd">
<!-- Generated by graphviz version 13.1.2 (20250808.2320)
 -->
<!-- Title: src/Utils/Platform/IPlatformInfo.hpp Pages: 1 -->
<svg width="938pt" height="232pt"
 viewBox="0.00 0.00 938.00 232.00" xmlns="http://www.w3.org/2000/svg" xmlns:xlink="http://www.w3.org/1999/xlink">
<g id="graph0" class="graph" transform="scale(1 1) rotate(0) translate(4 228)">
<title>src/Utils/Platform/IPlatformInfo.hpp</title>
<!-- Node1 -->
<g id="Node000001" class="node">
<title>Node1</title>
<g id="a_Node000001"><a xlink:title=" ">
<polygon fill="#999999" stroke="#666666" points="535.25,-224 441.25,-224 441.25,-192 535.25,-192 535.25,-224"/>
<text xml:space="preserve" text-anchor="start" x="449.25" y="-210.5" font-family="Helvetica,sans-Serif" font-size="10.00">src/Utils/Platform</text>
<text xml:space="preserve" text-anchor="middle" x="488.25" y="-198.5" font-family="Helvetica,sans-Serif" font-size="10.00">/IPlatformInfo.hpp</text>
</a>
</g>
</g>
<!-- Node2 -->
<g id="Node000002" class="node">
<title>Node2</title>
<g id="a_Node000002"><a xlink:href="EmscriptenPlatformInfo_8hpp.html" target="_top" xlink:title=" ">
<polygon fill="white" stroke="#666666" points="203.5,-156 63,-156 63,-124 203.5,-124 203.5,-156"/>
<text xml:space="preserve" text-anchor="start" x="71" y="-142.5" font-family="Helvetica,sans-Serif" font-size="10.00">src/Utils/Platform</text>
<text xml:space="preserve" text-anchor="middle" x="133.25" y="-130.5" font-family="Helvetica,sans-Serif" font-size="10.00">/EmscriptenPlatformInfo.hpp</text>
</a>
</g>
</g>
<!-- Node1&#45;&gt;Node2 -->
<g id="edge1_Node000001_Node000002" class="edge">
<title>Node1&#45;&gt;Node2</title>
<g id="a_edge1_Node000001_Node000002"><a xlink:title=" ">
<path fill="none" stroke="#63b8ff" d="M429.77,-196.28C373.89,-186.02 287.3,-170.06 212.25,-156 209.51,-155.49 206.71,-154.96 203.88,-154.43"/>
<polygon fill="#63b8ff" stroke="#63b8ff" points="428.91,-199.68 439.38,-198.04 430.17,-192.8 428.91,-199.68"/>
</a>
</g>
</g>
<!-- Node5 -->
<g id="Node000005" class="node">
<title>Node5</title>
<g id="a_Node000005"><a xlink:href="PlatformInfoFactory_8hpp.html" target="_top" xlink:title=" ">
<polygon fill="white" stroke="#666666" points="622.88,-156 499.62,-156 499.62,-124 622.88,-124 622.88,-156"/>
<text xml:space="preserve" text-anchor="start" x="507.62" y="-142.5" font-family="Helvetica,sans-Serif" font-size="10.00">src/Utils/Platform</text>
<text xml:space="preserve" text-anchor="middle" x="561.25" y="-130.5" font-family="Helvetica,sans-Serif" font-size="10.00">/PlatformInfoFactory.hpp</text>
</a>
</g>
</g>
<!-- Node1&#45;&gt;Node5 -->
<g id="edge4_Node000001_Node000005" class="edge">
<title>Node1&#45;&gt;Node5</title>
<g id="a_edge4_Node000001_Node000005"><a xlink:title=" ">
<path fill="none" stroke="#63b8ff" d="M513.64,-184.05C523.73,-174.92 535.07,-164.67 544.16,-156.45"/>
<polygon fill="#63b8ff" stroke="#63b8ff" points="511.37,-181.37 506.3,-190.68 516.07,-186.57 511.37,-181.37"/>
</a>
</g>
</g>
<!-- Node6 -->
<g id="Node000006" class="node">
<title>Node6</title>
<g id="a_Node000006"><a xlink:href="UtilsFactory_8cpp.html" target="_top" xlink:title=" ">
<polygon fill="white" stroke="#666666" points="704.75,-82 577.75,-82 577.75,-62 704.75,-62 704.75,-82"/>
<text xml:space="preserve" text-anchor="middle" x="641.25" y="-68.5" font-family="Helvetica,sans-Serif" font-size="10.00">src/Utils/UtilsFactory.cpp</text>
</a>
</g>
</g>
<!-- Node1&#45;&gt;Node6 -->
<g id="edge13_Node000001_Node000006" class="edge">
<title>Node1&#45;&gt;Node6</title>
<g id="a_edge13_Node000001_Node000006"><a xlink:title=" ">
<path fill="none" stroke="#63b8ff" d="M546.93,-200.97C577.1,-194.69 611.75,-181.91 632.25,-156 649.33,-134.4 646.02,-99.14 643.17,-82.4"/>
<polygon fill="#63b8ff" stroke="#63b8ff" points="546.3,-197.52 537.11,-202.79 547.58,-204.41 546.3,-197.52"/>
</a>
</g>
</g>
<!-- Node7 -->
<g id="Node000007" class="node">
<title>Node7</title>
<g id="a_Node000007"><a xlink:href="UnixPlatformInfo_8hpp.html" target="_top" xlink:title=" ">
<polygon fill="white" stroke="#666666" points="332.88,-156 221.62,-156 221.62,-124 332.88,-124 332.88,-156"/>
<text xml:space="preserve" text-anchor="start" x="229.62" y="-142.5" font-family="Helvetica,sans-Serif" font-size="10.00">src/Utils/Platform</text>
<text xml:space="preserve" text-anchor="middle" x="277.25" y="-130.5" font-family="Helvetica,sans-Serif" font-size="10.00">/UnixPlatformInfo.hpp</text>
</a>
</g>
</g>
<!-- Node1&#45;&gt;Node7 -->
<g id="edge7_Node000001_Node000007" class="edge">
<title>Node1&#45;&gt;Node7</title>
<g id="a_edge7_Node000001_Node000007"><a xlink:title=" ">
<path fill="none" stroke="#63b8ff" d="M430.19,-188.84C397.7,-178.68 357.62,-166.14 326.65,-156.45"/>
<polygon fill="#63b8ff" stroke="#63b8ff" points="428.86,-192.09 439.45,-191.74 430.95,-185.41 428.86,-192.09"/>
</a>
</g>
</g>
<!-- Node9 -->
<g id="Node000009" class="node">
<title>Node9</title>
<g id="a_Node000009"><a xlink:href="WindowsPlatformInfo_8hpp.html" target="_top" xlink:title=" ">
<polygon fill="white" stroke="#666666" points="482,-156 350.5,-156 350.5,-124 482,-124 482,-156"/>
<text xml:space="preserve" text-anchor="start" x="358.5" y="-142.5" font-family="Helvetica,sans-Serif" font-size="10.00">src/Utils/Platform</text>
<text xml:space="preserve" text-anchor="middle" x="416.25" y="-130.5" font-family="Helvetica,sans-Serif" font-size="10.00">/WindowsPlatformInfo.hpp</text>
</a>
</g>
</g>
<!-- Node1&#45;&gt;Node9 -->
<g id="edge10_Node000001_Node000009" class="edge">
<title>Node1&#45;&gt;Node9</title>
<g id="a_edge10_Node000001_Node000009"><a xlink:title=" ">
<path fill="none" stroke="#63b8ff" d="M463.15,-183.99C453.12,-174.79 441.84,-164.46 432.86,-156.22"/>
<polygon fill="#63b8ff" stroke="#63b8ff" points="460.7,-186.49 470.44,-190.67 465.43,-181.33 460.7,-186.49"/>
</a>
</g>
</g>
<!-- Node11 -->
<g id="Node000011" class="node">
<title>Node11</title>
<g id="a_Node000011"><a xlink:href="UtilsFactory_8hpp.html" target="_top" xlink:title=" ">
<polygon fill="white" stroke="#666666" points="827.75,-150 700.75,-150 700.75,-130 827.75,-130 827.75,-150"/>
<text xml:space="preserve" text-anchor="middle" x="764.25" y="-136.5" font-family="Helvetica,sans-Serif" font-size="10.00">src/Utils/UtilsFactory.hpp</text>
</a>
</g>
</g>
<!-- Node1&#45;&gt;Node11 -->
<g id="edge14_Node000001_Node000011" class="edge">
<title>Node1&#45;&gt;Node11</title>
<g id="a_edge14_Node000001_Node000011"><a xlink:title=" ">
<path fill="none" stroke="#63b8ff" d="M546.73,-193.02C600.24,-180.22 677.97,-161.63 724.57,-150.49"/>
<polygon fill="#63b8ff" stroke="#63b8ff" points="546.08,-189.57 537.17,-195.3 547.71,-196.38 546.08,-189.57"/>
</a>
</g>
</g>
<!-- Node3 -->
<g id="Node000003" class="node">
<title>Node3</title>
<g id="a_Node000003"><a xlink:href="EmscriptenPlatformInfo_8cpp.html" target="_top" xlink:title=" ">
<polygon fill="white" stroke="#666666" points="140.5,-88 0,-88 0,-56 140.5,-56 140.5,-88"/>
<text xml:space="preserve" text-anchor="start" x="8" y="-74.5" font-family="Helvetica,sans-Serif" font-size="10.00">src/Utils/Platform</text>
<text xml:space="preserve" text-anchor="middle" x="70.25" y="-62.5" font-family="Helvetica,sans-Serif" font-size="10.00">/EmscriptenPlatformInfo.cpp</text>
</a>
</g>
</g>
<!-- Node2&#45;&gt;Node3 -->
<g id="edge2_Node000002_Node000003" class="edge">
<title>Node2&#45;&gt;Node3</title>
<g id="a_edge2_Node000002_Node000003"><a xlink:title=" ">
<path fill="none" stroke="#63b8ff" d="M110.75,-115.43C102.11,-106.38 92.48,-96.29 84.78,-88.22"/>
<polygon fill="#63b8ff" stroke="#63b8ff" points="108.16,-117.78 117.59,-122.6 113.22,-112.95 108.16,-117.78"/>
</a>
</g>
</g>
<!-- Node4 -->
<g id="Node000004" class="node">
<title>Node4</title>
<g id="a_Node000004"><a xlink:href="PlatformInfoFactory_8cpp.html" target="_top" xlink:title=" ">
<polygon fill="white" stroke="#666666" points="410.88,-88 287.62,-88 287.62,-56 410.88,-56 410.88,-88"/>
<text xml:space="preserve" text-anchor="start" x="295.62" y="-74.5" font-family="Helvetica,sans-Serif" font-size="10.00">src/Utils/Platform</text>
<text xml:space="preserve" text-anchor="middle" x="349.25" y="-62.5" font-family="Helvetica,sans-Serif" font-size="10.00">/PlatformInfoFactory.cpp</text>
</a>
</g>
</g>
<!-- Node2&#45;&gt;Node4 -->
<g id="edge3_Node000002_Node000004" class="edge">
<title>Node2&#45;&gt;Node4</title>
<g id="a_edge3_Node000002_Node000004"><a xlink:title=" ">
<path fill="none" stroke="#63b8ff" d="M194.73,-120.21C227.57,-110.18 267.51,-97.98 298.55,-88.49"/>
<polygon fill="#63b8ff" stroke="#63b8ff" points="193.88,-116.81 185.34,-123.08 195.93,-123.51 193.88,-116.81"/>
</a>
</g>
</g>
<!-- Node5&#45;&gt;Node4 -->
<g id="edge5_Node000005_Node000004" class="edge">
<title>Node5&#45;&gt;Node4</title>
<g id="a_edge5_Node000005_Node000004"><a xlink:title=" ">
<path fill="none" stroke="#63b8ff" d="M500.9,-120.21C468.67,-110.18 429.48,-97.98 399.01,-88.49"/>
<polygon fill="#63b8ff" stroke="#63b8ff" points="499.51,-123.45 510.1,-123.08 501.59,-116.76 499.51,-123.45"/>
</a>
</g>
</g>
<!-- Node5&#45;&gt;Node6 -->
<g id="edge6_Node000005_Node000006" class="edge">
<title>Node5&#45;&gt;Node6</title>
<g id="a_edge6_Node000005_Node000006"><a xlink:title=" ">
<path fill="none" stroke="#63b8ff" d="M588.67,-116.38C602.8,-104.72 619.27,-91.13 629.96,-82.32"/>
<polygon fill="#63b8ff" stroke="#63b8ff" points="586.46,-113.67 580.97,-122.73 590.91,-119.07 586.46,-113.67"/>
</a>
</g>
</g>
<!-- Node7&#45;&gt;Node4 -->
<g id="edge8_Node000007_Node000004" class="edge">
<title>Node7&#45;&gt;Node4</title>
<g id="a_edge8_Node000007_Node000004"><a xlink:title=" ">
<path fill="none" stroke="#63b8ff" d="M302.35,-115.99C312.38,-106.79 323.66,-96.46 332.64,-88.22"/>
<polygon fill="#63b8ff" stroke="#63b8ff" points="300.07,-113.33 295.06,-122.67 304.8,-118.49 300.07,-113.33"/>
</a>
</g>
</g>
<!-- Node8 -->
<g id="Node000008" class="node">
<title>Node8</title>
<g id="a_Node000008"><a xlink:href="UnixPlatformInfo_8cpp.html" target="_top" xlink:title=" ">
<polygon fill="white" stroke="#666666" points="269.88,-88 158.62,-88 158.62,-56 269.88,-56 269.88,-88"/>
<text xml:space="preserve" text-anchor="start" x="166.62" y="-74.5" font-family="Helvetica,sans-Serif" font-size="10.00">src/Utils/Platform</text>
<text xml:space="preserve" text-anchor="middle" x="214.25" y="-62.5" font-family="Helvetica,sans-Serif" font-size="10.00">/UnixPlatformInfo.cpp</text>
</a>
</g>
</g>
<!-- Node7&#45;&gt;Node8 -->
<g id="edge9_Node000007_Node000008" class="edge">
<title>Node7&#45;&gt;Node8</title>
<g id="a_edge9_Node000007_Node000008"><a xlink:title=" ">
<path fill="none" stroke="#63b8ff" d="M254.75,-115.43C246.11,-106.38 236.48,-96.29 228.78,-88.22"/>
<polygon fill="#63b8ff" stroke="#63b8ff" points="252.16,-117.78 261.59,-122.6 257.22,-112.95 252.16,-117.78"/>
</a>
</g>
</g>
<!-- Node9&#45;&gt;Node4 -->
<g id="edge11_Node000009_Node000004" class="edge">
<title>Node9&#45;&gt;Node4</title>
<g id="a_edge11_Node000009_Node000004"><a xlink:title=" ">
<path fill="none" stroke="#63b8ff" d="M392.61,-115.71C383.34,-106.59 372.98,-96.37 364.71,-88.22"/>
<polygon fill="#63b8ff" stroke="#63b8ff" points="390.05,-118.11 399.63,-122.63 394.96,-113.12 390.05,-118.11"/>
</a>
</g>
</g>
<!-- Node10 -->
<g id="Node000010" class="node">
<title>Node10</title>
<g id="a_Node000010"><a xlink:href="WindowsPlatformInfo_8cpp.html" target="_top" xlink:title=" ">
<polygon fill="white" stroke="#666666" points="560,-88 428.5,-88 428.5,-56 560,-56 560,-88"/>
<text xml:space="preserve" text-anchor="start" x="436.5" y="-74.5" font-family="Helvetica,sans-Serif" font-size="10.00">src/Utils/Platform</text>
<text xml:space="preserve" text-anchor="middle" x="494.25" y="-62.5" font-family="Helvetica,sans-Serif" font-size="10.00">/WindowsPlatformInfo.cpp</text>
</a>
</g>
</g>
<!-- Node9&#45;&gt;Node10 -->
<g id="edge12_Node000009_Node000010" class="edge">
<title>Node9&#45;&gt;Node10</title>
<g id="a_edge12_Node000009_Node000010"><a xlink:title=" ">
<path fill="none" stroke="#63b8ff" d="M443.05,-116.32C453.92,-107.13 466.18,-96.75 475.99,-88.45"/>
<polygon fill="#63b8ff" stroke="#63b8ff" points="440.87,-113.58 435.5,-122.71 445.39,-118.93 440.87,-113.58"/>
</a>
</g>
</g>
<!-- Node11&#45;&gt;Node6 -->
<g id="edge19_Node000011_Node000006" class="edge">
<title>Node11&#45;&gt;Node6</title>
<g id="a_edge19_Node000011_Node000006"><a xlink:title=" ">
<path fill="none" stroke="#63b8ff" d="M736.78,-124.26C712.96,-111.48 679.19,-93.36 658.84,-82.44"/>
<polygon fill="#63b8ff" stroke="#63b8ff" points="734.83,-127.18 745.29,-128.83 738.14,-121.02 734.83,-127.18"/>
</a>
</g>
</g>
<!-- Node12 -->
<g id="Node000012" class="node">
<title>Node12</title>
<g id="a_Node000012"><a xlink:href="Application_8cpp.html" target="_top" xlink:title=" ">
<polygon fill="white" stroke="#666666" points="929.62,-20 780.88,-20 780.88,0 929.62,0 929.62,-20"/>
<text xml:space="preserve" text-anchor="middle" x="855.25" y="-6.5" font-family="Helvetica,sans-Serif" font-size="10.00">application/src/Application.cpp</text>
</a>
</g>
</g>
<!-- Node11&#45;&gt;Node12 -->
<g id="edge15_Node000011_Node000012" class="edge">
<title>Node11&#45;&gt;Node12</title>
<g id="a_edge15_Node000011_Node000012"><a xlink:title=" ">
<path fill="none" stroke="#63b8ff" d="M794.47,-124.2C809.14,-115.56 825.81,-103.32 836.25,-88 850.67,-66.84 854.17,-35.78 855,-20.38"/>
<polygon fill="#63b8ff" stroke="#63b8ff" points="793.1,-120.96 786.06,-128.87 796.5,-127.08 793.1,-120.96"/>
</a>
</g>
</g>
<!-- Node13 -->
<g id="Node000013" class="node">
<title>Node13</title>
<g id="a_Node000013"><a xlink:href="DotNameLib_8hpp.html" target="_top" xlink:title=" ">
<polygon fill="white" stroke="#666666" points="827.5,-88 723,-88 723,-56 827.5,-56 827.5,-88"/>
<text xml:space="preserve" text-anchor="start" x="731" y="-74.5" font-family="Helvetica,sans-Serif" font-size="10.00">include/DotNameLib</text>
<text xml:space="preserve" text-anchor="middle" x="775.25" y="-62.5" font-family="Helvetica,sans-Serif" font-size="10.00">/DotNameLib.hpp</text>
</a>
</g>
</g>
<!-- Node11&#45;&gt;Node13 -->
<g id="edge16_Node000011_Node000013" class="edge">
<title>Node11&#45;&gt;Node13</title>
<g id="a_edge16_Node000011_Node000013"><a xlink:title=" ">
<path fill="none" stroke="#63b8ff" d="M767.68,-118.43C769.3,-108.69 771.21,-97.26 772.7,-88.3"/>
<polygon fill="#63b8ff" stroke="#63b8ff" points="764.27,-117.61 766.07,-128.05 771.17,-118.76 764.27,-117.61"/>
</a>
</g>
</g>
<!-- Node13&#45;&gt;Node12 -->
<g id="edge17_Node000013_Node000012" class="edge">
<title>Node13&#45;&gt;Node12</title>
<g id="a_edge17_Node000013_Node000012"><a xlink:title=" ">
<path fill="none" stroke="#63b8ff" d="M804.98,-48.7C818.02,-38.92 832.61,-27.98 842.71,-20.41"/>
<polygon fill="#63b8ff" stroke="#63b8ff" points="802.96,-45.84 797.06,-54.64 807.16,-51.44 802.96,-45.84"/>
</a>
</g>
</g>
<!-- Node14 -->
<g id="Node000014" class="node">
<title>Node14</title>
<g id="a_Node000014"><a xlink:href="DotNameLib_8cpp.html" target="_top" xlink:title=" ">
<polygon fill="white" stroke="#666666" points="763.25,-20 657.25,-20 657.25,0 763.25,0 763.25,-20"/>
<text xml:space="preserve" text-anchor="middle" x="710.25" y="-6.5" font-family="Helvetica,sans-Serif" font-size="10.00">src/DotNameLib.cpp</text>
</a>
</g>
</g>
<!-- Node13&#45;&gt;Node14 -->
<g id="edge18_Node000013_Node000014" class="edge">
<title>Node13&#45;&gt;Node14</title>
<g id="a_edge18_Node000013_Node000014"><a xlink:title=" ">
<path fill="none" stroke="#63b8ff" d="M750.16,-47.84C739.81,-38.29 728.4,-27.76 720.44,-20.41"/>
<polygon fill="#63b8ff" stroke="#63b8ff" points="747.68,-50.31 757.4,-54.52 752.42,-45.17 747.68,-50.31"/>
</a>
</g>
</g>
</g>
</svg>
