<?xml version="1.0" encoding="UTF-8" standalone="no"?>
<!DOCTYPE svg PUBLIC "-//W3C//DTD SVG 1.1//EN"
 "http://www.w3.org/Graphics/SVG/1.1/DTD/svg11.dtd">
<!-- Generated by graphviz version 13.1.2 (20250808.2320)
 -->
<!-- Title: src/Utils/Platform/IPlatformInfo.hpp Pages: 1 -->
<!--zoomable 232 -->

<svg id="main" version="1.1" xmlns="http://www.w3.org/2000/svg" xmlns:xlink="http://www.w3.org/1999/xlink" xml:space="preserve" onload="init(evt)">

<style type="text/css"><![CDATA[
.node, .edge {opacity: 0.7;}
.node.selected, .edge.selected {opacity: 1;}
.edge:hover path { stroke: red; }
.edge:hover polygon { stroke: red; fill: red; }
]]></style>

<defs>
  <circle id="rim" cx="0" cy="0" r="7"/>
  <circle id="rim2" cx="0" cy="0" r="3.5"/>
  <g id="zoomPlus">
    <use xlink:href="#rim" fill="#404040"><set attributeName="fill" to="#808080" begin="zoomplus.mouseover" end="zoomplus.mouseout"/></use>
    <path d="M-4,0h8M0,-4v8" fill="none" stroke="white" stroke-width="1.5" pointer-events="none"/>
  </g>
  <g id="zoomMin">
    <use xlink:href="#rim" fill="#404040"><set attributeName="fill" to="#808080" begin="zoomminus.mouseover" end="zoomminus.mouseout"/></use>
    <path d="M-4,0h8" fill="none" stroke="white" stroke-width="1.5" pointer-events="none"/>
  </g>
  <g id="arrowUp" transform="translate(30 24)">
    <use xlink:href="#rim"/>
    <path pointer-events="none" fill="none" stroke="white" stroke-width="1.5" d="M0,-3.0v7 M-2.5,-0.5L0,-3.0L2.5,-0.5"/>
  </g>
  <g id="arrowRight" transform="rotate(90) translate(36 -43)">
    <use xlink:href="#rim"/>
    <path pointer-events="none" fill="none" stroke="white" stroke-width="1.5" d="M0,-3.0v7 M-2.5,-0.5L0,-3.0L2.5,-0.5"/>
  </g>
  <g id="arrowDown" transform="rotate(180) translate(-30 -48)">
    <use xlink:href="#rim"/>
    <path pointer-events="none" fill="none" stroke="white" stroke-width="1.5" d="M0,-3.0v7 M-2.5,-0.5L0,-3.0L2.5,-0.5"/>
  </g>
  <g id="arrowLeft" transform="rotate(270) translate(-36 17)">
    <use xlink:href="#rim"/>
    <path pointer-events="none" fill="none" stroke="white" stroke-width="1.5" d="M0,-3.0v7 M-2.5,-0.5L0,-3.0L2.5,-0.5"/>
  </g>
  <g id="resetDef">
    <use xlink:href="#rim2" fill="#404040"><set attributeName="fill" to="#808080" begin="reset.mouseover" end="reset.mouseout"/></use>
  </g>
</defs>
<script type="application/ecmascript">
var viewWidth = 938;
var viewHeight = 232;
var sectionId = 'dynsection-1';
</script>
<script type="application/ecmascript" xlink:href="svg.min.js"/>
<svg id="graph" class="graph">
<g id="viewport">
<title>src/Utils/Platform/IPlatformInfo.hpp</title>
<!-- Node1 -->
<g id="Node000001" class="node">
<title>Node1</title>
<g id="a_Node000001"><a xlink:title=" ">
<polygon fill="#999999" stroke="#666666" points="534.25,-224 440.25,-224 440.25,-192 534.25,-192 534.25,-224"/>
<text xml:space="preserve" text-anchor="start" x="448.25" y="-210.5" font-family="Helvetica,sans-Serif" font-size="10.00">src/Utils/Platform</text>
<text xml:space="preserve" text-anchor="middle" x="487.25" y="-198.5" font-family="Helvetica,sans-Serif" font-size="10.00">/IPlatformInfo.hpp</text>
</a>
</g>
</g>
<!-- Node2 -->
<g id="Node000002" class="node">
<title>Node2</title>
<g id="a_Node000002"><a xlink:href="EmscriptenPlatformInfo_8hpp.html" target="_top" xlink:title=" ">
<polygon fill="white" stroke="#666666" points="274.5,-156 134,-156 134,-124 274.5,-124 274.5,-156"/>
<text xml:space="preserve" text-anchor="start" x="142" y="-142.5" font-family="Helvetica,sans-Serif" font-size="10.00">src/Utils/Platform</text>
<text xml:space="preserve" text-anchor="middle" x="204.25" y="-130.5" font-family="Helvetica,sans-Serif" font-size="10.00">/EmscriptenPlatformInfo.hpp</text>
</a>
</g>
</g>
<!-- Node1&#45;&gt;Node2 -->
<g id="edge1_Node000001_Node000002" class="edge">
<title>Node1&#45;&gt;Node2</title>
<g id="a_edge1_Node000001_Node000002"><a xlink:title=" ">
<path fill="none" stroke="#63b8ff" d="M428.88,-193.39C382.84,-182.65 318.6,-167.67 270.6,-156.47"/>
<polygon fill="#63b8ff" stroke="#63b8ff" points="427.87,-196.75 438.41,-195.61 429.46,-189.93 427.87,-196.75"/>
</a>
</g>
</g>
<!-- Node5 -->
<g id="Node000005" class="node">
<title>Node5</title>
<g id="a_Node000005"><a xlink:href="PlatformInfoFactory_8hpp.html" target="_top" xlink:title=" ">
<polygon fill="white" stroke="#666666" points="693.88,-156 570.62,-156 570.62,-124 693.88,-124 693.88,-156"/>
<text xml:space="preserve" text-anchor="start" x="578.62" y="-142.5" font-family="Helvetica,sans-Serif" font-size="10.00">src/Utils/Platform</text>
<text xml:space="preserve" text-anchor="middle" x="632.25" y="-130.5" font-family="Helvetica,sans-Serif" font-size="10.00">/PlatformInfoFactory.hpp</text>
</a>
</g>
</g>
<!-- Node1&#45;&gt;Node5 -->
<g id="edge4_Node000001_Node000005" class="edge">
<title>Node1&#45;&gt;Node5</title>
<g id="a_edge4_Node000001_Node000005"><a xlink:title=" ">
<path fill="none" stroke="#63b8ff" d="M531.72,-186.76C553.12,-177.02 578.37,-165.52 598.22,-156.49"/>
<polygon fill="#63b8ff" stroke="#63b8ff" points="530.28,-183.57 522.62,-190.9 533.18,-189.94 530.28,-183.57"/>
</a>
</g>
</g>
<!-- Node7 -->
<g id="Node000007" class="node">
<title>Node7</title>
<g id="a_Node000007"><a xlink:href="UnixPlatformInfo_8hpp.html" target="_top" xlink:title=" ">
<polygon fill="white" stroke="#666666" points="403.88,-156 292.62,-156 292.62,-124 403.88,-124 403.88,-156"/>
<text xml:space="preserve" text-anchor="start" x="300.62" y="-142.5" font-family="Helvetica,sans-Serif" font-size="10.00">src/Utils/Platform</text>
<text xml:space="preserve" text-anchor="middle" x="348.25" y="-130.5" font-family="Helvetica,sans-Serif" font-size="10.00">/UnixPlatformInfo.hpp</text>
</a>
</g>
</g>
<!-- Node1&#45;&gt;Node7 -->
<g id="edge7_Node000001_Node000007" class="edge">
<title>Node1&#45;&gt;Node7</title>
<g id="a_edge7_Node000001_Node000007"><a xlink:title=" ">
<path fill="none" stroke="#63b8ff" d="M444.3,-186.61C423.77,-176.86 399.59,-165.38 380.64,-156.38"/>
<polygon fill="#63b8ff" stroke="#63b8ff" points="442.76,-189.75 453.29,-190.88 445.76,-183.43 442.76,-189.75"/>
</a>
</g>
</g>
<!-- Node9 -->
<g id="Node000009" class="node">
<title>Node9</title>
<g id="a_Node000009"><a xlink:href="WindowsPlatformInfo_8hpp.html" target="_top" xlink:title=" ">
<polygon fill="white" stroke="#666666" points="553,-156 421.5,-156 421.5,-124 553,-124 553,-156"/>
<text xml:space="preserve" text-anchor="start" x="429.5" y="-142.5" font-family="Helvetica,sans-Serif" font-size="10.00">src/Utils/Platform</text>
<text xml:space="preserve" text-anchor="middle" x="487.25" y="-130.5" font-family="Helvetica,sans-Serif" font-size="10.00">/WindowsPlatformInfo.hpp</text>
</a>
</g>
</g>
<!-- Node1&#45;&gt;Node9 -->
<g id="edge10_Node000001_Node000009" class="edge">
<title>Node1&#45;&gt;Node9</title>
<g id="a_edge10_Node000001_Node000009"><a xlink:title=" ">
<path fill="none" stroke="#63b8ff" d="M487.25,-180.31C487.25,-172.12 487.25,-163.38 487.25,-156.22"/>
<polygon fill="#63b8ff" stroke="#63b8ff" points="483.75,-180.18 487.25,-190.18 490.75,-180.18 483.75,-180.18"/>
</a>
</g>
</g>
<!-- Node11 -->
<g id="Node000011" class="node">
<title>Node11</title>
<g id="a_Node000011"><a xlink:href="UtilsFactory_8hpp.html" target="_top" xlink:title=" ">
<polygon fill="white" stroke="#666666" points="838.75,-150 711.75,-150 711.75,-130 838.75,-130 838.75,-150"/>
<text xml:space="preserve" text-anchor="middle" x="775.25" y="-136.5" font-family="Helvetica,sans-Serif" font-size="10.00">src/Utils/UtilsFactory.hpp</text>
</a>
</g>
</g>
<!-- Node1&#45;&gt;Node11 -->
<g id="edge13_Node000001_Node000011" class="edge">
<title>Node1&#45;&gt;Node11</title>
<g id="a_edge13_Node000001_Node000011"><a xlink:title=" ">
<path fill="none" stroke="#63b8ff" d="M545.65,-193.62C601.62,-180.79 684.69,-161.75 734.06,-150.44"/>
<polygon fill="#63b8ff" stroke="#63b8ff" points="544.93,-190.19 535.96,-195.84 546.49,-197.01 544.93,-190.19"/>
</a>
</g>
</g>
<!-- Node3 -->
<g id="Node000003" class="node">
<title>Node3</title>
<g id="a_Node000003"><a xlink:href="EmscriptenPlatformInfo_8cpp.html" target="_top" xlink:title=" ">
<polygon fill="white" stroke="#666666" points="140.5,-88 0,-88 0,-56 140.5,-56 140.5,-88"/>
<text xml:space="preserve" text-anchor="start" x="8" y="-74.5" font-family="Helvetica,sans-Serif" font-size="10.00">src/Utils/Platform</text>
<text xml:space="preserve" text-anchor="middle" x="70.25" y="-62.5" font-family="Helvetica,sans-Serif" font-size="10.00">/EmscriptenPlatformInfo.cpp</text>
</a>
</g>
</g>
<!-- Node2&#45;&gt;Node3 -->
<g id="edge2_Node000002_Node000003" class="edge">
<title>Node2&#45;&gt;Node3</title>
<g id="a_edge2_Node000002_Node000003"><a xlink:title=" ">
<path fill="none" stroke="#63b8ff" d="M162.57,-118.47C142.84,-108.75 119.66,-97.34 101.47,-88.38"/>
<polygon fill="#63b8ff" stroke="#63b8ff" points="160.96,-121.58 171.48,-122.86 164.05,-115.3 160.96,-121.58"/>
</a>
</g>
</g>
<!-- Node4 -->
<g id="Node000004" class="node">
<title>Node4</title>
<g id="a_Node000004"><a xlink:href="PlatformInfoFactory_8cpp.html" target="_top" xlink:title=" ">
<polygon fill="white" stroke="#666666" points="410.88,-88 287.62,-88 287.62,-56 410.88,-56 410.88,-88"/>
<text xml:space="preserve" text-anchor="start" x="295.62" y="-74.5" font-family="Helvetica,sans-Serif" font-size="10.00">src/Utils/Platform</text>
<text xml:space="preserve" text-anchor="middle" x="349.25" y="-62.5" font-family="Helvetica,sans-Serif" font-size="10.00">/PlatformInfoFactory.cpp</text>
</a>
</g>
</g>
<!-- Node2&#45;&gt;Node4 -->
<g id="edge3_Node000002_Node000004" class="edge">
<title>Node2&#45;&gt;Node4</title>
<g id="a_edge3_Node000002_Node000004"><a xlink:title=" ">
<path fill="none" stroke="#63b8ff" d="M248.72,-118.76C270.12,-109.02 295.37,-97.52 315.22,-88.49"/>
<polygon fill="#63b8ff" stroke="#63b8ff" points="247.28,-115.57 239.62,-122.9 250.18,-121.94 247.28,-115.57"/>
</a>
</g>
</g>
<!-- Node5&#45;&gt;Node4 -->
<g id="edge5_Node000005_Node000004" class="edge">
<title>Node5&#45;&gt;Node4</title>
<g id="a_edge5_Node000005_Node000004"><a xlink:title=" ">
<path fill="none" stroke="#63b8ff" d="M559.07,-121.93C513.22,-111.24 454.77,-97.61 411.21,-87.45"/>
<polygon fill="#63b8ff" stroke="#63b8ff" points="558.14,-125.31 568.67,-124.17 559.73,-118.49 558.14,-125.31"/>
</a>
</g>
</g>
<!-- Node6 -->
<g id="Node000006" class="node">
<title>Node6</title>
<g id="a_Node000006"><a xlink:href="UtilsFactory_8cpp.html" target="_top" xlink:title=" ">
<polygon fill="white" stroke="#666666" points="704.75,-82 577.75,-82 577.75,-62 704.75,-62 704.75,-82"/>
<text xml:space="preserve" text-anchor="middle" x="641.25" y="-68.5" font-family="Helvetica,sans-Serif" font-size="10.00">src/Utils/UtilsFactory.cpp</text>
</a>
</g>
</g>
<!-- Node5&#45;&gt;Node6 -->
<g id="edge6_Node000005_Node000006" class="edge">
<title>Node5&#45;&gt;Node6</title>
<g id="a_edge6_Node000005_Node000006"><a xlink:title=" ">
<path fill="none" stroke="#63b8ff" d="M635.89,-112.31C637.34,-101.67 638.91,-90.13 639.98,-82.32"/>
<polygon fill="#63b8ff" stroke="#63b8ff" points="632.43,-111.81 634.54,-122.19 639.36,-112.76 632.43,-111.81"/>
</a>
</g>
</g>
<!-- Node7&#45;&gt;Node4 -->
<g id="edge8_Node000007_Node000004" class="edge">
<title>Node7&#45;&gt;Node4</title>
<g id="a_edge8_Node000007_Node000004"><a xlink:title=" ">
<path fill="none" stroke="#63b8ff" d="M348.65,-112.31C348.78,-104.12 348.91,-95.38 349.02,-88.22"/>
<polygon fill="#63b8ff" stroke="#63b8ff" points="345.16,-112.13 348.5,-122.18 352.16,-112.23 345.16,-112.13"/>
</a>
</g>
</g>
<!-- Node8 -->
<g id="Node000008" class="node">
<title>Node8</title>
<g id="a_Node000008"><a xlink:href="UnixPlatformInfo_8cpp.html" target="_top" xlink:title=" ">
<polygon fill="white" stroke="#666666" points="269.88,-88 158.62,-88 158.62,-56 269.88,-56 269.88,-88"/>
<text xml:space="preserve" text-anchor="start" x="166.62" y="-74.5" font-family="Helvetica,sans-Serif" font-size="10.00">src/Utils/Platform</text>
<text xml:space="preserve" text-anchor="middle" x="214.25" y="-62.5" font-family="Helvetica,sans-Serif" font-size="10.00">/UnixPlatformInfo.cpp</text>
</a>
</g>
</g>
<!-- Node7&#45;&gt;Node8 -->
<g id="edge9_Node000007_Node000008" class="edge">
<title>Node7&#45;&gt;Node8</title>
<g id="a_edge9_Node000007_Node000008"><a xlink:title=" ">
<path fill="none" stroke="#63b8ff" d="M306.57,-118.47C286.84,-108.75 263.66,-97.34 245.47,-88.38"/>
<polygon fill="#63b8ff" stroke="#63b8ff" points="304.96,-121.58 315.48,-122.86 308.05,-115.3 304.96,-121.58"/>
</a>
</g>
</g>
<!-- Node9&#45;&gt;Node4 -->
<g id="edge11_Node000009_Node000004" class="edge">
<title>Node9&#45;&gt;Node4</title>
<g id="a_edge11_Node000009_Node000004"><a xlink:title=" ">
<path fill="none" stroke="#63b8ff" d="M444.61,-118.61C424.22,-108.86 400.22,-97.38 381.4,-88.38"/>
<polygon fill="#63b8ff" stroke="#63b8ff" points="443,-121.72 453.53,-122.87 446.02,-115.4 443,-121.72"/>
</a>
</g>
</g>
<!-- Node10 -->
<g id="Node000010" class="node">
<title>Node10</title>
<g id="a_Node000010"><a xlink:href="WindowsPlatformInfo_8cpp.html" target="_top" xlink:title=" ">
<polygon fill="white" stroke="#666666" points="560,-88 428.5,-88 428.5,-56 560,-56 560,-88"/>
<text xml:space="preserve" text-anchor="start" x="436.5" y="-74.5" font-family="Helvetica,sans-Serif" font-size="10.00">src/Utils/Platform</text>
<text xml:space="preserve" text-anchor="middle" x="494.25" y="-62.5" font-family="Helvetica,sans-Serif" font-size="10.00">/WindowsPlatformInfo.cpp</text>
</a>
</g>
</g>
<!-- Node9&#45;&gt;Node10 -->
<g id="edge12_Node000009_Node000010" class="edge">
<title>Node9&#45;&gt;Node10</title>
<g id="a_edge12_Node000009_Node000010"><a xlink:title=" ">
<path fill="none" stroke="#63b8ff" d="M490.08,-112.31C490.95,-104.12 491.88,-95.38 492.64,-88.22"/>
<polygon fill="#63b8ff" stroke="#63b8ff" points="486.61,-111.87 489.03,-122.19 493.57,-112.61 486.61,-111.87"/>
</a>
</g>
</g>
<!-- Node11&#45;&gt;Node6 -->
<g id="edge18_Node000011_Node000006" class="edge">
<title>Node11&#45;&gt;Node6</title>
<g id="a_edge18_Node000011_Node000006"><a xlink:title=" ">
<path fill="none" stroke="#63b8ff" d="M746.02,-124.6C720.03,-111.8 682.79,-93.46 660.41,-82.44"/>
<polygon fill="#63b8ff" stroke="#63b8ff" points="744.18,-127.6 754.69,-128.88 747.27,-121.32 744.18,-127.6"/>
</a>
</g>
</g>
<!-- Node12 -->
<g id="Node000012" class="node">
<title>Node12</title>
<g id="a_Node000012"><a xlink:href="Application_8cpp.html" target="_top" xlink:title=" ">
<polygon fill="white" stroke="#666666" points="929.62,-20 780.88,-20 780.88,0 929.62,0 929.62,-20"/>
<text xml:space="preserve" text-anchor="middle" x="855.25" y="-6.5" font-family="Helvetica,sans-Serif" font-size="10.00">application/src/Application.cpp</text>
</a>
</g>
</g>
<!-- Node11&#45;&gt;Node12 -->
<g id="edge14_Node000011_Node000012" class="edge">
<title>Node11&#45;&gt;Node12</title>
<g id="a_edge14_Node000011_Node000012"><a xlink:title=" ">
<path fill="none" stroke="#63b8ff" d="M800.95,-123.17C813.36,-114.28 827.42,-102.14 836.25,-88 849.81,-66.28 853.7,-35.47 854.81,-20.25"/>
<polygon fill="#63b8ff" stroke="#63b8ff" points="799.07,-120.22 792.75,-128.73 802.99,-126.02 799.07,-120.22"/>
</a>
</g>
</g>
<!-- Node13 -->
<g id="Node000013" class="node">
<title>Node13</title>
<g id="a_Node000013"><a xlink:href="DotNameLib_8hpp.html" target="_top" xlink:title=" ">
<polygon fill="white" stroke="#666666" points="827.5,-88 723,-88 723,-56 827.5,-56 827.5,-88"/>
<text xml:space="preserve" text-anchor="start" x="731" y="-74.5" font-family="Helvetica,sans-Serif" font-size="10.00">include/DotNameLib</text>
<text xml:space="preserve" text-anchor="middle" x="775.25" y="-62.5" font-family="Helvetica,sans-Serif" font-size="10.00">/DotNameLib.hpp</text>
</a>
</g>
</g>
<!-- Node11&#45;&gt;Node13 -->
<g id="edge15_Node000011_Node000013" class="edge">
<title>Node11&#45;&gt;Node13</title>
<g id="a_edge15_Node000011_Node000013"><a xlink:title=" ">
<path fill="none" stroke="#63b8ff" d="M775.25,-118.1C775.25,-108.43 775.25,-97.16 775.25,-88.3"/>
<polygon fill="#63b8ff" stroke="#63b8ff" points="771.75,-118.03 775.25,-128.03 778.75,-118.03 771.75,-118.03"/>
</a>
</g>
</g>
<!-- Node13&#45;&gt;Node12 -->
<g id="edge16_Node000013_Node000012" class="edge">
<title>Node13&#45;&gt;Node12</title>
<g id="a_edge16_Node000013_Node000012"><a xlink:title=" ">
<path fill="none" stroke="#63b8ff" d="M804.98,-48.7C818.02,-38.92 832.61,-27.98 842.71,-20.41"/>
<polygon fill="#63b8ff" stroke="#63b8ff" points="802.96,-45.84 797.06,-54.64 807.16,-51.44 802.96,-45.84"/>
</a>
</g>
</g>
<!-- Node14 -->
<g id="Node000014" class="node">
<title>Node14</title>
<g id="a_Node000014"><a xlink:href="DotNameLib_8cpp.html" target="_top" xlink:title=" ">
<polygon fill="white" stroke="#666666" points="763.25,-20 657.25,-20 657.25,0 763.25,0 763.25,-20"/>
<text xml:space="preserve" text-anchor="middle" x="710.25" y="-6.5" font-family="Helvetica,sans-Serif" font-size="10.00">src/DotNameLib.cpp</text>
</a>
</g>
</g>
<!-- Node13&#45;&gt;Node14 -->
<g id="edge17_Node000013_Node000014" class="edge">
<title>Node13&#45;&gt;Node14</title>
<g id="a_edge17_Node000013_Node000014"><a xlink:title=" ">
<path fill="none" stroke="#63b8ff" d="M750.16,-47.84C739.81,-38.29 728.4,-27.76 720.44,-20.41"/>
<polygon fill="#63b8ff" stroke="#63b8ff" points="747.68,-50.31 757.4,-54.52 752.42,-45.17 747.68,-50.31"/>
</a>
</g>
</g>
</g>
</svg>

<g id="navigator" transform="translate(0 0)" fill="#404254">
  <rect fill="#f2f5e9" fill-opacity="0.5" stroke="#606060" stroke-width=".5" x="0" y="0" width="60" height="60"/>
  <use id="zoomplus" xlink:href="#zoomPlus" x="17" y="9" onmousedown="handleZoom(evt,'in')"/>
  <use id="zoomminus" xlink:href="#zoomMin" x="42" y="9" onmousedown="handleZoom(evt,'out')"/>
  <use id="reset" xlink:href="#resetDef" x="30" y="36" onmousedown="handleReset()"/>
   <use id="arrowup" xlink:href="#arrowUp" x="0" y="0" onmousedown="handlePan(0,-1)"/>
  <use id="arrowright" xlink:href="#arrowRight" x="0" y="0" onmousedown="handlePan(1,0)"/>
  <use id="arrowdown" xlink:href="#arrowDown" x="0" y="0" onmousedown="handlePan(0,1)"/>
  <use id="arrowleft" xlink:href="#arrowLeft" x="0" y="0" onmousedown="handlePan(-1,0)"/>
</g>
<svg viewBox="0 0 15 15" width="100%" height="30px" preserveAspectRatio="xMaxYMin meet">
 <g id="arrow_out" transform="scale(0.3 0.3)">
  <a xlink:href="IPlatformInfo_8hpp__dep__incl_org.svg" target="_base">
   <rect id="button" ry="5" rx="5" y="6" x="6" height="38" width="38"
        fill="#f2f5e9" fill-opacity="0.5" stroke="#606060" stroke-width="1.0"/>
   <path id="arrow"
     d="M 11.500037,31.436501 C 11.940474,20.09759 22.043105,11.32322 32.158766,21.979434 L 37.068811,17.246167 C 37.068811,17.246167 37.088388,32 37.088388,32 L 22.160133,31.978069 C 22.160133,31.978069 26.997745,27.140456 26.997745,27.140456 C 18.528582,18.264221 13.291696,25.230495 11.500037,31.436501 z"
     style="fill:#404040;"/>
  </a>
 </g>
</svg>

<style type='text/css'>
<![CDATA[
[data-mouse-over-selected='false'] { opacity: 0.7; }
[data-mouse-over-selected='true']  { opacity: 1.0; }
]]>
</style>
<script type="application/ecmascript"><![CDATA[
document.addEventListener('DOMContentLoaded', (event) => {
  highlightEdges();
  highlightAdjacentNodes();
});
]]></script>
</svg>
