<?xml version="1.0" encoding="UTF-8" standalone="no"?>
<!DOCTYPE svg PUBLIC "-//W3C//DTD SVG 1.1//EN"
 "http://www.w3.org/Graphics/SVG/1.1/DTD/svg11.dtd">
<!-- Generated by graphviz version 13.1.2 (20250808.2320)
 -->
<!-- Title: src/Utils/String/IStringFormatter.hpp Pages: 1 -->
<svg width="550pt" height="220pt"
 viewBox="0.00 0.00 550.00 220.00" xmlns="http://www.w3.org/2000/svg" xmlns:xlink="http://www.w3.org/1999/xlink">
<g id="graph0" class="graph" transform="scale(1 1) rotate(0) translate(4 216)">
<title>src/Utils/String/IStringFormatter.hpp</title>
<!-- Node1 -->
<g id="Node000001" class="node">
<title>Node1</title>
<g id="a_Node000001"><a xlink:title=" ">
<polygon fill="#999999" stroke="#666666" points="316.62,-212 203.88,-212 203.88,-180 316.62,-180 316.62,-212"/>
<text xml:space="preserve" text-anchor="start" x="211.88" y="-198.5" font-family="Helvetica,sans-Serif" font-size="10.00">src/Utils/String/IString</text>
<text xml:space="preserve" text-anchor="middle" x="260.25" y="-186.5" font-family="Helvetica,sans-Serif" font-size="10.00">Formatter.hpp</text>
</a>
</g>
</g>
<!-- Node2 -->
<g id="Node000002" class="node">
<title>Node2</title>
<g id="a_Node000002"><a xlink:href="StringFormatter_8hpp.html" target="_top" xlink:title=" ">
<polygon fill="white" stroke="#666666" points="262.5,-144 92,-144 92,-124 262.5,-124 262.5,-144"/>
<text xml:space="preserve" text-anchor="middle" x="177.25" y="-130.5" font-family="Helvetica,sans-Serif" font-size="10.00">src/Utils/String/StringFormatter.hpp</text>
</a>
</g>
</g>
<!-- Node1&#45;&gt;Node2 -->
<g id="edge1_Node000001_Node000002" class="edge">
<title>Node1&#45;&gt;Node2</title>
<g id="a_edge1_Node000001_Node000002"><a xlink:title=" ">
<path fill="none" stroke="#63b8ff" d="M229.8,-172.99C216.17,-163.14 200.84,-152.05 190.26,-144.41"/>
<polygon fill="#63b8ff" stroke="#63b8ff" points="227.49,-175.64 237.65,-178.66 231.6,-169.97 227.49,-175.64"/>
</a>
</g>
</g>
<!-- Node5 -->
<g id="Node000005" class="node">
<title>Node5</title>
<g id="a_Node000005"><a xlink:href="UtilsFactory_8hpp.html" target="_top" xlink:title=" ">
<polygon fill="white" stroke="#666666" points="407.75,-144 280.75,-144 280.75,-124 407.75,-124 407.75,-144"/>
<text xml:space="preserve" text-anchor="middle" x="344.25" y="-130.5" font-family="Helvetica,sans-Serif" font-size="10.00">src/Utils/UtilsFactory.hpp</text>
</a>
</g>
</g>
<!-- Node1&#45;&gt;Node5 -->
<g id="edge4_Node000001_Node000005" class="edge">
<title>Node1&#45;&gt;Node5</title>
<g id="a_edge4_Node000001_Node000005"><a xlink:title=" ">
<path fill="none" stroke="#63b8ff" d="M291.07,-172.99C304.86,-163.14 320.38,-152.05 331.08,-144.41"/>
<polygon fill="#63b8ff" stroke="#63b8ff" points="289.22,-170.01 283.11,-178.67 293.29,-175.7 289.22,-170.01"/>
</a>
</g>
</g>
<!-- Node3 -->
<g id="Node000003" class="node">
<title>Node3</title>
<g id="a_Node000003"><a xlink:href="StringFormatter_8cpp.html" target="_top" xlink:title=" ">
<polygon fill="white" stroke="#666666" points="170.5,-82 0,-82 0,-62 170.5,-62 170.5,-82"/>
<text xml:space="preserve" text-anchor="middle" x="85.25" y="-68.5" font-family="Helvetica,sans-Serif" font-size="10.00">src/Utils/String/StringFormatter.cpp</text>
</a>
</g>
</g>
<!-- Node2&#45;&gt;Node3 -->
<g id="edge2_Node000002_Node000003" class="edge">
<title>Node2&#45;&gt;Node3</title>
<g id="a_edge2_Node000002_Node000003"><a xlink:title=" ">
<path fill="none" stroke="#63b8ff" d="M153.54,-117.54C136.44,-106.39 113.93,-91.71 99.52,-82.31"/>
<polygon fill="#63b8ff" stroke="#63b8ff" points="151.32,-120.27 161.61,-122.8 155.14,-114.4 151.32,-120.27"/>
</a>
</g>
</g>
<!-- Node4 -->
<g id="Node000004" class="node">
<title>Node4</title>
<g id="a_Node000004"><a xlink:href="UtilsFactory_8cpp.html" target="_top" xlink:title=" ">
<polygon fill="white" stroke="#666666" points="315.75,-82 188.75,-82 188.75,-62 315.75,-62 315.75,-82"/>
<text xml:space="preserve" text-anchor="middle" x="252.25" y="-68.5" font-family="Helvetica,sans-Serif" font-size="10.00">src/Utils/UtilsFactory.cpp</text>
</a>
</g>
</g>
<!-- Node2&#45;&gt;Node4 -->
<g id="edge3_Node000002_Node000004" class="edge">
<title>Node2&#45;&gt;Node4</title>
<g id="a_edge3_Node000002_Node000004"><a xlink:title=" ">
<path fill="none" stroke="#63b8ff" d="M197.82,-116.55C211.69,-105.45 229.46,-91.23 240.86,-82.11"/>
<polygon fill="#63b8ff" stroke="#63b8ff" points="195.77,-113.7 190.15,-122.68 200.15,-119.17 195.77,-113.7"/>
</a>
</g>
</g>
<!-- Node5&#45;&gt;Node4 -->
<g id="edge9_Node000005_Node000004" class="edge">
<title>Node5&#45;&gt;Node4</title>
<g id="a_edge9_Node000005_Node000004"><a xlink:title=" ">
<path fill="none" stroke="#63b8ff" d="M320.54,-117.54C303.44,-106.39 280.93,-91.71 266.52,-82.31"/>
<polygon fill="#63b8ff" stroke="#63b8ff" points="318.32,-120.27 328.61,-122.8 322.14,-114.4 318.32,-120.27"/>
</a>
</g>
</g>
<!-- Node6 -->
<g id="Node000006" class="node">
<title>Node6</title>
<g id="a_Node000006"><a xlink:href="Application_8cpp.html" target="_top" xlink:title=" ">
<polygon fill="white" stroke="#666666" points="418.62,-20 269.88,-20 269.88,0 418.62,0 418.62,-20"/>
<text xml:space="preserve" text-anchor="middle" x="344.25" y="-6.5" font-family="Helvetica,sans-Serif" font-size="10.00">application/src/Application.cpp</text>
</a>
</g>
</g>
<!-- Node5&#45;&gt;Node6 -->
<g id="edge5_Node000005_Node000006" class="edge">
<title>Node5&#45;&gt;Node6</title>
<g id="a_edge5_Node000005_Node000006"><a xlink:title=" ">
<path fill="none" stroke="#63b8ff" d="M344.25,-112.38C344.25,-85.55 344.25,-39.8 344.25,-20.28"/>
<polygon fill="#63b8ff" stroke="#63b8ff" points="340.75,-112.32 344.25,-122.32 347.75,-112.32 340.75,-112.32"/>
</a>
</g>
</g>
<!-- Node7 -->
<g id="Node000007" class="node">
<title>Node7</title>
<g id="a_Node000007"><a xlink:href="DotNameLib_8hpp.html" target="_top" xlink:title=" ">
<polygon fill="white" stroke="#666666" points="476.5,-88 372,-88 372,-56 476.5,-56 476.5,-88"/>
<text xml:space="preserve" text-anchor="start" x="380" y="-74.5" font-family="Helvetica,sans-Serif" font-size="10.00">include/DotNameLib</text>
<text xml:space="preserve" text-anchor="middle" x="424.25" y="-62.5" font-family="Helvetica,sans-Serif" font-size="10.00">/DotNameLib.hpp</text>
</a>
</g>
</g>
<!-- Node5&#45;&gt;Node7 -->
<g id="edge6_Node000005_Node000007" class="edge">
<title>Node5&#45;&gt;Node7</title>
<g id="a_edge6_Node000005_Node000007"><a xlink:title=" ">
<path fill="none" stroke="#63b8ff" d="M365.88,-116.78C377.66,-107.94 392.15,-97.07 403.75,-88.37"/>
<polygon fill="#63b8ff" stroke="#63b8ff" points="363.86,-113.92 357.96,-122.72 368.06,-119.52 363.86,-113.92"/>
</a>
</g>
</g>
<!-- Node7&#45;&gt;Node6 -->
<g id="edge7_Node000007_Node000006" class="edge">
<title>Node7&#45;&gt;Node6</title>
<g id="a_edge7_Node000007_Node000006"><a xlink:title=" ">
<path fill="none" stroke="#63b8ff" d="M394.52,-48.7C381.48,-38.92 366.89,-27.98 356.79,-20.41"/>
<polygon fill="#63b8ff" stroke="#63b8ff" points="392.34,-51.44 402.44,-54.64 396.54,-45.84 392.34,-51.44"/>
</a>
</g>
</g>
<!-- Node8 -->
<g id="Node000008" class="node">
<title>Node8</title>
<g id="a_Node000008"><a xlink:href="DotNameLib_8cpp.html" target="_top" xlink:title=" ">
<polygon fill="white" stroke="#666666" points="542.25,-20 436.25,-20 436.25,0 542.25,0 542.25,-20"/>
<text xml:space="preserve" text-anchor="middle" x="489.25" y="-6.5" font-family="Helvetica,sans-Serif" font-size="10.00">src/DotNameLib.cpp</text>
</a>
</g>
</g>
<!-- Node7&#45;&gt;Node8 -->
<g id="edge8_Node000007_Node000008" class="edge">
<title>Node7&#45;&gt;Node8</title>
<g id="a_edge8_Node000007_Node000008"><a xlink:title=" ">
<path fill="none" stroke="#63b8ff" d="M449.34,-47.84C459.69,-38.29 471.1,-27.76 479.06,-20.41"/>
<polygon fill="#63b8ff" stroke="#63b8ff" points="447.08,-45.17 442.1,-54.52 451.82,-50.31 447.08,-45.17"/>
</a>
</g>
</g>
</g>
</svg>
