<?xml version="1.0" encoding="UTF-8" standalone="no"?>
<!DOCTYPE svg PUBLIC "-//W3C//DTD SVG 1.1//EN"
 "http://www.w3.org/Graphics/SVG/1.1/DTD/svg11.dtd">
<!-- Generated by graphviz version 13.1.2 (20250808.2320)
 -->
<!-- Title: src/Utils/Logger/LoggerFactory.hpp Pages: 1 -->
<svg width="494pt" height="208pt"
 viewBox="0.00 0.00 494.00 208.00" xmlns="http://www.w3.org/2000/svg" xmlns:xlink="http://www.w3.org/1999/xlink">
<g id="graph0" class="graph" transform="scale(1 1) rotate(0) translate(4 204)">
<title>src/Utils/Logger/LoggerFactory.hpp</title>
<!-- Node1 -->
<g id="Node000001" class="node">
<title>Node1</title>
<g id="a_Node000001"><a xlink:title=" ">
<polygon fill="#999999" stroke="#666666" points="280.25,-200 112,-200 112,-180 280.25,-180 280.25,-200"/>
<text xml:space="preserve" text-anchor="middle" x="196.12" y="-186.5" font-family="Helvetica,sans-Serif" font-size="10.00">src/Utils/Logger/LoggerFactory.hpp</text>
</a>
</g>
</g>
<!-- Node2 -->
<g id="Node000002" class="node">
<title>Node2</title>
<g id="a_Node000002"><a xlink:href="LoggerFactory_8cpp.html" target="_top" xlink:title=" ">
<polygon fill="white" stroke="#666666" points="168.25,-144 0,-144 0,-124 168.25,-124 168.25,-144"/>
<text xml:space="preserve" text-anchor="middle" x="84.12" y="-130.5" font-family="Helvetica,sans-Serif" font-size="10.00">src/Utils/Logger/LoggerFactory.cpp</text>
</a>
</g>
</g>
<!-- Node1&#45;&gt;Node2 -->
<g id="edge1_Node000001_Node000002" class="edge">
<title>Node1&#45;&gt;Node2</title>
<g id="a_edge1_Node000001_Node000002"><a xlink:title=" ">
<path fill="none" stroke="#63b8ff" d="M166.29,-174.61C146.49,-165.07 121.07,-152.81 103.79,-144.48"/>
<polygon fill="#63b8ff" stroke="#63b8ff" points="164.72,-177.75 175.25,-178.94 167.77,-171.44 164.72,-177.75"/>
</a>
</g>
</g>
<!-- Node3 -->
<g id="Node000003" class="node">
<title>Node3</title>
<g id="a_Node000003"><a xlink:href="UtilsFactory_8cpp.html" target="_top" xlink:title=" ">
<polygon fill="white" stroke="#666666" points="259.62,-82 132.62,-82 132.62,-62 259.62,-62 259.62,-82"/>
<text xml:space="preserve" text-anchor="middle" x="196.12" y="-68.5" font-family="Helvetica,sans-Serif" font-size="10.00">src/Utils/UtilsFactory.cpp</text>
</a>
</g>
</g>
<!-- Node1&#45;&gt;Node3 -->
<g id="edge2_Node000001_Node000003" class="edge">
<title>Node1&#45;&gt;Node3</title>
<g id="a_edge2_Node000001_Node000003"><a xlink:title=" ">
<path fill="none" stroke="#63b8ff" d="M196.12,-168.23C196.12,-142.8 196.12,-100.84 196.12,-82.3"/>
<polygon fill="#63b8ff" stroke="#63b8ff" points="192.63,-167.99 196.13,-177.99 199.63,-167.99 192.63,-167.99"/>
</a>
</g>
</g>
<!-- Node4 -->
<g id="Node000004" class="node">
<title>Node4</title>
<g id="a_Node000004"><a xlink:href="UtilsFactory_8hpp.html" target="_top" xlink:title=" ">
<polygon fill="white" stroke="#666666" points="351.62,-144 224.62,-144 224.62,-124 351.62,-124 351.62,-144"/>
<text xml:space="preserve" text-anchor="middle" x="288.12" y="-130.5" font-family="Helvetica,sans-Serif" font-size="10.00">src/Utils/UtilsFactory.hpp</text>
</a>
</g>
</g>
<!-- Node1&#45;&gt;Node4 -->
<g id="edge3_Node000001_Node000004" class="edge">
<title>Node1&#45;&gt;Node4</title>
<g id="a_edge3_Node000001_Node000004"><a xlink:title=" ">
<path fill="none" stroke="#63b8ff" d="M222,-173.81C238.05,-164.39 258.17,-152.58 271.97,-144.48"/>
<polygon fill="#63b8ff" stroke="#63b8ff" points="220.31,-170.75 213.46,-178.83 223.85,-176.78 220.31,-170.75"/>
</a>
</g>
</g>
<!-- Node4&#45;&gt;Node3 -->
<g id="edge8_Node000004_Node000003" class="edge">
<title>Node4&#45;&gt;Node3</title>
<g id="a_edge8_Node000004_Node000003"><a xlink:title=" ">
<path fill="none" stroke="#63b8ff" d="M264.41,-117.54C247.32,-106.39 224.81,-91.71 210.4,-82.31"/>
<polygon fill="#63b8ff" stroke="#63b8ff" points="262.19,-120.27 272.48,-122.8 266.02,-114.4 262.19,-120.27"/>
</a>
</g>
</g>
<!-- Node5 -->
<g id="Node000005" class="node">
<title>Node5</title>
<g id="a_Node000005"><a xlink:href="Application_8cpp.html" target="_top" xlink:title=" ">
<polygon fill="white" stroke="#666666" points="362.5,-20 213.75,-20 213.75,0 362.5,0 362.5,-20"/>
<text xml:space="preserve" text-anchor="middle" x="288.12" y="-6.5" font-family="Helvetica,sans-Serif" font-size="10.00">application/src/Application.cpp</text>
</a>
</g>
</g>
<!-- Node4&#45;&gt;Node5 -->
<g id="edge4_Node000004_Node000005" class="edge">
<title>Node4&#45;&gt;Node5</title>
<g id="a_edge4_Node000004_Node000005"><a xlink:title=" ">
<path fill="none" stroke="#63b8ff" d="M288.12,-112.38C288.12,-85.55 288.12,-39.8 288.12,-20.28"/>
<polygon fill="#63b8ff" stroke="#63b8ff" points="284.63,-112.32 288.13,-122.32 291.63,-112.32 284.63,-112.32"/>
</a>
</g>
</g>
<!-- Node6 -->
<g id="Node000006" class="node">
<title>Node6</title>
<g id="a_Node000006"><a xlink:href="DotNameLib_8hpp.html" target="_top" xlink:title=" ">
<polygon fill="white" stroke="#666666" points="420.38,-88 315.88,-88 315.88,-56 420.38,-56 420.38,-88"/>
<text xml:space="preserve" text-anchor="start" x="323.88" y="-74.5" font-family="Helvetica,sans-Serif" font-size="10.00">include/DotNameLib</text>
<text xml:space="preserve" text-anchor="middle" x="368.12" y="-62.5" font-family="Helvetica,sans-Serif" font-size="10.00">/DotNameLib.hpp</text>
</a>
</g>
</g>
<!-- Node4&#45;&gt;Node6 -->
<g id="edge5_Node000004_Node000006" class="edge">
<title>Node4&#45;&gt;Node6</title>
<g id="a_edge5_Node000004_Node000006"><a xlink:title=" ">
<path fill="none" stroke="#63b8ff" d="M309.76,-116.78C321.54,-107.94 336.03,-97.07 347.63,-88.37"/>
<polygon fill="#63b8ff" stroke="#63b8ff" points="307.74,-113.92 301.84,-122.72 311.94,-119.52 307.74,-113.92"/>
</a>
</g>
</g>
<!-- Node6&#45;&gt;Node5 -->
<g id="edge6_Node000006_Node000005" class="edge">
<title>Node6&#45;&gt;Node5</title>
<g id="a_edge6_Node000006_Node000005"><a xlink:title=" ">
<path fill="none" stroke="#63b8ff" d="M338.39,-48.7C325.36,-38.92 310.76,-27.98 300.67,-20.41"/>
<polygon fill="#63b8ff" stroke="#63b8ff" points="336.21,-51.44 346.31,-54.64 340.41,-45.84 336.21,-51.44"/>
</a>
</g>
</g>
<!-- Node7 -->
<g id="Node000007" class="node">
<title>Node7</title>
<g id="a_Node000007"><a xlink:href="DotNameLib_8cpp.html" target="_top" xlink:title=" ">
<polygon fill="white" stroke="#666666" points="486.12,-20 380.12,-20 380.12,0 486.12,0 486.12,-20"/>
<text xml:space="preserve" text-anchor="middle" x="433.12" y="-6.5" font-family="Helvetica,sans-Serif" font-size="10.00">src/DotNameLib.cpp</text>
</a>
</g>
</g>
<!-- Node6&#45;&gt;Node7 -->
<g id="edge7_Node000006_Node000007" class="edge">
<title>Node6&#45;&gt;Node7</title>
<g id="a_edge7_Node000006_Node000007"><a xlink:title=" ">
<path fill="none" stroke="#63b8ff" d="M393.21,-47.84C403.56,-38.29 414.97,-27.76 422.93,-20.41"/>
<polygon fill="#63b8ff" stroke="#63b8ff" points="390.95,-45.17 385.98,-54.52 395.7,-50.31 390.95,-45.17"/>
</a>
</g>
</g>
</g>
</svg>
