<?xml version="1.0" encoding="UTF-8" standalone="no"?>
<!DOCTYPE svg PUBLIC "-//W3C//DTD SVG 1.1//EN"
 "http://www.w3.org/Graphics/SVG/1.1/DTD/svg11.dtd">
<!-- Generated by graphviz version 13.1.2 (20250808.2320)
 -->
<!-- Title: src/Utils/UtilsError.hpp Pages: 1 -->
<!--zoomable 288 -->

<svg id="main" version="1.1" xmlns="http://www.w3.org/2000/svg" xmlns:xlink="http://www.w3.org/1999/xlink" xml:space="preserve" onload="init(evt)">

<style type="text/css"><![CDATA[
.node, .edge {opacity: 0.7;}
.node.selected, .edge.selected {opacity: 1;}
.edge:hover path { stroke: red; }
.edge:hover polygon { stroke: red; fill: red; }
]]></style>

<defs>
  <circle id="rim" cx="0" cy="0" r="7"/>
  <circle id="rim2" cx="0" cy="0" r="3.5"/>
  <g id="zoomPlus">
    <use xlink:href="#rim" fill="#404040"><set attributeName="fill" to="#808080" begin="zoomplus.mouseover" end="zoomplus.mouseout"/></use>
    <path d="M-4,0h8M0,-4v8" fill="none" stroke="white" stroke-width="1.5" pointer-events="none"/>
  </g>
  <g id="zoomMin">
    <use xlink:href="#rim" fill="#404040"><set attributeName="fill" to="#808080" begin="zoomminus.mouseover" end="zoomminus.mouseout"/></use>
    <path d="M-4,0h8" fill="none" stroke="white" stroke-width="1.5" pointer-events="none"/>
  </g>
  <g id="arrowUp" transform="translate(30 24)">
    <use xlink:href="#rim"/>
    <path pointer-events="none" fill="none" stroke="white" stroke-width="1.5" d="M0,-3.0v7 M-2.5,-0.5L0,-3.0L2.5,-0.5"/>
  </g>
  <g id="arrowRight" transform="rotate(90) translate(36 -43)">
    <use xlink:href="#rim"/>
    <path pointer-events="none" fill="none" stroke="white" stroke-width="1.5" d="M0,-3.0v7 M-2.5,-0.5L0,-3.0L2.5,-0.5"/>
  </g>
  <g id="arrowDown" transform="rotate(180) translate(-30 -48)">
    <use xlink:href="#rim"/>
    <path pointer-events="none" fill="none" stroke="white" stroke-width="1.5" d="M0,-3.0v7 M-2.5,-0.5L0,-3.0L2.5,-0.5"/>
  </g>
  <g id="arrowLeft" transform="rotate(270) translate(-36 17)">
    <use xlink:href="#rim"/>
    <path pointer-events="none" fill="none" stroke="white" stroke-width="1.5" d="M0,-3.0v7 M-2.5,-0.5L0,-3.0L2.5,-0.5"/>
  </g>
  <g id="resetDef">
    <use xlink:href="#rim2" fill="#404040"><set attributeName="fill" to="#808080" begin="reset.mouseover" end="reset.mouseout"/></use>
  </g>
</defs>
<script type="application/ecmascript">
var viewWidth = 1869;
var viewHeight = 288;
var sectionId = 'dynsection-1';
</script>
<script type="application/ecmascript" xlink:href="svg.min.js"/>
<svg id="graph" class="graph">
<g id="viewport">
<title>src/Utils/UtilsError.hpp</title>
<!-- Node1 -->
<g id="Node000001" class="node">
<title>Node1</title>
<g id="a_Node000001"><a xlink:title=" ">
<polygon fill="#999999" stroke="#666666" points="893.62,-280 777.88,-280 777.88,-260 893.62,-260 893.62,-280"/>
<text xml:space="preserve" text-anchor="middle" x="835.75" y="-266.5" font-family="Helvetica,sans-Serif" font-size="10.00">src/Utils/UtilsError.hpp</text>
</a>
</g>
</g>
<!-- Node2 -->
<g id="Node000002" class="node">
<title>Node2</title>
<g id="a_Node000002"><a xlink:href="IDirectoryManager_8hpp.html" target="_top" xlink:title=" ">
<polygon fill="white" stroke="#666666" points="614.75,-224 496.75,-224 496.75,-192 614.75,-192 614.75,-224"/>
<text xml:space="preserve" text-anchor="start" x="504.75" y="-210.5" font-family="Helvetica,sans-Serif" font-size="10.00">src/Utils/Filesystem</text>
<text xml:space="preserve" text-anchor="middle" x="555.75" y="-198.5" font-family="Helvetica,sans-Serif" font-size="10.00">/IDirectoryManager.hpp</text>
</a>
</g>
</g>
<!-- Node1&#45;&gt;Node2 -->
<g id="edge1_Node000001_Node000002" class="edge">
<title>Node1&#45;&gt;Node2</title>
<g id="a_edge1_Node000001_Node000002"><a xlink:title=" ">
<path fill="none" stroke="#63b8ff" d="M779.63,-257.21C736.88,-248.21 676.58,-235.43 623.75,-224 620.91,-223.39 618.01,-222.76 615.08,-222.12"/>
<polygon fill="#63b8ff" stroke="#63b8ff" points="778.66,-260.59 789.17,-259.22 780.1,-253.74 778.66,-260.59"/>
</a>
</g>
</g>
<!-- Node10 -->
<g id="Node000010" class="node">
<title>Node10</title>
<g id="a_Node000010"><a xlink:href="IFileReader_8hpp.html" target="_top" xlink:title=" ">
<polygon fill="white" stroke="#666666" points="478.62,-224 374.88,-224 374.88,-192 478.62,-192 478.62,-224"/>
<text xml:space="preserve" text-anchor="start" x="382.88" y="-210.5" font-family="Helvetica,sans-Serif" font-size="10.00">src/Utils/Filesystem</text>
<text xml:space="preserve" text-anchor="middle" x="426.75" y="-198.5" font-family="Helvetica,sans-Serif" font-size="10.00">/IFileReader.hpp</text>
</a>
</g>
</g>
<!-- Node1&#45;&gt;Node10 -->
<g id="edge11_Node000001_Node000010" class="edge">
<title>Node1&#45;&gt;Node10</title>
<g id="a_edge11_Node000001_Node000010"><a xlink:title=" ">
<path fill="none" stroke="#63b8ff" d="M766.18,-262.33C695.67,-255.03 583.61,-241.93 487.75,-224 484.86,-223.46 481.89,-222.86 478.91,-222.24"/>
<polygon fill="#63b8ff" stroke="#63b8ff" points="765.75,-265.81 776.05,-263.34 766.46,-258.84 765.75,-265.81"/>
</a>
</g>
</g>
<!-- Node16 -->
<g id="Node000016" class="node">
<title>Node16</title>
<g id="a_Node000016"><a xlink:href="IFileWriter_8hpp.html" target="_top" xlink:title=" ">
<polygon fill="white" stroke="#666666" points="736.62,-224 632.88,-224 632.88,-192 736.62,-192 736.62,-224"/>
<text xml:space="preserve" text-anchor="start" x="640.88" y="-210.5" font-family="Helvetica,sans-Serif" font-size="10.00">src/Utils/Filesystem</text>
<text xml:space="preserve" text-anchor="middle" x="684.75" y="-198.5" font-family="Helvetica,sans-Serif" font-size="10.00">/IFileWriter.hpp</text>
</a>
</g>
</g>
<!-- Node1&#45;&gt;Node16 -->
<g id="edge20_Node000001_Node000016" class="edge">
<title>Node1&#45;&gt;Node16</title>
<g id="a_edge20_Node000001_Node000016"><a xlink:title=" ">
<path fill="none" stroke="#63b8ff" d="M801.46,-255.38C778.34,-246.19 747.78,-234.05 723.73,-224.49"/>
<polygon fill="#63b8ff" stroke="#63b8ff" points="800.16,-258.63 810.75,-259.07 802.75,-252.12 800.16,-258.63"/>
</a>
</g>
</g>
<!-- Node19 -->
<g id="Node000019" class="node">
<title>Node19</title>
<g id="a_Node000019"><a xlink:href="IPathResolver_8hpp.html" target="_top" xlink:title=" ">
<polygon fill="white" stroke="#666666" points="1205.62,-224 1101.88,-224 1101.88,-192 1205.62,-192 1205.62,-224"/>
<text xml:space="preserve" text-anchor="start" x="1109.88" y="-210.5" font-family="Helvetica,sans-Serif" font-size="10.00">src/Utils/Filesystem</text>
<text xml:space="preserve" text-anchor="middle" x="1153.75" y="-198.5" font-family="Helvetica,sans-Serif" font-size="10.00">/IPathResolver.hpp</text>
</a>
</g>
</g>
<!-- Node1&#45;&gt;Node19 -->
<g id="edge26_Node000001_Node000019" class="edge">
<title>Node1&#45;&gt;Node19</title>
<g id="a_edge26_Node000001_Node000019"><a xlink:title=" ">
<path fill="none" stroke="#63b8ff" d="M904.96,-258.19C956.83,-249.77 1029.46,-237.31 1092.75,-224 1095.63,-223.39 1098.58,-222.75 1101.56,-222.08"/>
<polygon fill="#63b8ff" stroke="#63b8ff" points="904.7,-254.68 895.38,-259.73 905.81,-261.59 904.7,-254.68"/>
</a>
</g>
</g>
<!-- Node22 -->
<g id="Node000022" class="node">
<title>Node22</title>
<g id="a_Node000022"><a xlink:href="ICustomStringsLoader_8hpp.html" target="_top" xlink:title=" ">
<polygon fill="white" stroke="#666666" points="1083.75,-224 935.75,-224 935.75,-192 1083.75,-192 1083.75,-224"/>
<text xml:space="preserve" text-anchor="start" x="943.75" y="-210.5" font-family="Helvetica,sans-Serif" font-size="10.00">src/Utils/Json/ICustomStrings</text>
<text xml:space="preserve" text-anchor="middle" x="1009.75" y="-198.5" font-family="Helvetica,sans-Serif" font-size="10.00">Loader.hpp</text>
</a>
</g>
</g>
<!-- Node1&#45;&gt;Node22 -->
<g id="edge31_Node000001_Node000022" class="edge">
<title>Node1&#45;&gt;Node22</title>
<g id="a_edge31_Node000001_Node000022"><a xlink:title=" ">
<path fill="none" stroke="#63b8ff" d="M873.81,-255.87C900.62,-246.63 936.61,-234.22 964.83,-224.49"/>
<polygon fill="#63b8ff" stroke="#63b8ff" points="872.68,-252.56 864.37,-259.13 874.96,-259.18 872.68,-252.56"/>
</a>
</g>
</g>
<!-- Node25 -->
<g id="Node000025" class="node">
<title>Node25</title>
<g id="a_Node000025"><a xlink:href="IJsonSerializer_8hpp.html" target="_top" xlink:title=" ">
<polygon fill="white" stroke="#666666" points="917.25,-218 754.25,-218 754.25,-198 917.25,-198 917.25,-218"/>
<text xml:space="preserve" text-anchor="middle" x="835.75" y="-204.5" font-family="Helvetica,sans-Serif" font-size="10.00">src/Utils/Json/IJsonSerializer.hpp</text>
</a>
</g>
</g>
<!-- Node1&#45;&gt;Node25 -->
<g id="edge36_Node000001_Node000025" class="edge">
<title>Node1&#45;&gt;Node25</title>
<g id="a_edge36_Node000001_Node000025"><a xlink:title=" ">
<path fill="none" stroke="#63b8ff" d="M835.75,-248.25C835.75,-237.97 835.75,-226.09 835.75,-218.11"/>
<polygon fill="#63b8ff" stroke="#63b8ff" points="832.25,-248.11 835.75,-258.11 839.25,-248.11 832.25,-248.11"/>
</a>
</g>
</g>
<!-- Node26 -->
<g id="Node000026" class="node">
<title>Node26</title>
<g id="a_Node000026"><a xlink:href="IPlatformInfo_8hpp.html" target="_top" xlink:title=" ">
<polygon fill="white" stroke="#666666" points="1391.75,-224 1297.75,-224 1297.75,-192 1391.75,-192 1391.75,-224"/>
<text xml:space="preserve" text-anchor="start" x="1305.75" y="-210.5" font-family="Helvetica,sans-Serif" font-size="10.00">src/Utils/Platform</text>
<text xml:space="preserve" text-anchor="middle" x="1344.75" y="-198.5" font-family="Helvetica,sans-Serif" font-size="10.00">/IPlatformInfo.hpp</text>
</a>
</g>
</g>
<!-- Node1&#45;&gt;Node26 -->
<g id="edge40_Node000001_Node000026" class="edge">
<title>Node1&#45;&gt;Node26</title>
<g id="a_edge40_Node000001_Node000026"><a xlink:title=" ">
<path fill="none" stroke="#63b8ff" d="M905.07,-260.83C1010.18,-248.44 1207.19,-225.21 1297.43,-214.58"/>
<polygon fill="#63b8ff" stroke="#63b8ff" points="904.67,-257.35 895.15,-262 905.49,-264.3 904.67,-257.35"/>
</a>
</g>
</g>
<!-- Node3 -->
<g id="Node000003" class="node">
<title>Node3</title>
<g id="a_Node000003"><a xlink:href="DirectoryManager_8hpp.html" target="_top" xlink:title=" ">
<polygon fill="white" stroke="#666666" points="468.25,-156 353.25,-156 353.25,-124 468.25,-124 468.25,-156"/>
<text xml:space="preserve" text-anchor="start" x="361.25" y="-142.5" font-family="Helvetica,sans-Serif" font-size="10.00">src/Utils/Filesystem</text>
<text xml:space="preserve" text-anchor="middle" x="410.75" y="-130.5" font-family="Helvetica,sans-Serif" font-size="10.00">/DirectoryManager.hpp</text>
</a>
</g>
</g>
<!-- Node2&#45;&gt;Node3 -->
<g id="edge2_Node000002_Node000003" class="edge">
<title>Node2&#45;&gt;Node3</title>
<g id="a_edge2_Node000002_Node000003"><a xlink:title=" ">
<path fill="none" stroke="#63b8ff" d="M511.28,-186.76C489.88,-177.02 464.63,-165.52 444.78,-156.49"/>
<polygon fill="#63b8ff" stroke="#63b8ff" points="509.82,-189.94 520.38,-190.9 512.72,-183.57 509.82,-189.94"/>
</a>
</g>
</g>
<!-- Node6 -->
<g id="Node000006" class="node">
<title>Node6</title>
<g id="a_Node000006"><a xlink:href="UtilsFactory_8hpp.html" target="_top" xlink:title=" ">
<polygon fill="white" stroke="#666666" points="913.25,-150 786.25,-150 786.25,-130 913.25,-130 913.25,-150"/>
<text xml:space="preserve" text-anchor="middle" x="849.75" y="-136.5" font-family="Helvetica,sans-Serif" font-size="10.00">src/Utils/UtilsFactory.hpp</text>
</a>
</g>
</g>
<!-- Node2&#45;&gt;Node6 -->
<g id="edge5_Node000002_Node000006" class="edge">
<title>Node2&#45;&gt;Node6</title>
<g id="a_edge5_Node000002_Node000006"><a xlink:title=" ">
<path fill="none" stroke="#63b8ff" d="M626.25,-191.17C682.75,-178.49 760.14,-161.12 807.45,-150.5"/>
<polygon fill="#63b8ff" stroke="#63b8ff" points="625.71,-187.71 616.72,-193.31 627.25,-194.54 625.71,-187.71"/>
</a>
</g>
</g>
<!-- Node4 -->
<g id="Node000004" class="node">
<title>Node4</title>
<g id="a_Node000004"><a xlink:href="DirectoryManager_8cpp.html" target="_top" xlink:title=" ">
<polygon fill="white" stroke="#666666" points="392.25,-88 277.25,-88 277.25,-56 392.25,-56 392.25,-88"/>
<text xml:space="preserve" text-anchor="start" x="285.25" y="-74.5" font-family="Helvetica,sans-Serif" font-size="10.00">src/Utils/Filesystem</text>
<text xml:space="preserve" text-anchor="middle" x="334.75" y="-62.5" font-family="Helvetica,sans-Serif" font-size="10.00">/DirectoryManager.cpp</text>
</a>
</g>
</g>
<!-- Node3&#45;&gt;Node4 -->
<g id="edge3_Node000003_Node000004" class="edge">
<title>Node3&#45;&gt;Node4</title>
<g id="a_edge3_Node000003_Node000004"><a xlink:title=" ">
<path fill="none" stroke="#63b8ff" d="M384.64,-116.32C374.05,-107.13 362.1,-96.75 352.54,-88.45"/>
<polygon fill="#63b8ff" stroke="#63b8ff" points="382.14,-118.79 391.98,-122.7 386.72,-113.5 382.14,-118.79"/>
</a>
</g>
</g>
<!-- Node5 -->
<g id="Node000005" class="node">
<title>Node5</title>
<g id="a_Node000005"><a xlink:href="UtilsFactory_8cpp.html" target="_top" xlink:title=" ">
<polygon fill="white" stroke="#666666" points="837.25,-82 710.25,-82 710.25,-62 837.25,-62 837.25,-82"/>
<text xml:space="preserve" text-anchor="middle" x="773.75" y="-68.5" font-family="Helvetica,sans-Serif" font-size="10.00">src/Utils/UtilsFactory.cpp</text>
</a>
</g>
</g>
<!-- Node3&#45;&gt;Node5 -->
<g id="edge4_Node000003_Node000005" class="edge">
<title>Node3&#45;&gt;Node5</title>
<g id="a_edge4_Node000003_Node000005"><a xlink:title=" ">
<path fill="none" stroke="#63b8ff" d="M479.57,-123.73C578.68,-105.04 606.08,-105.64 701.75,-88 710.92,-86.31 720.71,-84.36 730.03,-82.44"/>
<polygon fill="#63b8ff" stroke="#63b8ff" points="479.1,-120.25 469.93,-125.57 480.41,-127.13 479.1,-120.25"/>
</a>
</g>
</g>
<!-- Node6&#45;&gt;Node5 -->
<g id="edge10_Node000006_Node000005" class="edge">
<title>Node6&#45;&gt;Node5</title>
<g id="a_edge10_Node000006_Node000005"><a xlink:title=" ">
<path fill="none" stroke="#63b8ff" d="M830.56,-122.33C816.02,-109.71 796.57,-92.82 784.62,-82.44"/>
<polygon fill="#63b8ff" stroke="#63b8ff" points="827.87,-124.64 837.72,-128.55 832.46,-119.35 827.87,-124.64"/>
</a>
</g>
</g>
<!-- Node7 -->
<g id="Node000007" class="node">
<title>Node7</title>
<g id="a_Node000007"><a xlink:href="Application_8cpp.html" target="_top" xlink:title=" ">
<polygon fill="white" stroke="#666666" points="1062.12,-20 913.38,-20 913.38,0 1062.12,0 1062.12,-20"/>
<text xml:space="preserve" text-anchor="middle" x="987.75" y="-6.5" font-family="Helvetica,sans-Serif" font-size="10.00">application/src/Application.cpp</text>
</a>
</g>
</g>
<!-- Node6&#45;&gt;Node7 -->
<g id="edge6_Node000006_Node000007" class="edge">
<title>Node6&#45;&gt;Node7</title>
<g id="a_edge6_Node000006_Node000007"><a xlink:title=" ">
<path fill="none" stroke="#63b8ff" d="M907.72,-125.99C929.68,-118.33 953.13,-106.4 968.75,-88 985.41,-68.37 987.87,-36.33 987.99,-20.49"/>
<polygon fill="#63b8ff" stroke="#63b8ff" points="906.65,-122.66 898.2,-129.05 908.79,-129.32 906.65,-122.66"/>
</a>
</g>
</g>
<!-- Node8 -->
<g id="Node000008" class="node">
<title>Node8</title>
<g id="a_Node000008"><a xlink:href="DotNameLib_8hpp.html" target="_top" xlink:title=" ">
<polygon fill="white" stroke="#666666" points="960,-88 855.5,-88 855.5,-56 960,-56 960,-88"/>
<text xml:space="preserve" text-anchor="start" x="863.5" y="-74.5" font-family="Helvetica,sans-Serif" font-size="10.00">include/DotNameLib</text>
<text xml:space="preserve" text-anchor="middle" x="907.75" y="-62.5" font-family="Helvetica,sans-Serif" font-size="10.00">/DotNameLib.hpp</text>
</a>
</g>
</g>
<!-- Node6&#45;&gt;Node8 -->
<g id="edge7_Node000006_Node000008" class="edge">
<title>Node6&#45;&gt;Node8</title>
<g id="a_edge7_Node000006_Node000008"><a xlink:title=" ">
<path fill="none" stroke="#63b8ff" d="M865.59,-120.98C874.59,-110.74 885.73,-98.06 894.3,-88.3"/>
<polygon fill="#63b8ff" stroke="#63b8ff" points="863.03,-118.58 859.06,-128.41 868.29,-123.21 863.03,-118.58"/>
</a>
</g>
</g>
<!-- Node8&#45;&gt;Node7 -->
<g id="edge8_Node000008_Node000007" class="edge">
<title>Node8&#45;&gt;Node7</title>
<g id="a_edge8_Node000008_Node000007"><a xlink:title=" ">
<path fill="none" stroke="#63b8ff" d="M937.48,-48.7C950.52,-38.92 965.11,-27.98 975.21,-20.41"/>
<polygon fill="#63b8ff" stroke="#63b8ff" points="935.46,-45.84 929.56,-54.64 939.66,-51.44 935.46,-45.84"/>
</a>
</g>
</g>
<!-- Node9 -->
<g id="Node000009" class="node">
<title>Node9</title>
<g id="a_Node000009"><a xlink:href="DotNameLib_8cpp.html" target="_top" xlink:title=" ">
<polygon fill="white" stroke="#666666" points="895.75,-20 789.75,-20 789.75,0 895.75,0 895.75,-20"/>
<text xml:space="preserve" text-anchor="middle" x="842.75" y="-6.5" font-family="Helvetica,sans-Serif" font-size="10.00">src/DotNameLib.cpp</text>
</a>
</g>
</g>
<!-- Node8&#45;&gt;Node9 -->
<g id="edge9_Node000008_Node000009" class="edge">
<title>Node8&#45;&gt;Node9</title>
<g id="a_edge9_Node000008_Node000009"><a xlink:title=" ">
<path fill="none" stroke="#63b8ff" d="M882.66,-47.84C872.31,-38.29 860.9,-27.76 852.94,-20.41"/>
<polygon fill="#63b8ff" stroke="#63b8ff" points="880.18,-50.31 889.9,-54.52 884.92,-45.17 880.18,-50.31"/>
</a>
</g>
</g>
<!-- Node10&#45;&gt;Node6 -->
<g id="edge19_Node000010_Node000006" class="edge">
<title>Node10&#45;&gt;Node6</title>
<g id="a_edge19_Node000010_Node000006"><a xlink:title=" ">
<path fill="none" stroke="#63b8ff" d="M489.88,-191.75C617.41,-168.91 653.13,-176.68 777.75,-156 787.32,-154.41 797.56,-152.44 807.22,-150.46"/>
<polygon fill="#63b8ff" stroke="#63b8ff" points="489.61,-188.24 480.4,-193.48 490.86,-195.13 489.61,-188.24"/>
</a>
</g>
</g>
<!-- Node11 -->
<g id="Node000011" class="node">
<title>Node11</title>
<g id="a_Node000011"><a xlink:href="FileReader_8hpp.html" target="_top" xlink:title=" ">
<polygon fill="white" stroke="#666666" points="325.62,-156 221.88,-156 221.88,-124 325.62,-124 325.62,-156"/>
<text xml:space="preserve" text-anchor="start" x="229.88" y="-142.5" font-family="Helvetica,sans-Serif" font-size="10.00">src/Utils/Filesystem</text>
<text xml:space="preserve" text-anchor="middle" x="273.75" y="-130.5" font-family="Helvetica,sans-Serif" font-size="10.00">/FileReader.hpp</text>
</a>
</g>
</g>
<!-- Node10&#45;&gt;Node11 -->
<g id="edge12_Node000010_Node000011" class="edge">
<title>Node10&#45;&gt;Node11</title>
<g id="a_edge12_Node000010_Node000011"><a xlink:title=" ">
<path fill="none" stroke="#63b8ff" d="M380.45,-187.03C357.73,-177.23 330.79,-165.61 309.66,-156.49"/>
<polygon fill="#63b8ff" stroke="#63b8ff" points="378.92,-190.18 389.49,-190.93 381.69,-183.75 378.92,-190.18"/>
</a>
</g>
</g>
<!-- Node14 -->
<g id="Node000014" class="node">
<title>Node14</title>
<g id="a_Node000014"><a xlink:href="JsonSerializer_8hpp.html" target="_top" xlink:title=" ">
<polygon fill="white" stroke="#666666" points="646.75,-150 486.75,-150 486.75,-130 646.75,-130 646.75,-150"/>
<text xml:space="preserve" text-anchor="middle" x="566.75" y="-136.5" font-family="Helvetica,sans-Serif" font-size="10.00">src/Utils/Json/JsonSerializer.hpp</text>
</a>
</g>
</g>
<!-- Node10&#45;&gt;Node14 -->
<g id="edge16_Node000010_Node000014" class="edge">
<title>Node10&#45;&gt;Node14</title>
<g id="a_edge16_Node000010_Node000014"><a xlink:title=" ">
<path fill="none" stroke="#63b8ff" d="M469.79,-186.71C495.41,-174.63 526.7,-159.88 546.68,-150.46"/>
<polygon fill="#63b8ff" stroke="#63b8ff" points="468.5,-183.45 460.94,-190.88 471.48,-189.78 468.5,-183.45"/>
</a>
</g>
</g>
<!-- Node11&#45;&gt;Node5 -->
<g id="edge15_Node000011_Node000005" class="edge">
<title>Node11&#45;&gt;Node5</title>
<g id="a_edge15_Node000011_Node000005"><a xlink:title=" ">
<path fill="none" stroke="#63b8ff" d="M337.21,-125.24C339.75,-124.8 342.27,-124.39 344.75,-124 502.33,-99.48 544.14,-112.3 701.75,-88 711.59,-86.48 722.12,-84.5 732.01,-82.47"/>
<polygon fill="#63b8ff" stroke="#63b8ff" points="336.67,-121.78 327.47,-127.03 337.93,-128.67 336.67,-121.78"/>
</a>
</g>
</g>
<!-- Node12 -->
<g id="Node000012" class="node">
<title>Node12</title>
<g id="a_Node000012"><a xlink:href="FileReaderTest_8cpp.html" target="_top" xlink:title=" ">
<polygon fill="white" stroke="#666666" points="137.5,-88 0,-88 0,-56 137.5,-56 137.5,-88"/>
<text xml:space="preserve" text-anchor="start" x="8" y="-74.5" font-family="Helvetica,sans-Serif" font-size="10.00">application/tests/FileReader</text>
<text xml:space="preserve" text-anchor="middle" x="68.75" y="-62.5" font-family="Helvetica,sans-Serif" font-size="10.00">Test.cpp</text>
</a>
</g>
</g>
<!-- Node11&#45;&gt;Node12 -->
<g id="edge13_Node000011_Node000012" class="edge">
<title>Node11&#45;&gt;Node12</title>
<g id="a_edge13_Node000011_Node000012"><a xlink:title=" ">
<path fill="none" stroke="#63b8ff" d="M214.99,-120.08C183.9,-110.07 146.2,-97.94 116.87,-88.49"/>
<polygon fill="#63b8ff" stroke="#63b8ff" points="213.65,-123.33 224.25,-123.06 215.8,-116.67 213.65,-123.33"/>
</a>
</g>
</g>
<!-- Node13 -->
<g id="Node000013" class="node">
<title>Node13</title>
<g id="a_Node000013"><a xlink:href="FileReader_8cpp.html" target="_top" xlink:title=" ">
<polygon fill="white" stroke="#666666" points="259.62,-88 155.88,-88 155.88,-56 259.62,-56 259.62,-88"/>
<text xml:space="preserve" text-anchor="start" x="163.88" y="-74.5" font-family="Helvetica,sans-Serif" font-size="10.00">src/Utils/Filesystem</text>
<text xml:space="preserve" text-anchor="middle" x="207.75" y="-62.5" font-family="Helvetica,sans-Serif" font-size="10.00">/FileReader.cpp</text>
</a>
</g>
</g>
<!-- Node11&#45;&gt;Node13 -->
<g id="edge14_Node000011_Node000013" class="edge">
<title>Node11&#45;&gt;Node13</title>
<g id="a_edge14_Node000011_Node000013"><a xlink:title=" ">
<path fill="none" stroke="#63b8ff" d="M250.46,-115.71C241.34,-106.59 231.12,-96.37 222.97,-88.22"/>
<polygon fill="#63b8ff" stroke="#63b8ff" points="247.83,-118.03 257.37,-122.62 252.78,-113.08 247.83,-118.03"/>
</a>
</g>
</g>
<!-- Node14&#45;&gt;Node5 -->
<g id="edge18_Node000014_Node000005" class="edge">
<title>Node14&#45;&gt;Node5</title>
<g id="a_edge18_Node000014_Node000005"><a xlink:title=" ">
<path fill="none" stroke="#63b8ff" d="M607.17,-126.11C647.41,-113.28 708.2,-93.9 744.15,-82.44"/>
<polygon fill="#63b8ff" stroke="#63b8ff" points="606.31,-122.71 597.85,-129.08 608.44,-129.38 606.31,-122.71"/>
</a>
</g>
</g>
<!-- Node15 -->
<g id="Node000015" class="node">
<title>Node15</title>
<g id="a_Node000015"><a xlink:href="JsonSerializer_8cpp.html" target="_top" xlink:title=" ">
<polygon fill="white" stroke="#666666" points="570.75,-82 410.75,-82 410.75,-62 570.75,-62 570.75,-82"/>
<text xml:space="preserve" text-anchor="middle" x="490.75" y="-68.5" font-family="Helvetica,sans-Serif" font-size="10.00">src/Utils/Json/JsonSerializer.cpp</text>
</a>
</g>
</g>
<!-- Node14&#45;&gt;Node15 -->
<g id="edge17_Node000014_Node000015" class="edge">
<title>Node14&#45;&gt;Node15</title>
<g id="a_edge17_Node000014_Node000015"><a xlink:title=" ">
<path fill="none" stroke="#63b8ff" d="M547.56,-122.33C533.02,-109.71 513.57,-92.82 501.62,-82.44"/>
<polygon fill="#63b8ff" stroke="#63b8ff" points="544.87,-124.64 554.72,-128.55 549.46,-119.35 544.87,-124.64"/>
</a>
</g>
</g>
<!-- Node16&#45;&gt;Node6 -->
<g id="edge25_Node000016_Node000006" class="edge">
<title>Node16&#45;&gt;Node6</title>
<g id="a_edge25_Node000016_Node000006"><a xlink:title=" ">
<path fill="none" stroke="#63b8ff" d="M733.88,-187.35C764.35,-175.16 802.14,-160.05 826.1,-150.46"/>
<polygon fill="#63b8ff" stroke="#63b8ff" points="732.83,-184 724.84,-190.96 735.43,-190.5 732.83,-184"/>
</a>
</g>
</g>
<!-- Node16&#45;&gt;Node14 -->
<g id="edge24_Node000016_Node000014" class="edge">
<title>Node16&#45;&gt;Node14</title>
<g id="a_edge24_Node000016_Node000014"><a xlink:title=" ">
<path fill="none" stroke="#63b8ff" d="M647.32,-186.06C625.95,-174.11 600.2,-159.71 583.66,-150.46"/>
<polygon fill="#63b8ff" stroke="#63b8ff" points="645.33,-188.96 655.76,-190.79 648.74,-182.85 645.33,-188.96"/>
</a>
</g>
</g>
<!-- Node17 -->
<g id="Node000017" class="node">
<title>Node17</title>
<g id="a_Node000017"><a xlink:href="FileWriter_8hpp.html" target="_top" xlink:title=" ">
<polygon fill="white" stroke="#666666" points="768.62,-156 664.88,-156 664.88,-124 768.62,-124 768.62,-156"/>
<text xml:space="preserve" text-anchor="start" x="672.88" y="-142.5" font-family="Helvetica,sans-Serif" font-size="10.00">src/Utils/Filesystem</text>
<text xml:space="preserve" text-anchor="middle" x="716.75" y="-130.5" font-family="Helvetica,sans-Serif" font-size="10.00">/FileWriter.hpp</text>
</a>
</g>
</g>
<!-- Node16&#45;&gt;Node17 -->
<g id="edge21_Node000016_Node000017" class="edge">
<title>Node16&#45;&gt;Node17</title>
<g id="a_edge21_Node000016_Node000017"><a xlink:title=" ">
<path fill="none" stroke="#63b8ff" d="M697.14,-181.45C701.27,-172.93 705.74,-163.71 709.37,-156.22"/>
<polygon fill="#63b8ff" stroke="#63b8ff" points="694.05,-179.81 692.83,-190.33 700.34,-182.86 694.05,-179.81"/>
</a>
</g>
</g>
<!-- Node17&#45;&gt;Node5 -->
<g id="edge23_Node000017_Node000005" class="edge">
<title>Node17&#45;&gt;Node5</title>
<g id="a_edge23_Node000017_Node000005"><a xlink:title=" ">
<path fill="none" stroke="#63b8ff" d="M737.45,-115.04C747.25,-103.69 758.38,-90.8 765.7,-82.32"/>
<polygon fill="#63b8ff" stroke="#63b8ff" points="734.85,-112.69 730.96,-122.55 740.14,-117.27 734.85,-112.69"/>
</a>
</g>
</g>
<!-- Node18 -->
<g id="Node000018" class="node">
<title>Node18</title>
<g id="a_Node000018"><a xlink:href="FileWriter_8cpp.html" target="_top" xlink:title=" ">
<polygon fill="white" stroke="#666666" points="692.62,-88 588.88,-88 588.88,-56 692.62,-56 692.62,-88"/>
<text xml:space="preserve" text-anchor="start" x="596.88" y="-74.5" font-family="Helvetica,sans-Serif" font-size="10.00">src/Utils/Filesystem</text>
<text xml:space="preserve" text-anchor="middle" x="640.75" y="-62.5" font-family="Helvetica,sans-Serif" font-size="10.00">/FileWriter.cpp</text>
</a>
</g>
</g>
<!-- Node17&#45;&gt;Node18 -->
<g id="edge22_Node000017_Node000018" class="edge">
<title>Node17&#45;&gt;Node18</title>
<g id="a_edge22_Node000017_Node000018"><a xlink:title=" ">
<path fill="none" stroke="#63b8ff" d="M690.64,-116.32C680.05,-107.13 668.1,-96.75 658.54,-88.45"/>
<polygon fill="#63b8ff" stroke="#63b8ff" points="688.14,-118.79 697.98,-122.7 692.72,-113.5 688.14,-118.79"/>
</a>
</g>
</g>
<!-- Node19&#45;&gt;Node6 -->
<g id="edge30_Node000019_Node000006" class="edge">
<title>Node19&#45;&gt;Node6</title>
<g id="a_edge30_Node000019_Node000006"><a xlink:title=" ">
<path fill="none" stroke="#63b8ff" d="M1090.5,-191.55C1041.17,-180.55 950.93,-161.84 895.78,-150.46"/>
<polygon fill="#63b8ff" stroke="#63b8ff" points="1089.53,-194.92 1100.06,-193.7 1091.07,-188.09 1089.53,-194.92"/>
</a>
</g>
</g>
<!-- Node20 -->
<g id="Node000020" class="node">
<title>Node20</title>
<g id="a_Node000020"><a xlink:href="PathResolver_8hpp.html" target="_top" xlink:title=" ">
<polygon fill="white" stroke="#666666" points="1197.62,-156 1093.88,-156 1093.88,-124 1197.62,-124 1197.62,-156"/>
<text xml:space="preserve" text-anchor="start" x="1101.88" y="-142.5" font-family="Helvetica,sans-Serif" font-size="10.00">src/Utils/Filesystem</text>
<text xml:space="preserve" text-anchor="middle" x="1145.75" y="-130.5" font-family="Helvetica,sans-Serif" font-size="10.00">/PathResolver.hpp</text>
</a>
</g>
</g>
<!-- Node19&#45;&gt;Node20 -->
<g id="edge27_Node000019_Node000020" class="edge">
<title>Node19&#45;&gt;Node20</title>
<g id="a_edge27_Node000019_Node000020"><a xlink:title=" ">
<path fill="none" stroke="#63b8ff" d="M1150.52,-180.31C1149.52,-172.12 1148.46,-163.38 1147.6,-156.22"/>
<polygon fill="#63b8ff" stroke="#63b8ff" points="1147.03,-180.68 1151.71,-190.19 1153.98,-179.84 1147.03,-180.68"/>
</a>
</g>
</g>
<!-- Node20&#45;&gt;Node5 -->
<g id="edge29_Node000020_Node000005" class="edge">
<title>Node20&#45;&gt;Node5</title>
<g id="a_edge29_Node000020_Node000005"><a xlink:title=" ">
<path fill="none" stroke="#63b8ff" d="M1082.47,-123.44C978.47,-103.18 949,-106.19 846.75,-88 837.32,-86.32 827.25,-84.36 817.68,-82.42"/>
<polygon fill="#63b8ff" stroke="#63b8ff" points="1081.49,-126.82 1091.97,-125.32 1082.84,-119.95 1081.49,-126.82"/>
</a>
</g>
</g>
<!-- Node21 -->
<g id="Node000021" class="node">
<title>Node21</title>
<g id="a_Node000021"><a xlink:href="PathResolver_8cpp.html" target="_top" xlink:title=" ">
<polygon fill="white" stroke="#666666" points="1282.62,-88 1178.88,-88 1178.88,-56 1282.62,-56 1282.62,-88"/>
<text xml:space="preserve" text-anchor="start" x="1186.88" y="-74.5" font-family="Helvetica,sans-Serif" font-size="10.00">src/Utils/Filesystem</text>
<text xml:space="preserve" text-anchor="middle" x="1230.75" y="-62.5" font-family="Helvetica,sans-Serif" font-size="10.00">/PathResolver.cpp</text>
</a>
</g>
</g>
<!-- Node20&#45;&gt;Node21 -->
<g id="edge28_Node000020_Node000021" class="edge">
<title>Node20&#45;&gt;Node21</title>
<g id="a_edge28_Node000020_Node000021"><a xlink:title=" ">
<path fill="none" stroke="#63b8ff" d="M1174.25,-116.87C1186.26,-107.55 1199.95,-96.91 1210.85,-88.45"/>
<polygon fill="#63b8ff" stroke="#63b8ff" points="1172.41,-113.87 1166.66,-122.76 1176.7,-119.4 1172.41,-113.87"/>
</a>
</g>
</g>
<!-- Node22&#45;&gt;Node6 -->
<g id="edge35_Node000022_Node000006" class="edge">
<title>Node22&#45;&gt;Node6</title>
<g id="a_edge35_Node000022_Node000006"><a xlink:title=" ">
<path fill="none" stroke="#63b8ff" d="M961.73,-187.19C932.24,-175.03 895.82,-160 872.68,-150.46"/>
<polygon fill="#63b8ff" stroke="#63b8ff" points="960.26,-190.37 970.84,-190.95 962.93,-183.9 960.26,-190.37"/>
</a>
</g>
</g>
<!-- Node23 -->
<g id="Node000023" class="node">
<title>Node23</title>
<g id="a_Node000023"><a xlink:href="CustomStringsLoader_8hpp.html" target="_top" xlink:title=" ">
<polygon fill="white" stroke="#666666" points="1076.25,-156 931.25,-156 931.25,-124 1076.25,-124 1076.25,-156"/>
<text xml:space="preserve" text-anchor="start" x="939.25" y="-142.5" font-family="Helvetica,sans-Serif" font-size="10.00">src/Utils/Json/CustomStrings</text>
<text xml:space="preserve" text-anchor="middle" x="1003.75" y="-130.5" font-family="Helvetica,sans-Serif" font-size="10.00">Loader.hpp</text>
</a>
</g>
</g>
<!-- Node22&#45;&gt;Node23 -->
<g id="edge32_Node000022_Node000023" class="edge">
<title>Node22&#45;&gt;Node23</title>
<g id="a_edge32_Node000022_Node000023"><a xlink:title=" ">
<path fill="none" stroke="#63b8ff" d="M1007.32,-180.31C1006.58,-172.12 1005.78,-163.38 1005.13,-156.22"/>
<polygon fill="#63b8ff" stroke="#63b8ff" points="1003.83,-180.54 1008.22,-190.19 1010.8,-179.91 1003.83,-180.54"/>
</a>
</g>
</g>
<!-- Node23&#45;&gt;Node5 -->
<g id="edge34_Node000023_Node000005" class="edge">
<title>Node23&#45;&gt;Node5</title>
<g id="a_edge34_Node000023_Node000005"><a xlink:title=" ">
<path fill="none" stroke="#63b8ff" d="M938.86,-120.38C895.8,-108.02 841.07,-92.32 806.72,-82.46"/>
<polygon fill="#63b8ff" stroke="#63b8ff" points="937.79,-123.71 948.37,-123.11 939.72,-116.99 937.79,-123.71"/>
</a>
</g>
</g>
<!-- Node24 -->
<g id="Node000024" class="node">
<title>Node24</title>
<g id="a_Node000024"><a xlink:href="CustomStringsLoader_8cpp.html" target="_top" xlink:title=" ">
<polygon fill="white" stroke="#666666" points="1161.25,-88 1016.25,-88 1016.25,-56 1161.25,-56 1161.25,-88"/>
<text xml:space="preserve" text-anchor="start" x="1024.25" y="-74.5" font-family="Helvetica,sans-Serif" font-size="10.00">src/Utils/Json/CustomStrings</text>
<text xml:space="preserve" text-anchor="middle" x="1088.75" y="-62.5" font-family="Helvetica,sans-Serif" font-size="10.00">Loader.cpp</text>
</a>
</g>
</g>
<!-- Node23&#45;&gt;Node24 -->
<g id="edge33_Node000023_Node000024" class="edge">
<title>Node23&#45;&gt;Node24</title>
<g id="a_edge33_Node000023_Node000024"><a xlink:title=" ">
<path fill="none" stroke="#63b8ff" d="M1032.25,-116.87C1044.26,-107.55 1057.95,-96.91 1068.85,-88.45"/>
<polygon fill="#63b8ff" stroke="#63b8ff" points="1030.41,-113.87 1024.66,-122.76 1034.7,-119.4 1030.41,-113.87"/>
</a>
</g>
</g>
<!-- Node25&#45;&gt;Node6 -->
<g id="edge39_Node000025_Node000006" class="edge">
<title>Node25&#45;&gt;Node6</title>
<g id="a_edge39_Node000025_Node000006"><a xlink:title=" ">
<path fill="none" stroke="#63b8ff" d="M840.07,-186.65C842.63,-174.58 845.75,-159.84 847.75,-150.44"/>
<polygon fill="#63b8ff" stroke="#63b8ff" points="836.72,-185.55 838.07,-196.06 843.57,-187.01 836.72,-185.55"/>
</a>
</g>
</g>
<!-- Node25&#45;&gt;Node14 -->
<g id="edge38_Node000025_Node000014" class="edge">
<title>Node25&#45;&gt;Node14</title>
<g id="a_edge38_Node000025_Node000014"><a xlink:title=" ">
<path fill="none" stroke="#63b8ff" d="M786.21,-194.84C733.98,-182.03 652.83,-162.12 605.22,-150.44"/>
<polygon fill="#63b8ff" stroke="#63b8ff" points="785.19,-198.2 795.74,-197.18 786.86,-191.4 785.19,-198.2"/>
</a>
</g>
</g>
<!-- Node25&#45;&gt;Node23 -->
<g id="edge37_Node000025_Node000023" class="edge">
<title>Node25&#45;&gt;Node23</title>
<g id="a_edge37_Node000025_Node000023"><a xlink:title=" ">
<path fill="none" stroke="#63b8ff" d="M870.46,-193.36C897.83,-182.61 936,-167.62 964.48,-156.43"/>
<polygon fill="#63b8ff" stroke="#63b8ff" points="869.26,-190.08 861.23,-196.99 871.82,-196.59 869.26,-190.08"/>
</a>
</g>
</g>
<!-- Node26&#45;&gt;Node6 -->
<g id="edge53_Node000026_Node000006" class="edge">
<title>Node26&#45;&gt;Node6</title>
<g id="a_edge53_Node000026_Node000006"><a xlink:title=" ">
<path fill="none" stroke="#63b8ff" d="M1286.18,-200.19C1178.72,-187.67 957.8,-161.71 922.75,-156 913.04,-154.42 902.67,-152.45 892.87,-150.47"/>
<polygon fill="#63b8ff" stroke="#63b8ff" points="1285.62,-203.65 1295.96,-201.33 1286.43,-196.7 1285.62,-203.65"/>
</a>
</g>
</g>
<!-- Node27 -->
<g id="Node000027" class="node">
<title>Node27</title>
<g id="a_Node000027"><a xlink:href="EmscriptenPlatformInfo_8hpp.html" target="_top" xlink:title=" ">
<polygon fill="white" stroke="#666666" points="1776,-156 1635.5,-156 1635.5,-124 1776,-124 1776,-156"/>
<text xml:space="preserve" text-anchor="start" x="1643.5" y="-142.5" font-family="Helvetica,sans-Serif" font-size="10.00">src/Utils/Platform</text>
<text xml:space="preserve" text-anchor="middle" x="1705.75" y="-130.5" font-family="Helvetica,sans-Serif" font-size="10.00">/EmscriptenPlatformInfo.hpp</text>
</a>
</g>
</g>
<!-- Node26&#45;&gt;Node27 -->
<g id="edge41_Node000026_Node000027" class="edge">
<title>Node26&#45;&gt;Node27</title>
<g id="a_edge41_Node000026_Node000027"><a xlink:title=" ">
<path fill="none" stroke="#63b8ff" d="M1403.5,-196.53C1460.56,-186.32 1549.63,-170.29 1626.75,-156 1629.5,-155.49 1632.29,-154.97 1635.12,-154.44"/>
<polygon fill="#63b8ff" stroke="#63b8ff" points="1402.89,-193.08 1393.66,-198.29 1404.12,-199.97 1402.89,-193.08"/>
</a>
</g>
</g>
<!-- Node30 -->
<g id="Node000030" class="node">
<title>Node30</title>
<g id="a_Node000030"><a xlink:href="PlatformInfoFactory_8hpp.html" target="_top" xlink:title=" ">
<polygon fill="white" stroke="#666666" points="1339.38,-156 1216.12,-156 1216.12,-124 1339.38,-124 1339.38,-156"/>
<text xml:space="preserve" text-anchor="start" x="1224.12" y="-142.5" font-family="Helvetica,sans-Serif" font-size="10.00">src/Utils/Platform</text>
<text xml:space="preserve" text-anchor="middle" x="1277.75" y="-130.5" font-family="Helvetica,sans-Serif" font-size="10.00">/PlatformInfoFactory.hpp</text>
</a>
</g>
</g>
<!-- Node26&#45;&gt;Node30 -->
<g id="edge44_Node000026_Node000030" class="edge">
<title>Node26&#45;&gt;Node30</title>
<g id="a_edge44_Node000026_Node000030"><a xlink:title=" ">
<path fill="none" stroke="#63b8ff" d="M1321.11,-183.71C1311.84,-174.59 1301.48,-164.37 1293.21,-156.22"/>
<polygon fill="#63b8ff" stroke="#63b8ff" points="1318.55,-186.11 1328.13,-190.63 1323.46,-181.12 1318.55,-186.11"/>
</a>
</g>
</g>
<!-- Node31 -->
<g id="Node000031" class="node">
<title>Node31</title>
<g id="a_Node000031"><a xlink:href="UnixPlatformInfo_8hpp.html" target="_top" xlink:title=" ">
<polygon fill="white" stroke="#666666" points="1468.38,-156 1357.12,-156 1357.12,-124 1468.38,-124 1468.38,-156"/>
<text xml:space="preserve" text-anchor="start" x="1365.12" y="-142.5" font-family="Helvetica,sans-Serif" font-size="10.00">src/Utils/Platform</text>
<text xml:space="preserve" text-anchor="middle" x="1412.75" y="-130.5" font-family="Helvetica,sans-Serif" font-size="10.00">/UnixPlatformInfo.hpp</text>
</a>
</g>
</g>
<!-- Node26&#45;&gt;Node31 -->
<g id="edge47_Node000026_Node000031" class="edge">
<title>Node26&#45;&gt;Node31</title>
<g id="a_edge47_Node000026_Node000031"><a xlink:title=" ">
<path fill="none" stroke="#63b8ff" d="M1368.75,-183.71C1378.15,-174.59 1388.67,-164.37 1397.06,-156.22"/>
<polygon fill="#63b8ff" stroke="#63b8ff" points="1366.35,-181.16 1361.61,-190.64 1371.22,-186.18 1366.35,-181.16"/>
</a>
</g>
</g>
<!-- Node33 -->
<g id="Node000033" class="node">
<title>Node33</title>
<g id="a_Node000033"><a xlink:href="WindowsPlatformInfo_8hpp.html" target="_top" xlink:title=" ">
<polygon fill="white" stroke="#666666" points="1617.5,-156 1486,-156 1486,-124 1617.5,-124 1617.5,-156"/>
<text xml:space="preserve" text-anchor="start" x="1494" y="-142.5" font-family="Helvetica,sans-Serif" font-size="10.00">src/Utils/Platform</text>
<text xml:space="preserve" text-anchor="middle" x="1551.75" y="-130.5" font-family="Helvetica,sans-Serif" font-size="10.00">/WindowsPlatformInfo.hpp</text>
</a>
</g>
</g>
<!-- Node26&#45;&gt;Node33 -->
<g id="edge50_Node000026_Node000033" class="edge">
<title>Node26&#45;&gt;Node33</title>
<g id="a_edge50_Node000026_Node000033"><a xlink:title=" ">
<path fill="none" stroke="#63b8ff" d="M1403.12,-188.39C1434.78,-178.29 1473.45,-165.97 1503.4,-156.41"/>
<polygon fill="#63b8ff" stroke="#63b8ff" points="1402.15,-185.03 1393.68,-191.4 1404.27,-191.7 1402.15,-185.03"/>
</a>
</g>
</g>
<!-- Node28 -->
<g id="Node000028" class="node">
<title>Node28</title>
<g id="a_Node000028"><a xlink:href="EmscriptenPlatformInfo_8cpp.html" target="_top" xlink:title=" ">
<polygon fill="white" stroke="#666666" points="1861,-88 1720.5,-88 1720.5,-56 1861,-56 1861,-88"/>
<text xml:space="preserve" text-anchor="start" x="1728.5" y="-74.5" font-family="Helvetica,sans-Serif" font-size="10.00">src/Utils/Platform</text>
<text xml:space="preserve" text-anchor="middle" x="1790.75" y="-62.5" font-family="Helvetica,sans-Serif" font-size="10.00">/EmscriptenPlatformInfo.cpp</text>
</a>
</g>
</g>
<!-- Node27&#45;&gt;Node28 -->
<g id="edge42_Node000027_Node000028" class="edge">
<title>Node27&#45;&gt;Node28</title>
<g id="a_edge42_Node000027_Node000028"><a xlink:title=" ">
<path fill="none" stroke="#63b8ff" d="M1734.25,-116.87C1746.26,-107.55 1759.95,-96.91 1770.85,-88.45"/>
<polygon fill="#63b8ff" stroke="#63b8ff" points="1732.41,-113.87 1726.66,-122.76 1736.7,-119.4 1732.41,-113.87"/>
</a>
</g>
</g>
<!-- Node29 -->
<g id="Node000029" class="node">
<title>Node29</title>
<g id="a_Node000029"><a xlink:href="PlatformInfoFactory_8cpp.html" target="_top" xlink:title=" ">
<polygon fill="white" stroke="#666666" points="1553.38,-88 1430.12,-88 1430.12,-56 1553.38,-56 1553.38,-88"/>
<text xml:space="preserve" text-anchor="start" x="1438.12" y="-74.5" font-family="Helvetica,sans-Serif" font-size="10.00">src/Utils/Platform</text>
<text xml:space="preserve" text-anchor="middle" x="1491.75" y="-62.5" font-family="Helvetica,sans-Serif" font-size="10.00">/PlatformInfoFactory.cpp</text>
</a>
</g>
</g>
<!-- Node27&#45;&gt;Node29 -->
<g id="edge43_Node000027_Node000029" class="edge">
<title>Node27&#45;&gt;Node29</title>
<g id="a_edge43_Node000027_Node000029"><a xlink:title=" ">
<path fill="none" stroke="#63b8ff" d="M1644.83,-120.21C1612.3,-110.18 1572.73,-97.98 1541.98,-88.49"/>
<polygon fill="#63b8ff" stroke="#63b8ff" points="1643.54,-123.48 1654.13,-123.08 1645.61,-116.79 1643.54,-123.48"/>
</a>
</g>
</g>
<!-- Node30&#45;&gt;Node5 -->
<g id="edge46_Node000030_Node000005" class="edge">
<title>Node30&#45;&gt;Node5</title>
<g id="a_edge46_Node000030_Node000005"><a xlink:title=" ">
<path fill="none" stroke="#63b8ff" d="M1204.73,-123.81C1045.9,-99.9 1002.14,-111.67 846.75,-88 836.77,-86.48 826.1,-84.49 816.08,-82.47"/>
<polygon fill="#63b8ff" stroke="#63b8ff" points="1203.96,-127.23 1214.37,-125.28 1205.02,-120.31 1203.96,-127.23"/>
</a>
</g>
</g>
<!-- Node30&#45;&gt;Node29 -->
<g id="edge45_Node000030_Node000029" class="edge">
<title>Node30&#45;&gt;Node29</title>
<g id="a_edge45_Node000030_Node000029"><a xlink:title=" ">
<path fill="none" stroke="#63b8ff" d="M1338.67,-120.21C1371.2,-110.18 1410.77,-97.98 1441.52,-88.49"/>
<polygon fill="#63b8ff" stroke="#63b8ff" points="1337.89,-116.79 1329.37,-123.08 1339.96,-123.48 1337.89,-116.79"/>
</a>
</g>
</g>
<!-- Node31&#45;&gt;Node29 -->
<g id="edge48_Node000031_Node000029" class="edge">
<title>Node31&#45;&gt;Node29</title>
<g id="a_edge48_Node000031_Node000029"><a xlink:title=" ">
<path fill="none" stroke="#63b8ff" d="M1439.89,-116.32C1450.9,-107.13 1463.32,-96.75 1473.25,-88.45"/>
<polygon fill="#63b8ff" stroke="#63b8ff" points="1437.66,-113.62 1432.23,-122.72 1442.15,-119 1437.66,-113.62"/>
</a>
</g>
</g>
<!-- Node32 -->
<g id="Node000032" class="node">
<title>Node32</title>
<g id="a_Node000032"><a xlink:href="UnixPlatformInfo_8cpp.html" target="_top" xlink:title=" ">
<polygon fill="white" stroke="#666666" points="1412.38,-88 1301.12,-88 1301.12,-56 1412.38,-56 1412.38,-88"/>
<text xml:space="preserve" text-anchor="start" x="1309.12" y="-74.5" font-family="Helvetica,sans-Serif" font-size="10.00">src/Utils/Platform</text>
<text xml:space="preserve" text-anchor="middle" x="1356.75" y="-62.5" font-family="Helvetica,sans-Serif" font-size="10.00">/UnixPlatformInfo.cpp</text>
</a>
</g>
</g>
<!-- Node31&#45;&gt;Node32 -->
<g id="edge49_Node000031_Node000032" class="edge">
<title>Node31&#45;&gt;Node32</title>
<g id="a_edge49_Node000031_Node000032"><a xlink:title=" ">
<path fill="none" stroke="#63b8ff" d="M1392.51,-115.15C1384.89,-106.17 1376.44,-96.21 1369.67,-88.22"/>
<polygon fill="#63b8ff" stroke="#63b8ff" points="1389.64,-117.18 1398.78,-122.54 1394.98,-112.65 1389.64,-117.18"/>
</a>
</g>
</g>
<!-- Node33&#45;&gt;Node29 -->
<g id="edge51_Node000033_Node000029" class="edge">
<title>Node33&#45;&gt;Node29</title>
<g id="a_edge51_Node000033_Node000029"><a xlink:title=" ">
<path fill="none" stroke="#63b8ff" d="M1530.32,-115.43C1522.09,-106.38 1512.92,-96.29 1505.59,-88.22"/>
<polygon fill="#63b8ff" stroke="#63b8ff" points="1527.5,-117.53 1536.82,-122.57 1532.68,-112.82 1527.5,-117.53"/>
</a>
</g>
</g>
<!-- Node34 -->
<g id="Node000034" class="node">
<title>Node34</title>
<g id="a_Node000034"><a xlink:href="WindowsPlatformInfo_8cpp.html" target="_top" xlink:title=" ">
<polygon fill="white" stroke="#666666" points="1702.5,-88 1571,-88 1571,-56 1702.5,-56 1702.5,-88"/>
<text xml:space="preserve" text-anchor="start" x="1579" y="-74.5" font-family="Helvetica,sans-Serif" font-size="10.00">src/Utils/Platform</text>
<text xml:space="preserve" text-anchor="middle" x="1636.75" y="-62.5" font-family="Helvetica,sans-Serif" font-size="10.00">/WindowsPlatformInfo.cpp</text>
</a>
</g>
</g>
<!-- Node33&#45;&gt;Node34 -->
<g id="edge52_Node000033_Node000034" class="edge">
<title>Node33&#45;&gt;Node34</title>
<g id="a_edge52_Node000033_Node000034"><a xlink:title=" ">
<path fill="none" stroke="#63b8ff" d="M1580.25,-116.87C1592.26,-107.55 1605.95,-96.91 1616.85,-88.45"/>
<polygon fill="#63b8ff" stroke="#63b8ff" points="1578.41,-113.87 1572.66,-122.76 1582.7,-119.4 1578.41,-113.87"/>
</a>
</g>
</g>
</g>
</svg>

<g id="navigator" transform="translate(0 0)" fill="#404254">
  <rect fill="#f2f5e9" fill-opacity="0.5" stroke="#606060" stroke-width=".5" x="0" y="0" width="60" height="60"/>
  <use id="zoomplus" xlink:href="#zoomPlus" x="17" y="9" onmousedown="handleZoom(evt,'in')"/>
  <use id="zoomminus" xlink:href="#zoomMin" x="42" y="9" onmousedown="handleZoom(evt,'out')"/>
  <use id="reset" xlink:href="#resetDef" x="30" y="36" onmousedown="handleReset()"/>
   <use id="arrowup" xlink:href="#arrowUp" x="0" y="0" onmousedown="handlePan(0,-1)"/>
  <use id="arrowright" xlink:href="#arrowRight" x="0" y="0" onmousedown="handlePan(1,0)"/>
  <use id="arrowdown" xlink:href="#arrowDown" x="0" y="0" onmousedown="handlePan(0,1)"/>
  <use id="arrowleft" xlink:href="#arrowLeft" x="0" y="0" onmousedown="handlePan(-1,0)"/>
</g>
<svg viewBox="0 0 15 15" width="100%" height="30px" preserveAspectRatio="xMaxYMin meet">
 <g id="arrow_out" transform="scale(0.3 0.3)">
  <a xlink:href="UtilsError_8hpp__dep__incl_org.svg" target="_base">
   <rect id="button" ry="5" rx="5" y="6" x="6" height="38" width="38"
        fill="#f2f5e9" fill-opacity="0.5" stroke="#606060" stroke-width="1.0"/>
   <path id="arrow"
     d="M 11.500037,31.436501 C 11.940474,20.09759 22.043105,11.32322 32.158766,21.979434 L 37.068811,17.246167 C 37.068811,17.246167 37.088388,32 37.088388,32 L 22.160133,31.978069 C 22.160133,31.978069 26.997745,27.140456 26.997745,27.140456 C 18.528582,18.264221 13.291696,25.230495 11.500037,31.436501 z"
     style="fill:#404040;"/>
  </a>
 </g>
</svg>

<style type='text/css'>
<![CDATA[
[data-mouse-over-selected='false'] { opacity: 0.7; }
[data-mouse-over-selected='true']  { opacity: 1.0; }
]]>
</style>
<script type="application/ecmascript"><![CDATA[
document.addEventListener('DOMContentLoaded', (event) => {
  highlightEdges();
  highlightAdjacentNodes();
});
]]></script>
</svg>
