<?xml version="1.0" encoding="UTF-8" standalone="no"?>
<!DOCTYPE svg PUBLIC "-//W3C//DTD SVG 1.1//EN"
 "http://www.w3.org/Graphics/SVG/1.1/DTD/svg11.dtd">
<!-- Generated by graphviz version 13.1.2 (20250808.2320)
 -->
<!-- Title: src/Utils/UtilsFactory.hpp Pages: 1 -->
<svg width="1895pt" height="208pt"
 viewBox="0.00 0.00 1895.00 208.00" xmlns="http://www.w3.org/2000/svg" xmlns:xlink="http://www.w3.org/1999/xlink">
<g id="graph0" class="graph" transform="scale(1 1) rotate(0) translate(4 204)">
<title>src/Utils/UtilsFactory.hpp</title>
<!-- Node1 -->
<g id="Node000001" class="node">
<title>Node1</title>
<g id="a_Node000001"><a xlink:title=" ">
<polygon fill="#999999" stroke="#666666" points="1130.25,-200 1003.25,-200 1003.25,-180 1130.25,-180 1130.25,-200"/>
<text xml:space="preserve" text-anchor="middle" x="1066.75" y="-186.5" font-family="Helvetica,sans-Serif" font-size="10.00">src/Utils/UtilsFactory.hpp</text>
</a>
</g>
</g>
<!-- Node2 -->
<g id="Node000002" class="node">
<title>Node2</title>
<g id="a_Node000002"><a xlink:title=" ">
<polygon fill="#e0e0e0" stroke="#999999" points="113.5,-138 0,-138 0,-118 113.5,-118 113.5,-138"/>
<text xml:space="preserve" text-anchor="middle" x="56.75" y="-124.5" font-family="Helvetica,sans-Serif" font-size="10.00">DotNameLib/version.h</text>
</a>
</g>
</g>
<!-- Node1&#45;&gt;Node2 -->
<g id="edge1_Node000001_Node000002" class="edge">
<title>Node1&#45;&gt;Node2</title>
<g id="a_edge1_Node000001_Node000002"><a xlink:title=" ">
<path fill="none" stroke="#63b8ff" d="M1002.8,-187.42C819.32,-182.65 293.45,-167.28 122.75,-144 116.71,-143.18 110.41,-142.07 104.2,-140.83"/>
<polygon fill="#63b8ff" stroke="#63b8ff" points="105.19,-137.46 94.68,-138.8 103.73,-144.31 105.19,-137.46"/>
</a>
</g>
</g>
<!-- Node3 -->
<g id="Node000003" class="node">
<title>Node3</title>
<g id="a_Node000003"><a xlink:href="IAssetManager_8hpp.html" target="_top" xlink:title=" ">
<polygon fill="white" stroke="#666666" points="641.62,-138 483.88,-138 483.88,-118 641.62,-118 641.62,-138"/>
<text xml:space="preserve" text-anchor="middle" x="562.75" y="-124.5" font-family="Helvetica,sans-Serif" font-size="10.00">Utils/Assets/IAssetManager.hpp</text>
</a>
</g>
</g>
<!-- Node1&#45;&gt;Node3 -->
<g id="edge2_Node000001_Node000003" class="edge">
<title>Node1&#45;&gt;Node3</title>
<g id="a_edge2_Node000001_Node000003"><a xlink:title=" ">
<path fill="none" stroke="#63b8ff" d="M1002.82,-183.31C921.02,-175.74 775.04,-161.3 650.75,-144 642.84,-142.9 634.54,-141.63 626.34,-140.31"/>
<polygon fill="#63b8ff" stroke="#63b8ff" points="627.18,-136.9 616.74,-138.73 626.04,-143.81 627.18,-136.9"/>
</a>
</g>
</g>
<!-- Node4 -->
<g id="Node000004" class="node">
<title>Node4</title>
<g id="a_Node000004"><a xlink:title=" ">
<polygon fill="#e0e0e0" stroke="#999999" points="716.25,-76 655.25,-76 655.25,-56 716.25,-56 716.25,-76"/>
<text xml:space="preserve" text-anchor="middle" x="685.75" y="-62.5" font-family="Helvetica,sans-Serif" font-size="10.00">filesystem</text>
</a>
</g>
</g>
<!-- Node1&#45;&gt;Node4 -->
<g id="edge59_Node000001_Node000004" class="edge">
<title>Node1&#45;&gt;Node4</title>
<g id="a_edge59_Node000001_Node000004"><a xlink:title=" ">
<path fill="none" stroke="#63b8ff" d="M1002.75,-188.93C856.98,-188.1 510.07,-182.11 474.75,-144 465.08,-133.57 465.8,-123.06 474.75,-112 485.35,-98.9 585.36,-81.97 643.81,-73.08"/>
<polygon fill="#63b8ff" stroke="#63b8ff" points="644.04,-76.58 653.41,-71.64 643,-69.66 644.04,-76.58"/>
</a>
</g>
</g>
<!-- Node5 -->
<g id="Node000005" class="node">
<title>Node5</title>
<g id="a_Node000005"><a xlink:href="IDirectoryManager_8hpp.html" target="_top" xlink:title=" ">
<polygon fill="white" stroke="#666666" points="792.25,-144 659.25,-144 659.25,-112 792.25,-112 792.25,-144"/>
<text xml:space="preserve" text-anchor="start" x="667.25" y="-130.5" font-family="Helvetica,sans-Serif" font-size="10.00">Utils/Filesystem/IDirectory</text>
<text xml:space="preserve" text-anchor="middle" x="725.75" y="-118.5" font-family="Helvetica,sans-Serif" font-size="10.00">Manager.hpp</text>
</a>
</g>
</g>
<!-- Node1&#45;&gt;Node5 -->
<g id="edge4_Node000001_Node000005" class="edge">
<title>Node1&#45;&gt;Node5</title>
<g id="a_edge4_Node000001_Node000005"><a xlink:title=" ">
<path fill="none" stroke="#63b8ff" d="M1007.76,-179.54C956.33,-171.17 879.42,-158.38 803.57,-144.49"/>
<polygon fill="#63b8ff" stroke="#63b8ff" points="804.34,-141.08 793.87,-142.71 803.08,-147.96 804.34,-141.08"/>
</a>
</g>
</g>
<!-- Node13 -->
<g id="Node000013" class="node">
<title>Node13</title>
<g id="a_Node000013"><a xlink:href="IFileReader_8hpp.html" target="_top" xlink:title=" ">
<polygon fill="white" stroke="#666666" points="427.38,-138 268.12,-138 268.12,-118 427.38,-118 427.38,-138"/>
<text xml:space="preserve" text-anchor="middle" x="347.75" y="-124.5" font-family="Helvetica,sans-Serif" font-size="10.00">Utils/Filesystem/IFileReader.hpp</text>
</a>
</g>
</g>
<!-- Node1&#45;&gt;Node13 -->
<g id="edge13_Node000001_Node000013" class="edge">
<title>Node1&#45;&gt;Node13</title>
<g id="a_edge13_Node000001_Node000013"><a xlink:title=" ">
<path fill="none" stroke="#63b8ff" d="M1003.15,-186.24C889.97,-180.92 646.27,-167.64 441.75,-144 432.43,-142.92 422.62,-141.59 412.99,-140.16"/>
<polygon fill="#63b8ff" stroke="#63b8ff" points="413.73,-136.73 403.32,-138.68 412.67,-143.65 413.73,-136.73"/>
</a>
</g>
</g>
<!-- Node14 -->
<g id="Node000014" class="node">
<title>Node14</title>
<g id="a_Node000014"><a xlink:href="IFileWriter_8hpp.html" target="_top" xlink:title=" ">
<polygon fill="white" stroke="#666666" points="963.38,-138 810.12,-138 810.12,-118 963.38,-118 963.38,-138"/>
<text xml:space="preserve" text-anchor="middle" x="886.75" y="-124.5" font-family="Helvetica,sans-Serif" font-size="10.00">Utils/Filesystem/IFileWriter.hpp</text>
</a>
</g>
</g>
<!-- Node1&#45;&gt;Node14 -->
<g id="edge19_Node000001_Node000014" class="edge">
<title>Node1&#45;&gt;Node14</title>
<g id="a_edge19_Node000001_Node000014"><a xlink:title=" ">
<path fill="none" stroke="#63b8ff" d="M1038.62,-179.62C1008.2,-169.48 959.49,-153.25 925.46,-141.9"/>
<polygon fill="#63b8ff" stroke="#63b8ff" points="927,-138.73 916.41,-138.89 924.79,-145.37 927,-138.73"/>
</a>
</g>
</g>
<!-- Node15 -->
<g id="Node000015" class="node">
<title>Node15</title>
<g id="a_Node000015"><a xlink:href="IPathResolver_8hpp.html" target="_top" xlink:title=" ">
<polygon fill="white" stroke="#666666" points="1152.38,-138 981.12,-138 981.12,-118 1152.38,-118 1152.38,-138"/>
<text xml:space="preserve" text-anchor="middle" x="1066.75" y="-124.5" font-family="Helvetica,sans-Serif" font-size="10.00">Utils/Filesystem/IPathResolver.hpp</text>
</a>
</g>
</g>
<!-- Node1&#45;&gt;Node15 -->
<g id="edge25_Node000001_Node000015" class="edge">
<title>Node1&#45;&gt;Node15</title>
<g id="a_edge25_Node000001_Node000015"><a xlink:title=" ">
<path fill="none" stroke="#63b8ff" d="M1066.75,-179.62C1066.75,-171.56 1066.75,-159.65 1066.75,-149.41"/>
<polygon fill="#63b8ff" stroke="#63b8ff" points="1070.25,-149.63 1066.75,-139.63 1063.25,-149.63 1070.25,-149.63"/>
</a>
</g>
</g>
<!-- Node16 -->
<g id="Node000016" class="node">
<title>Node16</title>
<g id="a_Node000016"><a xlink:href="ICustomStringsLoader_8hpp.html" target="_top" xlink:title=" ">
<polygon fill="white" stroke="#666666" points="1466.5,-144 1335,-144 1335,-112 1466.5,-112 1466.5,-144"/>
<text xml:space="preserve" text-anchor="start" x="1343" y="-130.5" font-family="Helvetica,sans-Serif" font-size="10.00">Utils/Json/ICustomStrings</text>
<text xml:space="preserve" text-anchor="middle" x="1400.75" y="-118.5" font-family="Helvetica,sans-Serif" font-size="10.00">Loader.hpp</text>
</a>
</g>
</g>
<!-- Node1&#45;&gt;Node16 -->
<g id="edge30_Node000001_Node000016" class="edge">
<title>Node1&#45;&gt;Node16</title>
<g id="a_edge30_Node000001_Node000016"><a xlink:title=" ">
<path fill="none" stroke="#63b8ff" d="M1123.67,-179.54C1173.73,-171.12 1248.87,-158.25 1323.51,-144.39"/>
<polygon fill="#63b8ff" stroke="#63b8ff" points="1323.84,-147.89 1333.03,-142.62 1322.55,-141.01 1323.84,-147.89"/>
</a>
</g>
</g>
<!-- Node18 -->
<g id="Node000018" class="node">
<title>Node18</title>
<g id="a_Node000018"><a xlink:href="IJsonSerializer_8hpp.html" target="_top" xlink:title=" ">
<polygon fill="white" stroke="#666666" points="1317,-138 1170.5,-138 1170.5,-118 1317,-118 1317,-138"/>
<text xml:space="preserve" text-anchor="middle" x="1243.75" y="-124.5" font-family="Helvetica,sans-Serif" font-size="10.00">Utils/Json/IJsonSerializer.hpp</text>
</a>
</g>
</g>
<!-- Node1&#45;&gt;Node18 -->
<g id="edge35_Node000001_Node000018" class="edge">
<title>Node1&#45;&gt;Node18</title>
<g id="a_edge35_Node000001_Node000018"><a xlink:title=" ">
<path fill="none" stroke="#63b8ff" d="M1094.41,-179.62C1124.19,-169.53 1171.81,-153.39 1205.25,-142.05"/>
<polygon fill="#63b8ff" stroke="#63b8ff" points="1206.22,-145.42 1214.56,-138.89 1203.97,-138.79 1206.22,-145.42"/>
</a>
</g>
</g>
<!-- Node19 -->
<g id="Node000019" class="node">
<title>Node19</title>
<g id="a_Node000019"><a xlink:href="ILogger_8hpp.html" target="_top" xlink:title=" ">
<polygon fill="white" stroke="#666666" points="1723,-76 1600.5,-76 1600.5,-56 1723,-56 1723,-76"/>
<text xml:space="preserve" text-anchor="middle" x="1661.75" y="-62.5" font-family="Helvetica,sans-Serif" font-size="10.00">Utils/Logger/ILogger.hpp</text>
</a>
</g>
</g>
<!-- Node1&#45;&gt;Node19 -->
<g id="edge40_Node000001_Node000019" class="edge">
<title>Node1&#45;&gt;Node19</title>
<g id="a_edge40_Node000001_Node000019"><a xlink:title=" ">
<path fill="none" stroke="#63b8ff" d="M1130.64,-189.14C1280.86,-188.82 1646.66,-183.89 1683.75,-144 1698.63,-128 1686.95,-102.62 1675.71,-85.42"/>
<polygon fill="#63b8ff" stroke="#63b8ff" points="1678.83,-83.77 1670.22,-77.6 1673.1,-87.79 1678.83,-83.77"/>
</a>
</g>
</g>
<!-- Node21 -->
<g id="Node000021" class="node">
<title>Node21</title>
<g id="a_Node000021"><a xlink:title=" ">
<polygon fill="#e0e0e0" stroke="#999999" points="1776.38,-20 1725.12,-20 1725.12,0 1776.38,0 1776.38,-20"/>
<text xml:space="preserve" text-anchor="middle" x="1750.75" y="-6.5" font-family="Helvetica,sans-Serif" font-size="10.00">memory</text>
</a>
</g>
</g>
<!-- Node1&#45;&gt;Node21 -->
<g id="edge60_Node000001_Node000021" class="edge">
<title>Node1&#45;&gt;Node21</title>
<g id="a_edge60_Node000001_Node000021"><a xlink:title=" ">
<path fill="none" stroke="#63b8ff" d="M1130.59,-187.82C1317.2,-184.05 1850.25,-170.95 1875.75,-144 1916.53,-100.89 1830.76,-49.69 1781.77,-25.29"/>
<polygon fill="#63b8ff" stroke="#63b8ff" points="1783.53,-22.26 1773,-21.03 1780.47,-28.55 1783.53,-22.26"/>
</a>
</g>
</g>
<!-- Node23 -->
<g id="Node000023" class="node">
<title>Node23</title>
<g id="a_Node000023"><a xlink:href="LoggerFactory_8hpp.html" target="_top" xlink:title=" ">
<polygon fill="white" stroke="#666666" points="1674.62,-138 1522.88,-138 1522.88,-118 1674.62,-118 1674.62,-138"/>
<text xml:space="preserve" text-anchor="middle" x="1598.75" y="-124.5" font-family="Helvetica,sans-Serif" font-size="10.00">Utils/Logger/LoggerFactory.hpp</text>
</a>
</g>
</g>
<!-- Node1&#45;&gt;Node23 -->
<g id="edge46_Node000001_Node000023" class="edge">
<title>Node1&#45;&gt;Node23</title>
<g id="a_edge46_Node000001_Node000023"><a xlink:title=" ">
<path fill="none" stroke="#63b8ff" d="M1130.58,-183.79C1216.64,-176.46 1374.58,-161.99 1508.75,-144 1517.05,-142.89 1525.75,-141.6 1534.35,-140.24"/>
<polygon fill="#63b8ff" stroke="#63b8ff" points="1534.72,-143.73 1544.04,-138.69 1533.61,-136.82 1534.72,-143.73"/>
</a>
</g>
</g>
<!-- Node24 -->
<g id="Node000024" class="node">
<title>Node24</title>
<g id="a_Node000024"><a xlink:href="NullLogger_8hpp.html" target="_top" xlink:title=" ">
<polygon fill="white" stroke="#666666" points="1867.12,-138 1730.38,-138 1730.38,-118 1867.12,-118 1867.12,-138"/>
<text xml:space="preserve" text-anchor="middle" x="1798.75" y="-124.5" font-family="Helvetica,sans-Serif" font-size="10.00">Utils/Logger/NullLogger.hpp</text>
</a>
</g>
</g>
<!-- Node1&#45;&gt;Node24 -->
<g id="edge50_Node000001_Node000024" class="edge">
<title>Node1&#45;&gt;Node24</title>
<g id="a_edge50_Node000001_Node000024"><a xlink:title=" ">
<path fill="none" stroke="#63b8ff" d="M1130.64,-186.95C1247.41,-182.67 1502.94,-170.87 1716.75,-144 1724.56,-143.02 1732.75,-141.78 1740.81,-140.43"/>
<polygon fill="#63b8ff" stroke="#63b8ff" points="1741.31,-143.9 1750.57,-138.73 1740.11,-137 1741.31,-143.9"/>
</a>
</g>
</g>
<!-- Node25 -->
<g id="Node000025" class="node">
<title>Node25</title>
<g id="a_Node000025"><a xlink:href="IPlatformInfo_8hpp.html" target="_top" xlink:title=" ">
<polygon fill="white" stroke="#666666" points="250.12,-144 131.38,-144 131.38,-112 250.12,-112 250.12,-144"/>
<text xml:space="preserve" text-anchor="start" x="139.38" y="-130.5" font-family="Helvetica,sans-Serif" font-size="10.00">Utils/Platform/IPlatform</text>
<text xml:space="preserve" text-anchor="middle" x="190.75" y="-118.5" font-family="Helvetica,sans-Serif" font-size="10.00">Info.hpp</text>
</a>
</g>
</g>
<!-- Node1&#45;&gt;Node25 -->
<g id="edge52_Node000001_Node000025" class="edge">
<title>Node1&#45;&gt;Node25</title>
<g id="a_edge52_Node000001_Node000025"><a xlink:title=" ">
<path fill="none" stroke="#63b8ff" d="M1002.78,-188.94C867.53,-188.04 542.54,-181.91 261.59,-144.25"/>
<polygon fill="#63b8ff" stroke="#63b8ff" points="262.24,-140.8 251.86,-142.92 261.29,-147.74 262.24,-140.8"/>
</a>
</g>
</g>
<!-- Node26 -->
<g id="Node000026" class="node">
<title>Node26</title>
<g id="a_Node000026"><a xlink:href="IStringFormatter_8hpp.html" target="_top" xlink:title=" ">
<polygon fill="white" stroke="#666666" points="1544.25,-76 1387.25,-76 1387.25,-56 1544.25,-56 1544.25,-76"/>
<text xml:space="preserve" text-anchor="middle" x="1465.75" y="-62.5" font-family="Helvetica,sans-Serif" font-size="10.00">Utils/String/IStringFormatter.hpp</text>
</a>
</g>
</g>
<!-- Node1&#45;&gt;Node26 -->
<g id="edge57_Node000001_Node000026" class="edge">
<title>Node1&#45;&gt;Node26</title>
<g id="a_edge57_Node000001_Node000026"><a xlink:title=" ">
<path fill="none" stroke="#63b8ff" d="M1130.64,-186.57C1239.91,-181.75 1453.17,-169.2 1475.75,-144 1489.62,-128.52 1483.15,-103.74 1475.81,-86.49"/>
<polygon fill="#63b8ff" stroke="#63b8ff" points="1479.14,-85.34 1471.72,-77.79 1472.81,-88.33 1479.14,-85.34"/>
</a>
</g>
</g>
<!-- Node3&#45;&gt;Node4 -->
<g id="edge3_Node000003_Node000004" class="edge">
<title>Node3&#45;&gt;Node4</title>
<g id="a_edge3_Node000003_Node000004"><a xlink:title=" ">
<path fill="none" stroke="#63b8ff" d="M581.97,-117.62C601.92,-107.89 633.37,-92.55 656.42,-81.31"/>
<polygon fill="#63b8ff" stroke="#63b8ff" points="657.85,-84.5 665.31,-76.97 654.78,-78.21 657.85,-84.5"/>
</a>
</g>
</g>
<!-- Node5&#45;&gt;Node4 -->
<g id="edge11_Node000005_Node000004" class="edge">
<title>Node5&#45;&gt;Node4</title>
<g id="a_edge11_Node000005_Node000004"><a xlink:title=" ">
<path fill="none" stroke="#63b8ff" d="M715.45,-111.55C710.24,-103.74 703.87,-94.19 698.37,-85.94"/>
<polygon fill="#63b8ff" stroke="#63b8ff" points="701.32,-84.05 692.86,-77.67 695.5,-87.93 701.32,-84.05"/>
</a>
</g>
</g>
<!-- Node6 -->
<g id="Node000006" class="node">
<title>Node6</title>
<g id="a_Node000006"><a xlink:href="UtilsError_8hpp.html" target="_top" xlink:title=" ">
<polygon fill="white" stroke="#666666" points="1032.38,-76 933.12,-76 933.12,-56 1032.38,-56 1032.38,-76"/>
<text xml:space="preserve" text-anchor="middle" x="982.75" y="-62.5" font-family="Helvetica,sans-Serif" font-size="10.00">Utils/UtilsError.hpp</text>
</a>
</g>
</g>
<!-- Node5&#45;&gt;Node6 -->
<g id="edge5_Node000005_Node000006" class="edge">
<title>Node5&#45;&gt;Node6</title>
<g id="a_edge5_Node000005_Node000006"><a xlink:title=" ">
<path fill="none" stroke="#63b8ff" d="M791.93,-111.55C835.21,-101.45 890.92,-88.44 930.96,-79.09"/>
<polygon fill="#63b8ff" stroke="#63b8ff" points="931.66,-82.52 940.6,-76.84 930.07,-75.71 931.66,-82.52"/>
</a>
</g>
</g>
<!-- Node12 -->
<g id="Node000012" class="node">
<title>Node12</title>
<g id="a_Node000012"><a xlink:title=" ">
<polygon fill="#e0e0e0" stroke="#999999" points="786.25,-76 743.25,-76 743.25,-56 786.25,-56 786.25,-76"/>
<text xml:space="preserve" text-anchor="middle" x="764.75" y="-62.5" font-family="Helvetica,sans-Serif" font-size="10.00">vector</text>
</a>
</g>
</g>
<!-- Node5&#45;&gt;Node12 -->
<g id="edge12_Node000005_Node000012" class="edge">
<title>Node5&#45;&gt;Node12</title>
<g id="a_edge12_Node000005_Node000012"><a xlink:title=" ">
<path fill="none" stroke="#63b8ff" d="M735.79,-111.55C740.87,-103.74 747.08,-94.19 752.44,-85.94"/>
<polygon fill="#63b8ff" stroke="#63b8ff" points="755.29,-87.97 757.81,-77.68 749.43,-84.15 755.29,-87.97"/>
</a>
</g>
</g>
<!-- Node7 -->
<g id="Node000007" class="node">
<title>Node7</title>
<g id="a_Node000007"><a xlink:title=" ">
<polygon fill="#e0e0e0" stroke="#999999" points="909.38,-20 864.12,-20 864.12,0 909.38,0 909.38,-20"/>
<text xml:space="preserve" text-anchor="middle" x="886.75" y="-6.5" font-family="Helvetica,sans-Serif" font-size="10.00">cstdint</text>
</a>
</g>
</g>
<!-- Node6&#45;&gt;Node7 -->
<g id="edge6_Node000006_Node000007" class="edge">
<title>Node6&#45;&gt;Node7</title>
<g id="a_edge6_Node000006_Node000007"><a xlink:title=" ">
<path fill="none" stroke="#63b8ff" d="M966.03,-55.59C951.53,-47.44 930.28,-35.48 913.43,-26"/>
<polygon fill="#63b8ff" stroke="#63b8ff" points="915.35,-23.07 904.92,-21.22 911.92,-29.17 915.35,-23.07"/>
</a>
</g>
</g>
<!-- Node8 -->
<g id="Node000008" class="node">
<title>Node8</title>
<g id="a_Node000008"><a xlink:title=" ">
<polygon fill="#e0e0e0" stroke="#999999" points="1125.62,-20 1075.88,-20 1075.88,0 1125.62,0 1125.62,-20"/>
<text xml:space="preserve" text-anchor="middle" x="1100.75" y="-6.5" font-family="Helvetica,sans-Serif" font-size="10.00">optional</text>
</a>
</g>
</g>
<!-- Node6&#45;&gt;Node8 -->
<g id="edge7_Node000006_Node000008" class="edge">
<title>Node6&#45;&gt;Node8</title>
<g id="a_edge7_Node000006_Node000008"><a xlink:title=" ">
<path fill="none" stroke="#63b8ff" d="M1003.3,-55.59C1021.63,-47.21 1048.74,-34.8 1069.71,-25.21"/>
<polygon fill="#63b8ff" stroke="#63b8ff" points="1071.02,-28.45 1078.66,-21.11 1068.11,-22.09 1071.02,-28.45"/>
</a>
</g>
</g>
<!-- Node9 -->
<g id="Node000009" class="node">
<title>Node9</title>
<g id="a_Node000009"><a xlink:title=" ">
<polygon fill="#e0e0e0" stroke="#999999" points="991.12,-20 932.38,-20 932.38,0 991.12,0 991.12,-20"/>
<text xml:space="preserve" text-anchor="middle" x="961.75" y="-6.5" font-family="Helvetica,sans-Serif" font-size="10.00">stdexcept</text>
</a>
</g>
</g>
<!-- Node6&#45;&gt;Node9 -->
<g id="edge8_Node000006_Node000009" class="edge">
<title>Node6&#45;&gt;Node9</title>
<g id="a_edge8_Node000006_Node000009"><a xlink:title=" ">
<path fill="none" stroke="#63b8ff" d="M979.09,-55.59C976.44,-48.78 972.76,-39.32 969.47,-30.86"/>
<polygon fill="#63b8ff" stroke="#63b8ff" points="972.8,-29.76 965.91,-21.71 966.28,-32.3 972.8,-29.76"/>
</a>
</g>
</g>
<!-- Node10 -->
<g id="Node000010" class="node">
<title>Node10</title>
<g id="a_Node000010"><a xlink:title=" ">
<polygon fill="#e0e0e0" stroke="#999999" points="1184.75,-20 1144.75,-20 1144.75,0 1184.75,0 1184.75,-20"/>
<text xml:space="preserve" text-anchor="middle" x="1164.75" y="-6.5" font-family="Helvetica,sans-Serif" font-size="10.00">string</text>
</a>
</g>
</g>
<!-- Node6&#45;&gt;Node10 -->
<g id="edge9_Node000006_Node000010" class="edge">
<title>Node6&#45;&gt;Node10</title>
<g id="a_edge9_Node000006_Node000010"><a xlink:title=" ">
<path fill="none" stroke="#63b8ff" d="M1014.79,-55.55C1043.33,-47.13 1086.52,-34.36 1133.4,-20.39"/>
<polygon fill="#63b8ff" stroke="#63b8ff" points="1134.39,-23.75 1142.97,-17.54 1132.39,-17.04 1134.39,-23.75"/>
</a>
</g>
</g>
<!-- Node11 -->
<g id="Node000011" class="node">
<title>Node11</title>
<g id="a_Node000011"><a xlink:title=" ">
<polygon fill="#e0e0e0" stroke="#999999" points="1054.38,-20 1009.12,-20 1009.12,0 1054.38,0 1054.38,-20"/>
<text xml:space="preserve" text-anchor="middle" x="1031.75" y="-6.5" font-family="Helvetica,sans-Serif" font-size="10.00">variant</text>
</a>
</g>
</g>
<!-- Node6&#45;&gt;Node11 -->
<g id="edge10_Node000006_Node000011" class="edge">
<title>Node6&#45;&gt;Node11</title>
<g id="a_edge10_Node000006_Node000011"><a xlink:title=" ">
<path fill="none" stroke="#63b8ff" d="M991.29,-55.59C998.03,-48.16 1007.64,-37.58 1015.79,-28.58"/>
<polygon fill="#63b8ff" stroke="#63b8ff" points="1018.17,-31.18 1022.3,-21.42 1012.98,-26.47 1018.17,-31.18"/>
</a>
</g>
</g>
<!-- Node13&#45;&gt;Node4 -->
<g id="edge16_Node000013_Node000004" class="edge">
<title>Node13&#45;&gt;Node4</title>
<g id="a_edge16_Node000013_Node000004"><a xlink:title=" ">
<path fill="none" stroke="#63b8ff" d="M400.93,-117.56C468.18,-105.62 582.55,-85.32 643.91,-74.43"/>
<polygon fill="#63b8ff" stroke="#63b8ff" points="644.36,-77.9 653.59,-72.71 643.14,-71.01 644.36,-77.9"/>
</a>
</g>
</g>
<!-- Node13&#45;&gt;Node6 -->
<g id="edge14_Node000013_Node000006" class="edge">
<title>Node13&#45;&gt;Node6</title>
<g id="a_edge14_Node000013_Node000006"><a xlink:title=" ">
<path fill="none" stroke="#63b8ff" d="M424.94,-117.52C441.37,-115.6 458.63,-113.67 474.75,-112 635.81,-95.36 825.99,-79.53 921.5,-71.84"/>
<polygon fill="#63b8ff" stroke="#63b8ff" points="921.75,-75.34 931.44,-71.05 921.19,-68.36 921.75,-75.34"/>
</a>
</g>
</g>
<!-- Node13&#45;&gt;Node7 -->
<g id="edge15_Node000013_Node000007" class="edge">
<title>Node13&#45;&gt;Node7</title>
<g id="a_edge15_Node000013_Node000007"><a xlink:title=" ">
<path fill="none" stroke="#63b8ff" d="M375.97,-117.61C421.54,-102.75 514.35,-73.68 594.75,-56 687.16,-35.68 798.01,-21.28 852.74,-14.82"/>
<polygon fill="#63b8ff" stroke="#63b8ff" points="852.82,-18.33 862.35,-13.7 852.01,-11.38 852.82,-18.33"/>
</a>
</g>
</g>
<!-- Node13&#45;&gt;Node10 -->
<g id="edge17_Node000013_Node000010" class="edge">
<title>Node13&#45;&gt;Node10</title>
<g id="a_edge17_Node000013_Node000010"><a xlink:title=" ">
<path fill="none" stroke="#63b8ff" d="M384.32,-117.51C452.16,-100.03 595.16,-63.84 645.75,-56 857.53,-23.19 918.43,-58.34 1133.54,-19.73"/>
<polygon fill="#63b8ff" stroke="#63b8ff" points="1133.87,-23.22 1143.07,-17.98 1132.61,-16.34 1133.87,-23.22"/>
</a>
</g>
</g>
<!-- Node13&#45;&gt;Node12 -->
<g id="edge18_Node000013_Node000012" class="edge">
<title>Node13&#45;&gt;Node12</title>
<g id="a_edge18_Node000013_Node000012"><a xlink:title=" ">
<path fill="none" stroke="#63b8ff" d="M424.23,-117.53C517.47,-105.84 669.56,-86.25 725.75,-76 727.76,-75.63 729.83,-75.23 731.91,-74.81"/>
<polygon fill="#63b8ff" stroke="#63b8ff" points="732.45,-78.27 741.48,-72.73 730.97,-71.43 732.45,-78.27"/>
</a>
</g>
</g>
<!-- Node14&#45;&gt;Node4 -->
<g id="edge22_Node000014_Node000004" class="edge">
<title>Node14&#45;&gt;Node4</title>
<g id="a_edge22_Node000014_Node000004"><a xlink:title=" ">
<path fill="none" stroke="#63b8ff" d="M855.34,-117.62C820.87,-107.34 765.39,-90.77 727.33,-79.41"/>
<polygon fill="#63b8ff" stroke="#63b8ff" points="728.64,-76.15 718.06,-76.64 726.64,-82.86 728.64,-76.15"/>
</a>
</g>
</g>
<!-- Node14&#45;&gt;Node6 -->
<g id="edge20_Node000014_Node000006" class="edge">
<title>Node14&#45;&gt;Node6</title>
<g id="a_edge20_Node000014_Node000006"><a xlink:title=" ">
<path fill="none" stroke="#63b8ff" d="M901.75,-117.62C916.83,-108.2 940.32,-93.52 958.13,-82.39"/>
<polygon fill="#63b8ff" stroke="#63b8ff" points="959.95,-85.38 966.57,-77.11 956.24,-79.44 959.95,-85.38"/>
</a>
</g>
</g>
<!-- Node14&#45;&gt;Node7 -->
<g id="edge21_Node000014_Node000007" class="edge">
<title>Node14&#45;&gt;Node7</title>
<g id="a_edge21_Node000014_Node000007"><a xlink:title=" ">
<path fill="none" stroke="#63b8ff" d="M886.75,-117.51C886.75,-98.81 886.75,-56.82 886.75,-31.51"/>
<polygon fill="#63b8ff" stroke="#63b8ff" points="890.25,-31.81 886.75,-21.81 883.25,-31.81 890.25,-31.81"/>
</a>
</g>
</g>
<!-- Node14&#45;&gt;Node10 -->
<g id="edge23_Node000014_Node000010" class="edge">
<title>Node14&#45;&gt;Node10</title>
<g id="a_edge23_Node000014_Node000010"><a xlink:title=" ">
<path fill="none" stroke="#63b8ff" d="M920.92,-117.56C952.73,-108.35 1001.21,-93.24 1041.75,-76 1076.6,-61.18 1114.9,-40.13 1139.35,-26.04"/>
<polygon fill="#63b8ff" stroke="#63b8ff" points="1141.05,-29.1 1147.94,-21.05 1137.53,-23.05 1141.05,-29.1"/>
</a>
</g>
</g>
<!-- Node14&#45;&gt;Node12 -->
<g id="edge24_Node000014_Node000012" class="edge">
<title>Node14&#45;&gt;Node12</title>
<g id="a_edge24_Node000014_Node000012"><a xlink:title=" ">
<path fill="none" stroke="#63b8ff" d="M867.69,-117.62C847.9,-107.89 816.71,-92.55 793.84,-81.31"/>
<polygon fill="#63b8ff" stroke="#63b8ff" points="795.55,-78.25 785.04,-76.98 792.47,-84.53 795.55,-78.25"/>
</a>
</g>
</g>
<!-- Node15&#45;&gt;Node4 -->
<g id="edge27_Node000015_Node000004" class="edge">
<title>Node15&#45;&gt;Node4</title>
<g id="a_edge27_Node000015_Node000004"><a xlink:title=" ">
<path fill="none" stroke="#63b8ff" d="M1007.84,-117.52C996.21,-115.68 984.1,-113.76 972.75,-112 867.04,-95.57 840.26,-93.67 734.75,-76 732.45,-75.62 730.09,-75.21 727.71,-74.8"/>
<polygon fill="#63b8ff" stroke="#63b8ff" points="728.52,-71.39 718.06,-73.08 727.29,-78.28 728.52,-71.39"/>
</a>
</g>
</g>
<!-- Node15&#45;&gt;Node6 -->
<g id="edge26_Node000015_Node000006" class="edge">
<title>Node15&#45;&gt;Node6</title>
<g id="a_edge26_Node000015_Node000006"><a xlink:title=" ">
<path fill="none" stroke="#63b8ff" d="M1053.62,-117.62C1040.56,-108.29 1020.26,-93.79 1004.73,-82.7"/>
<polygon fill="#63b8ff" stroke="#63b8ff" points="1007.19,-80.15 997.01,-77.19 1003.12,-85.85 1007.19,-80.15"/>
</a>
</g>
</g>
<!-- Node15&#45;&gt;Node10 -->
<g id="edge28_Node000015_Node000010" class="edge">
<title>Node15&#45;&gt;Node10</title>
<g id="a_edge28_Node000015_Node000010"><a xlink:title=" ">
<path fill="none" stroke="#63b8ff" d="M1074.77,-117.51C1091.15,-98.12 1128.66,-53.72 1149.71,-28.8"/>
<polygon fill="#63b8ff" stroke="#63b8ff" points="1152.14,-31.35 1155.92,-21.46 1146.79,-26.84 1152.14,-31.35"/>
</a>
</g>
</g>
<!-- Node15&#45;&gt;Node12 -->
<g id="edge29_Node000015_Node000012" class="edge">
<title>Node15&#45;&gt;Node12</title>
<g id="a_edge29_Node000015_Node000012"><a xlink:title=" ">
<path fill="none" stroke="#63b8ff" d="M1019.23,-117.56C957.46,-105.29 851.17,-84.17 797.62,-73.53"/>
<polygon fill="#63b8ff" stroke="#63b8ff" points="798.39,-70.12 787.9,-71.6 797.03,-76.98 798.39,-70.12"/>
</a>
</g>
</g>
<!-- Node16&#45;&gt;Node6 -->
<g id="edge31_Node000016_Node000006" class="edge">
<title>Node16&#45;&gt;Node6</title>
<g id="a_edge31_Node000016_Node000006"><a xlink:title=" ">
<path fill="none" stroke="#63b8ff" d="M1334.54,-113.51C1331.57,-112.98 1328.63,-112.48 1325.75,-112 1227.38,-95.73 1112.36,-81.64 1043.64,-73.74"/>
<polygon fill="#63b8ff" stroke="#63b8ff" points="1044.44,-70.31 1034.11,-72.65 1043.65,-77.26 1044.44,-70.31"/>
</a>
</g>
</g>
<!-- Node16&#45;&gt;Node8 -->
<g id="edge33_Node000016_Node000008" class="edge">
<title>Node16&#45;&gt;Node8</title>
<g id="a_edge33_Node000016_Node000008"><a xlink:title=" ">
<path fill="none" stroke="#63b8ff" d="M1381.55,-111.79C1357.8,-93.24 1318.47,-63.42 1301.75,-56 1235.85,-26.74 1211.42,-36.41 1136.82,-20.09"/>
<polygon fill="#63b8ff" stroke="#63b8ff" points="1137.96,-16.76 1127.43,-17.94 1136.4,-23.58 1137.96,-16.76"/>
</a>
</g>
</g>
<!-- Node16&#45;&gt;Node10 -->
<g id="edge34_Node000016_Node000010" class="edge">
<title>Node16&#45;&gt;Node10</title>
<g id="a_edge34_Node000016_Node000010"><a xlink:title=" ">
<path fill="none" stroke="#63b8ff" d="M1390.48,-111.58C1378.85,-95.34 1358.42,-70.2 1334.75,-56 1291,-29.76 1231.93,-18.6 1196.18,-14.02"/>
<polygon fill="#63b8ff" stroke="#63b8ff" points="1196.85,-10.57 1186.51,-12.88 1196.03,-17.52 1196.85,-10.57"/>
</a>
</g>
</g>
<!-- Node17 -->
<g id="Node000017" class="node">
<title>Node17</title>
<g id="a_Node000017"><a xlink:title=" ">
<polygon fill="#e0e0e0" stroke="#999999" points="1292.62,-76 1194.88,-76 1194.88,-56 1292.62,-56 1292.62,-76"/>
<text xml:space="preserve" text-anchor="middle" x="1243.75" y="-62.5" font-family="Helvetica,sans-Serif" font-size="10.00">nlohmann/json.hpp</text>
</a>
</g>
</g>
<!-- Node16&#45;&gt;Node17 -->
<g id="edge32_Node000016_Node000017" class="edge">
<title>Node16&#45;&gt;Node17</title>
<g id="a_edge32_Node000016_Node000017"><a xlink:title=" ">
<path fill="none" stroke="#63b8ff" d="M1360.32,-111.55C1335.11,-101.91 1302.98,-89.64 1278.84,-80.41"/>
<polygon fill="#63b8ff" stroke="#63b8ff" points="1280.37,-77.25 1269.78,-76.95 1277.87,-83.79 1280.37,-77.25"/>
</a>
</g>
</g>
<!-- Node18&#45;&gt;Node4 -->
<g id="edge37_Node000018_Node000004" class="edge">
<title>Node18&#45;&gt;Node4</title>
<g id="a_edge37_Node000018_Node000004"><a xlink:title=" ">
<path fill="none" stroke="#63b8ff" d="M1196.61,-117.57C1185.23,-115.52 1173.08,-113.51 1161.75,-112 972.97,-86.84 923.52,-101.23 734.75,-76 732.44,-75.69 730.07,-75.35 727.69,-74.98"/>
<polygon fill="#63b8ff" stroke="#63b8ff" points="728.45,-71.56 718.01,-73.37 727.31,-78.46 728.45,-71.56"/>
</a>
</g>
</g>
<!-- Node18&#45;&gt;Node6 -->
<g id="edge36_Node000018_Node000006" class="edge">
<title>Node18&#45;&gt;Node6</title>
<g id="a_edge36_Node000018_Node000006"><a xlink:title=" ">
<path fill="none" stroke="#63b8ff" d="M1202.68,-117.56C1157.4,-107.15 1084.44,-90.38 1035.09,-79.03"/>
<polygon fill="#63b8ff" stroke="#63b8ff" points="1036.01,-75.65 1025.48,-76.82 1034.45,-82.48 1036.01,-75.65"/>
</a>
</g>
</g>
<!-- Node18&#45;&gt;Node10 -->
<g id="edge39_Node000018_Node000010" class="edge">
<title>Node18&#45;&gt;Node10</title>
<g id="a_edge39_Node000018_Node000010"><a xlink:title=" ">
<path fill="none" stroke="#63b8ff" d="M1229.12,-117.56C1216.01,-108.4 1197.16,-93.37 1185.75,-76 1176.78,-62.34 1171.38,-44.55 1168.31,-31.03"/>
<polygon fill="#63b8ff" stroke="#63b8ff" points="1171.81,-30.67 1166.4,-21.55 1164.94,-32.04 1171.81,-30.67"/>
</a>
</g>
</g>
<!-- Node18&#45;&gt;Node17 -->
<g id="edge38_Node000018_Node000017" class="edge">
<title>Node18&#45;&gt;Node17</title>
<g id="a_edge38_Node000018_Node000017"><a xlink:title=" ">
<path fill="none" stroke="#63b8ff" d="M1243.75,-117.62C1243.75,-109.56 1243.75,-97.65 1243.75,-87.41"/>
<polygon fill="#63b8ff" stroke="#63b8ff" points="1247.25,-87.63 1243.75,-77.63 1240.25,-87.63 1247.25,-87.63"/>
</a>
</g>
</g>
<!-- Node19&#45;&gt;Node7 -->
<g id="edge42_Node000019_Node000007" class="edge">
<title>Node19&#45;&gt;Node7</title>
<g id="a_edge42_Node000019_Node000007"><a xlink:title=" ">
<path fill="none" stroke="#63b8ff" d="M1600.09,-59.58C1584.94,-58.33 1568.77,-57.05 1553.75,-56 1273.98,-36.35 1201.15,-61.31 923.75,-20 922.75,-19.85 921.73,-19.69 920.71,-19.51"/>
<polygon fill="#63b8ff" stroke="#63b8ff" points="921.7,-16.14 911.2,-17.57 920.3,-23 921.7,-16.14"/>
</a>
</g>
</g>
<!-- Node19&#45;&gt;Node10 -->
<g id="edge45_Node000019_Node000010" class="edge">
<title>Node19&#45;&gt;Node10</title>
<g id="a_edge45_Node000019_Node000010"><a xlink:title=" ">
<path fill="none" stroke="#63b8ff" d="M1600.36,-57.57C1595.76,-57.03 1591.18,-56.5 1586.75,-56 1440.72,-39.45 1266.07,-21.37 1196.04,-14.19"/>
<polygon fill="#63b8ff" stroke="#63b8ff" points="1196.77,-10.75 1186.47,-13.21 1196.06,-17.71 1196.77,-10.75"/>
</a>
</g>
</g>
<!-- Node20 -->
<g id="Node000020" class="node">
<title>Node20</title>
<g id="a_Node000020"><a xlink:title=" ">
<polygon fill="#e0e0e0" stroke="#999999" points="1627.88,-20 1567.62,-20 1567.62,0 1627.88,0 1627.88,-20"/>
<text xml:space="preserve" text-anchor="middle" x="1597.75" y="-6.5" font-family="Helvetica,sans-Serif" font-size="10.00">fmt/core.h</text>
</a>
</g>
</g>
<!-- Node19&#45;&gt;Node20 -->
<g id="edge41_Node000019_Node000020" class="edge">
<title>Node19&#45;&gt;Node20</title>
<g id="a_edge41_Node000019_Node000020"><a xlink:title=" ">
<path fill="none" stroke="#63b8ff" d="M1650.6,-55.59C1641.42,-47.85 1628.2,-36.69 1617.27,-27.47"/>
<polygon fill="#63b8ff" stroke="#63b8ff" points="1619.83,-25.05 1609.93,-21.27 1615.31,-30.4 1619.83,-25.05"/>
</a>
</g>
</g>
<!-- Node19&#45;&gt;Node21 -->
<g id="edge43_Node000019_Node000021" class="edge">
<title>Node19&#45;&gt;Node21</title>
<g id="a_edge43_Node000019_Node000021"><a xlink:title=" ">
<path fill="none" stroke="#63b8ff" d="M1677.25,-55.59C1690.57,-47.51 1710.03,-35.71 1725.58,-26.27"/>
<polygon fill="#63b8ff" stroke="#63b8ff" points="1727.1,-29.44 1733.83,-21.26 1723.47,-23.46 1727.1,-29.44"/>
</a>
</g>
</g>
<!-- Node22 -->
<g id="Node000022" class="node">
<title>Node22</title>
<g id="a_Node000022"><a xlink:title=" ">
<polygon fill="#e0e0e0" stroke="#999999" points="1697.38,-20 1646.12,-20 1646.12,0 1697.38,0 1697.38,-20"/>
<text xml:space="preserve" text-anchor="middle" x="1671.75" y="-6.5" font-family="Helvetica,sans-Serif" font-size="10.00">sstream</text>
</a>
</g>
</g>
<!-- Node19&#45;&gt;Node22 -->
<g id="edge44_Node000019_Node000022" class="edge">
<title>Node19&#45;&gt;Node22</title>
<g id="a_edge44_Node000019_Node000022"><a xlink:title=" ">
<path fill="none" stroke="#63b8ff" d="M1663.49,-55.59C1664.73,-48.93 1666.43,-39.75 1667.96,-31.44"/>
<polygon fill="#63b8ff" stroke="#63b8ff" points="1671.37,-32.26 1669.75,-21.79 1664.49,-30.98 1671.37,-32.26"/>
</a>
</g>
</g>
<!-- Node23&#45;&gt;Node10 -->
<g id="edge49_Node000023_Node000010" class="edge">
<title>Node23&#45;&gt;Node10</title>
<g id="a_edge49_Node000023_Node000010"><a xlink:title=" ">
<path fill="none" stroke="#63b8ff" d="M1595.83,-117.72C1590.36,-102.04 1576.99,-70.59 1553.75,-56 1494.4,-18.75 1278.4,-12.31 1196.52,-11.22"/>
<polygon fill="#63b8ff" stroke="#63b8ff" points="1196.78,-7.72 1186.74,-11.11 1196.7,-14.72 1196.78,-7.72"/>
</a>
</g>
</g>
<!-- Node23&#45;&gt;Node19 -->
<g id="edge47_Node000023_Node000019" class="edge">
<title>Node23&#45;&gt;Node19</title>
<g id="a_edge47_Node000023_Node000019"><a xlink:title=" ">
<path fill="none" stroke="#63b8ff" d="M1608.59,-117.62C1618.08,-108.59 1632.65,-94.72 1644.13,-83.78"/>
<polygon fill="#63b8ff" stroke="#63b8ff" points="1646.26,-86.59 1651.09,-77.16 1641.43,-81.52 1646.26,-86.59"/>
</a>
</g>
</g>
<!-- Node23&#45;&gt;Node21 -->
<g id="edge48_Node000023_Node000021" class="edge">
<title>Node23&#45;&gt;Node21</title>
<g id="a_edge48_Node000023_Node000021"><a xlink:title=" ">
<path fill="none" stroke="#63b8ff" d="M1654.78,-117.5C1681.41,-110.29 1711.73,-97.73 1731.75,-76 1742.96,-63.83 1747.59,-45.39 1749.48,-31.26"/>
<polygon fill="#63b8ff" stroke="#63b8ff" points="1752.93,-32 1750.4,-21.72 1745.96,-31.34 1752.93,-32"/>
</a>
</g>
</g>
<!-- Node24&#45;&gt;Node19 -->
<g id="edge51_Node000024_Node000019" class="edge">
<title>Node24&#45;&gt;Node19</title>
<g id="a_edge51_Node000024_Node000019"><a xlink:title=" ">
<path fill="none" stroke="#63b8ff" d="M1777.34,-117.62C1754.82,-107.76 1719.14,-92.13 1693.37,-80.85"/>
<polygon fill="#63b8ff" stroke="#63b8ff" points="1694.96,-77.72 1684.39,-76.92 1692.15,-84.13 1694.96,-77.72"/>
</a>
</g>
</g>
<!-- Node25&#45;&gt;Node4 -->
<g id="edge55_Node000025_Node000004" class="edge">
<title>Node25&#45;&gt;Node4</title>
<g id="a_edge55_Node000025_Node000004"><a xlink:title=" ">
<path fill="none" stroke="#63b8ff" d="M250.38,-113.45C253.21,-112.93 256.01,-112.45 258.75,-112 398.9,-89.23 566.88,-75.43 643.69,-69.86"/>
<polygon fill="#63b8ff" stroke="#63b8ff" points="643.55,-73.38 653.27,-69.18 643.05,-66.4 643.55,-73.38"/>
</a>
</g>
</g>
<!-- Node25&#45;&gt;Node6 -->
<g id="edge53_Node000025_Node000006" class="edge">
<title>Node25&#45;&gt;Node6</title>
<g id="a_edge53_Node000025_Node000006"><a xlink:title=" ">
<path fill="none" stroke="#63b8ff" d="M250.36,-113.3C253.19,-112.83 256,-112.39 258.75,-112 323.45,-102.91 759,-78.99 921.65,-70.25"/>
<polygon fill="#63b8ff" stroke="#63b8ff" points="921.57,-73.76 931.37,-69.73 921.2,-66.77 921.57,-73.76"/>
</a>
</g>
</g>
<!-- Node25&#45;&gt;Node7 -->
<g id="edge54_Node000025_Node000007" class="edge">
<title>Node25&#45;&gt;Node7</title>
<g id="a_edge54_Node000025_Node000007"><a xlink:title=" ">
<path fill="none" stroke="#63b8ff" d="M250.45,-113.82C253.26,-113.21 256.03,-112.6 258.75,-112 372.94,-86.96 400.49,-75.5 515.75,-56 638.91,-35.16 786.65,-20.22 852.34,-14.08"/>
<polygon fill="#63b8ff" stroke="#63b8ff" points="852.49,-17.59 862.12,-13.18 851.84,-10.62 852.49,-17.59"/>
</a>
</g>
</g>
<!-- Node25&#45;&gt;Node10 -->
<g id="edge56_Node000025_Node000010" class="edge">
<title>Node25&#45;&gt;Node10</title>
<g id="a_edge56_Node000025_Node000010"><a xlink:title=" ">
<path fill="none" stroke="#63b8ff" d="M250.42,-113.64C253.23,-113.08 256.02,-112.52 258.75,-112 356.05,-93.32 382.07,-97.65 478.75,-76 510.32,-68.93 516.86,-61.47 548.75,-56 802.29,-12.52 875.79,-64.29 1133.36,-19.72"/>
<polygon fill="#63b8ff" stroke="#63b8ff" points="1133.84,-23.19 1143.08,-18 1132.62,-16.3 1133.84,-23.19"/>
</a>
</g>
</g>
<!-- Node26&#45;&gt;Node10 -->
<g id="edge58_Node000026_Node000010" class="edge">
<title>Node26&#45;&gt;Node10</title>
<g id="a_edge58_Node000026_Node000010"><a xlink:title=" ">
<path fill="none" stroke="#63b8ff" d="M1412.98,-55.53C1350.25,-44.28 1247.63,-25.87 1196.2,-16.64"/>
<polygon fill="#63b8ff" stroke="#63b8ff" points="1197.11,-13.25 1186.65,-14.93 1195.87,-20.14 1197.11,-13.25"/>
</a>
</g>
</g>
</g>
</svg>
