<?xml version="1.0" encoding="UTF-8" standalone="no"?>
<!DOCTYPE svg PUBLIC "-//W3C//DTD SVG 1.1//EN"
 "http://www.w3.org/Graphics/SVG/1.1/DTD/svg11.dtd">
<!-- Generated by graphviz version 13.1.2 (20250808.2320)
 -->
<!-- Title: src/Utils/UtilsError.hpp Pages: 1 -->
<!--zoomable 288 -->

<svg id="main" version="1.1" xmlns="http://www.w3.org/2000/svg" xmlns:xlink="http://www.w3.org/1999/xlink" xml:space="preserve" onload="init(evt)">

<style type="text/css"><![CDATA[
.node, .edge {opacity: 0.7;}
.node.selected, .edge.selected {opacity: 1;}
.edge:hover path { stroke: red; }
.edge:hover polygon { stroke: red; fill: red; }
]]></style>

<defs>
  <circle id="rim" cx="0" cy="0" r="7"/>
  <circle id="rim2" cx="0" cy="0" r="3.5"/>
  <g id="zoomPlus">
    <use xlink:href="#rim" fill="#404040"><set attributeName="fill" to="#808080" begin="zoomplus.mouseover" end="zoomplus.mouseout"/></use>
    <path d="M-4,0h8M0,-4v8" fill="none" stroke="white" stroke-width="1.5" pointer-events="none"/>
  </g>
  <g id="zoomMin">
    <use xlink:href="#rim" fill="#404040"><set attributeName="fill" to="#808080" begin="zoomminus.mouseover" end="zoomminus.mouseout"/></use>
    <path d="M-4,0h8" fill="none" stroke="white" stroke-width="1.5" pointer-events="none"/>
  </g>
  <g id="arrowUp" transform="translate(30 24)">
    <use xlink:href="#rim"/>
    <path pointer-events="none" fill="none" stroke="white" stroke-width="1.5" d="M0,-3.0v7 M-2.5,-0.5L0,-3.0L2.5,-0.5"/>
  </g>
  <g id="arrowRight" transform="rotate(90) translate(36 -43)">
    <use xlink:href="#rim"/>
    <path pointer-events="none" fill="none" stroke="white" stroke-width="1.5" d="M0,-3.0v7 M-2.5,-0.5L0,-3.0L2.5,-0.5"/>
  </g>
  <g id="arrowDown" transform="rotate(180) translate(-30 -48)">
    <use xlink:href="#rim"/>
    <path pointer-events="none" fill="none" stroke="white" stroke-width="1.5" d="M0,-3.0v7 M-2.5,-0.5L0,-3.0L2.5,-0.5"/>
  </g>
  <g id="arrowLeft" transform="rotate(270) translate(-36 17)">
    <use xlink:href="#rim"/>
    <path pointer-events="none" fill="none" stroke="white" stroke-width="1.5" d="M0,-3.0v7 M-2.5,-0.5L0,-3.0L2.5,-0.5"/>
  </g>
  <g id="resetDef">
    <use xlink:href="#rim2" fill="#404040"><set attributeName="fill" to="#808080" begin="reset.mouseover" end="reset.mouseout"/></use>
  </g>
</defs>
<script type="application/ecmascript">
var viewWidth = 1868;
var viewHeight = 288;
var sectionId = 'dynsection-1';
</script>
<script type="application/ecmascript" xlink:href="svg.min.js"/>
<svg id="graph" class="graph">
<g id="viewport">
<title>src/Utils/UtilsError.hpp</title>
<!-- Node1 -->
<g id="Node000001" class="node">
<title>Node1</title>
<g id="a_Node000001"><a xlink:title=" ">
<polygon fill="#999999" stroke="#666666" points="842.62,-280 726.88,-280 726.88,-260 842.62,-260 842.62,-280"/>
<text xml:space="preserve" text-anchor="middle" x="784.75" y="-266.5" font-family="Helvetica,sans-Serif" font-size="10.00">src/Utils/UtilsError.hpp</text>
</a>
</g>
</g>
<!-- Node2 -->
<g id="Node000002" class="node">
<title>Node2</title>
<g id="a_Node000002"><a xlink:href="IDirectoryManager_8hpp.html" target="_top" xlink:title=" ">
<polygon fill="white" stroke="#666666" points="563.75,-224 445.75,-224 445.75,-192 563.75,-192 563.75,-224"/>
<text xml:space="preserve" text-anchor="start" x="453.75" y="-210.5" font-family="Helvetica,sans-Serif" font-size="10.00">src/Utils/Filesystem</text>
<text xml:space="preserve" text-anchor="middle" x="504.75" y="-198.5" font-family="Helvetica,sans-Serif" font-size="10.00">/IDirectoryManager.hpp</text>
</a>
</g>
</g>
<!-- Node1&#45;&gt;Node2 -->
<g id="edge1_Node000001_Node000002" class="edge">
<title>Node1&#45;&gt;Node2</title>
<g id="a_edge1_Node000001_Node000002"><a xlink:title=" ">
<path fill="none" stroke="#63b8ff" d="M728.63,-257.21C685.88,-248.21 625.58,-235.43 572.75,-224 569.91,-223.39 567.01,-222.76 564.08,-222.12"/>
<polygon fill="#63b8ff" stroke="#63b8ff" points="727.66,-260.59 738.17,-259.22 729.1,-253.74 727.66,-260.59"/>
</a>
</g>
</g>
<!-- Node10 -->
<g id="Node000010" class="node">
<title>Node10</title>
<g id="a_Node000010"><a xlink:href="IFileReader_8hpp.html" target="_top" xlink:title=" ">
<polygon fill="white" stroke="#666666" points="427.62,-224 323.88,-224 323.88,-192 427.62,-192 427.62,-224"/>
<text xml:space="preserve" text-anchor="start" x="331.88" y="-210.5" font-family="Helvetica,sans-Serif" font-size="10.00">src/Utils/Filesystem</text>
<text xml:space="preserve" text-anchor="middle" x="375.75" y="-198.5" font-family="Helvetica,sans-Serif" font-size="10.00">/IFileReader.hpp</text>
</a>
</g>
</g>
<!-- Node1&#45;&gt;Node10 -->
<g id="edge11_Node000001_Node000010" class="edge">
<title>Node1&#45;&gt;Node10</title>
<g id="a_edge11_Node000001_Node000010"><a xlink:title=" ">
<path fill="none" stroke="#63b8ff" d="M715.18,-262.33C644.67,-255.03 532.61,-241.93 436.75,-224 433.86,-223.46 430.89,-222.86 427.91,-222.24"/>
<polygon fill="#63b8ff" stroke="#63b8ff" points="714.75,-265.81 725.05,-263.34 715.46,-258.84 714.75,-265.81"/>
</a>
</g>
</g>
<!-- Node16 -->
<g id="Node000016" class="node">
<title>Node16</title>
<g id="a_Node000016"><a xlink:href="IFileWriter_8hpp.html" target="_top" xlink:title=" ">
<polygon fill="white" stroke="#666666" points="685.62,-224 581.88,-224 581.88,-192 685.62,-192 685.62,-224"/>
<text xml:space="preserve" text-anchor="start" x="589.88" y="-210.5" font-family="Helvetica,sans-Serif" font-size="10.00">src/Utils/Filesystem</text>
<text xml:space="preserve" text-anchor="middle" x="633.75" y="-198.5" font-family="Helvetica,sans-Serif" font-size="10.00">/IFileWriter.hpp</text>
</a>
</g>
</g>
<!-- Node1&#45;&gt;Node16 -->
<g id="edge20_Node000001_Node000016" class="edge">
<title>Node1&#45;&gt;Node16</title>
<g id="a_edge20_Node000001_Node000016"><a xlink:title=" ">
<path fill="none" stroke="#63b8ff" d="M750.46,-255.38C727.34,-246.19 696.78,-234.05 672.73,-224.49"/>
<polygon fill="#63b8ff" stroke="#63b8ff" points="749.16,-258.63 759.75,-259.07 751.75,-252.12 749.16,-258.63"/>
</a>
</g>
</g>
<!-- Node19 -->
<g id="Node000019" class="node">
<title>Node19</title>
<g id="a_Node000019"><a xlink:href="IPathResolver_8hpp.html" target="_top" xlink:title=" ">
<polygon fill="white" stroke="#666666" points="987.62,-224 883.88,-224 883.88,-192 987.62,-192 987.62,-224"/>
<text xml:space="preserve" text-anchor="start" x="891.88" y="-210.5" font-family="Helvetica,sans-Serif" font-size="10.00">src/Utils/Filesystem</text>
<text xml:space="preserve" text-anchor="middle" x="935.75" y="-198.5" font-family="Helvetica,sans-Serif" font-size="10.00">/IPathResolver.hpp</text>
</a>
</g>
</g>
<!-- Node1&#45;&gt;Node19 -->
<g id="edge26_Node000001_Node000019" class="edge">
<title>Node1&#45;&gt;Node19</title>
<g id="a_edge26_Node000001_Node000019"><a xlink:title=" ">
<path fill="none" stroke="#63b8ff" d="M819.04,-255.38C842.16,-246.19 872.72,-234.05 896.77,-224.49"/>
<polygon fill="#63b8ff" stroke="#63b8ff" points="817.75,-252.12 809.75,-259.07 820.34,-258.63 817.75,-252.12"/>
</a>
</g>
</g>
<!-- Node22 -->
<g id="Node000022" class="node">
<title>Node22</title>
<g id="a_Node000022"><a xlink:href="ICustomStringsLoader_8hpp.html" target="_top" xlink:title=" ">
<polygon fill="white" stroke="#666666" points="1153.75,-224 1005.75,-224 1005.75,-192 1153.75,-192 1153.75,-224"/>
<text xml:space="preserve" text-anchor="start" x="1013.75" y="-210.5" font-family="Helvetica,sans-Serif" font-size="10.00">src/Utils/Json/ICustomStrings</text>
<text xml:space="preserve" text-anchor="middle" x="1079.75" y="-198.5" font-family="Helvetica,sans-Serif" font-size="10.00">Loader.hpp</text>
</a>
</g>
</g>
<!-- Node1&#45;&gt;Node22 -->
<g id="edge31_Node000001_Node000022" class="edge">
<title>Node1&#45;&gt;Node22</title>
<g id="a_edge31_Node000001_Node000022"><a xlink:title=" ">
<path fill="none" stroke="#63b8ff" d="M842.28,-257.3C888.89,-247.82 954.88,-234.4 1005.48,-224.11"/>
<polygon fill="#63b8ff" stroke="#63b8ff" points="841.75,-253.83 832.65,-259.26 843.15,-260.69 841.75,-253.83"/>
</a>
</g>
</g>
<!-- Node25 -->
<g id="Node000025" class="node">
<title>Node25</title>
<g id="a_Node000025"><a xlink:href="IJsonSerializer_8hpp.html" target="_top" xlink:title=" ">
<polygon fill="white" stroke="#666666" points="866.25,-218 703.25,-218 703.25,-198 866.25,-198 866.25,-218"/>
<text xml:space="preserve" text-anchor="middle" x="784.75" y="-204.5" font-family="Helvetica,sans-Serif" font-size="10.00">src/Utils/Json/IJsonSerializer.hpp</text>
</a>
</g>
</g>
<!-- Node1&#45;&gt;Node25 -->
<g id="edge36_Node000001_Node000025" class="edge">
<title>Node1&#45;&gt;Node25</title>
<g id="a_edge36_Node000001_Node000025"><a xlink:title=" ">
<path fill="none" stroke="#63b8ff" d="M784.75,-248.25C784.75,-237.97 784.75,-226.09 784.75,-218.11"/>
<polygon fill="#63b8ff" stroke="#63b8ff" points="781.25,-248.11 784.75,-258.11 788.25,-248.11 781.25,-248.11"/>
</a>
</g>
</g>
<!-- Node26 -->
<g id="Node000026" class="node">
<title>Node26</title>
<g id="a_Node000026"><a xlink:href="IPlatformInfo_8hpp.html" target="_top" xlink:title=" ">
<polygon fill="white" stroke="#666666" points="1312.75,-224 1218.75,-224 1218.75,-192 1312.75,-192 1312.75,-224"/>
<text xml:space="preserve" text-anchor="start" x="1226.75" y="-210.5" font-family="Helvetica,sans-Serif" font-size="10.00">src/Utils/Platform</text>
<text xml:space="preserve" text-anchor="middle" x="1265.75" y="-198.5" font-family="Helvetica,sans-Serif" font-size="10.00">/IPlatformInfo.hpp</text>
</a>
</g>
</g>
<!-- Node1&#45;&gt;Node26 -->
<g id="edge40_Node000001_Node000026" class="edge">
<title>Node1&#45;&gt;Node26</title>
<g id="a_edge40_Node000001_Node000026"><a xlink:title=" ">
<path fill="none" stroke="#63b8ff" d="M854.38,-261.26C930.27,-252.7 1055.25,-238.22 1162.75,-224 1180.93,-221.59 1200.89,-218.74 1218.35,-216.17"/>
<polygon fill="#63b8ff" stroke="#63b8ff" points="854.14,-257.77 844.59,-262.36 854.92,-264.72 854.14,-257.77"/>
</a>
</g>
</g>
<!-- Node3 -->
<g id="Node000003" class="node">
<title>Node3</title>
<g id="a_Node000003"><a xlink:href="DirectoryManager_8hpp.html" target="_top" xlink:title=" ">
<polygon fill="white" stroke="#666666" points="418.25,-156 303.25,-156 303.25,-124 418.25,-124 418.25,-156"/>
<text xml:space="preserve" text-anchor="start" x="311.25" y="-142.5" font-family="Helvetica,sans-Serif" font-size="10.00">src/Utils/Filesystem</text>
<text xml:space="preserve" text-anchor="middle" x="360.75" y="-130.5" font-family="Helvetica,sans-Serif" font-size="10.00">/DirectoryManager.hpp</text>
</a>
</g>
</g>
<!-- Node2&#45;&gt;Node3 -->
<g id="edge2_Node000002_Node000003" class="edge">
<title>Node2&#45;&gt;Node3</title>
<g id="a_edge2_Node000002_Node000003"><a xlink:title=" ">
<path fill="none" stroke="#63b8ff" d="M460.55,-186.74C439.21,-176.96 414.03,-165.42 394.3,-156.38"/>
<polygon fill="#63b8ff" stroke="#63b8ff" points="459.06,-189.91 469.61,-190.9 461.98,-183.55 459.06,-189.91"/>
</a>
</g>
</g>
<!-- Node6 -->
<g id="Node000006" class="node">
<title>Node6</title>
<g id="a_Node000006"><a xlink:href="UtilsFactory_8hpp.html" target="_top" xlink:title=" ">
<polygon fill="white" stroke="#666666" points="863.25,-150 736.25,-150 736.25,-130 863.25,-130 863.25,-150"/>
<text xml:space="preserve" text-anchor="middle" x="799.75" y="-136.5" font-family="Helvetica,sans-Serif" font-size="10.00">src/Utils/UtilsFactory.hpp</text>
</a>
</g>
</g>
<!-- Node2&#45;&gt;Node6 -->
<g id="edge5_Node000002_Node000006" class="edge">
<title>Node2&#45;&gt;Node6</title>
<g id="a_edge5_Node000002_Node000006"><a xlink:title=" ">
<path fill="none" stroke="#63b8ff" d="M575.16,-191.25C632.02,-178.53 710.12,-161.05 757.65,-150.42"/>
<polygon fill="#63b8ff" stroke="#63b8ff" points="574.56,-187.79 565.57,-193.39 576.09,-194.63 574.56,-187.79"/>
</a>
</g>
</g>
<!-- Node4 -->
<g id="Node000004" class="node">
<title>Node4</title>
<g id="a_Node000004"><a xlink:href="DirectoryManager_8cpp.html" target="_top" xlink:title=" ">
<polygon fill="white" stroke="#666666" points="392.25,-88 277.25,-88 277.25,-56 392.25,-56 392.25,-88"/>
<text xml:space="preserve" text-anchor="start" x="285.25" y="-74.5" font-family="Helvetica,sans-Serif" font-size="10.00">src/Utils/Filesystem</text>
<text xml:space="preserve" text-anchor="middle" x="334.75" y="-62.5" font-family="Helvetica,sans-Serif" font-size="10.00">/DirectoryManager.cpp</text>
</a>
</g>
</g>
<!-- Node3&#45;&gt;Node4 -->
<g id="edge3_Node000003_Node000004" class="edge">
<title>Node3&#45;&gt;Node4</title>
<g id="a_edge3_Node000003_Node000004"><a xlink:title=" ">
<path fill="none" stroke="#63b8ff" d="M350.57,-113.17C347.25,-104.73 343.66,-95.63 340.75,-88.22"/>
<polygon fill="#63b8ff" stroke="#63b8ff" points="347.24,-114.26 354.16,-122.28 353.76,-111.7 347.24,-114.26"/>
</a>
</g>
</g>
<!-- Node5 -->
<g id="Node000005" class="node">
<title>Node5</title>
<g id="a_Node000005"><a xlink:href="UtilsFactory_8cpp.html" target="_top" xlink:title=" ">
<polygon fill="white" stroke="#666666" points="997.25,-82 870.25,-82 870.25,-62 997.25,-62 997.25,-82"/>
<text xml:space="preserve" text-anchor="middle" x="933.75" y="-68.5" font-family="Helvetica,sans-Serif" font-size="10.00">src/Utils/UtilsFactory.cpp</text>
</a>
</g>
</g>
<!-- Node3&#45;&gt;Node5 -->
<g id="edge4_Node000003_Node000005" class="edge">
<title>Node3&#45;&gt;Node5</title>
<g id="a_edge4_Node000003_Node000005"><a xlink:title=" ">
<path fill="none" stroke="#63b8ff" d="M429.84,-123.66C620.04,-95.26 672.81,-115 860.75,-88 871,-86.53 881.97,-84.51 892.21,-82.43"/>
<polygon fill="#63b8ff" stroke="#63b8ff" points="429.47,-120.17 420.11,-125.14 430.52,-127.09 429.47,-120.17"/>
</a>
</g>
</g>
<!-- Node6&#45;&gt;Node5 -->
<g id="edge10_Node000006_Node000005" class="edge">
<title>Node6&#45;&gt;Node5</title>
<g id="a_edge10_Node000006_Node000005"><a xlink:title=" ">
<path fill="none" stroke="#63b8ff" d="M828.98,-124.6C854.97,-111.8 892.21,-93.46 914.59,-82.44"/>
<polygon fill="#63b8ff" stroke="#63b8ff" points="827.73,-121.32 820.31,-128.88 830.82,-127.6 827.73,-121.32"/>
</a>
</g>
</g>
<!-- Node7 -->
<g id="Node000007" class="node">
<title>Node7</title>
<g id="a_Node000007"><a xlink:href="Application_8cpp.html" target="_top" xlink:title=" ">
<polygon fill="white" stroke="#666666" points="794.12,-20 645.38,-20 645.38,0 794.12,0 794.12,-20"/>
<text xml:space="preserve" text-anchor="middle" x="719.75" y="-6.5" font-family="Helvetica,sans-Serif" font-size="10.00">application/src/Application.cpp</text>
</a>
</g>
</g>
<!-- Node6&#45;&gt;Node7 -->
<g id="edge6_Node000006_Node000007" class="edge">
<title>Node6&#45;&gt;Node7</title>
<g id="a_edge6_Node000006_Node000007"><a xlink:title=" ">
<path fill="none" stroke="#63b8ff" d="M774.05,-123.17C761.64,-114.28 747.58,-102.14 738.75,-88 725.19,-66.28 721.3,-35.47 720.19,-20.25"/>
<polygon fill="#63b8ff" stroke="#63b8ff" points="772.01,-126.02 782.25,-128.73 775.93,-120.22 772.01,-126.02"/>
</a>
</g>
</g>
<!-- Node8 -->
<g id="Node000008" class="node">
<title>Node8</title>
<g id="a_Node000008"><a xlink:href="DotNameLib_8hpp.html" target="_top" xlink:title=" ">
<polygon fill="white" stroke="#666666" points="852,-88 747.5,-88 747.5,-56 852,-56 852,-88"/>
<text xml:space="preserve" text-anchor="start" x="755.5" y="-74.5" font-family="Helvetica,sans-Serif" font-size="10.00">include/DotNameLib</text>
<text xml:space="preserve" text-anchor="middle" x="799.75" y="-62.5" font-family="Helvetica,sans-Serif" font-size="10.00">/DotNameLib.hpp</text>
</a>
</g>
</g>
<!-- Node6&#45;&gt;Node8 -->
<g id="edge7_Node000006_Node000008" class="edge">
<title>Node6&#45;&gt;Node8</title>
<g id="a_edge7_Node000006_Node000008"><a xlink:title=" ">
<path fill="none" stroke="#63b8ff" d="M799.75,-118.1C799.75,-108.43 799.75,-97.16 799.75,-88.3"/>
<polygon fill="#63b8ff" stroke="#63b8ff" points="796.25,-118.03 799.75,-128.03 803.25,-118.03 796.25,-118.03"/>
</a>
</g>
</g>
<!-- Node8&#45;&gt;Node7 -->
<g id="edge8_Node000008_Node000007" class="edge">
<title>Node8&#45;&gt;Node7</title>
<g id="a_edge8_Node000008_Node000007"><a xlink:title=" ">
<path fill="none" stroke="#63b8ff" d="M770.02,-48.7C756.98,-38.92 742.39,-27.98 732.29,-20.41"/>
<polygon fill="#63b8ff" stroke="#63b8ff" points="767.84,-51.44 777.94,-54.64 772.04,-45.84 767.84,-51.44"/>
</a>
</g>
</g>
<!-- Node9 -->
<g id="Node000009" class="node">
<title>Node9</title>
<g id="a_Node000009"><a xlink:href="DotNameLib_8cpp.html" target="_top" xlink:title=" ">
<polygon fill="white" stroke="#666666" points="917.75,-20 811.75,-20 811.75,0 917.75,0 917.75,-20"/>
<text xml:space="preserve" text-anchor="middle" x="864.75" y="-6.5" font-family="Helvetica,sans-Serif" font-size="10.00">src/DotNameLib.cpp</text>
</a>
</g>
</g>
<!-- Node8&#45;&gt;Node9 -->
<g id="edge9_Node000008_Node000009" class="edge">
<title>Node8&#45;&gt;Node9</title>
<g id="a_edge9_Node000008_Node000009"><a xlink:title=" ">
<path fill="none" stroke="#63b8ff" d="M824.84,-47.84C835.19,-38.29 846.6,-27.76 854.56,-20.41"/>
<polygon fill="#63b8ff" stroke="#63b8ff" points="822.58,-45.17 817.6,-54.52 827.32,-50.31 822.58,-45.17"/>
</a>
</g>
</g>
<!-- Node10&#45;&gt;Node6 -->
<g id="edge19_Node000010_Node000006" class="edge">
<title>Node10&#45;&gt;Node6</title>
<g id="a_edge19_Node000010_Node000006"><a xlink:title=" ">
<path fill="none" stroke="#63b8ff" d="M438.88,-191.75C566.41,-168.9 602.1,-176.51 726.75,-156 736.45,-154.4 746.83,-152.43 756.62,-150.45"/>
<polygon fill="#63b8ff" stroke="#63b8ff" points="438.61,-188.24 429.4,-193.48 439.86,-195.13 438.61,-188.24"/>
</a>
</g>
</g>
<!-- Node11 -->
<g id="Node000011" class="node">
<title>Node11</title>
<g id="a_Node000011"><a xlink:href="FileReader_8hpp.html" target="_top" xlink:title=" ">
<polygon fill="white" stroke="#666666" points="272.62,-156 168.88,-156 168.88,-124 272.62,-124 272.62,-156"/>
<text xml:space="preserve" text-anchor="start" x="176.88" y="-142.5" font-family="Helvetica,sans-Serif" font-size="10.00">src/Utils/Filesystem</text>
<text xml:space="preserve" text-anchor="middle" x="220.75" y="-130.5" font-family="Helvetica,sans-Serif" font-size="10.00">/FileReader.hpp</text>
</a>
</g>
</g>
<!-- Node10&#45;&gt;Node11 -->
<g id="edge12_Node000010_Node000011" class="edge">
<title>Node10&#45;&gt;Node11</title>
<g id="a_edge12_Node000010_Node000011"><a xlink:title=" ">
<path fill="none" stroke="#63b8ff" d="M328.84,-187.03C305.83,-177.23 278.54,-165.61 257.13,-156.49"/>
<polygon fill="#63b8ff" stroke="#63b8ff" points="327.44,-190.24 338.02,-190.93 330.19,-183.79 327.44,-190.24"/>
</a>
</g>
</g>
<!-- Node14 -->
<g id="Node000014" class="node">
<title>Node14</title>
<g id="a_Node000014"><a xlink:href="JsonSerializer_8hpp.html" target="_top" xlink:title=" ">
<polygon fill="white" stroke="#666666" points="717.75,-150 557.75,-150 557.75,-130 717.75,-130 717.75,-150"/>
<text xml:space="preserve" text-anchor="middle" x="637.75" y="-136.5" font-family="Helvetica,sans-Serif" font-size="10.00">src/Utils/Json/JsonSerializer.hpp</text>
</a>
</g>
</g>
<!-- Node10&#45;&gt;Node14 -->
<g id="edge16_Node000010_Node000014" class="edge">
<title>Node10&#45;&gt;Node14</title>
<g id="a_edge16_Node000010_Node000014"><a xlink:title=" ">
<path fill="none" stroke="#63b8ff" d="M438.92,-191.09C489.28,-178.4 558.12,-161.06 600.17,-150.47"/>
<polygon fill="#63b8ff" stroke="#63b8ff" points="438.14,-187.68 429.29,-193.51 439.85,-194.46 438.14,-187.68"/>
</a>
</g>
</g>
<!-- Node11&#45;&gt;Node5 -->
<g id="edge15_Node000011_Node000005" class="edge">
<title>Node11&#45;&gt;Node5</title>
<g id="a_edge15_Node000011_Node000005"><a xlink:title=" ">
<path fill="none" stroke="#63b8ff" d="M283.83,-125.61C287.52,-125.02 291.18,-124.47 294.75,-124 544.63,-90.89 610.92,-121.45 860.75,-88 871.14,-86.61 882.26,-84.6 892.61,-82.5"/>
<polygon fill="#63b8ff" stroke="#63b8ff" points="283.5,-122.12 274.24,-127.27 284.69,-129.02 283.5,-122.12"/>
</a>
</g>
</g>
<!-- Node12 -->
<g id="Node000012" class="node">
<title>Node12</title>
<g id="a_Node000012"><a xlink:href="FileReaderTest_8cpp.html" target="_top" xlink:title=" ">
<polygon fill="white" stroke="#666666" points="137.5,-88 0,-88 0,-56 137.5,-56 137.5,-88"/>
<text xml:space="preserve" text-anchor="start" x="8" y="-74.5" font-family="Helvetica,sans-Serif" font-size="10.00">application/tests/FileReader</text>
<text xml:space="preserve" text-anchor="middle" x="68.75" y="-62.5" font-family="Helvetica,sans-Serif" font-size="10.00">Test.cpp</text>
</a>
</g>
</g>
<!-- Node11&#45;&gt;Node12 -->
<g id="edge13_Node000011_Node000012" class="edge">
<title>Node11&#45;&gt;Node12</title>
<g id="a_edge13_Node000011_Node000012"><a xlink:title=" ">
<path fill="none" stroke="#63b8ff" d="M174.75,-119.03C152.18,-109.23 125.42,-97.61 104.43,-88.49"/>
<polygon fill="#63b8ff" stroke="#63b8ff" points="173.16,-122.15 183.72,-122.92 175.95,-115.73 173.16,-122.15"/>
</a>
</g>
</g>
<!-- Node13 -->
<g id="Node000013" class="node">
<title>Node13</title>
<g id="a_Node000013"><a xlink:href="FileReader_8cpp.html" target="_top" xlink:title=" ">
<polygon fill="white" stroke="#666666" points="259.62,-88 155.88,-88 155.88,-56 259.62,-56 259.62,-88"/>
<text xml:space="preserve" text-anchor="start" x="163.88" y="-74.5" font-family="Helvetica,sans-Serif" font-size="10.00">src/Utils/Filesystem</text>
<text xml:space="preserve" text-anchor="middle" x="207.75" y="-62.5" font-family="Helvetica,sans-Serif" font-size="10.00">/FileReader.cpp</text>
</a>
</g>
</g>
<!-- Node11&#45;&gt;Node13 -->
<g id="edge14_Node000011_Node000013" class="edge">
<title>Node11&#45;&gt;Node13</title>
<g id="a_edge14_Node000011_Node000013"><a xlink:title=" ">
<path fill="none" stroke="#63b8ff" d="M215.55,-112.6C213.92,-104.32 212.17,-95.46 210.75,-88.22"/>
<polygon fill="#63b8ff" stroke="#63b8ff" points="212.08,-113.07 217.44,-122.21 218.94,-111.72 212.08,-113.07"/>
</a>
</g>
</g>
<!-- Node14&#45;&gt;Node5 -->
<g id="edge18_Node000014_Node000005" class="edge">
<title>Node14&#45;&gt;Node5</title>
<g id="a_edge18_Node000014_Node000005"><a xlink:title=" ">
<path fill="none" stroke="#63b8ff" d="M691.19,-127.08C748.61,-114.28 838.7,-94.19 891.42,-82.44"/>
<polygon fill="#63b8ff" stroke="#63b8ff" points="690.64,-123.62 681.64,-129.21 692.16,-130.45 690.64,-123.62"/>
</a>
</g>
</g>
<!-- Node15 -->
<g id="Node000015" class="node">
<title>Node15</title>
<g id="a_Node000015"><a xlink:href="JsonSerializer_8cpp.html" target="_top" xlink:title=" ">
<polygon fill="white" stroke="#666666" points="691.75,-82 531.75,-82 531.75,-62 691.75,-62 691.75,-82"/>
<text xml:space="preserve" text-anchor="middle" x="611.75" y="-68.5" font-family="Helvetica,sans-Serif" font-size="10.00">src/Utils/Json/JsonSerializer.cpp</text>
</a>
</g>
</g>
<!-- Node14&#45;&gt;Node15 -->
<g id="edge17_Node000014_Node000015" class="edge">
<title>Node14&#45;&gt;Node15</title>
<g id="a_edge17_Node000014_Node000015"><a xlink:title=" ">
<path fill="none" stroke="#63b8ff" d="M629.88,-119.03C625.1,-106.89 619.21,-91.94 615.47,-82.44"/>
<polygon fill="#63b8ff" stroke="#63b8ff" points="626.55,-120.11 633.47,-128.14 633.06,-117.55 626.55,-120.11"/>
</a>
</g>
</g>
<!-- Node16&#45;&gt;Node6 -->
<g id="edge25_Node000016_Node000006" class="edge">
<title>Node16&#45;&gt;Node6</title>
<g id="a_edge25_Node000016_Node000006"><a xlink:title=" ">
<path fill="none" stroke="#63b8ff" d="M683.17,-187.35C713.83,-175.16 751.85,-160.05 775.96,-150.46"/>
<polygon fill="#63b8ff" stroke="#63b8ff" points="682.08,-184.02 674.08,-190.97 684.66,-190.52 682.08,-184.02"/>
</a>
</g>
</g>
<!-- Node16&#45;&gt;Node14 -->
<g id="edge24_Node000016_Node000014" class="edge">
<title>Node16&#45;&gt;Node14</title>
<g id="a_edge24_Node000016_Node000014"><a xlink:title=" ">
<path fill="none" stroke="#63b8ff" d="M635.37,-180.31C636.01,-169.67 636.71,-158.13 637.19,-150.32"/>
<polygon fill="#63b8ff" stroke="#63b8ff" points="631.88,-179.99 634.77,-190.18 638.87,-180.41 631.88,-179.99"/>
</a>
</g>
</g>
<!-- Node17 -->
<g id="Node000017" class="node">
<title>Node17</title>
<g id="a_Node000017"><a xlink:href="FileWriter_8hpp.html" target="_top" xlink:title=" ">
<polygon fill="white" stroke="#666666" points="539.62,-156 435.88,-156 435.88,-124 539.62,-124 539.62,-156"/>
<text xml:space="preserve" text-anchor="start" x="443.88" y="-142.5" font-family="Helvetica,sans-Serif" font-size="10.00">src/Utils/Filesystem</text>
<text xml:space="preserve" text-anchor="middle" x="487.75" y="-130.5" font-family="Helvetica,sans-Serif" font-size="10.00">/FileWriter.hpp</text>
</a>
</g>
</g>
<!-- Node16&#45;&gt;Node17 -->
<g id="edge21_Node000016_Node000017" class="edge">
<title>Node16&#45;&gt;Node17</title>
<g id="a_edge21_Node000016_Node000017"><a xlink:title=" ">
<path fill="none" stroke="#63b8ff" d="M589.27,-186.89C567.66,-177.12 542.09,-165.56 522.02,-156.49"/>
<polygon fill="#63b8ff" stroke="#63b8ff" points="587.59,-189.97 598.14,-190.9 590.47,-183.59 587.59,-189.97"/>
</a>
</g>
</g>
<!-- Node17&#45;&gt;Node5 -->
<g id="edge23_Node000017_Node000005" class="edge">
<title>Node17&#45;&gt;Node5</title>
<g id="a_edge23_Node000017_Node000005"><a xlink:title=" ">
<path fill="none" stroke="#63b8ff" d="M550.83,-123.77C688.06,-99.81 726.42,-109.51 860.75,-88 870.59,-86.42 881.11,-84.44 891.02,-82.43"/>
<polygon fill="#63b8ff" stroke="#63b8ff" points="550.62,-120.26 541.39,-125.45 551.85,-127.15 550.62,-120.26"/>
</a>
</g>
</g>
<!-- Node18 -->
<g id="Node000018" class="node">
<title>Node18</title>
<g id="a_Node000018"><a xlink:href="FileWriter_8cpp.html" target="_top" xlink:title=" ">
<polygon fill="white" stroke="#666666" points="513.62,-88 409.88,-88 409.88,-56 513.62,-56 513.62,-88"/>
<text xml:space="preserve" text-anchor="start" x="417.88" y="-74.5" font-family="Helvetica,sans-Serif" font-size="10.00">src/Utils/Filesystem</text>
<text xml:space="preserve" text-anchor="middle" x="461.75" y="-62.5" font-family="Helvetica,sans-Serif" font-size="10.00">/FileWriter.cpp</text>
</a>
</g>
</g>
<!-- Node17&#45;&gt;Node18 -->
<g id="edge22_Node000017_Node000018" class="edge">
<title>Node17&#45;&gt;Node18</title>
<g id="a_edge22_Node000017_Node000018"><a xlink:title=" ">
<path fill="none" stroke="#63b8ff" d="M477.57,-113.17C474.25,-104.73 470.66,-95.63 467.75,-88.22"/>
<polygon fill="#63b8ff" stroke="#63b8ff" points="474.24,-114.26 481.16,-122.28 480.76,-111.7 474.24,-114.26"/>
</a>
</g>
</g>
<!-- Node19&#45;&gt;Node6 -->
<g id="edge30_Node000019_Node000006" class="edge">
<title>Node19&#45;&gt;Node6</title>
<g id="a_edge30_Node000019_Node000006"><a xlink:title=" ">
<path fill="none" stroke="#63b8ff" d="M893.6,-186.55C868.78,-174.5 838.56,-159.84 819.24,-150.46"/>
<polygon fill="#63b8ff" stroke="#63b8ff" points="891.98,-189.65 902.5,-190.87 895.03,-183.35 891.98,-189.65"/>
</a>
</g>
</g>
<!-- Node20 -->
<g id="Node000020" class="node">
<title>Node20</title>
<g id="a_Node000020"><a xlink:href="PathResolver_8hpp.html" target="_top" xlink:title=" ">
<polygon fill="white" stroke="#666666" points="984.62,-156 880.88,-156 880.88,-124 984.62,-124 984.62,-156"/>
<text xml:space="preserve" text-anchor="start" x="888.88" y="-142.5" font-family="Helvetica,sans-Serif" font-size="10.00">src/Utils/Filesystem</text>
<text xml:space="preserve" text-anchor="middle" x="932.75" y="-130.5" font-family="Helvetica,sans-Serif" font-size="10.00">/PathResolver.hpp</text>
</a>
</g>
</g>
<!-- Node19&#45;&gt;Node20 -->
<g id="edge27_Node000019_Node000020" class="edge">
<title>Node19&#45;&gt;Node20</title>
<g id="a_edge27_Node000019_Node000020"><a xlink:title=" ">
<path fill="none" stroke="#63b8ff" d="M934.54,-180.31C934.16,-172.12 933.77,-163.38 933.44,-156.22"/>
<polygon fill="#63b8ff" stroke="#63b8ff" points="931.03,-180.35 934.99,-190.18 938.03,-180.03 931.03,-180.35"/>
</a>
</g>
</g>
<!-- Node20&#45;&gt;Node5 -->
<g id="edge29_Node000020_Node000005" class="edge">
<title>Node20&#45;&gt;Node5</title>
<g id="a_edge29_Node000020_Node000005"><a xlink:title=" ">
<path fill="none" stroke="#63b8ff" d="M933.15,-112.31C933.32,-101.67 933.49,-90.13 933.61,-82.32"/>
<polygon fill="#63b8ff" stroke="#63b8ff" points="929.66,-112.13 933,-122.18 936.66,-112.23 929.66,-112.13"/>
</a>
</g>
</g>
<!-- Node21 -->
<g id="Node000021" class="node">
<title>Node21</title>
<g id="a_Node000021"><a xlink:href="PathResolver_8cpp.html" target="_top" xlink:title=" ">
<polygon fill="white" stroke="#666666" points="1118.62,-88 1014.88,-88 1014.88,-56 1118.62,-56 1118.62,-88"/>
<text xml:space="preserve" text-anchor="start" x="1022.88" y="-74.5" font-family="Helvetica,sans-Serif" font-size="10.00">src/Utils/Filesystem</text>
<text xml:space="preserve" text-anchor="middle" x="1066.75" y="-62.5" font-family="Helvetica,sans-Serif" font-size="10.00">/PathResolver.cpp</text>
</a>
</g>
</g>
<!-- Node20&#45;&gt;Node21 -->
<g id="edge28_Node000020_Node000021" class="edge">
<title>Node20&#45;&gt;Node21</title>
<g id="a_edge28_Node000020_Node000021"><a xlink:title=" ">
<path fill="none" stroke="#63b8ff" d="M974.43,-118.47C994.16,-108.75 1017.34,-97.34 1035.53,-88.38"/>
<polygon fill="#63b8ff" stroke="#63b8ff" points="972.95,-115.3 965.52,-122.86 976.04,-121.58 972.95,-115.3"/>
</a>
</g>
</g>
<!-- Node22&#45;&gt;Node6 -->
<g id="edge35_Node000022_Node000006" class="edge">
<title>Node22&#45;&gt;Node6</title>
<g id="a_edge35_Node000022_Node000006"><a xlink:title=" ">
<path fill="none" stroke="#63b8ff" d="M1003.09,-188.93C950.31,-176.49 882.33,-160.46 839.88,-150.46"/>
<polygon fill="#63b8ff" stroke="#63b8ff" points="1002.09,-192.29 1012.63,-191.18 1003.7,-185.48 1002.09,-192.29"/>
</a>
</g>
</g>
<!-- Node23 -->
<g id="Node000023" class="node">
<title>Node23</title>
<g id="a_Node000023"><a xlink:href="CustomStringsLoader_8hpp.html" target="_top" xlink:title=" ">
<polygon fill="white" stroke="#666666" points="1147.25,-156 1002.25,-156 1002.25,-124 1147.25,-124 1147.25,-156"/>
<text xml:space="preserve" text-anchor="start" x="1010.25" y="-142.5" font-family="Helvetica,sans-Serif" font-size="10.00">src/Utils/Json/CustomStrings</text>
<text xml:space="preserve" text-anchor="middle" x="1074.75" y="-130.5" font-family="Helvetica,sans-Serif" font-size="10.00">Loader.hpp</text>
</a>
</g>
</g>
<!-- Node22&#45;&gt;Node23 -->
<g id="edge32_Node000022_Node000023" class="edge">
<title>Node22&#45;&gt;Node23</title>
<g id="a_edge32_Node000022_Node000023"><a xlink:title=" ">
<path fill="none" stroke="#63b8ff" d="M1077.73,-180.31C1077.11,-172.12 1076.45,-163.38 1075.9,-156.22"/>
<polygon fill="#63b8ff" stroke="#63b8ff" points="1074.23,-180.48 1078.48,-190.18 1081.21,-179.95 1074.23,-180.48"/>
</a>
</g>
</g>
<!-- Node23&#45;&gt;Node5 -->
<g id="edge34_Node000023_Node000005" class="edge">
<title>Node23&#45;&gt;Node5</title>
<g id="a_edge34_Node000023_Node000005"><a xlink:title=" ">
<path fill="none" stroke="#63b8ff" d="M1031.4,-118.71C1005.6,-106.63 974.08,-91.88 953.96,-82.46"/>
<polygon fill="#63b8ff" stroke="#63b8ff" points="1029.78,-121.81 1040.32,-122.88 1032.75,-115.47 1029.78,-121.81"/>
</a>
</g>
</g>
<!-- Node24 -->
<g id="Node000024" class="node">
<title>Node24</title>
<g id="a_Node000024"><a xlink:href="CustomStringsLoader_8cpp.html" target="_top" xlink:title=" ">
<polygon fill="white" stroke="#666666" points="1281.25,-88 1136.25,-88 1136.25,-56 1281.25,-56 1281.25,-88"/>
<text xml:space="preserve" text-anchor="start" x="1144.25" y="-74.5" font-family="Helvetica,sans-Serif" font-size="10.00">src/Utils/Json/CustomStrings</text>
<text xml:space="preserve" text-anchor="middle" x="1208.75" y="-62.5" font-family="Helvetica,sans-Serif" font-size="10.00">Loader.cpp</text>
</a>
</g>
</g>
<!-- Node23&#45;&gt;Node24 -->
<g id="edge33_Node000023_Node000024" class="edge">
<title>Node23&#45;&gt;Node24</title>
<g id="a_edge33_Node000023_Node000024"><a xlink:title=" ">
<path fill="none" stroke="#63b8ff" d="M1116.43,-118.47C1136.16,-108.75 1159.34,-97.34 1177.53,-88.38"/>
<polygon fill="#63b8ff" stroke="#63b8ff" points="1114.95,-115.3 1107.52,-122.86 1118.04,-121.58 1114.95,-115.3"/>
</a>
</g>
</g>
<!-- Node25&#45;&gt;Node6 -->
<g id="edge39_Node000025_Node000006" class="edge">
<title>Node25&#45;&gt;Node6</title>
<g id="a_edge39_Node000025_Node000006"><a xlink:title=" ">
<path fill="none" stroke="#63b8ff" d="M789.37,-186.65C792.12,-174.58 795.47,-159.84 797.6,-150.44"/>
<polygon fill="#63b8ff" stroke="#63b8ff" points="786.04,-185.54 787.23,-196.07 792.86,-187.09 786.04,-185.54"/>
</a>
</g>
</g>
<!-- Node25&#45;&gt;Node14 -->
<g id="edge38_Node000025_Node000014" class="edge">
<title>Node25&#45;&gt;Node14</title>
<g id="a_edge38_Node000025_Node000014"><a xlink:title=" ">
<path fill="none" stroke="#63b8ff" d="M753.44,-192.94C724.9,-180.13 683.53,-161.56 658.77,-150.44"/>
<polygon fill="#63b8ff" stroke="#63b8ff" points="751.75,-196.02 762.31,-196.92 754.62,-189.63 751.75,-196.02"/>
</a>
</g>
</g>
<!-- Node25&#45;&gt;Node23 -->
<g id="edge37_Node000025_Node000023" class="edge">
<title>Node25&#45;&gt;Node23</title>
<g id="a_edge37_Node000025_Node000023"><a xlink:title=" ">
<path fill="none" stroke="#63b8ff" d="M837.26,-195.05C884.73,-184.24 954.92,-168.27 1006.68,-156.49"/>
<polygon fill="#63b8ff" stroke="#63b8ff" points="836.75,-191.58 827.78,-197.21 838.3,-198.4 836.75,-191.58"/>
</a>
</g>
</g>
<!-- Node26&#45;&gt;Node5 -->
<g id="edge53_Node000026_Node000005" class="edge">
<title>Node26&#45;&gt;Node5</title>
<g id="a_edge53_Node000026_Node000005"><a xlink:title=" ">
<path fill="none" stroke="#63b8ff" d="M1234.26,-185.16C1221.8,-176.32 1207.44,-165.88 1194.75,-156 1177.33,-142.44 1176.51,-133.85 1156.75,-124 1148.7,-119.99 1040.26,-96.09 977.63,-82.48"/>
<polygon fill="#63b8ff" stroke="#63b8ff" points="1231.93,-187.81 1242.12,-190.71 1235.97,-182.09 1231.93,-187.81"/>
</a>
</g>
</g>
<!-- Node26&#45;&gt;Node6 -->
<g id="edge54_Node000026_Node000006" class="edge">
<title>Node26&#45;&gt;Node6</title>
<g id="a_edge54_Node000026_Node000006"><a xlink:title=" ">
<path fill="none" stroke="#63b8ff" d="M1207,-198.22C1192.54,-196.12 1177.09,-193.93 1162.75,-192 1033.6,-174.61 1000.32,-177.31 871.75,-156 862.18,-154.41 851.94,-152.45 842.28,-150.47"/>
<polygon fill="#63b8ff" stroke="#63b8ff" points="1206.45,-201.68 1216.85,-199.66 1207.46,-194.75 1206.45,-201.68"/>
</a>
</g>
</g>
<!-- Node27 -->
<g id="Node000027" class="node">
<title>Node27</title>
<g id="a_Node000027"><a xlink:href="EmscriptenPlatformInfo_8hpp.html" target="_top" xlink:title=" ">
<polygon fill="white" stroke="#666666" points="1486,-156 1345.5,-156 1345.5,-124 1486,-124 1486,-156"/>
<text xml:space="preserve" text-anchor="start" x="1353.5" y="-142.5" font-family="Helvetica,sans-Serif" font-size="10.00">src/Utils/Platform</text>
<text xml:space="preserve" text-anchor="middle" x="1415.75" y="-130.5" font-family="Helvetica,sans-Serif" font-size="10.00">/EmscriptenPlatformInfo.hpp</text>
</a>
</g>
</g>
<!-- Node26&#45;&gt;Node27 -->
<g id="edge41_Node000026_Node000027" class="edge">
<title>Node26&#45;&gt;Node27</title>
<g id="a_edge41_Node000026_Node000027"><a xlink:title=" ">
<path fill="none" stroke="#63b8ff" d="M1311.45,-186.89C1333.65,-177.12 1359.92,-165.56 1380.54,-156.49"/>
<polygon fill="#63b8ff" stroke="#63b8ff" points="1310.05,-183.69 1302.3,-190.92 1312.87,-190.09 1310.05,-183.69"/>
</a>
</g>
</g>
<!-- Node30 -->
<g id="Node000030" class="node">
<title>Node30</title>
<g id="a_Node000030"><a xlink:href="PlatformInfoFactory_8hpp.html" target="_top" xlink:title=" ">
<polygon fill="white" stroke="#666666" points="1327.38,-156 1204.12,-156 1204.12,-124 1327.38,-124 1327.38,-156"/>
<text xml:space="preserve" text-anchor="start" x="1212.12" y="-142.5" font-family="Helvetica,sans-Serif" font-size="10.00">src/Utils/Platform</text>
<text xml:space="preserve" text-anchor="middle" x="1265.75" y="-130.5" font-family="Helvetica,sans-Serif" font-size="10.00">/PlatformInfoFactory.hpp</text>
</a>
</g>
</g>
<!-- Node26&#45;&gt;Node30 -->
<g id="edge44_Node000026_Node000030" class="edge">
<title>Node26&#45;&gt;Node30</title>
<g id="a_edge44_Node000026_Node000030"><a xlink:title=" ">
<path fill="none" stroke="#63b8ff" d="M1265.75,-180.31C1265.75,-172.12 1265.75,-163.38 1265.75,-156.22"/>
<polygon fill="#63b8ff" stroke="#63b8ff" points="1262.25,-180.18 1265.75,-190.18 1269.25,-180.18 1262.25,-180.18"/>
</a>
</g>
</g>
<!-- Node31 -->
<g id="Node000031" class="node">
<title>Node31</title>
<g id="a_Node000031"><a xlink:href="UnixPlatformInfo_8hpp.html" target="_top" xlink:title=" ">
<polygon fill="white" stroke="#666666" points="1615.38,-156 1504.12,-156 1504.12,-124 1615.38,-124 1615.38,-156"/>
<text xml:space="preserve" text-anchor="start" x="1512.12" y="-142.5" font-family="Helvetica,sans-Serif" font-size="10.00">src/Utils/Platform</text>
<text xml:space="preserve" text-anchor="middle" x="1559.75" y="-130.5" font-family="Helvetica,sans-Serif" font-size="10.00">/UnixPlatformInfo.hpp</text>
</a>
</g>
</g>
<!-- Node26&#45;&gt;Node31 -->
<g id="edge47_Node000026_Node000031" class="edge">
<title>Node26&#45;&gt;Node31</title>
<g id="a_edge47_Node000026_Node000031"><a xlink:title=" ">
<path fill="none" stroke="#63b8ff" d="M1324.17,-194.12C1370.46,-183.88 1436.77,-169.15 1494.75,-156 1497.69,-155.33 1500.7,-154.65 1503.74,-153.95"/>
<polygon fill="#63b8ff" stroke="#63b8ff" points="1323.63,-190.65 1314.62,-196.23 1325.14,-197.49 1323.63,-190.65"/>
</a>
</g>
</g>
<!-- Node33 -->
<g id="Node000033" class="node">
<title>Node33</title>
<g id="a_Node000033"><a xlink:href="WindowsPlatformInfo_8hpp.html" target="_top" xlink:title=" ">
<polygon fill="white" stroke="#666666" points="1764.5,-156 1633,-156 1633,-124 1764.5,-124 1764.5,-156"/>
<text xml:space="preserve" text-anchor="start" x="1641" y="-142.5" font-family="Helvetica,sans-Serif" font-size="10.00">src/Utils/Platform</text>
<text xml:space="preserve" text-anchor="middle" x="1698.75" y="-130.5" font-family="Helvetica,sans-Serif" font-size="10.00">/WindowsPlatformInfo.hpp</text>
</a>
</g>
</g>
<!-- Node26&#45;&gt;Node33 -->
<g id="edge50_Node000026_Node000033" class="edge">
<title>Node26&#45;&gt;Node33</title>
<g id="a_edge50_Node000026_Node000033"><a xlink:title=" ">
<path fill="none" stroke="#63b8ff" d="M1324.62,-199.72C1395.87,-190.65 1519.41,-174.14 1624.75,-156 1627.33,-155.56 1629.97,-155.09 1632.62,-154.61"/>
<polygon fill="#63b8ff" stroke="#63b8ff" points="1324.2,-196.24 1314.72,-200.97 1325.08,-203.19 1324.2,-196.24"/>
</a>
</g>
</g>
<!-- Node28 -->
<g id="Node000028" class="node">
<title>Node28</title>
<g id="a_Node000028"><a xlink:href="EmscriptenPlatformInfo_8cpp.html" target="_top" xlink:title=" ">
<polygon fill="white" stroke="#666666" points="1440,-88 1299.5,-88 1299.5,-56 1440,-56 1440,-88"/>
<text xml:space="preserve" text-anchor="start" x="1307.5" y="-74.5" font-family="Helvetica,sans-Serif" font-size="10.00">src/Utils/Platform</text>
<text xml:space="preserve" text-anchor="middle" x="1369.75" y="-62.5" font-family="Helvetica,sans-Serif" font-size="10.00">/EmscriptenPlatformInfo.cpp</text>
</a>
</g>
</g>
<!-- Node27&#45;&gt;Node28 -->
<g id="edge42_Node000027_Node000028" class="edge">
<title>Node27&#45;&gt;Node28</title>
<g id="a_edge42_Node000027_Node000028"><a xlink:title=" ">
<path fill="none" stroke="#63b8ff" d="M1398.54,-114.3C1392.44,-105.55 1385.75,-95.96 1380.36,-88.22"/>
<polygon fill="#63b8ff" stroke="#63b8ff" points="1395.63,-116.25 1404.22,-122.45 1401.37,-112.25 1395.63,-116.25"/>
</a>
</g>
</g>
<!-- Node29 -->
<g id="Node000029" class="node">
<title>Node29</title>
<g id="a_Node000029"><a xlink:href="PlatformInfoFactory_8cpp.html" target="_top" xlink:title=" ">
<polygon fill="white" stroke="#666666" points="1581.38,-88 1458.12,-88 1458.12,-56 1581.38,-56 1581.38,-88"/>
<text xml:space="preserve" text-anchor="start" x="1466.12" y="-74.5" font-family="Helvetica,sans-Serif" font-size="10.00">src/Utils/Platform</text>
<text xml:space="preserve" text-anchor="middle" x="1519.75" y="-62.5" font-family="Helvetica,sans-Serif" font-size="10.00">/PlatformInfoFactory.cpp</text>
</a>
</g>
</g>
<!-- Node27&#45;&gt;Node29 -->
<g id="edge43_Node000027_Node000029" class="edge">
<title>Node27&#45;&gt;Node29</title>
<g id="a_edge43_Node000027_Node000029"><a xlink:title=" ">
<path fill="none" stroke="#63b8ff" d="M1449.59,-117.53C1464.57,-108.02 1481.85,-97.05 1495.52,-88.38"/>
<polygon fill="#63b8ff" stroke="#63b8ff" points="1447.98,-114.4 1441.41,-122.71 1451.73,-120.31 1447.98,-114.4"/>
</a>
</g>
</g>
<!-- Node30&#45;&gt;Node5 -->
<g id="edge46_Node000030_Node000005" class="edge">
<title>Node30&#45;&gt;Node5</title>
<g id="a_edge46_Node000030_Node000005"><a xlink:title=" ">
<path fill="none" stroke="#63b8ff" d="M1192.8,-124.6C1191.78,-124.4 1190.76,-124.2 1189.75,-124 1107.99,-107.93 1087.43,-104.5 1005.75,-88 996.99,-86.23 987.64,-84.31 978.67,-82.45"/>
<polygon fill="#63b8ff" stroke="#63b8ff" points="1191.98,-128 1202.46,-126.5 1193.33,-121.14 1191.98,-128"/>
</a>
</g>
</g>
<!-- Node30&#45;&gt;Node29 -->
<g id="edge45_Node000030_Node000029" class="edge">
<title>Node30&#45;&gt;Node29</title>
<g id="a_edge45_Node000030_Node000029"><a xlink:title=" ">
<path fill="none" stroke="#63b8ff" d="M1336.29,-120.67C1375.24,-110.55 1423.07,-98.12 1460.13,-88.49"/>
<polygon fill="#63b8ff" stroke="#63b8ff" points="1335.56,-117.24 1326.77,-123.15 1337.33,-124.02 1335.56,-117.24"/>
</a>
</g>
</g>
<!-- Node31&#45;&gt;Node29 -->
<g id="edge48_Node000031_Node000029" class="edge">
<title>Node31&#45;&gt;Node29</title>
<g id="a_edge48_Node000031_Node000029"><a xlink:title=" ">
<path fill="none" stroke="#63b8ff" d="M1544.61,-114.02C1539.35,-105.34 1533.61,-95.88 1528.98,-88.22"/>
<polygon fill="#63b8ff" stroke="#63b8ff" points="1541.51,-115.66 1549.69,-122.4 1547.5,-112.03 1541.51,-115.66"/>
</a>
</g>
</g>
<!-- Node32 -->
<g id="Node000032" class="node">
<title>Node32</title>
<g id="a_Node000032"><a xlink:href="UnixPlatformInfo_8cpp.html" target="_top" xlink:title=" ">
<polygon fill="white" stroke="#666666" points="1710.38,-88 1599.12,-88 1599.12,-56 1710.38,-56 1710.38,-88"/>
<text xml:space="preserve" text-anchor="start" x="1607.12" y="-74.5" font-family="Helvetica,sans-Serif" font-size="10.00">src/Utils/Platform</text>
<text xml:space="preserve" text-anchor="middle" x="1654.75" y="-62.5" font-family="Helvetica,sans-Serif" font-size="10.00">/UnixPlatformInfo.cpp</text>
</a>
</g>
</g>
<!-- Node31&#45;&gt;Node32 -->
<g id="edge49_Node000031_Node000032" class="edge">
<title>Node31&#45;&gt;Node32</title>
<g id="a_edge49_Node000031_Node000032"><a xlink:title=" ">
<path fill="none" stroke="#63b8ff" d="M1591.21,-117.15C1604.73,-107.75 1620.21,-97 1632.51,-88.45"/>
<polygon fill="#63b8ff" stroke="#63b8ff" points="1589.24,-114.25 1583.03,-122.83 1593.24,-120 1589.24,-114.25"/>
</a>
</g>
</g>
<!-- Node33&#45;&gt;Node29 -->
<g id="edge51_Node000033_Node000029" class="edge">
<title>Node33&#45;&gt;Node29</title>
<g id="a_edge51_Node000033_Node000029"><a xlink:title=" ">
<path fill="none" stroke="#63b8ff" d="M1646.01,-119.56C1619.15,-109.65 1586.93,-97.77 1561.76,-88.49"/>
<polygon fill="#63b8ff" stroke="#63b8ff" points="1644.77,-122.83 1655.36,-123 1647.19,-116.26 1644.77,-122.83"/>
</a>
</g>
</g>
<!-- Node34 -->
<g id="Node000034" class="node">
<title>Node34</title>
<g id="a_Node000034"><a xlink:href="WindowsPlatformInfo_8cpp.html" target="_top" xlink:title=" ">
<polygon fill="white" stroke="#666666" points="1859.5,-88 1728,-88 1728,-56 1859.5,-56 1859.5,-88"/>
<text xml:space="preserve" text-anchor="start" x="1736" y="-74.5" font-family="Helvetica,sans-Serif" font-size="10.00">src/Utils/Platform</text>
<text xml:space="preserve" text-anchor="middle" x="1793.75" y="-62.5" font-family="Helvetica,sans-Serif" font-size="10.00">/WindowsPlatformInfo.cpp</text>
</a>
</g>
</g>
<!-- Node33&#45;&gt;Node34 -->
<g id="edge52_Node000033_Node000034" class="edge">
<title>Node33&#45;&gt;Node34</title>
<g id="a_edge52_Node000033_Node000034"><a xlink:title=" ">
<path fill="none" stroke="#63b8ff" d="M1730.21,-117.15C1743.73,-107.75 1759.21,-97 1771.51,-88.45"/>
<polygon fill="#63b8ff" stroke="#63b8ff" points="1728.24,-114.25 1722.03,-122.83 1732.24,-120 1728.24,-114.25"/>
</a>
</g>
</g>
</g>
</svg>

<g id="navigator" transform="translate(0 0)" fill="#404254">
  <rect fill="#f2f5e9" fill-opacity="0.5" stroke="#606060" stroke-width=".5" x="0" y="0" width="60" height="60"/>
  <use id="zoomplus" xlink:href="#zoomPlus" x="17" y="9" onmousedown="handleZoom(evt,'in')"/>
  <use id="zoomminus" xlink:href="#zoomMin" x="42" y="9" onmousedown="handleZoom(evt,'out')"/>
  <use id="reset" xlink:href="#resetDef" x="30" y="36" onmousedown="handleReset()"/>
   <use id="arrowup" xlink:href="#arrowUp" x="0" y="0" onmousedown="handlePan(0,-1)"/>
  <use id="arrowright" xlink:href="#arrowRight" x="0" y="0" onmousedown="handlePan(1,0)"/>
  <use id="arrowdown" xlink:href="#arrowDown" x="0" y="0" onmousedown="handlePan(0,1)"/>
  <use id="arrowleft" xlink:href="#arrowLeft" x="0" y="0" onmousedown="handlePan(-1,0)"/>
</g>
<svg viewBox="0 0 15 15" width="100%" height="30px" preserveAspectRatio="xMaxYMin meet">
 <g id="arrow_out" transform="scale(0.3 0.3)">
  <a xlink:href="UtilsError_8hpp__dep__incl_org.svg" target="_base">
   <rect id="button" ry="5" rx="5" y="6" x="6" height="38" width="38"
        fill="#f2f5e9" fill-opacity="0.5" stroke="#606060" stroke-width="1.0"/>
   <path id="arrow"
     d="M 11.500037,31.436501 C 11.940474,20.09759 22.043105,11.32322 32.158766,21.979434 L 37.068811,17.246167 C 37.068811,17.246167 37.088388,32 37.088388,32 L 22.160133,31.978069 C 22.160133,31.978069 26.997745,27.140456 26.997745,27.140456 C 18.528582,18.264221 13.291696,25.230495 11.500037,31.436501 z"
     style="fill:#404040;"/>
  </a>
 </g>
</svg>

<style type='text/css'>
<![CDATA[
[data-mouse-over-selected='false'] { opacity: 0.7; }
[data-mouse-over-selected='true']  { opacity: 1.0; }
]]>
</style>
<script type="application/ecmascript"><![CDATA[
document.addEventListener('DOMContentLoaded', (event) => {
  highlightEdges();
  highlightAdjacentNodes();
});
]]></script>
</svg>
