<?xml version="1.0" encoding="UTF-8" standalone="no"?>
<!DOCTYPE svg PUBLIC "-//W3C//DTD SVG 1.1//EN"
 "http://www.w3.org/Graphics/SVG/1.1/DTD/svg11.dtd">
<!-- Generated by graphviz version 13.1.2 (20250808.2320)
 -->
<!-- Title: application/src/Application.cpp Pages: 1 -->
<svg width="2067pt" height="320pt"
 viewBox="0.00 0.00 2067.00 320.00" xmlns="http://www.w3.org/2000/svg" xmlns:xlink="http://www.w3.org/1999/xlink">
<g id="graph0" class="graph" transform="scale(1 1) rotate(0) translate(4 316)">
<title>application/src/Application.cpp</title>
<!-- Node1 -->
<g id="Node000001" class="node">
<title>Node1</title>
<g id="a_Node000001"><a xlink:title=" ">
<polygon fill="#999999" stroke="#666666" points="1965,-312 1816.25,-312 1816.25,-292 1965,-292 1965,-312"/>
<text xml:space="preserve" text-anchor="middle" x="1890.62" y="-298.5" font-family="Helvetica,sans-Serif" font-size="10.00">application/src/Application.cpp</text>
</a>
</g>
</g>
<!-- Node2 -->
<g id="Node000002" class="node">
<title>Node2</title>
<g id="a_Node000002"><a xlink:href="DotNameLib_8hpp.html" target="_top" xlink:title=" ">
<polygon fill="white" stroke="#666666" points="1901.25,-256 1754,-256 1754,-236 1901.25,-236 1901.25,-256"/>
<text xml:space="preserve" text-anchor="middle" x="1827.62" y="-242.5" font-family="Helvetica,sans-Serif" font-size="10.00">DotNameLib/DotNameLib.hpp</text>
</a>
</g>
</g>
<!-- Node1&#45;&gt;Node2 -->
<g id="edge1_Node000001_Node000002" class="edge">
<title>Node1&#45;&gt;Node2</title>
<g id="a_edge1_Node000001_Node000002"><a xlink:title=" ">
<path fill="none" stroke="#63b8ff" d="M1879.65,-291.59C1870.71,-283.93 1857.85,-272.91 1847.16,-263.75"/>
<polygon fill="#63b8ff" stroke="#63b8ff" points="1849.49,-261.13 1839.62,-257.28 1844.94,-266.45 1849.49,-261.13"/>
</a>
</g>
</g>
<!-- Node4 -->
<g id="Node000004" class="node">
<title>Node4</title>
<g id="a_Node000004"><a xlink:href="UtilsFactory_8hpp.html" target="_top" xlink:title=" ">
<polygon fill="white" stroke="#666666" points="1325.88,-200 1215.38,-200 1215.38,-180 1325.88,-180 1325.88,-200"/>
<text xml:space="preserve" text-anchor="middle" x="1270.62" y="-186.5" font-family="Helvetica,sans-Serif" font-size="10.00">Utils/UtilsFactory.hpp</text>
</a>
</g>
</g>
<!-- Node1&#45;&gt;Node4 -->
<g id="edge67_Node000001_Node000004" class="edge">
<title>Node1&#45;&gt;Node4</title>
<g id="a_edge67_Node000001_Node000004"><a xlink:title=" ">
<path fill="none" stroke="#63b8ff" d="M1837.23,-291.53C1723.58,-271.36 1458.12,-224.26 1335.2,-202.46"/>
<polygon fill="#63b8ff" stroke="#63b8ff" points="1336.06,-199.06 1325.6,-200.75 1334.84,-205.95 1336.06,-199.06"/>
</a>
</g>
</g>
<!-- Node30 -->
<g id="Node000030" class="node">
<title>Node30</title>
<g id="a_Node000030"><a xlink:title=" ">
<polygon fill="#e0e0e0" stroke="#999999" points="1988.25,-256 1919,-256 1919,-236 1988.25,-236 1988.25,-256"/>
<text xml:space="preserve" text-anchor="middle" x="1953.62" y="-242.5" font-family="Helvetica,sans-Serif" font-size="10.00">cxxopts.hpp</text>
</a>
</g>
</g>
<!-- Node1&#45;&gt;Node30 -->
<g id="edge68_Node000001_Node000030" class="edge">
<title>Node1&#45;&gt;Node30</title>
<g id="a_edge68_Node000001_Node000030"><a xlink:title=" ">
<path fill="none" stroke="#63b8ff" d="M1901.6,-291.59C1910.54,-283.93 1923.4,-272.91 1934.09,-263.75"/>
<polygon fill="#63b8ff" stroke="#63b8ff" points="1936.31,-266.45 1941.63,-257.28 1931.76,-261.13 1936.31,-266.45"/>
</a>
</g>
</g>
<!-- Node31 -->
<g id="Node000031" class="node">
<title>Node31</title>
<g id="a_Node000031"><a xlink:title=" ">
<polygon fill="#e0e0e0" stroke="#999999" points="2059.38,-256 2005.88,-256 2005.88,-236 2059.38,-236 2059.38,-256"/>
<text xml:space="preserve" text-anchor="middle" x="2032.62" y="-242.5" font-family="Helvetica,sans-Serif" font-size="10.00">iostream</text>
</a>
</g>
</g>
<!-- Node1&#45;&gt;Node31 -->
<g id="edge69_Node000001_Node000031" class="edge">
<title>Node1&#45;&gt;Node31</title>
<g id="a_edge69_Node000001_Node000031"><a xlink:title=" ">
<path fill="none" stroke="#63b8ff" d="M1915.36,-291.59C1937.92,-283.01 1971.53,-270.23 1996.99,-260.55"/>
<polygon fill="#63b8ff" stroke="#63b8ff" points="1998.18,-263.84 2006.28,-257.02 1995.69,-257.3 1998.18,-263.84"/>
</a>
</g>
</g>
<!-- Node3 -->
<g id="Node000003" class="node">
<title>Node3</title>
<g id="a_Node000003"><a xlink:title=" ">
<polygon fill="#e0e0e0" stroke="#999999" points="1944.38,-138 1830.88,-138 1830.88,-118 1944.38,-118 1944.38,-138"/>
<text xml:space="preserve" text-anchor="middle" x="1887.62" y="-124.5" font-family="Helvetica,sans-Serif" font-size="10.00">DotNameLib/version.h</text>
</a>
</g>
</g>
<!-- Node2&#45;&gt;Node3 -->
<g id="edge2_Node000002_Node000003" class="edge">
<title>Node2&#45;&gt;Node3</title>
<g id="a_edge2_Node000002_Node000003"><a xlink:title=" ">
<path fill="none" stroke="#63b8ff" d="M1847.3,-235.62C1860.72,-228.05 1877.49,-216.03 1885.62,-200 1893.56,-184.36 1893.3,-164.19 1891.49,-149.35"/>
<polygon fill="#63b8ff" stroke="#63b8ff" points="1895.01,-149.18 1890,-139.85 1888.1,-150.27 1895.01,-149.18"/>
</a>
</g>
</g>
<!-- Node2&#45;&gt;Node4 -->
<g id="edge3_Node000002_Node000004" class="edge">
<title>Node2&#45;&gt;Node4</title>
<g id="a_edge3_Node000002_Node000004"><a xlink:title=" ">
<path fill="none" stroke="#63b8ff" d="M1753.66,-237.83C1644.7,-227.27 1442.65,-207.68 1337.75,-197.51"/>
<polygon fill="#63b8ff" stroke="#63b8ff" points="1338.17,-194.03 1327.88,-196.55 1337.49,-201 1338.17,-194.03"/>
</a>
</g>
</g>
<!-- Node12 -->
<g id="Node000012" class="node">
<title>Node12</title>
<g id="a_Node000012"><a xlink:title=" ">
<polygon fill="#e0e0e0" stroke="#999999" points="1094.62,-20 1054.62,-20 1054.62,0 1094.62,0 1094.62,-20"/>
<text xml:space="preserve" text-anchor="middle" x="1074.62" y="-6.5" font-family="Helvetica,sans-Serif" font-size="10.00">string</text>
</a>
</g>
</g>
<!-- Node2&#45;&gt;Node12 -->
<g id="edge66_Node000002_Node000012" class="edge">
<title>Node2&#45;&gt;Node12</title>
<g id="a_edge66_Node000002_Node000012"><a xlink:title=" ">
<path fill="none" stroke="#63b8ff" d="M1824.07,-235.7C1814.66,-212.13 1786.91,-149.25 1745.62,-112 1703.12,-73.65 1684.87,-71.01 1629.62,-56 1529.78,-28.87 1208.9,-15.65 1106.41,-12.04"/>
<polygon fill="#63b8ff" stroke="#63b8ff" points="1106.65,-8.55 1096.54,-11.7 1106.41,-15.55 1106.65,-8.55"/>
</a>
</g>
</g>
<!-- Node23 -->
<g id="Node000023" class="node">
<title>Node23</title>
<g id="a_Node000023"><a xlink:title=" ">
<polygon fill="#e0e0e0" stroke="#999999" points="1743.25,-20 1692,-20 1692,0 1743.25,0 1743.25,-20"/>
<text xml:space="preserve" text-anchor="middle" x="1717.62" y="-6.5" font-family="Helvetica,sans-Serif" font-size="10.00">memory</text>
</a>
</g>
</g>
<!-- Node2&#45;&gt;Node23 -->
<g id="edge65_Node000002_Node000023" class="edge">
<title>Node2&#45;&gt;Node23</title>
<g id="a_edge65_Node000002_Node000023"><a xlink:title=" ">
<path fill="none" stroke="#63b8ff" d="M1849.78,-235.55C1894.44,-215.12 1988.22,-164.43 1953.62,-112 1909.15,-44.59 1809.4,-22.01 1754.9,-14.56"/>
<polygon fill="#63b8ff" stroke="#63b8ff" points="1755.54,-11.12 1745.18,-13.35 1754.67,-18.06 1755.54,-11.12"/>
</a>
</g>
</g>
<!-- Node29 -->
<g id="Node000029" class="node">
<title>Node29</title>
<g id="a_Node000029"><a xlink:title=" ">
<polygon fill="#e0e0e0" stroke="#999999" points="1876.25,-200 1831,-200 1831,-180 1876.25,-180 1876.25,-200"/>
<text xml:space="preserve" text-anchor="middle" x="1853.62" y="-186.5" font-family="Helvetica,sans-Serif" font-size="10.00">atomic</text>
</a>
</g>
</g>
<!-- Node2&#45;&gt;Node29 -->
<g id="edge64_Node000002_Node000029" class="edge">
<title>Node2&#45;&gt;Node29</title>
<g id="a_edge64_Node000002_Node000029"><a xlink:title=" ">
<path fill="none" stroke="#63b8ff" d="M1832.15,-235.59C1835.47,-228.7 1840.09,-219.1 1844.2,-210.57"/>
<polygon fill="#63b8ff" stroke="#63b8ff" points="1847.31,-212.19 1848.49,-201.66 1841,-209.15 1847.31,-212.19"/>
</a>
</g>
</g>
<!-- Node4&#45;&gt;Node3 -->
<g id="edge4_Node000004_Node000003" class="edge">
<title>Node4&#45;&gt;Node3</title>
<g id="a_edge4_Node000004_Node000003"><a xlink:title=" ">
<path fill="none" stroke="#63b8ff" d="M1326.34,-184.95C1419.92,-177.95 1614.54,-162.55 1778.62,-144 1791.82,-142.51 1805.89,-140.72 1819.39,-138.91"/>
<polygon fill="#63b8ff" stroke="#63b8ff" points="1819.62,-142.41 1829.05,-137.59 1818.67,-135.47 1819.62,-142.41"/>
</a>
</g>
</g>
<!-- Node5 -->
<g id="Node000005" class="node">
<title>Node5</title>
<g id="a_Node000005"><a xlink:href="IAssetManager_8hpp.html" target="_top" xlink:title=" ">
<polygon fill="white" stroke="#666666" points="506.5,-138 348.75,-138 348.75,-118 506.5,-118 506.5,-138"/>
<text xml:space="preserve" text-anchor="middle" x="427.62" y="-124.5" font-family="Helvetica,sans-Serif" font-size="10.00">Utils/Assets/IAssetManager.hpp</text>
</a>
</g>
</g>
<!-- Node4&#45;&gt;Node5 -->
<g id="edge5_Node000004_Node000005" class="edge">
<title>Node4&#45;&gt;Node5</title>
<g id="a_edge5_Node000004_Node000005"><a xlink:title=" ">
<path fill="none" stroke="#63b8ff" d="M1214.95,-187.56C1090.28,-183.93 779.29,-172.55 520.62,-144 511.28,-142.97 501.44,-141.64 491.8,-140.21"/>
<polygon fill="#63b8ff" stroke="#63b8ff" points="492.53,-136.78 482.11,-138.72 491.46,-143.7 492.53,-136.78"/>
</a>
</g>
</g>
<!-- Node6 -->
<g id="Node000006" class="node">
<title>Node6</title>
<g id="a_Node000006"><a xlink:title=" ">
<polygon fill="#e0e0e0" stroke="#999999" points="655.12,-76 594.12,-76 594.12,-56 655.12,-56 655.12,-76"/>
<text xml:space="preserve" text-anchor="middle" x="624.62" y="-62.5" font-family="Helvetica,sans-Serif" font-size="10.00">filesystem</text>
</a>
</g>
</g>
<!-- Node4&#45;&gt;Node6 -->
<g id="edge62_Node000004_Node000006" class="edge">
<title>Node4&#45;&gt;Node6</title>
<g id="a_edge62_Node000004_Node000006"><a xlink:title=" ">
<path fill="none" stroke="#63b8ff" d="M1214.92,-187.56C1050.31,-183.05 576.19,-168.02 553.62,-144 543.89,-133.63 546.77,-124.46 553.62,-112 561.08,-98.45 574.53,-88.4 587.74,-81.29"/>
<polygon fill="#63b8ff" stroke="#63b8ff" points="588.89,-84.62 596.32,-77.07 585.81,-78.34 588.89,-84.62"/>
</a>
</g>
</g>
<!-- Node7 -->
<g id="Node000007" class="node">
<title>Node7</title>
<g id="a_Node000007"><a xlink:href="IDirectoryManager_8hpp.html" target="_top" xlink:title=" ">
<polygon fill="white" stroke="#666666" points="696.12,-144 563.12,-144 563.12,-112 696.12,-112 696.12,-144"/>
<text xml:space="preserve" text-anchor="start" x="571.12" y="-130.5" font-family="Helvetica,sans-Serif" font-size="10.00">Utils/Filesystem/IDirectory</text>
<text xml:space="preserve" text-anchor="middle" x="629.62" y="-118.5" font-family="Helvetica,sans-Serif" font-size="10.00">Manager.hpp</text>
</a>
</g>
</g>
<!-- Node4&#45;&gt;Node7 -->
<g id="edge7_Node000004_Node000007" class="edge">
<title>Node4&#45;&gt;Node7</title>
<g id="a_edge7_Node000004_Node000007"><a xlink:title=" ">
<path fill="none" stroke="#63b8ff" d="M1214.95,-186.76C1115.21,-182.26 899.26,-170.38 708.02,-144.38"/>
<polygon fill="#63b8ff" stroke="#63b8ff" points="708.5,-140.91 698.12,-143.01 707.54,-147.84 708.5,-140.91"/>
</a>
</g>
</g>
<!-- Node15 -->
<g id="Node000015" class="node">
<title>Node15</title>
<g id="a_Node000015"><a xlink:href="IFileReader_8hpp.html" target="_top" xlink:title=" ">
<polygon fill="white" stroke="#666666" points="330.25,-138 171,-138 171,-118 330.25,-118 330.25,-138"/>
<text xml:space="preserve" text-anchor="middle" x="250.62" y="-124.5" font-family="Helvetica,sans-Serif" font-size="10.00">Utils/Filesystem/IFileReader.hpp</text>
</a>
</g>
</g>
<!-- Node4&#45;&gt;Node15 -->
<g id="edge16_Node000004_Node000015" class="edge">
<title>Node4&#45;&gt;Node15</title>
<g id="a_edge16_Node000004_Node000015"><a xlink:title=" ">
<path fill="none" stroke="#63b8ff" d="M1215.09,-188.61C1070.47,-187.1 670.44,-179.75 339.62,-144 330.54,-143.02 320.98,-141.71 311.63,-140.26"/>
<polygon fill="#63b8ff" stroke="#63b8ff" points="312.3,-136.83 301.87,-138.7 311.19,-143.74 312.3,-136.83"/>
</a>
</g>
</g>
<!-- Node16 -->
<g id="Node000016" class="node">
<title>Node16</title>
<g id="a_Node000016"><a xlink:href="IFileWriter_8hpp.html" target="_top" xlink:title=" ">
<polygon fill="white" stroke="#666666" points="153.25,-138 0,-138 0,-118 153.25,-118 153.25,-138"/>
<text xml:space="preserve" text-anchor="middle" x="76.62" y="-124.5" font-family="Helvetica,sans-Serif" font-size="10.00">Utils/Filesystem/IFileWriter.hpp</text>
</a>
</g>
</g>
<!-- Node4&#45;&gt;Node16 -->
<g id="edge22_Node000004_Node000016" class="edge">
<title>Node4&#45;&gt;Node16</title>
<g id="a_edge22_Node000004_Node000016"><a xlink:title=" ">
<path fill="none" stroke="#63b8ff" d="M1215.04,-189.37C1052.47,-189.9 563.94,-187.46 161.62,-144 152.93,-143.06 143.78,-141.77 134.84,-140.34"/>
<polygon fill="#63b8ff" stroke="#63b8ff" points="135.61,-136.92 125.17,-138.71 134.45,-143.82 135.61,-136.92"/>
</a>
</g>
</g>
<!-- Node17 -->
<g id="Node000017" class="node">
<title>Node17</title>
<g id="a_Node000017"><a xlink:href="IPathResolver_8hpp.html" target="_top" xlink:title=" ">
<polygon fill="white" stroke="#666666" points="885.25,-138 714,-138 714,-118 885.25,-118 885.25,-138"/>
<text xml:space="preserve" text-anchor="middle" x="799.62" y="-124.5" font-family="Helvetica,sans-Serif" font-size="10.00">Utils/Filesystem/IPathResolver.hpp</text>
</a>
</g>
</g>
<!-- Node4&#45;&gt;Node17 -->
<g id="edge28_Node000004_Node000017" class="edge">
<title>Node4&#45;&gt;Node17</title>
<g id="a_edge28_Node000004_Node000017"><a xlink:title=" ">
<path fill="none" stroke="#63b8ff" d="M1215.12,-183.01C1141.68,-174.95 1008.26,-159.77 894.62,-144 886.23,-142.84 877.43,-141.54 868.71,-140.22"/>
<polygon fill="#63b8ff" stroke="#63b8ff" points="869.26,-136.76 858.84,-138.7 868.19,-143.68 869.26,-136.76"/>
</a>
</g>
</g>
<!-- Node18 -->
<g id="Node000018" class="node">
<title>Node18</title>
<g id="a_Node000018"><a xlink:href="ICustomStringsLoader_8hpp.html" target="_top" xlink:title=" ">
<polygon fill="white" stroke="#666666" points="1336.38,-144 1204.88,-144 1204.88,-112 1336.38,-112 1336.38,-144"/>
<text xml:space="preserve" text-anchor="start" x="1212.88" y="-130.5" font-family="Helvetica,sans-Serif" font-size="10.00">Utils/Json/ICustomStrings</text>
<text xml:space="preserve" text-anchor="middle" x="1270.62" y="-118.5" font-family="Helvetica,sans-Serif" font-size="10.00">Loader.hpp</text>
</a>
</g>
</g>
<!-- Node4&#45;&gt;Node18 -->
<g id="edge33_Node000004_Node000018" class="edge">
<title>Node4&#45;&gt;Node18</title>
<g id="a_edge33_Node000004_Node000018"><a xlink:title=" ">
<path fill="none" stroke="#63b8ff" d="M1270.62,-179.62C1270.62,-173.1 1270.62,-164.05 1270.62,-155.4"/>
<polygon fill="#63b8ff" stroke="#63b8ff" points="1274.13,-155.65 1270.63,-145.65 1267.13,-155.65 1274.13,-155.65"/>
</a>
</g>
</g>
<!-- Node20 -->
<g id="Node000020" class="node">
<title>Node20</title>
<g id="a_Node000020"><a xlink:href="IJsonSerializer_8hpp.html" target="_top" xlink:title=" ">
<polygon fill="white" stroke="#666666" points="1186.88,-138 1040.38,-138 1040.38,-118 1186.88,-118 1186.88,-138"/>
<text xml:space="preserve" text-anchor="middle" x="1113.62" y="-124.5" font-family="Helvetica,sans-Serif" font-size="10.00">Utils/Json/IJsonSerializer.hpp</text>
</a>
</g>
</g>
<!-- Node4&#45;&gt;Node20 -->
<g id="edge38_Node000004_Node000020" class="edge">
<title>Node4&#45;&gt;Node20</title>
<g id="a_edge38_Node000004_Node000020"><a xlink:title=" ">
<path fill="none" stroke="#63b8ff" d="M1246.09,-179.62C1220.02,-169.66 1178.54,-153.81 1148.95,-142.5"/>
<polygon fill="#63b8ff" stroke="#63b8ff" points="1150.25,-139.25 1139.66,-138.95 1147.75,-145.79 1150.25,-139.25"/>
</a>
</g>
</g>
<!-- Node21 -->
<g id="Node000021" class="node">
<title>Node21</title>
<g id="a_Node000021"><a xlink:href="ILogger_8hpp.html" target="_top" xlink:title=" ">
<polygon fill="white" stroke="#666666" points="1595.88,-76 1473.38,-76 1473.38,-56 1595.88,-56 1595.88,-76"/>
<text xml:space="preserve" text-anchor="middle" x="1534.62" y="-62.5" font-family="Helvetica,sans-Serif" font-size="10.00">Utils/Logger/ILogger.hpp</text>
</a>
</g>
</g>
<!-- Node4&#45;&gt;Node21 -->
<g id="edge43_Node000004_Node000021" class="edge">
<title>Node4&#45;&gt;Node21</title>
<g id="a_edge43_Node000004_Node000021"><a xlink:title=" ">
<path fill="none" stroke="#63b8ff" d="M1326.22,-187.76C1396.38,-184.88 1511.1,-175.36 1537.62,-144 1550.76,-128.47 1547.23,-104.23 1542.21,-87.11"/>
<polygon fill="#63b8ff" stroke="#63b8ff" points="1545.58,-86.14 1539.07,-77.78 1538.94,-88.38 1545.58,-86.14"/>
</a>
</g>
</g>
<!-- Node4&#45;&gt;Node23 -->
<g id="edge63_Node000004_Node000023" class="edge">
<title>Node4&#45;&gt;Node23</title>
<g id="a_edge63_Node000004_Node000023"><a xlink:title=" ">
<path fill="none" stroke="#63b8ff" d="M1326.21,-187.85C1445.57,-184.79 1717.86,-174.52 1745.62,-144 1774.49,-112.27 1748.24,-58.54 1730.6,-30.06"/>
<polygon fill="#63b8ff" stroke="#63b8ff" points="1733.59,-28.23 1725.21,-21.74 1727.71,-32.04 1733.59,-28.23"/>
</a>
</g>
</g>
<!-- Node25 -->
<g id="Node000025" class="node">
<title>Node25</title>
<g id="a_Node000025"><a xlink:href="LoggerFactory_8hpp.html" target="_top" xlink:title=" ">
<polygon fill="white" stroke="#666666" points="1736.5,-138 1584.75,-138 1584.75,-118 1736.5,-118 1736.5,-138"/>
<text xml:space="preserve" text-anchor="middle" x="1660.62" y="-124.5" font-family="Helvetica,sans-Serif" font-size="10.00">Utils/Logger/LoggerFactory.hpp</text>
</a>
</g>
</g>
<!-- Node4&#45;&gt;Node25 -->
<g id="edge49_Node000004_Node000025" class="edge">
<title>Node4&#45;&gt;Node25</title>
<g id="a_edge49_Node000004_Node000025"><a xlink:title=" ">
<path fill="none" stroke="#63b8ff" d="M1326.23,-180.93C1386.49,-172.13 1485.45,-157.49 1570.62,-144 1578.09,-142.82 1585.9,-141.56 1593.66,-140.28"/>
<polygon fill="#63b8ff" stroke="#63b8ff" points="1594.17,-143.75 1603.46,-138.67 1593.03,-136.84 1594.17,-143.75"/>
</a>
</g>
</g>
<!-- Node26 -->
<g id="Node000026" class="node">
<title>Node26</title>
<g id="a_Node000026"><a xlink:href="NullLogger_8hpp.html" target="_top" xlink:title=" ">
<polygon fill="white" stroke="#666666" points="1529,-138 1392.25,-138 1392.25,-118 1529,-118 1529,-138"/>
<text xml:space="preserve" text-anchor="middle" x="1460.62" y="-124.5" font-family="Helvetica,sans-Serif" font-size="10.00">Utils/Logger/NullLogger.hpp</text>
</a>
</g>
</g>
<!-- Node4&#45;&gt;Node26 -->
<g id="edge53_Node000004_Node000026" class="edge">
<title>Node4&#45;&gt;Node26</title>
<g id="a_edge53_Node000004_Node000026"><a xlink:title=" ">
<path fill="none" stroke="#63b8ff" d="M1300.31,-179.62C1332.57,-169.44 1384.29,-153.11 1420.23,-141.76"/>
<polygon fill="#63b8ff" stroke="#63b8ff" points="1420.91,-145.21 1429.39,-138.86 1418.8,-138.54 1420.91,-145.21"/>
</a>
</g>
</g>
<!-- Node27 -->
<g id="Node000027" class="node">
<title>Node27</title>
<g id="a_Node000027"><a xlink:href="IPlatformInfo_8hpp.html" target="_top" xlink:title=" ">
<polygon fill="white" stroke="#666666" points="1022,-144 903.25,-144 903.25,-112 1022,-112 1022,-144"/>
<text xml:space="preserve" text-anchor="start" x="911.25" y="-130.5" font-family="Helvetica,sans-Serif" font-size="10.00">Utils/Platform/IPlatform</text>
<text xml:space="preserve" text-anchor="middle" x="962.62" y="-118.5" font-family="Helvetica,sans-Serif" font-size="10.00">Info.hpp</text>
</a>
</g>
</g>
<!-- Node4&#45;&gt;Node27 -->
<g id="edge55_Node000004_Node000027" class="edge">
<title>Node4&#45;&gt;Node27</title>
<g id="a_edge55_Node000004_Node000027"><a xlink:title=" ">
<path fill="none" stroke="#63b8ff" d="M1217.86,-179.5C1171.83,-171.12 1102.99,-158.34 1033.58,-144.36"/>
<polygon fill="#63b8ff" stroke="#63b8ff" points="1034.42,-140.96 1023.93,-142.41 1033.03,-147.82 1034.42,-140.96"/>
</a>
</g>
</g>
<!-- Node28 -->
<g id="Node000028" class="node">
<title>Node28</title>
<g id="a_Node000028"><a xlink:href="IStringFormatter_8hpp.html" target="_top" xlink:title=" ">
<polygon fill="white" stroke="#666666" points="1450.12,-76 1293.12,-76 1293.12,-56 1450.12,-56 1450.12,-76"/>
<text xml:space="preserve" text-anchor="middle" x="1371.62" y="-62.5" font-family="Helvetica,sans-Serif" font-size="10.00">Utils/String/IStringFormatter.hpp</text>
</a>
</g>
</g>
<!-- Node4&#45;&gt;Node28 -->
<g id="edge60_Node000004_Node000028" class="edge">
<title>Node4&#45;&gt;Node28</title>
<g id="a_edge60_Node000004_Node000028"><a xlink:title=" ">
<path fill="none" stroke="#63b8ff" d="M1295.36,-179.53C1311.71,-172.12 1332.48,-160.32 1345.62,-144 1358.88,-127.54 1365.53,-103.97 1368.76,-87.26"/>
<polygon fill="#63b8ff" stroke="#63b8ff" points="1372.19,-87.97 1370.37,-77.53 1365.28,-86.83 1372.19,-87.97"/>
</a>
</g>
</g>
<!-- Node5&#45;&gt;Node6 -->
<g id="edge6_Node000005_Node000006" class="edge">
<title>Node5&#45;&gt;Node6</title>
<g id="a_edge6_Node000005_Node000006"><a xlink:title=" ">
<path fill="none" stroke="#63b8ff" d="M458.41,-117.62C491.85,-107.44 545.47,-91.11 582.74,-79.76"/>
<polygon fill="#63b8ff" stroke="#63b8ff" points="583.74,-83.11 592.29,-76.85 581.7,-76.41 583.74,-83.11"/>
</a>
</g>
</g>
<!-- Node7&#45;&gt;Node6 -->
<g id="edge14_Node000007_Node000006" class="edge">
<title>Node7&#45;&gt;Node6</title>
<g id="a_edge14_Node000007_Node000006"><a xlink:title=" ">
<path fill="none" stroke="#63b8ff" d="M628.34,-111.55C627.73,-104.26 627,-95.45 626.34,-87.6"/>
<polygon fill="#63b8ff" stroke="#63b8ff" points="629.85,-87.59 625.53,-77.92 622.88,-88.17 629.85,-87.59"/>
</a>
</g>
</g>
<!-- Node8 -->
<g id="Node000008" class="node">
<title>Node8</title>
<g id="a_Node000008"><a xlink:href="UtilsError_8hpp.html" target="_top" xlink:title=" ">
<polygon fill="white" stroke="#666666" points="952.25,-76 853,-76 853,-56 952.25,-56 952.25,-76"/>
<text xml:space="preserve" text-anchor="middle" x="902.62" y="-62.5" font-family="Helvetica,sans-Serif" font-size="10.00">Utils/UtilsError.hpp</text>
</a>
</g>
</g>
<!-- Node7&#45;&gt;Node8 -->
<g id="edge8_Node000007_Node000008" class="edge">
<title>Node7&#45;&gt;Node8</title>
<g id="a_edge8_Node000007_Node000008"><a xlink:title=" ">
<path fill="none" stroke="#63b8ff" d="M696.41,-112.32C743.17,-102.05 804.85,-88.49 848.53,-78.89"/>
<polygon fill="#63b8ff" stroke="#63b8ff" points="849.01,-82.37 858.03,-76.8 847.51,-75.53 849.01,-82.37"/>
</a>
</g>
</g>
<!-- Node14 -->
<g id="Node000014" class="node">
<title>Node14</title>
<g id="a_Node000014"><a xlink:title=" ">
<polygon fill="#e0e0e0" stroke="#999999" points="566.12,-76 523.12,-76 523.12,-56 566.12,-56 566.12,-76"/>
<text xml:space="preserve" text-anchor="middle" x="544.62" y="-62.5" font-family="Helvetica,sans-Serif" font-size="10.00">vector</text>
</a>
</g>
</g>
<!-- Node7&#45;&gt;Node14 -->
<g id="edge15_Node000007_Node000014" class="edge">
<title>Node7&#45;&gt;Node14</title>
<g id="a_edge15_Node000007_Node000014"><a xlink:title=" ">
<path fill="none" stroke="#63b8ff" d="M607.74,-111.55C595.32,-102.78 579.8,-91.83 567.26,-82.97"/>
<polygon fill="#63b8ff" stroke="#63b8ff" points="569.38,-80.19 559.19,-77.28 565.34,-85.91 569.38,-80.19"/>
</a>
</g>
</g>
<!-- Node9 -->
<g id="Node000009" class="node">
<title>Node9</title>
<g id="a_Node000009"><a xlink:title=" ">
<polygon fill="#e0e0e0" stroke="#999999" points="828.25,-20 783,-20 783,0 828.25,0 828.25,-20"/>
<text xml:space="preserve" text-anchor="middle" x="805.62" y="-6.5" font-family="Helvetica,sans-Serif" font-size="10.00">cstdint</text>
</a>
</g>
</g>
<!-- Node8&#45;&gt;Node9 -->
<g id="edge9_Node000008_Node000009" class="edge">
<title>Node8&#45;&gt;Node9</title>
<g id="a_edge9_Node000008_Node000009"><a xlink:title=" ">
<path fill="none" stroke="#63b8ff" d="M885.73,-55.59C871.08,-47.44 849.6,-35.48 832.58,-26"/>
<polygon fill="#63b8ff" stroke="#63b8ff" points="834.42,-23.02 823.98,-21.22 831.01,-29.14 834.42,-23.02"/>
</a>
</g>
</g>
<!-- Node10 -->
<g id="Node000010" class="node">
<title>Node10</title>
<g id="a_Node000010"><a xlink:title=" ">
<polygon fill="#e0e0e0" stroke="#999999" points="1036.5,-20 986.75,-20 986.75,0 1036.5,0 1036.5,-20"/>
<text xml:space="preserve" text-anchor="middle" x="1011.62" y="-6.5" font-family="Helvetica,sans-Serif" font-size="10.00">optional</text>
</a>
</g>
</g>
<!-- Node8&#45;&gt;Node10 -->
<g id="edge10_Node000008_Node000010" class="edge">
<title>Node8&#45;&gt;Node10</title>
<g id="a_edge10_Node000008_Node000010"><a xlink:title=" ">
<path fill="none" stroke="#63b8ff" d="M921.61,-55.59C938.39,-47.28 963.12,-35.03 982.41,-25.47"/>
<polygon fill="#63b8ff" stroke="#63b8ff" points="983.73,-28.73 991.13,-21.15 980.62,-22.45 983.73,-28.73"/>
</a>
</g>
</g>
<!-- Node11 -->
<g id="Node000011" class="node">
<title>Node11</title>
<g id="a_Node000011"><a xlink:title=" ">
<polygon fill="#e0e0e0" stroke="#999999" points="905,-20 846.25,-20 846.25,0 905,0 905,-20"/>
<text xml:space="preserve" text-anchor="middle" x="875.62" y="-6.5" font-family="Helvetica,sans-Serif" font-size="10.00">stdexcept</text>
</a>
</g>
</g>
<!-- Node8&#45;&gt;Node11 -->
<g id="edge11_Node000008_Node000011" class="edge">
<title>Node8&#45;&gt;Node11</title>
<g id="a_edge11_Node000008_Node000011"><a xlink:title=" ">
<path fill="none" stroke="#63b8ff" d="M897.92,-55.59C894.48,-48.7 889.68,-39.1 885.41,-30.57"/>
<polygon fill="#63b8ff" stroke="#63b8ff" points="888.55,-29.03 880.95,-21.65 882.29,-32.16 888.55,-29.03"/>
</a>
</g>
</g>
<!-- Node8&#45;&gt;Node12 -->
<g id="edge12_Node000008_Node000012" class="edge">
<title>Node8&#45;&gt;Node12</title>
<g id="a_edge12_Node000008_Node000012"><a xlink:title=" ">
<path fill="none" stroke="#63b8ff" d="M932.59,-55.59C963.62,-45.85 1011.89,-30.7 1043.38,-20.81"/>
<polygon fill="#63b8ff" stroke="#63b8ff" points="1044.23,-24.21 1052.72,-17.88 1042.13,-17.53 1044.23,-24.21"/>
</a>
</g>
</g>
<!-- Node13 -->
<g id="Node000013" class="node">
<title>Node13</title>
<g id="a_Node000013"><a xlink:title=" ">
<polygon fill="#e0e0e0" stroke="#999999" points="968.25,-20 923,-20 923,0 968.25,0 968.25,-20"/>
<text xml:space="preserve" text-anchor="middle" x="945.62" y="-6.5" font-family="Helvetica,sans-Serif" font-size="10.00">variant</text>
</a>
</g>
</g>
<!-- Node8&#45;&gt;Node13 -->
<g id="edge13_Node000008_Node000013" class="edge">
<title>Node8&#45;&gt;Node13</title>
<g id="a_edge13_Node000008_Node000013"><a xlink:title=" ">
<path fill="none" stroke="#63b8ff" d="M910.12,-55.59C915.91,-48.32 924.11,-38.02 931.17,-29.15"/>
<polygon fill="#63b8ff" stroke="#63b8ff" points="933.79,-31.49 937.28,-21.48 928.31,-27.12 933.79,-31.49"/>
</a>
</g>
</g>
<!-- Node15&#45;&gt;Node6 -->
<g id="edge19_Node000015_Node000006" class="edge">
<title>Node15&#45;&gt;Node6</title>
<g id="a_edge19_Node000015_Node000006"><a xlink:title=" ">
<path fill="none" stroke="#63b8ff" d="M306.15,-117.51C317.23,-115.65 328.8,-113.74 339.62,-112 443.95,-95.22 470.4,-93.36 574.62,-76 577.23,-75.57 579.91,-75.11 582.61,-74.64"/>
<polygon fill="#63b8ff" stroke="#63b8ff" points="582.97,-78.13 592.22,-72.96 581.76,-71.24 582.97,-78.13"/>
</a>
</g>
</g>
<!-- Node15&#45;&gt;Node8 -->
<g id="edge17_Node000015_Node000008" class="edge">
<title>Node15&#45;&gt;Node8</title>
<g id="a_edge17_Node000015_Node000008"><a xlink:title=" ">
<path fill="none" stroke="#63b8ff" d="M302.28,-117.51C314.5,-115.48 327.5,-113.5 339.62,-112 521.4,-89.46 737.66,-75.85 841.3,-70.15"/>
<polygon fill="#63b8ff" stroke="#63b8ff" points="841.46,-73.64 851.26,-69.6 841.08,-66.65 841.46,-73.64"/>
</a>
</g>
</g>
<!-- Node15&#45;&gt;Node9 -->
<g id="edge18_Node000015_Node000009" class="edge">
<title>Node15&#45;&gt;Node9</title>
<g id="a_edge18_Node000015_Node000009"><a xlink:title=" ">
<path fill="none" stroke="#63b8ff" d="M273.5,-117.6C311.63,-102.32 390.89,-72.17 460.62,-56 572.84,-29.98 709.33,-17.75 771.65,-13.21"/>
<polygon fill="#63b8ff" stroke="#63b8ff" points="771.51,-16.73 781.24,-12.53 771.01,-9.75 771.51,-16.73"/>
</a>
</g>
</g>
<!-- Node15&#45;&gt;Node12 -->
<g id="edge20_Node000015_Node000012" class="edge">
<title>Node15&#45;&gt;Node12</title>
<g id="a_edge20_Node000015_Node000012"><a xlink:title=" ">
<path fill="none" stroke="#63b8ff" d="M285.81,-117.51C323.76,-107.27 385.98,-90.49 439.62,-76 472.52,-67.12 480.02,-61.62 513.62,-56 743.71,-17.51 810.57,-61.98 1042.98,-20.06"/>
<polygon fill="#63b8ff" stroke="#63b8ff" points="1043.49,-23.52 1052.69,-18.27 1042.22,-16.64 1043.49,-23.52"/>
</a>
</g>
</g>
<!-- Node15&#45;&gt;Node14 -->
<g id="edge21_Node000015_Node000014" class="edge">
<title>Node15&#45;&gt;Node14</title>
<g id="a_edge21_Node000015_Node000014"><a xlink:title=" ">
<path fill="none" stroke="#63b8ff" d="M296.89,-117.56C356.72,-105.35 459.46,-84.38 511.84,-73.69"/>
<polygon fill="#63b8ff" stroke="#63b8ff" points="512.24,-77.18 521.34,-71.75 510.84,-70.32 512.24,-77.18"/>
</a>
</g>
</g>
<!-- Node16&#45;&gt;Node6 -->
<g id="edge25_Node000016_Node000006" class="edge">
<title>Node16&#45;&gt;Node6</title>
<g id="a_edge25_Node000016_Node000006"><a xlink:title=" ">
<path fill="none" stroke="#63b8ff" d="M125.95,-117.54C137.62,-115.51 150.04,-113.52 161.62,-112 344.3,-87.97 391.99,-100.35 574.62,-76 577.24,-75.65 579.93,-75.26 582.64,-74.84"/>
<polygon fill="#63b8ff" stroke="#63b8ff" points="582.96,-78.34 592.26,-73.26 581.83,-71.43 582.96,-78.34"/>
</a>
</g>
</g>
<!-- Node16&#45;&gt;Node8 -->
<g id="edge23_Node000016_Node000008" class="edge">
<title>Node16&#45;&gt;Node8</title>
<g id="a_edge23_Node000016_Node000008"><a xlink:title=" ">
<path fill="none" stroke="#63b8ff" d="M124.58,-117.55C136.64,-115.45 149.57,-113.42 161.62,-112 292.68,-96.51 688.25,-77 841.27,-69.82"/>
<polygon fill="#63b8ff" stroke="#63b8ff" points="841.38,-73.32 851.21,-69.36 841.06,-66.33 841.38,-73.32"/>
</a>
</g>
</g>
<!-- Node16&#45;&gt;Node9 -->
<g id="edge24_Node000016_Node000009" class="edge">
<title>Node16&#45;&gt;Node9</title>
<g id="a_edge24_Node000016_Node000009"><a xlink:title=" ">
<path fill="none" stroke="#63b8ff" d="M96.1,-117.56C129.63,-101.8 200.81,-70.41 264.62,-56 452.33,-13.62 684.76,-10.22 771.17,-10.58"/>
<polygon fill="#63b8ff" stroke="#63b8ff" points="771.07,-14.08 781.09,-10.64 771.11,-7.08 771.07,-14.08"/>
</a>
</g>
</g>
<!-- Node16&#45;&gt;Node12 -->
<g id="edge26_Node000016_Node000012" class="edge">
<title>Node16&#45;&gt;Node12</title>
<g id="a_edge26_Node000016_Node000012"><a xlink:title=" ">
<path fill="none" stroke="#63b8ff" d="M115.39,-117.53C180.91,-101.92 317.93,-71.04 435.62,-56 701.33,-22.05 776.38,-67.33 1042.99,-20.04"/>
<polygon fill="#63b8ff" stroke="#63b8ff" points="1043.47,-23.51 1052.69,-18.28 1042.23,-16.62 1043.47,-23.51"/>
</a>
</g>
</g>
<!-- Node16&#45;&gt;Node14 -->
<g id="edge27_Node000016_Node000014" class="edge">
<title>Node16&#45;&gt;Node14</title>
<g id="a_edge27_Node000016_Node000014"><a xlink:title=" ">
<path fill="none" stroke="#63b8ff" d="M127.34,-117.56C138.61,-115.6 150.51,-113.63 161.62,-112 290.71,-93.04 445.2,-76.87 511.62,-70.23"/>
<polygon fill="#63b8ff" stroke="#63b8ff" points="511.86,-73.72 521.47,-69.25 511.17,-66.76 511.86,-73.72"/>
</a>
</g>
</g>
<!-- Node17&#45;&gt;Node6 -->
<g id="edge30_Node000017_Node000006" class="edge">
<title>Node17&#45;&gt;Node6</title>
<g id="a_edge30_Node000017_Node000006"><a xlink:title=" ">
<path fill="none" stroke="#63b8ff" d="M772.28,-117.62C742.83,-107.53 695.76,-91.39 662.69,-80.05"/>
<polygon fill="#63b8ff" stroke="#63b8ff" points="664.09,-76.83 653.5,-76.9 661.82,-83.45 664.09,-76.83"/>
</a>
</g>
</g>
<!-- Node17&#45;&gt;Node8 -->
<g id="edge29_Node000017_Node000008" class="edge">
<title>Node17&#45;&gt;Node8</title>
<g id="a_edge29_Node000017_Node000008"><a xlink:title=" ">
<path fill="none" stroke="#63b8ff" d="M815.72,-117.62C832.05,-108.11 857.57,-93.24 876.75,-82.08"/>
<polygon fill="#63b8ff" stroke="#63b8ff" points="878.46,-85.13 885.34,-77.07 874.93,-79.08 878.46,-85.13"/>
</a>
</g>
</g>
<!-- Node17&#45;&gt;Node12 -->
<g id="edge31_Node000017_Node000012" class="edge">
<title>Node17&#45;&gt;Node12</title>
<g id="a_edge31_Node000017_Node000012"><a xlink:title=" ">
<path fill="none" stroke="#63b8ff" d="M837.79,-117.5C871.17,-108.61 920.58,-94.01 961.62,-76 993.83,-61.87 1028.57,-40.94 1050.91,-26.68"/>
<polygon fill="#63b8ff" stroke="#63b8ff" points="1052.76,-29.65 1059.25,-21.28 1048.96,-23.77 1052.76,-29.65"/>
</a>
</g>
</g>
<!-- Node17&#45;&gt;Node14 -->
<g id="edge32_Node000017_Node000014" class="edge">
<title>Node17&#45;&gt;Node14</title>
<g id="a_edge32_Node000017_Node000014"><a xlink:title=" ">
<path fill="none" stroke="#63b8ff" d="M759.5,-117.56C709.2,-105.72 623.95,-85.66 577.38,-74.71"/>
<polygon fill="#63b8ff" stroke="#63b8ff" points="578.43,-71.36 567.9,-72.48 576.83,-78.17 578.43,-71.36"/>
</a>
</g>
</g>
<!-- Node18&#45;&gt;Node8 -->
<g id="edge34_Node000018_Node000008" class="edge">
<title>Node18&#45;&gt;Node8</title>
<g id="a_edge34_Node000018_Node000008"><a xlink:title=" ">
<path fill="none" stroke="#63b8ff" d="M1204.4,-113.59C1201.44,-113.04 1198.5,-112.51 1195.62,-112 1115.64,-97.87 1022.91,-84.06 963.55,-75.54"/>
<polygon fill="#63b8ff" stroke="#63b8ff" points="964.4,-72.13 954,-74.18 963.41,-79.06 964.4,-72.13"/>
</a>
</g>
</g>
<!-- Node18&#45;&gt;Node10 -->
<g id="edge36_Node000018_Node000010" class="edge">
<title>Node18&#45;&gt;Node10</title>
<g id="a_edge36_Node000018_Node000010"><a xlink:title=" ">
<path fill="none" stroke="#63b8ff" d="M1261.29,-111.69C1250.46,-95.3 1231.06,-69.79 1207.62,-56 1147.04,-20.35 1119.88,-35.8 1047.82,-20.32"/>
<polygon fill="#63b8ff" stroke="#63b8ff" points="1048.85,-16.96 1038.32,-18.14 1047.29,-23.78 1048.85,-16.96"/>
</a>
</g>
</g>
<!-- Node18&#45;&gt;Node12 -->
<g id="edge37_Node000018_Node000012" class="edge">
<title>Node18&#45;&gt;Node12</title>
<g id="a_edge37_Node000018_Node000012"><a xlink:title=" ">
<path fill="none" stroke="#63b8ff" d="M1268.19,-111.67C1264.82,-95.51 1257.15,-70.44 1240.62,-56 1202.74,-22.91 1142.83,-13.89 1106.29,-11.58"/>
<polygon fill="#63b8ff" stroke="#63b8ff" points="1106.53,-8.09 1096.37,-11.1 1106.19,-15.08 1106.53,-8.09"/>
</a>
</g>
</g>
<!-- Node19 -->
<g id="Node000019" class="node">
<title>Node19</title>
<g id="a_Node000019"><a xlink:title=" ">
<polygon fill="#e0e0e0" stroke="#999999" points="1198.5,-76 1100.75,-76 1100.75,-56 1198.5,-56 1198.5,-76"/>
<text xml:space="preserve" text-anchor="middle" x="1149.62" y="-62.5" font-family="Helvetica,sans-Serif" font-size="10.00">nlohmann/json.hpp</text>
</a>
</g>
</g>
<!-- Node18&#45;&gt;Node19 -->
<g id="edge35_Node000018_Node000019" class="edge">
<title>Node18&#45;&gt;Node19</title>
<g id="a_edge35_Node000018_Node000019"><a xlink:title=" ">
<path fill="none" stroke="#63b8ff" d="M1239.46,-111.55C1220.73,-102.26 1197.05,-90.52 1178.71,-81.42"/>
<polygon fill="#63b8ff" stroke="#63b8ff" points="1180.47,-78.39 1169.95,-77.08 1177.36,-84.66 1180.47,-78.39"/>
</a>
</g>
</g>
<!-- Node20&#45;&gt;Node6 -->
<g id="edge40_Node000020_Node000006" class="edge">
<title>Node20&#45;&gt;Node6</title>
<g id="a_edge40_Node000020_Node000006"><a xlink:title=" ">
<path fill="none" stroke="#63b8ff" d="M1064.56,-117.56C1053.43,-115.58 1041.64,-113.6 1030.62,-112 898.23,-92.72 740.48,-77.42 666.64,-70.7"/>
<polygon fill="#63b8ff" stroke="#63b8ff" points="667.31,-67.25 657.04,-69.83 666.68,-74.22 667.31,-67.25"/>
</a>
</g>
</g>
<!-- Node20&#45;&gt;Node8 -->
<g id="edge39_Node000020_Node000008" class="edge">
<title>Node20&#45;&gt;Node8</title>
<g id="a_edge39_Node000020_Node000008"><a xlink:title=" ">
<path fill="none" stroke="#63b8ff" d="M1080.66,-117.62C1044.61,-107.37 986.66,-90.9 946.72,-79.54"/>
<polygon fill="#63b8ff" stroke="#63b8ff" points="947.74,-76.19 937.17,-76.82 945.83,-82.92 947.74,-76.19"/>
</a>
</g>
</g>
<!-- Node20&#45;&gt;Node12 -->
<g id="edge42_Node000020_Node000012" class="edge">
<title>Node20&#45;&gt;Node12</title>
<g id="a_edge42_Node000020_Node000012"><a xlink:title=" ">
<path fill="none" stroke="#63b8ff" d="M1109.14,-117.77C1104.35,-107.68 1096.77,-90.95 1091.62,-76 1086.56,-61.29 1082.16,-44.26 1079.1,-31.33"/>
<polygon fill="#63b8ff" stroke="#63b8ff" points="1082.58,-30.84 1076.95,-21.86 1075.76,-32.39 1082.58,-30.84"/>
</a>
</g>
</g>
<!-- Node20&#45;&gt;Node19 -->
<g id="edge41_Node000020_Node000019" class="edge">
<title>Node20&#45;&gt;Node19</title>
<g id="a_edge41_Node000020_Node000019"><a xlink:title=" ">
<path fill="none" stroke="#63b8ff" d="M1119.25,-117.62C1124.35,-109.12 1132.03,-96.33 1138.38,-85.74"/>
<polygon fill="#63b8ff" stroke="#63b8ff" points="1141.23,-87.79 1143.38,-77.41 1135.23,-84.18 1141.23,-87.79"/>
</a>
</g>
</g>
<!-- Node21&#45;&gt;Node9 -->
<g id="edge45_Node000021_Node000009" class="edge">
<title>Node21&#45;&gt;Node9</title>
<g id="a_edge45_Node000021_Node000009"><a xlink:title=" ">
<path fill="none" stroke="#63b8ff" d="M1473.26,-57.32C1468.65,-56.84 1464.07,-56.39 1459.62,-56 1187.44,-31.82 1112.69,-64.86 839.61,-19.93"/>
<polygon fill="#63b8ff" stroke="#63b8ff" points="840.49,-16.53 830.06,-18.34 839.34,-23.44 840.49,-16.53"/>
</a>
</g>
</g>
<!-- Node21&#45;&gt;Node12 -->
<g id="edge48_Node000021_Node000012" class="edge">
<title>Node21&#45;&gt;Node12</title>
<g id="a_edge48_Node000021_Node000012"><a xlink:title=" ">
<path fill="none" stroke="#63b8ff" d="M1473.23,-57.62C1468.63,-57.07 1464.05,-56.52 1459.62,-56 1328.45,-40.46 1172.1,-22.3 1106.29,-14.67"/>
<polygon fill="#63b8ff" stroke="#63b8ff" points="1106.92,-11.22 1096.58,-13.54 1106.11,-18.17 1106.92,-11.22"/>
</a>
</g>
</g>
<!-- Node22 -->
<g id="Node000022" class="node">
<title>Node22</title>
<g id="a_Node000022"><a xlink:title=" ">
<polygon fill="#e0e0e0" stroke="#999999" points="1592.75,-20 1532.5,-20 1532.5,0 1592.75,0 1592.75,-20"/>
<text xml:space="preserve" text-anchor="middle" x="1562.62" y="-6.5" font-family="Helvetica,sans-Serif" font-size="10.00">fmt/core.h</text>
</a>
</g>
</g>
<!-- Node21&#45;&gt;Node22 -->
<g id="edge44_Node000021_Node000022" class="edge">
<title>Node21&#45;&gt;Node22</title>
<g id="a_edge44_Node000021_Node000022"><a xlink:title=" ">
<path fill="none" stroke="#63b8ff" d="M1539.5,-55.59C1543.12,-48.63 1548.17,-38.89 1552.62,-30.29"/>
<polygon fill="#63b8ff" stroke="#63b8ff" points="1555.61,-32.13 1557.11,-21.64 1549.4,-28.91 1555.61,-32.13"/>
</a>
</g>
</g>
<!-- Node21&#45;&gt;Node23 -->
<g id="edge46_Node000021_Node000023" class="edge">
<title>Node21&#45;&gt;Node23</title>
<g id="a_edge46_Node000021_Node000023"><a xlink:title=" ">
<path fill="none" stroke="#63b8ff" d="M1566.5,-55.59C1598.43,-46.17 1647.5,-31.69 1681.01,-21.8"/>
<polygon fill="#63b8ff" stroke="#63b8ff" points="1681.67,-25.26 1690.28,-19.07 1679.69,-18.54 1681.67,-25.26"/>
</a>
</g>
</g>
<!-- Node24 -->
<g id="Node000024" class="node">
<title>Node24</title>
<g id="a_Node000024"><a xlink:title=" ">
<polygon fill="#e0e0e0" stroke="#999999" points="1514.25,-20 1463,-20 1463,0 1514.25,0 1514.25,-20"/>
<text xml:space="preserve" text-anchor="middle" x="1488.62" y="-6.5" font-family="Helvetica,sans-Serif" font-size="10.00">sstream</text>
</a>
</g>
</g>
<!-- Node21&#45;&gt;Node24 -->
<g id="edge47_Node000021_Node000024" class="edge">
<title>Node21&#45;&gt;Node24</title>
<g id="a_edge47_Node000021_Node000024"><a xlink:title=" ">
<path fill="none" stroke="#63b8ff" d="M1526.61,-55.59C1520.35,-48.24 1511.45,-37.8 1503.84,-28.87"/>
<polygon fill="#63b8ff" stroke="#63b8ff" points="1506.68,-26.79 1497.53,-21.45 1501.35,-31.33 1506.68,-26.79"/>
</a>
</g>
</g>
<!-- Node25&#45;&gt;Node12 -->
<g id="edge52_Node000025_Node000012" class="edge">
<title>Node25&#45;&gt;Node12</title>
<g id="a_edge52_Node000025_Node000012"><a xlink:title=" ">
<path fill="none" stroke="#63b8ff" d="M1656.37,-117.59C1648.63,-101.72 1630.61,-69.99 1604.62,-56 1517.89,-9.31 1207.61,-9.19 1106.63,-10.44"/>
<polygon fill="#63b8ff" stroke="#63b8ff" points="1106.58,-6.94 1096.63,-10.58 1106.68,-13.94 1106.58,-6.94"/>
</a>
</g>
</g>
<!-- Node25&#45;&gt;Node21 -->
<g id="edge50_Node000025_Node000021" class="edge">
<title>Node25&#45;&gt;Node21</title>
<g id="a_edge50_Node000025_Node000021"><a xlink:title=" ">
<path fill="none" stroke="#63b8ff" d="M1640.94,-117.62C1620.41,-107.85 1587.99,-92.41 1564.35,-81.15"/>
<polygon fill="#63b8ff" stroke="#63b8ff" points="1566.07,-78.1 1555.54,-76.96 1563.06,-84.42 1566.07,-78.1"/>
</a>
</g>
</g>
<!-- Node25&#45;&gt;Node23 -->
<g id="edge51_Node000025_Node000023" class="edge">
<title>Node25&#45;&gt;Node23</title>
<g id="a_edge51_Node000025_Node000023"><a xlink:title=" ">
<path fill="none" stroke="#63b8ff" d="M1665.29,-117.51C1674.6,-98.55 1695.68,-55.67 1708.05,-30.48"/>
<polygon fill="#63b8ff" stroke="#63b8ff" points="1711.12,-32.18 1712.39,-21.66 1704.84,-29.09 1711.12,-32.18"/>
</a>
</g>
</g>
<!-- Node26&#45;&gt;Node21 -->
<g id="edge54_Node000026_Node000021" class="edge">
<title>Node26&#45;&gt;Node21</title>
<g id="a_edge54_Node000026_Node000021"><a xlink:title=" ">
<path fill="none" stroke="#63b8ff" d="M1472.19,-117.62C1483.55,-108.41 1501.11,-94.17 1514.72,-83.14"/>
<polygon fill="#63b8ff" stroke="#63b8ff" points="1516.65,-86.08 1522.21,-77.07 1512.24,-80.65 1516.65,-86.08"/>
</a>
</g>
</g>
<!-- Node27&#45;&gt;Node6 -->
<g id="edge58_Node000027_Node000006" class="edge">
<title>Node27&#45;&gt;Node6</title>
<g id="a_edge58_Node000027_Node000006"><a xlink:title=" ">
<path fill="none" stroke="#63b8ff" d="M902.96,-113.65C900.14,-113.08 897.35,-112.53 894.62,-112 814.38,-96.47 720.09,-81.5 666.84,-73.34"/>
<polygon fill="#63b8ff" stroke="#63b8ff" points="667.4,-69.89 656.99,-71.84 666.35,-76.81 667.4,-69.89"/>
</a>
</g>
</g>
<!-- Node27&#45;&gt;Node8 -->
<g id="edge56_Node000027_Node000008" class="edge">
<title>Node27&#45;&gt;Node8</title>
<g id="a_edge56_Node000027_Node000008"><a xlink:title=" ">
<path fill="none" stroke="#63b8ff" d="M947.17,-111.55C938.84,-103.22 928.53,-92.91 919.93,-84.3"/>
<polygon fill="#63b8ff" stroke="#63b8ff" points="922.65,-82.07 913.1,-77.48 917.7,-87.02 922.65,-82.07"/>
</a>
</g>
</g>
<!-- Node27&#45;&gt;Node9 -->
<g id="edge57_Node000027_Node000009" class="edge">
<title>Node27&#45;&gt;Node9</title>
<g id="a_edge57_Node000027_Node000009"><a xlink:title=" ">
<path fill="none" stroke="#63b8ff" d="M907.24,-111.57C885.62,-103.55 861.74,-91.99 843.62,-76 829.69,-63.7 819.51,-45.01 813.22,-30.82"/>
<polygon fill="#63b8ff" stroke="#63b8ff" points="816.47,-29.52 809.42,-21.61 809.99,-32.19 816.47,-29.52"/>
</a>
</g>
</g>
<!-- Node27&#45;&gt;Node12 -->
<g id="edge59_Node000027_Node000012" class="edge">
<title>Node27&#45;&gt;Node12</title>
<g id="a_edge59_Node000027_Node000012"><a xlink:title=" ">
<path fill="none" stroke="#63b8ff" d="M977.27,-111.84C998,-90.37 1035.81,-51.2 1057.71,-28.52"/>
<polygon fill="#63b8ff" stroke="#63b8ff" points="1060.03,-31.15 1064.46,-21.53 1055,-26.29 1060.03,-31.15"/>
</a>
</g>
</g>
<!-- Node28&#45;&gt;Node12 -->
<g id="edge61_Node000028_Node000012" class="edge">
<title>Node28&#45;&gt;Node12</title>
<g id="a_edge61_Node000028_Node000012"><a xlink:title=" ">
<path fill="none" stroke="#63b8ff" d="M1319.55,-55.53C1257.95,-44.33 1157.33,-26.04 1106.36,-16.77"/>
<polygon fill="#63b8ff" stroke="#63b8ff" points="1107.06,-13.34 1096.59,-14.99 1105.81,-20.23 1107.06,-13.34"/>
</a>
</g>
</g>
</g>
</svg>
