<?xml version="1.0" encoding="UTF-8" standalone="no"?>
<!DOCTYPE svg PUBLIC "-//W3C//DTD SVG 1.1//EN"
 "http://www.w3.org/Graphics/SVG/1.1/DTD/svg11.dtd">
<!-- Generated by graphviz version 13.1.2 (20250808.2320)
 -->
<!-- Title: main Pages: 1 -->
<svg width="604pt" height="164pt"
 viewBox="0.00 0.00 604.00 164.00" xmlns="http://www.w3.org/2000/svg" xmlns:xlink="http://www.w3.org/1999/xlink">
<g id="graph0" class="graph" transform="scale(1 1) rotate(0) translate(4 160)">
<title>main</title>
<!-- Node1 -->
<g id="Node000001" class="node">
<title>Node1</title>
<g id="a_Node000001"><a xlink:title=" ">
<polygon fill="#999999" stroke="#666666" points="37,-88 0,-88 0,-68 37,-68 37,-88"/>
<text xml:space="preserve" text-anchor="middle" x="18.5" y="-74.5" font-family="Helvetica,sans-Serif" font-size="10.00">main</text>
</a>
</g>
</g>
<!-- Node2 -->
<g id="Node000002" class="node">
<title>Node2</title>
<g id="a_Node000002"><a xlink:href="classdotnamecpp_1_1utils_1_1UtilsFactory.html#adb1debe875686643fe487a625750400f" target="_top" xlink:title=" ">
<polygon fill="white" stroke="#666666" points="238.25,-147 73,-147 73,-115 238.25,-115 238.25,-147"/>
<text xml:space="preserve" text-anchor="start" x="81" y="-133.5" font-family="Helvetica,sans-Serif" font-size="10.00">dotnamecpp::utils::</text>
<text xml:space="preserve" text-anchor="middle" x="155.62" y="-121.5" font-family="Helvetica,sans-Serif" font-size="10.00">UtilsFactory::createAssetManager</text>
</a>
</g>
</g>
<!-- Node1&#45;&gt;Node2 -->
<g id="edge1_Node000001_Node000002" class="edge">
<title>Node1&#45;&gt;Node2</title>
<g id="a_edge1_Node000001_Node000002"><a xlink:title=" ">
<path fill="none" stroke="#63b8ff" d="M37.12,-86.81C47.46,-91.84 60.83,-98.09 73,-103 79.47,-105.61 86.29,-108.2 93.12,-110.69"/>
<polygon fill="#63b8ff" stroke="#63b8ff" points="91.79,-113.93 102.38,-114 94.14,-107.34 91.79,-113.93"/>
</a>
</g>
</g>
<!-- Node5 -->
<g id="Node000005" class="node">
<title>Node5</title>
<g id="a_Node000005"><a xlink:href="classdotnamecpp_1_1utils_1_1UtilsFactory.html#accf95777b78081e29cd677b633ab9461" target="_top" xlink:title=" ">
<polygon fill="white" stroke="#666666" points="221.38,-94 89.88,-94 89.88,-62 221.38,-62 221.38,-94"/>
<text xml:space="preserve" text-anchor="start" x="97.88" y="-80.5" font-family="Helvetica,sans-Serif" font-size="10.00">dotnamecpp::utils::</text>
<text xml:space="preserve" text-anchor="middle" x="155.62" y="-68.5" font-family="Helvetica,sans-Serif" font-size="10.00">UtilsFactory::createLogger</text>
</a>
</g>
</g>
<!-- Node1&#45;&gt;Node5 -->
<g id="edge4_Node000001_Node000005" class="edge">
<title>Node1&#45;&gt;Node5</title>
<g id="a_edge4_Node000001_Node000005"><a xlink:title=" ">
<path fill="none" stroke="#63b8ff" d="M37.44,-78C48.3,-78 62.98,-78 78.26,-78"/>
<polygon fill="#63b8ff" stroke="#63b8ff" points="77.94,-81.5 87.94,-78 77.94,-74.5 77.94,-81.5"/>
</a>
</g>
</g>
<!-- Node9 -->
<g id="Node000009" class="node">
<title>Node9</title>
<g id="a_Node000009"><a xlink:href="classdotnamecpp_1_1utils_1_1UtilsFactory.html#a5dd47e86b64ad3d8efb881d5b6db1f9d" target="_top" xlink:title=" ">
<polygon fill="white" stroke="#666666" points="233.38,-41 77.88,-41 77.88,-9 233.38,-9 233.38,-41"/>
<text xml:space="preserve" text-anchor="start" x="85.88" y="-27.5" font-family="Helvetica,sans-Serif" font-size="10.00">dotnamecpp::utils::</text>
<text xml:space="preserve" text-anchor="middle" x="155.62" y="-15.5" font-family="Helvetica,sans-Serif" font-size="10.00">UtilsFactory::createPlatformInfo</text>
</a>
</g>
</g>
<!-- Node1&#45;&gt;Node9 -->
<g id="edge8_Node000001_Node000009" class="edge">
<title>Node1&#45;&gt;Node9</title>
<g id="a_edge8_Node000001_Node000009"><a xlink:title=" ">
<path fill="none" stroke="#63b8ff" d="M37.12,-69.19C47.46,-64.16 60.83,-57.91 73,-53 79.47,-50.39 86.29,-47.8 93.12,-45.31"/>
<polygon fill="#63b8ff" stroke="#63b8ff" points="94.14,-48.66 102.38,-42 91.79,-42.07 94.14,-48.66"/>
</a>
</g>
</g>
<!-- Node3 -->
<g id="Node000003" class="node">
<title>Node3</title>
<g id="a_Node000003"><a xlink:href="classdotnamecpp_1_1assets_1_1AssetManagerFactory.html#ac8586007318eb5a7692241afdaed9ba9" target="_top" xlink:title="Create a Default object.">
<polygon fill="white" stroke="#666666" points="399.38,-156 281.38,-156 281.38,-112 399.38,-112 399.38,-156"/>
<text xml:space="preserve" text-anchor="start" x="289.38" y="-142.5" font-family="Helvetica,sans-Serif" font-size="10.00">dotnamecpp::assets</text>
<text xml:space="preserve" text-anchor="start" x="289.38" y="-130.5" font-family="Helvetica,sans-Serif" font-size="10.00">::AssetManagerFactory</text>
<text xml:space="preserve" text-anchor="middle" x="340.38" y="-118.5" font-family="Helvetica,sans-Serif" font-size="10.00">::createDefault</text>
</a>
</g>
</g>
<!-- Node2&#45;&gt;Node3 -->
<g id="edge2_Node000002_Node000003" class="edge">
<title>Node2&#45;&gt;Node3</title>
<g id="a_edge2_Node000002_Node000003"><a xlink:title=" ">
<path fill="none" stroke="#63b8ff" d="M238.65,-132.35C249.06,-132.52 259.63,-132.69 269.82,-132.86"/>
<polygon fill="#63b8ff" stroke="#63b8ff" points="269.56,-136.35 279.62,-133.02 269.68,-129.36 269.56,-136.35"/>
</a>
</g>
</g>
<!-- Node4 -->
<g id="Node000004" class="node">
<title>Node4</title>
<g id="a_Node000004"><a xlink:href="classdotnamecpp_1_1assets_1_1AssetManager.html#af6846c31c10bcf4a5e937f1627aa0f48" target="_top" xlink:title="Create a new Asset Manager instance.">
<polygon fill="white" stroke="#666666" points="578.12,-150 460.12,-150 460.12,-118 578.12,-118 578.12,-150"/>
<text xml:space="preserve" text-anchor="start" x="468.12" y="-136.5" font-family="Helvetica,sans-Serif" font-size="10.00">dotnamecpp::assets</text>
<text xml:space="preserve" text-anchor="middle" x="519.12" y="-124.5" font-family="Helvetica,sans-Serif" font-size="10.00">::AssetManager::create</text>
</a>
</g>
</g>
<!-- Node3&#45;&gt;Node4 -->
<g id="edge3_Node000003_Node000004" class="edge">
<title>Node3&#45;&gt;Node4</title>
<g id="a_edge3_Node000003_Node000004"><a xlink:title=" ">
<path fill="none" stroke="#63b8ff" d="M399.74,-134C415.43,-134 432.54,-134 448.76,-134"/>
<polygon fill="#63b8ff" stroke="#63b8ff" points="448.31,-137.5 458.31,-134 448.31,-130.5 448.31,-137.5"/>
</a>
</g>
</g>
<!-- Node6 -->
<g id="Node000006" class="node">
<title>Node6</title>
<g id="a_Node000006"><a xlink:href="classdotnamecpp_1_1logging_1_1LoggerFactory.html#a2811f86fe84698397f09f3ae18959511" target="_top" xlink:title="Create a logger instance based on the specified type and configuration.">
<polygon fill="white" stroke="#666666" points="399,-94 281.75,-94 281.75,-62 399,-62 399,-94"/>
<text xml:space="preserve" text-anchor="start" x="289.75" y="-80.5" font-family="Helvetica,sans-Serif" font-size="10.00">dotnamecpp::logging</text>
<text xml:space="preserve" text-anchor="middle" x="340.38" y="-68.5" font-family="Helvetica,sans-Serif" font-size="10.00">::LoggerFactory::create</text>
</a>
</g>
</g>
<!-- Node5&#45;&gt;Node6 -->
<g id="edge5_Node000005_Node000006" class="edge">
<title>Node5&#45;&gt;Node6</title>
<g id="a_edge5_Node000005_Node000006"><a xlink:title=" ">
<path fill="none" stroke="#63b8ff" d="M221.83,-78C237.5,-78 254.29,-78 270.14,-78"/>
<polygon fill="#63b8ff" stroke="#63b8ff" points="269.97,-81.5 279.97,-78 269.97,-74.5 269.97,-81.5"/>
</a>
</g>
</g>
<!-- Node7 -->
<g id="Node000007" class="node">
<title>Node7</title>
<g id="a_Node000007"><a xlink:href="classdotnamecpp_1_1logging_1_1LoggerFactory.html#a66665981d61ca1baae6f1801a597bb65" target="_top" xlink:title="Create a Console object logger.">
<polygon fill="white" stroke="#666666" points="595.75,-97 442.5,-97 442.5,-65 595.75,-65 595.75,-97"/>
<text xml:space="preserve" text-anchor="start" x="450.5" y="-83.5" font-family="Helvetica,sans-Serif" font-size="10.00">dotnamecpp::logging</text>
<text xml:space="preserve" text-anchor="middle" x="519.12" y="-71.5" font-family="Helvetica,sans-Serif" font-size="10.00">::LoggerFactory::createConsole</text>
</a>
</g>
</g>
<!-- Node6&#45;&gt;Node7 -->
<g id="edge6_Node000006_Node000007" class="edge">
<title>Node6&#45;&gt;Node7</title>
<g id="a_edge6_Node000006_Node000007"><a xlink:title=" ">
<path fill="none" stroke="#63b8ff" d="M399.25,-78.98C409.3,-79.15 419.96,-79.33 430.6,-79.51"/>
<polygon fill="#63b8ff" stroke="#63b8ff" points="430.54,-83.01 440.6,-79.68 430.66,-76.01 430.54,-83.01"/>
</a>
</g>
</g>
<!-- Node8 -->
<g id="Node000008" class="node">
<title>Node8</title>
<g id="a_Node000008"><a xlink:href="classdotnamecpp_1_1logging_1_1LoggerFactory.html#a1cf52c1ddb57eae93a5aab46b593d021" target="_top" xlink:title="Create a Null object logger.">
<polygon fill="white" stroke="#666666" points="586.38,-47 451.88,-47 451.88,-15 586.38,-15 586.38,-47"/>
<text xml:space="preserve" text-anchor="start" x="459.88" y="-33.5" font-family="Helvetica,sans-Serif" font-size="10.00">dotnamecpp::logging</text>
<text xml:space="preserve" text-anchor="middle" x="519.12" y="-21.5" font-family="Helvetica,sans-Serif" font-size="10.00">::LoggerFactory::createNull</text>
</a>
</g>
</g>
<!-- Node6&#45;&gt;Node8 -->
<g id="edge7_Node000006_Node000008" class="edge">
<title>Node6&#45;&gt;Node8</title>
<g id="a_edge7_Node000006_Node000008"><a xlink:title=" ">
<path fill="none" stroke="#63b8ff" d="M399.25,-62.61C413.91,-58.71 429.85,-54.47 445.16,-50.4"/>
<polygon fill="#63b8ff" stroke="#63b8ff" points="445.94,-53.82 454.7,-47.87 444.14,-47.05 445.94,-53.82"/>
</a>
</g>
</g>
<!-- Node10 -->
<g id="Node000010" class="node">
<title>Node10</title>
<g id="a_Node000010"><a xlink:href="classdotnamecpp_1_1utils_1_1PlatformInfoFactory.html#ab7dafcf5ba115a99f7d80fa045639f84" target="_top" xlink:title=" ">
<polygon fill="white" stroke="#666666" points="406.5,-44 274.25,-44 274.25,0 406.5,0 406.5,-44"/>
<text xml:space="preserve" text-anchor="start" x="282.25" y="-30.5" font-family="Helvetica,sans-Serif" font-size="10.00">dotnamecpp::utils::</text>
<text xml:space="preserve" text-anchor="start" x="282.25" y="-18.5" font-family="Helvetica,sans-Serif" font-size="10.00">PlatformInfoFactory</text>
<text xml:space="preserve" text-anchor="middle" x="340.38" y="-6.5" font-family="Helvetica,sans-Serif" font-size="10.00">::createForCurrentPlatform</text>
</a>
</g>
</g>
<!-- Node9&#45;&gt;Node10 -->
<g id="edge9_Node000009_Node000010" class="edge">
<title>Node9&#45;&gt;Node10</title>
<g id="a_edge9_Node000009_Node000010"><a xlink:title=" ">
<path fill="none" stroke="#63b8ff" d="M233.86,-23.73C243.35,-23.58 253.05,-23.42 262.53,-23.26"/>
<polygon fill="#63b8ff" stroke="#63b8ff" points="262.51,-26.76 272.45,-23.1 262.39,-19.76 262.51,-26.76"/>
</a>
</g>
</g>
</g>
</svg>
