<?xml version="1.0" encoding="UTF-8" standalone="no"?>
<!DOCTYPE svg PUBLIC "-//W3C//DTD SVG 1.1//EN"
 "http://www.w3.org/Graphics/SVG/1.1/DTD/svg11.dtd">
<!-- Generated by graphviz version 13.1.2 (20250808.2320)
 -->
<!-- Title: dotnamecpp::utils::UtilsFactory::createCustomStringsLoader Pages: 1 -->
<svg width="530pt" height="90pt"
 viewBox="0.00 0.00 530.00 90.00" xmlns="http://www.w3.org/2000/svg" xmlns:xlink="http://www.w3.org/1999/xlink">
<g id="graph0" class="graph" transform="scale(1 1) rotate(0) translate(4 86)">
<title>dotnamecpp::utils::UtilsFactory::createCustomStringsLoader</title>
<!-- Node1 -->
<g id="Node000001" class="node">
<title>Node1</title>
<g id="a_Node000001"><a xlink:title=" ">
<polygon fill="#999999" stroke="#666666" points="136.75,-63 0,-63 0,-19 136.75,-19 136.75,-63"/>
<text xml:space="preserve" text-anchor="start" x="8" y="-49.5" font-family="Helvetica,sans-Serif" font-size="10.00">dotnamecpp::utils::</text>
<text xml:space="preserve" text-anchor="start" x="8" y="-37.5" font-family="Helvetica,sans-Serif" font-size="10.00">UtilsFactory::createCustom</text>
<text xml:space="preserve" text-anchor="middle" x="68.38" y="-25.5" font-family="Helvetica,sans-Serif" font-size="10.00">StringsLoader</text>
</a>
</g>
</g>
<!-- Node2 -->
<g id="Node000002" class="node">
<title>Node2</title>
<g id="a_Node000002"><a xlink:href="classdotnamecpp_1_1utils_1_1UtilsFactory.html#a9fcea5e7ff94872b54a8c01eb2d9c965" target="_top" xlink:title=" ">
<polygon fill="white" stroke="#666666" points="336.5,-57 172.75,-57 172.75,-25 336.5,-25 336.5,-57"/>
<text xml:space="preserve" text-anchor="start" x="180.75" y="-43.5" font-family="Helvetica,sans-Serif" font-size="10.00">dotnamecpp::utils::</text>
<text xml:space="preserve" text-anchor="middle" x="254.62" y="-31.5" font-family="Helvetica,sans-Serif" font-size="10.00">UtilsFactory::createJsonSerializer</text>
</a>
</g>
</g>
<!-- Node1&#45;&gt;Node2 -->
<g id="edge1_Node000001_Node000002" class="edge">
<title>Node1&#45;&gt;Node2</title>
<g id="a_edge1_Node000001_Node000002"><a xlink:title=" ">
<path fill="none" stroke="#63b8ff" d="M137.2,-41C145.01,-41 153.07,-41 161.14,-41"/>
<polygon fill="#63b8ff" stroke="#63b8ff" points="161,-44.5 171,-41 161,-37.5 161,-44.5"/>
</a>
</g>
</g>
<!-- Node3 -->
<g id="Node000003" class="node">
<title>Node3</title>
<g id="a_Node000003"><a xlink:href="classdotnamecpp_1_1utils_1_1UtilsFactory.html#ad559863ad0bfa1fe1805f82089cfe948" target="_top" xlink:title=" ">
<polygon fill="white" stroke="#666666" points="522,-82 372.5,-82 372.5,-50 522,-50 522,-82"/>
<text xml:space="preserve" text-anchor="start" x="380.5" y="-68.5" font-family="Helvetica,sans-Serif" font-size="10.00">dotnamecpp::utils::</text>
<text xml:space="preserve" text-anchor="middle" x="447.25" y="-56.5" font-family="Helvetica,sans-Serif" font-size="10.00">UtilsFactory::createFileReader</text>
</a>
</g>
</g>
<!-- Node2&#45;&gt;Node3 -->
<g id="edge2_Node000002_Node000003" class="edge">
<title>Node2&#45;&gt;Node3</title>
<g id="a_edge2_Node000002_Node000003"><a xlink:title=" ">
<path fill="none" stroke="#63b8ff" d="M336.74,-51.64C344.73,-52.69 352.86,-53.75 360.89,-54.81"/>
<polygon fill="#63b8ff" stroke="#63b8ff" points="360.28,-58.26 370.65,-56.09 361.19,-51.32 360.28,-58.26"/>
</a>
</g>
</g>
<!-- Node4 -->
<g id="Node000004" class="node">
<title>Node4</title>
<g id="a_Node000004"><a xlink:href="classdotnamecpp_1_1utils_1_1UtilsFactory.html#aa935a454b1b16e1f69ee05949cf37701" target="_top" xlink:title=" ">
<polygon fill="white" stroke="#666666" points="519,-32 375.5,-32 375.5,0 519,0 519,-32"/>
<text xml:space="preserve" text-anchor="start" x="383.5" y="-18.5" font-family="Helvetica,sans-Serif" font-size="10.00">dotnamecpp::utils::</text>
<text xml:space="preserve" text-anchor="middle" x="447.25" y="-6.5" font-family="Helvetica,sans-Serif" font-size="10.00">UtilsFactory::createFileWriter</text>
</a>
</g>
</g>
<!-- Node2&#45;&gt;Node4 -->
<g id="edge3_Node000002_Node000004" class="edge">
<title>Node2&#45;&gt;Node4</title>
<g id="a_edge3_Node000002_Node000004"><a xlink:title=" ">
<path fill="none" stroke="#63b8ff" d="M336.74,-30.36C345.72,-29.18 354.87,-27.98 363.86,-26.8"/>
<polygon fill="#63b8ff" stroke="#63b8ff" points="364.19,-30.29 373.65,-25.52 363.28,-23.35 364.19,-30.29"/>
</a>
</g>
</g>
</g>
</svg>
