<?xml version="1.0" encoding="UTF-8" standalone="no"?>
<!DOCTYPE svg PUBLIC "-//W3C//DTD SVG 1.1//EN"
 "http://www.w3.org/Graphics/SVG/1.1/DTD/svg11.dtd">
<!-- Generated by graphviz version 13.1.2 (20250808.2320)
 -->
<!-- Title: dotnamecpp::logging::LoggerFactory::createNull Pages: 1 -->
<svg width="843pt" height="140pt"
 viewBox="0.00 0.00 843.00 140.00" xmlns="http://www.w3.org/2000/svg" xmlns:xlink="http://www.w3.org/1999/xlink">
<g id="graph0" class="graph" transform="scale(1 1) rotate(0) translate(4 136)">
<title>dotnamecpp::logging::LoggerFactory::createNull</title>
<!-- Node1 -->
<g id="Node000001" class="node">
<title>Node1</title>
<g id="a_Node000001"><a xlink:title="Create a Null object logger.">
<polygon fill="#999999" stroke="#666666" points="834.5,-76 700,-76 700,-44 834.5,-44 834.5,-76"/>
<text xml:space="preserve" text-anchor="start" x="708" y="-62.5" font-family="Helvetica,sans-Serif" font-size="10.00">dotnamecpp::logging</text>
<text xml:space="preserve" text-anchor="middle" x="767.25" y="-50.5" font-family="Helvetica,sans-Serif" font-size="10.00">::LoggerFactory::createNull</text>
</a>
</g>
</g>
<!-- Node2 -->
<g id="Node000002" class="node">
<title>Node2</title>
<g id="a_Node000002"><a xlink:href="classdotnamecpp_1_1logging_1_1LoggerFactory.html#a2811f86fe84698397f09f3ae18959511" target="_top" xlink:title="Create a logger instance based on the specified type and configuration.">
<polygon fill="white" stroke="#666666" points="664,-76 546.75,-76 546.75,-44 664,-44 664,-76"/>
<text xml:space="preserve" text-anchor="start" x="554.75" y="-62.5" font-family="Helvetica,sans-Serif" font-size="10.00">dotnamecpp::logging</text>
<text xml:space="preserve" text-anchor="middle" x="605.38" y="-50.5" font-family="Helvetica,sans-Serif" font-size="10.00">::LoggerFactory::create</text>
</a>
</g>
</g>
<!-- Node1&#45;&gt;Node2 -->
<g id="edge1_Node000001_Node000002" class="edge">
<title>Node1&#45;&gt;Node2</title>
<g id="a_edge1_Node000001_Node000002"><a xlink:title=" ">
<path fill="none" stroke="#63b8ff" d="M688.45,-60C680.36,-60 672.25,-60 664.43,-60"/>
<polygon fill="#63b8ff" stroke="#63b8ff" points="688.32,-63.5 698.32,-60 688.32,-56.5 688.32,-63.5"/>
</a>
</g>
</g>
<!-- Node3 -->
<g id="Node000003" class="node">
<title>Node3</title>
<g id="a_Node000003"><a xlink:href="classdotnamecpp_1_1utils_1_1UtilsFactory.html#accf95777b78081e29cd677b633ab9461" target="_top" xlink:title=" ">
<polygon fill="white" stroke="#666666" points="510.75,-76 379.25,-76 379.25,-44 510.75,-44 510.75,-76"/>
<text xml:space="preserve" text-anchor="start" x="387.25" y="-62.5" font-family="Helvetica,sans-Serif" font-size="10.00">dotnamecpp::utils::</text>
<text xml:space="preserve" text-anchor="middle" x="445" y="-50.5" font-family="Helvetica,sans-Serif" font-size="10.00">UtilsFactory::createLogger</text>
</a>
</g>
</g>
<!-- Node2&#45;&gt;Node3 -->
<g id="edge2_Node000002_Node000003" class="edge">
<title>Node2&#45;&gt;Node3</title>
<g id="a_edge2_Node000002_Node000003"><a xlink:title=" ">
<path fill="none" stroke="#63b8ff" d="M534.84,-60C526.92,-60 518.87,-60 511.02,-60"/>
<polygon fill="#63b8ff" stroke="#63b8ff" points="534.79,-63.5 544.79,-60 534.79,-56.5 534.79,-63.5"/>
</a>
</g>
</g>
<!-- Node4 -->
<g id="Node000004" class="node">
<title>Node4</title>
<g id="a_Node000004"><a xlink:href="classdotnamecpp_1_1utils_1_1UtilsFactory.html#a76b90ad17cd7e0dc50796299c94b8567" target="_top" xlink:title="Create complete application components.">
<polygon fill="white" stroke="#666666" points="343.25,-132 168.25,-132 168.25,-100 343.25,-100 343.25,-132"/>
<text xml:space="preserve" text-anchor="start" x="176.25" y="-118.5" font-family="Helvetica,sans-Serif" font-size="10.00">dotnamecpp::utils::</text>
<text xml:space="preserve" text-anchor="middle" x="255.75" y="-106.5" font-family="Helvetica,sans-Serif" font-size="10.00">UtilsFactory::createAppComponents</text>
</a>
</g>
</g>
<!-- Node3&#45;&gt;Node4 -->
<g id="edge3_Node000003_Node000004" class="edge">
<title>Node3&#45;&gt;Node4</title>
<g id="a_edge3_Node000003_Node000004"><a xlink:title=" ">
<path fill="none" stroke="#63b8ff" d="M380.54,-79.71C368.19,-83.49 355.32,-87.4 343.25,-91 333.81,-93.82 323.78,-96.76 314.02,-99.6"/>
<polygon fill="#63b8ff" stroke="#63b8ff" points="381.26,-83.15 389.79,-76.86 379.21,-76.46 381.26,-83.15"/>
</a>
</g>
</g>
<!-- Node5 -->
<g id="Node000005" class="node">
<title>Node5</title>
<g id="a_Node000005"><a xlink:href="classdotnamecpp_1_1utils_1_1UtilsFactory.html#a85aa2ef9b8d0cec5f67e3953f0d1937b" target="_top" xlink:title=" ">
<polygon fill="white" stroke="#666666" points="322.62,-82 188.88,-82 188.88,-38 322.62,-38 322.62,-82"/>
<text xml:space="preserve" text-anchor="start" x="196.88" y="-68.5" font-family="Helvetica,sans-Serif" font-size="10.00">dotnamecpp::utils::</text>
<text xml:space="preserve" text-anchor="start" x="196.88" y="-56.5" font-family="Helvetica,sans-Serif" font-size="10.00">UtilsFactory::createDefault</text>
<text xml:space="preserve" text-anchor="middle" x="255.75" y="-44.5" font-family="Helvetica,sans-Serif" font-size="10.00">Logger</text>
</a>
</g>
</g>
<!-- Node3&#45;&gt;Node5 -->
<g id="edge4_Node000003_Node000005" class="edge">
<title>Node3&#45;&gt;Node5</title>
<g id="a_edge4_Node000003_Node000005"><a xlink:title=" ">
<path fill="none" stroke="#63b8ff" d="M367.61,-60C352.82,-60 337.44,-60 323.01,-60"/>
<polygon fill="#63b8ff" stroke="#63b8ff" points="367.26,-63.5 377.26,-60 367.26,-56.5 367.26,-63.5"/>
</a>
</g>
</g>
<!-- Node7 -->
<g id="Node000007" class="node">
<title>Node7</title>
<g id="a_Node000007"><a xlink:href="Application_8cpp.html#a3c04138a5bfe5d72780bb7e82a18e627" target="_top" xlink:title=" ">
<polygon fill="white" stroke="#666666" points="274.25,-20 237.25,-20 237.25,0 274.25,0 274.25,-20"/>
<text xml:space="preserve" text-anchor="middle" x="255.75" y="-6.5" font-family="Helvetica,sans-Serif" font-size="10.00">main</text>
</a>
</g>
</g>
<!-- Node3&#45;&gt;Node7 -->
<g id="edge6_Node000003_Node000007" class="edge">
<title>Node3&#45;&gt;Node7</title>
<g id="a_edge6_Node000003_Node000007"><a xlink:title=" ">
<path fill="none" stroke="#63b8ff" d="M382.78,-40.28C369.78,-36.34 356.11,-32.38 343.25,-29 319.76,-22.82 292.31,-17.03 274.74,-13.5"/>
<polygon fill="#63b8ff" stroke="#63b8ff" points="381.46,-43.54 392.05,-43.13 383.52,-36.85 381.46,-43.54"/>
</a>
</g>
</g>
<!-- Node6 -->
<g id="Node000006" class="node">
<title>Node6</title>
<g id="a_Node000006"><a xlink:href="classdotnamecpp_1_1utils_1_1UtilsFactory.html#afcf1273b868694eaeb8390bc41241049" target="_top" xlink:title=" ">
<polygon fill="white" stroke="#666666" points="132.25,-76 0,-76 0,-44 132.25,-44 132.25,-76"/>
<text xml:space="preserve" text-anchor="start" x="8" y="-62.5" font-family="Helvetica,sans-Serif" font-size="10.00">dotnamecpp::utils::</text>
<text xml:space="preserve" text-anchor="middle" x="66.12" y="-50.5" font-family="Helvetica,sans-Serif" font-size="10.00">UtilsFactory::createBundle</text>
</a>
</g>
</g>
<!-- Node5&#45;&gt;Node6 -->
<g id="edge5_Node000005_Node000006" class="edge">
<title>Node5&#45;&gt;Node6</title>
<g id="a_edge5_Node000005_Node000006"><a xlink:title=" ">
<path fill="none" stroke="#63b8ff" d="M177.38,-60C162.53,-60 147.11,-60 132.68,-60"/>
<polygon fill="#63b8ff" stroke="#63b8ff" points="177.09,-63.5 187.09,-60 177.09,-56.5 177.09,-63.5"/>
</a>
</g>
</g>
</g>
</svg>
