<?xml version="1.0" encoding="UTF-8" standalone="no"?>
<!DOCTYPE svg PUBLIC "-//W3C//DTD SVG 1.1//EN"
 "http://www.w3.org/Graphics/SVG/1.1/DTD/svg11.dtd">
<!-- Generated by graphviz version 13.1.2 (20250808.2320)
 -->
<!-- Title: dotnamecpp::utils::PlatformInfoFactory::createForCurrentPlatform Pages: 1 -->
<!--zoomable 128 -->

<svg id="main" version="1.1" xmlns="http://www.w3.org/2000/svg" xmlns:xlink="http://www.w3.org/1999/xlink" xml:space="preserve" onload="init(evt)">

<style type="text/css"><![CDATA[
.node, .edge {opacity: 0.7;}
.node.selected, .edge.selected {opacity: 1;}
.edge:hover path { stroke: red; }
.edge:hover polygon { stroke: red; fill: red; }
]]></style>

<defs>
  <circle id="rim" cx="0" cy="0" r="7"/>
  <circle id="rim2" cx="0" cy="0" r="3.5"/>
  <g id="zoomPlus">
    <use xlink:href="#rim" fill="#404040"><set attributeName="fill" to="#808080" begin="zoomplus.mouseover" end="zoomplus.mouseout"/></use>
    <path d="M-4,0h8M0,-4v8" fill="none" stroke="white" stroke-width="1.5" pointer-events="none"/>
  </g>
  <g id="zoomMin">
    <use xlink:href="#rim" fill="#404040"><set attributeName="fill" to="#808080" begin="zoomminus.mouseover" end="zoomminus.mouseout"/></use>
    <path d="M-4,0h8" fill="none" stroke="white" stroke-width="1.5" pointer-events="none"/>
  </g>
  <g id="arrowUp" transform="translate(30 24)">
    <use xlink:href="#rim"/>
    <path pointer-events="none" fill="none" stroke="white" stroke-width="1.5" d="M0,-3.0v7 M-2.5,-0.5L0,-3.0L2.5,-0.5"/>
  </g>
  <g id="arrowRight" transform="rotate(90) translate(36 -43)">
    <use xlink:href="#rim"/>
    <path pointer-events="none" fill="none" stroke="white" stroke-width="1.5" d="M0,-3.0v7 M-2.5,-0.5L0,-3.0L2.5,-0.5"/>
  </g>
  <g id="arrowDown" transform="rotate(180) translate(-30 -48)">
    <use xlink:href="#rim"/>
    <path pointer-events="none" fill="none" stroke="white" stroke-width="1.5" d="M0,-3.0v7 M-2.5,-0.5L0,-3.0L2.5,-0.5"/>
  </g>
  <g id="arrowLeft" transform="rotate(270) translate(-36 17)">
    <use xlink:href="#rim"/>
    <path pointer-events="none" fill="none" stroke="white" stroke-width="1.5" d="M0,-3.0v7 M-2.5,-0.5L0,-3.0L2.5,-0.5"/>
  </g>
  <g id="resetDef">
    <use xlink:href="#rim2" fill="#404040"><set attributeName="fill" to="#808080" begin="reset.mouseover" end="reset.mouseout"/></use>
  </g>
</defs>
<script type="application/ecmascript">
var viewWidth = 543;
var viewHeight = 128;
var sectionId = 'dynsection-2';
</script>
<script type="application/ecmascript" xlink:href="svg.min.js"/>
<svg id="graph" class="graph">
<g id="viewport">
<title>dotnamecpp::utils::PlatformInfoFactory::createForCurrentPlatform</title>
<!-- Node1 -->
<g id="Node000001" class="node">
<title>Node1</title>
<g id="a_Node000001"><a xlink:title=" ">
<polygon fill="#999999" stroke="#666666" points="534.75,-76 402.5,-76 402.5,-32 534.75,-32 534.75,-76"/>
<text xml:space="preserve" text-anchor="start" x="410.5" y="-62.5" font-family="Helvetica,sans-Serif" font-size="10.00">dotnamecpp::utils::</text>
<text xml:space="preserve" text-anchor="start" x="410.5" y="-50.5" font-family="Helvetica,sans-Serif" font-size="10.00">PlatformInfoFactory</text>
<text xml:space="preserve" text-anchor="middle" x="468.62" y="-38.5" font-family="Helvetica,sans-Serif" font-size="10.00">::createForCurrentPlatform</text>
</a>
</g>
</g>
<!-- Node2 -->
<g id="Node000002" class="node">
<title>Node2</title>
<g id="a_Node000002"><a xlink:href="classdotnamecpp_1_1utils_1_1UtilsFactory.html#a5dd47e86b64ad3d8efb881d5b6db1f9d" target="_top" xlink:title=" ">
<polygon fill="white" stroke="#666666" points="366.5,-70 211,-70 211,-38 366.5,-38 366.5,-70"/>
<text xml:space="preserve" text-anchor="start" x="219" y="-56.5" font-family="Helvetica,sans-Serif" font-size="10.00">dotnamecpp::utils::</text>
<text xml:space="preserve" text-anchor="middle" x="288.75" y="-44.5" font-family="Helvetica,sans-Serif" font-size="10.00">UtilsFactory::createPlatformInfo</text>
</a>
</g>
</g>
<!-- Node1&#45;&gt;Node2 -->
<g id="edge1_Node000001_Node000002" class="edge">
<title>Node1&#45;&gt;Node2</title>
<g id="a_edge1_Node000001_Node000002"><a xlink:title=" ">
<path fill="none" stroke="#63b8ff" d="M390.69,-54C382.78,-54 374.74,-54 366.83,-54"/>
<polygon fill="#63b8ff" stroke="#63b8ff" points="390.64,-57.5 400.64,-54 390.64,-50.5 390.64,-57.5"/>
</a>
</g>
</g>
<!-- Node3 -->
<g id="Node000003" class="node">
<title>Node3</title>
<g id="a_Node000003"><a xlink:href="classdotnamecpp_1_1utils_1_1UtilsFactory.html#a76b90ad17cd7e0dc50796299c94b8567" target="_top" xlink:title="Create complete application components.">
<polygon fill="white" stroke="#666666" points="175,-120 0,-120 0,-88 175,-88 175,-120"/>
<text xml:space="preserve" text-anchor="start" x="8" y="-106.5" font-family="Helvetica,sans-Serif" font-size="10.00">dotnamecpp::utils::</text>
<text xml:space="preserve" text-anchor="middle" x="87.5" y="-94.5" font-family="Helvetica,sans-Serif" font-size="10.00">UtilsFactory::createAppComponents</text>
</a>
</g>
</g>
<!-- Node2&#45;&gt;Node3 -->
<g id="edge2_Node000002_Node000003" class="edge">
<title>Node2&#45;&gt;Node3</title>
<g id="a_edge2_Node000002_Node000003"><a xlink:title=" ">
<path fill="none" stroke="#63b8ff" d="M211.28,-73.19C192.41,-77.93 172.36,-82.96 154.06,-87.55"/>
<polygon fill="#63b8ff" stroke="#63b8ff" points="211.92,-76.64 220.76,-70.81 210.21,-69.85 211.92,-76.64"/>
</a>
</g>
</g>
<!-- Node4 -->
<g id="Node000004" class="node">
<title>Node4</title>
<g id="a_Node000004"><a xlink:href="classdotnamecpp_1_1utils_1_1UtilsFactory.html#afcf1273b868694eaeb8390bc41241049" target="_top" xlink:title=" ">
<polygon fill="white" stroke="#666666" points="153.62,-70 21.38,-70 21.38,-38 153.62,-38 153.62,-70"/>
<text xml:space="preserve" text-anchor="start" x="29.38" y="-56.5" font-family="Helvetica,sans-Serif" font-size="10.00">dotnamecpp::utils::</text>
<text xml:space="preserve" text-anchor="middle" x="87.5" y="-44.5" font-family="Helvetica,sans-Serif" font-size="10.00">UtilsFactory::createBundle</text>
</a>
</g>
</g>
<!-- Node2&#45;&gt;Node4 -->
<g id="edge3_Node000002_Node000004" class="edge">
<title>Node2&#45;&gt;Node4</title>
<g id="a_edge3_Node000002_Node000004"><a xlink:title=" ">
<path fill="none" stroke="#63b8ff" d="M199.63,-54C184.3,-54 168.6,-54 154,-54"/>
<polygon fill="#63b8ff" stroke="#63b8ff" points="199.2,-57.5 209.2,-54 199.2,-50.5 199.2,-57.5"/>
</a>
</g>
</g>
<!-- Node5 -->
<g id="Node000005" class="node">
<title>Node5</title>
<g id="a_Node000005"><a xlink:href="Application_8cpp.html#a3c04138a5bfe5d72780bb7e82a18e627" target="_top" xlink:title=" ">
<polygon fill="white" stroke="#666666" points="106,-20 69,-20 69,0 106,0 106,-20"/>
<text xml:space="preserve" text-anchor="middle" x="87.5" y="-6.5" font-family="Helvetica,sans-Serif" font-size="10.00">main</text>
</a>
</g>
</g>
<!-- Node2&#45;&gt;Node5 -->
<g id="edge4_Node000002_Node000005" class="edge">
<title>Node2&#45;&gt;Node5</title>
<g id="a_edge4_Node000002_Node000005"><a xlink:title=" ">
<path fill="none" stroke="#63b8ff" d="M202.27,-35.03C193.07,-32.99 183.84,-30.95 175,-29 151.28,-23.76 123.89,-17.75 106.39,-13.92"/>
<polygon fill="#63b8ff" stroke="#63b8ff" points="201.46,-38.43 211.98,-37.18 202.98,-31.6 201.46,-38.43"/>
</a>
</g>
</g>
</g>
</svg>

<g id="navigator" transform="translate(0 0)" fill="#404254">
  <rect fill="#f2f5e9" fill-opacity="0.5" stroke="#606060" stroke-width=".5" x="0" y="0" width="60" height="60"/>
  <use id="zoomplus" xlink:href="#zoomPlus" x="17" y="9" onmousedown="handleZoom(evt,'in')"/>
  <use id="zoomminus" xlink:href="#zoomMin" x="42" y="9" onmousedown="handleZoom(evt,'out')"/>
  <use id="reset" xlink:href="#resetDef" x="30" y="36" onmousedown="handleReset()"/>
   <use id="arrowup" xlink:href="#arrowUp" x="0" y="0" onmousedown="handlePan(0,-1)"/>
  <use id="arrowright" xlink:href="#arrowRight" x="0" y="0" onmousedown="handlePan(1,0)"/>
  <use id="arrowdown" xlink:href="#arrowDown" x="0" y="0" onmousedown="handlePan(0,1)"/>
  <use id="arrowleft" xlink:href="#arrowLeft" x="0" y="0" onmousedown="handlePan(-1,0)"/>
</g>
<svg viewBox="0 0 15 15" width="100%" height="30px" preserveAspectRatio="xMaxYMin meet">
 <g id="arrow_out" transform="scale(0.3 0.3)">
  <a xlink:href="classdotnamecpp_1_1utils_1_1PlatformInfoFactory_ab7dafcf5ba115a99f7d80fa045639f84_icgraph_org.svg" target="_base">
   <rect id="button" ry="5" rx="5" y="6" x="6" height="38" width="38"
        fill="#f2f5e9" fill-opacity="0.5" stroke="#606060" stroke-width="1.0"/>
   <path id="arrow"
     d="M 11.500037,31.436501 C 11.940474,20.09759 22.043105,11.32322 32.158766,21.979434 L 37.068811,17.246167 C 37.068811,17.246167 37.088388,32 37.088388,32 L 22.160133,31.978069 C 22.160133,31.978069 26.997745,27.140456 26.997745,27.140456 C 18.528582,18.264221 13.291696,25.230495 11.500037,31.436501 z"
     style="fill:#404040;"/>
  </a>
 </g>
</svg>

<style type='text/css'>
<![CDATA[
[data-mouse-over-selected='false'] { opacity: 0.7; }
[data-mouse-over-selected='true']  { opacity: 1.0; }
]]>
</style>
<script type="application/ecmascript"><![CDATA[
document.addEventListener('DOMContentLoaded', (event) => {
  highlightEdges();
  highlightAdjacentNodes();
});
]]></script>
</svg>
