<?xml version="1.0" encoding="UTF-8" standalone="no"?>
<!DOCTYPE svg PUBLIC "-//W3C//DTD SVG 1.1//EN"
 "http://www.w3.org/Graphics/SVG/1.1/DTD/svg11.dtd">
<!-- Generated by graphviz version 13.1.2 (20250808.2320)
 -->
<!-- Title: dotnamecpp::assets::AssetManagerFactory::createDefault Pages: 1 -->
<svg width="538pt" height="100pt"
 viewBox="0.00 0.00 538.00 100.00" xmlns="http://www.w3.org/2000/svg" xmlns:xlink="http://www.w3.org/1999/xlink">
<g id="graph0" class="graph" transform="scale(1 1) rotate(0) translate(4 96)">
<title>dotnamecpp::assets::AssetManagerFactory::createDefault</title>
<!-- Node1 -->
<g id="Node000001" class="node">
<title>Node1</title>
<g id="a_Node000001"><a xlink:title="Create a Default object.">
<polygon fill="#999999" stroke="#666666" points="530.25,-54 412.25,-54 412.25,-10 530.25,-10 530.25,-54"/>
<text xml:space="preserve" text-anchor="start" x="420.25" y="-40.5" font-family="Helvetica,sans-Serif" font-size="10.00">dotnamecpp::assets</text>
<text xml:space="preserve" text-anchor="start" x="420.25" y="-28.5" font-family="Helvetica,sans-Serif" font-size="10.00">::AssetManagerFactory</text>
<text xml:space="preserve" text-anchor="middle" x="471.25" y="-16.5" font-family="Helvetica,sans-Serif" font-size="10.00">::createDefault</text>
</a>
</g>
</g>
<!-- Node2 -->
<g id="Node000002" class="node">
<title>Node2</title>
<g id="a_Node000002"><a xlink:href="classdotnamecpp_1_1utils_1_1UtilsFactory.html#adb1debe875686643fe487a625750400f" target="_top" xlink:title=" ">
<polygon fill="white" stroke="#666666" points="376.25,-70 211,-70 211,-38 376.25,-38 376.25,-70"/>
<text xml:space="preserve" text-anchor="start" x="219" y="-56.5" font-family="Helvetica,sans-Serif" font-size="10.00">dotnamecpp::utils::</text>
<text xml:space="preserve" text-anchor="middle" x="293.62" y="-44.5" font-family="Helvetica,sans-Serif" font-size="10.00">UtilsFactory::createAssetManager</text>
</a>
</g>
</g>
<!-- Node1&#45;&gt;Node2 -->
<g id="edge1_Node000001_Node000002" class="edge">
<title>Node1&#45;&gt;Node2</title>
<g id="a_edge1_Node000001_Node000002"><a xlink:title=" ">
<path fill="none" stroke="#63b8ff" d="M400.47,-40.74C392.63,-41.72 384.6,-42.73 376.63,-43.73"/>
<polygon fill="#63b8ff" stroke="#63b8ff" points="400.78,-44.23 410.27,-39.51 399.91,-37.28 400.78,-44.23"/>
</a>
</g>
</g>
<!-- Node5 -->
<g id="Node000005" class="node">
<title>Node5</title>
<g id="a_Node000005"><a xlink:href="AssetManagerTest_8cpp.html#a351b0b825a033c19c191b803ef3ed412" target="_top" xlink:title=" ">
<polygon fill="white" stroke="#666666" points="320,-20 267.25,-20 267.25,0 320,0 320,-20"/>
<text xml:space="preserve" text-anchor="middle" x="293.62" y="-6.5" font-family="Helvetica,sans-Serif" font-size="10.00">TEST_F</text>
</a>
</g>
</g>
<!-- Node1&#45;&gt;Node5 -->
<g id="edge4_Node000001_Node000005" class="edge">
<title>Node1&#45;&gt;Node5</title>
<g id="a_edge4_Node000001_Node000005"><a xlink:title=" ">
<path fill="none" stroke="#63b8ff" d="M400.7,-23.29C372.47,-19.75 341.61,-15.89 320.49,-13.24"/>
<polygon fill="#63b8ff" stroke="#63b8ff" points="399.91,-26.72 410.27,-24.49 400.78,-19.77 399.91,-26.72"/>
</a>
</g>
</g>
<!-- Node3 -->
<g id="Node000003" class="node">
<title>Node3</title>
<g id="a_Node000003"><a xlink:href="classdotnamecpp_1_1utils_1_1UtilsFactory.html#a76b90ad17cd7e0dc50796299c94b8567" target="_top" xlink:title="Create complete application components.">
<polygon fill="white" stroke="#666666" points="175,-92 0,-92 0,-60 175,-60 175,-92"/>
<text xml:space="preserve" text-anchor="start" x="8" y="-78.5" font-family="Helvetica,sans-Serif" font-size="10.00">dotnamecpp::utils::</text>
<text xml:space="preserve" text-anchor="middle" x="87.5" y="-66.5" font-family="Helvetica,sans-Serif" font-size="10.00">UtilsFactory::createAppComponents</text>
</a>
</g>
</g>
<!-- Node2&#45;&gt;Node3 -->
<g id="edge2_Node000002_Node000003" class="edge">
<title>Node2&#45;&gt;Node3</title>
<g id="a_edge2_Node000002_Node000003"><a xlink:title=" ">
<path fill="none" stroke="#63b8ff" d="M199.49,-64.04C191.46,-64.9 183.36,-65.78 175.38,-66.64"/>
<polygon fill="#63b8ff" stroke="#63b8ff" points="199.7,-67.54 209.27,-62.98 198.95,-60.58 199.7,-67.54"/>
</a>
</g>
</g>
<!-- Node4 -->
<g id="Node000004" class="node">
<title>Node4</title>
<g id="a_Node000004"><a xlink:href="Application_8cpp.html#a3c04138a5bfe5d72780bb7e82a18e627" target="_top" xlink:title=" ">
<polygon fill="white" stroke="#666666" points="106,-42 69,-42 69,-22 106,-22 106,-42"/>
<text xml:space="preserve" text-anchor="middle" x="87.5" y="-28.5" font-family="Helvetica,sans-Serif" font-size="10.00">main</text>
</a>
</g>
</g>
<!-- Node2&#45;&gt;Node4 -->
<g id="edge3_Node000002_Node000004" class="edge">
<title>Node2&#45;&gt;Node4</title>
<g id="a_edge3_Node000002_Node000004"><a xlink:title=" ">
<path fill="none" stroke="#63b8ff" d="M199.37,-43.95C164.04,-40.14 127.28,-36.18 106.22,-33.91"/>
<polygon fill="#63b8ff" stroke="#63b8ff" points="198.95,-47.42 209.27,-45.02 199.7,-40.46 198.95,-47.42"/>
</a>
</g>
</g>
</g>
</svg>
