<?xml version="1.0" encoding="UTF-8" standalone="no"?>
<!DOCTYPE svg PUBLIC "-//W3C//DTD SVG 1.1//EN"
 "http://www.w3.org/Graphics/SVG/1.1/DTD/svg11.dtd">
<!-- Generated by graphviz version 13.1.2 (20250808.2320)
 -->
<!-- Title: include/DotNameLib/DotNameLib.hpp Pages: 1 -->
<svg width="2053pt" height="276pt"
 viewBox="0.00 0.00 2053.00 276.00" xmlns="http://www.w3.org/2000/svg" xmlns:xlink="http://www.w3.org/1999/xlink">
<g id="graph0" class="graph" transform="scale(1 1) rotate(0) translate(4 272)">
<title>include/DotNameLib/DotNameLib.hpp</title>
<!-- Node1 -->
<g id="Node000001" class="node">
<title>Node1</title>
<g id="a_Node000001"><a xlink:title=" ">
<polygon fill="#999999" stroke="#666666" points="1948,-268 1843.5,-268 1843.5,-236 1948,-236 1948,-268"/>
<text xml:space="preserve" text-anchor="start" x="1851.5" y="-254.5" font-family="Helvetica,sans-Serif" font-size="10.00">include/DotNameLib</text>
<text xml:space="preserve" text-anchor="middle" x="1895.75" y="-242.5" font-family="Helvetica,sans-Serif" font-size="10.00">/DotNameLib.hpp</text>
</a>
</g>
</g>
<!-- Node2 -->
<g id="Node000002" class="node">
<title>Node2</title>
<g id="a_Node000002"><a xlink:title=" ">
<polygon fill="#e0e0e0" stroke="#999999" points="113.5,-138 0,-138 0,-118 113.5,-118 113.5,-138"/>
<text xml:space="preserve" text-anchor="middle" x="56.75" y="-124.5" font-family="Helvetica,sans-Serif" font-size="10.00">DotNameLib/version.h</text>
</a>
</g>
</g>
<!-- Node1&#45;&gt;Node2 -->
<g id="edge1_Node000001_Node000002" class="edge">
<title>Node1&#45;&gt;Node2</title>
<g id="a_edge1_Node000001_Node000002"><a xlink:title=" ">
<path fill="none" stroke="#63b8ff" d="M1843.18,-251.02C1628.37,-250.41 796.63,-241.53 121.75,-144 116.02,-143.17 110.05,-142.1 104.16,-140.9"/>
<polygon fill="#63b8ff" stroke="#63b8ff" points="104.98,-137.5 94.47,-138.81 103.5,-144.34 104.98,-137.5"/>
</a>
</g>
</g>
<!-- Node3 -->
<g id="Node000003" class="node">
<title>Node3</title>
<g id="a_Node000003"><a xlink:href="UtilsFactory_8hpp.html" target="_top" xlink:title=" ">
<polygon fill="white" stroke="#666666" points="1225,-200 1114.5,-200 1114.5,-180 1225,-180 1225,-200"/>
<text xml:space="preserve" text-anchor="middle" x="1169.75" y="-186.5" font-family="Helvetica,sans-Serif" font-size="10.00">Utils/UtilsFactory.hpp</text>
</a>
</g>
</g>
<!-- Node1&#45;&gt;Node3 -->
<g id="edge2_Node000001_Node000003" class="edge">
<title>Node1&#45;&gt;Node3</title>
<g id="a_edge2_Node000001_Node000003"><a xlink:title=" ">
<path fill="none" stroke="#63b8ff" d="M1843.25,-246.66C1713.86,-235.97 1379.82,-208.36 1236.59,-196.52"/>
<polygon fill="#63b8ff" stroke="#63b8ff" points="1237.14,-193.06 1226.89,-195.72 1236.56,-200.03 1237.14,-193.06"/>
</a>
</g>
</g>
<!-- Node11 -->
<g id="Node000011" class="node">
<title>Node11</title>
<g id="a_Node000011"><a xlink:title=" ">
<polygon fill="#e0e0e0" stroke="#999999" points="1203.75,-20 1163.75,-20 1163.75,0 1203.75,0 1203.75,-20"/>
<text xml:space="preserve" text-anchor="middle" x="1183.75" y="-6.5" font-family="Helvetica,sans-Serif" font-size="10.00">string</text>
</a>
</g>
</g>
<!-- Node1&#45;&gt;Node11 -->
<g id="edge65_Node000001_Node000011" class="edge">
<title>Node1&#45;&gt;Node11</title>
<g id="a_edge65_Node000001_Node000011"><a xlink:title=" ">
<path fill="none" stroke="#63b8ff" d="M1898.13,-235.84C1901.6,-208.2 1904.85,-149.08 1876.75,-112 1839,-62.19 1808.39,-71.14 1747.75,-56 1645.64,-30.51 1319.29,-16.16 1215.66,-12.16"/>
<polygon fill="#63b8ff" stroke="#63b8ff" points="1215.79,-8.67 1205.66,-11.79 1215.52,-15.66 1215.79,-8.67"/>
</a>
</g>
</g>
<!-- Node22 -->
<g id="Node000022" class="node">
<title>Node22</title>
<g id="a_Node000022"><a xlink:title=" ">
<polygon fill="#e0e0e0" stroke="#999999" points="1940.38,-20 1889.12,-20 1889.12,0 1940.38,0 1940.38,-20"/>
<text xml:space="preserve" text-anchor="middle" x="1914.75" y="-6.5" font-family="Helvetica,sans-Serif" font-size="10.00">memory</text>
</a>
</g>
</g>
<!-- Node1&#45;&gt;Node22 -->
<g id="edge64_Node000001_Node000022" class="edge">
<title>Node1&#45;&gt;Node22</title>
<g id="a_edge64_Node000001_Node000022"><a xlink:title=" ">
<path fill="none" stroke="#63b8ff" d="M1900.58,-235.5C1903.56,-225.46 1907.28,-212.05 1909.75,-200 1920.91,-145.51 1922.96,-131.5 1926.75,-76 1927.36,-67.13 1927.9,-64.81 1926.75,-56 1925.66,-47.69 1923.49,-38.73 1921.28,-31.01"/>
<polygon fill="#63b8ff" stroke="#63b8ff" points="1924.68,-30.14 1918.39,-21.61 1917.99,-32.2 1924.68,-30.14"/>
</a>
</g>
</g>
<!-- Node28 -->
<g id="Node000028" class="node">
<title>Node28</title>
<g id="a_Node000028"><a xlink:title=" ">
<polygon fill="#e0e0e0" stroke="#999999" points="2045.38,-200 2000.12,-200 2000.12,-180 2045.38,-180 2045.38,-200"/>
<text xml:space="preserve" text-anchor="middle" x="2022.75" y="-186.5" font-family="Helvetica,sans-Serif" font-size="10.00">atomic</text>
</a>
</g>
</g>
<!-- Node1&#45;&gt;Node28 -->
<g id="edge63_Node000001_Node000028" class="edge">
<title>Node1&#45;&gt;Node28</title>
<g id="a_edge63_Node000001_Node000028"><a xlink:title=" ">
<path fill="none" stroke="#63b8ff" d="M1928.46,-235.55C1948.21,-226.22 1973.2,-214.41 1992.5,-205.29"/>
<polygon fill="#63b8ff" stroke="#63b8ff" points="1993.92,-208.49 2001.47,-201.05 1990.93,-202.16 1993.92,-208.49"/>
</a>
</g>
</g>
<!-- Node3&#45;&gt;Node2 -->
<g id="edge3_Node000003_Node000002" class="edge">
<title>Node3&#45;&gt;Node2</title>
<g id="a_edge3_Node000003_Node000002"><a xlink:title=" ">
<path fill="none" stroke="#63b8ff" d="M1114.29,-187.96C926.62,-184.25 316.31,-170.4 121.75,-144 115.73,-143.18 109.44,-142.07 103.25,-140.82"/>
<polygon fill="#63b8ff" stroke="#63b8ff" points="104.29,-137.46 93.77,-138.76 102.8,-144.3 104.29,-137.46"/>
</a>
</g>
</g>
<!-- Node4 -->
<g id="Node000004" class="node">
<title>Node4</title>
<g id="a_Node000004"><a xlink:href="IAssetManager_8hpp.html" target="_top" xlink:title=" ">
<polygon fill="white" stroke="#666666" points="826.62,-138 668.88,-138 668.88,-118 826.62,-118 826.62,-138"/>
<text xml:space="preserve" text-anchor="middle" x="747.75" y="-124.5" font-family="Helvetica,sans-Serif" font-size="10.00">Utils/Assets/IAssetManager.hpp</text>
</a>
</g>
</g>
<!-- Node3&#45;&gt;Node4 -->
<g id="edge4_Node000003_Node000004" class="edge">
<title>Node3&#45;&gt;Node4</title>
<g id="a_edge4_Node000003_Node000004"><a xlink:title=" ">
<path fill="none" stroke="#63b8ff" d="M1114.11,-182.11C1047.75,-173.75 933.5,-158.91 835.75,-144 828.34,-142.87 820.59,-141.63 812.89,-140.36"/>
<polygon fill="#63b8ff" stroke="#63b8ff" points="813.62,-136.94 803.18,-138.75 812.47,-143.84 813.62,-136.94"/>
</a>
</g>
</g>
<!-- Node5 -->
<g id="Node000005" class="node">
<title>Node5</title>
<g id="a_Node000005"><a xlink:title=" ">
<polygon fill="#e0e0e0" stroke="#999999" points="726.25,-76 665.25,-76 665.25,-56 726.25,-56 726.25,-76"/>
<text xml:space="preserve" text-anchor="middle" x="695.75" y="-62.5" font-family="Helvetica,sans-Serif" font-size="10.00">filesystem</text>
</a>
</g>
</g>
<!-- Node3&#45;&gt;Node5 -->
<g id="edge61_Node000003_Node000005" class="edge">
<title>Node3&#45;&gt;Node5</title>
<g id="a_edge61_Node000003_Node000005"><a xlink:title=" ">
<path fill="none" stroke="#63b8ff" d="M1114.15,-189.45C962.4,-190.11 549.68,-187.81 508.75,-144 499.04,-133.61 499.95,-123.17 508.75,-112 526.45,-89.54 604.16,-76.99 653.67,-71.14"/>
<polygon fill="#63b8ff" stroke="#63b8ff" points="653.94,-74.64 663.48,-70.04 653.15,-67.68 653.94,-74.64"/>
</a>
</g>
</g>
<!-- Node6 -->
<g id="Node000006" class="node">
<title>Node6</title>
<g id="a_Node000006"><a xlink:href="IDirectoryManager_8hpp.html" target="_top" xlink:title=" ">
<polygon fill="white" stroke="#666666" points="651.25,-144 518.25,-144 518.25,-112 651.25,-112 651.25,-144"/>
<text xml:space="preserve" text-anchor="start" x="526.25" y="-130.5" font-family="Helvetica,sans-Serif" font-size="10.00">Utils/Filesystem/IDirectory</text>
<text xml:space="preserve" text-anchor="middle" x="584.75" y="-118.5" font-family="Helvetica,sans-Serif" font-size="10.00">Manager.hpp</text>
</a>
</g>
</g>
<!-- Node3&#45;&gt;Node6 -->
<g id="edge6_Node000003_Node000006" class="edge">
<title>Node3&#45;&gt;Node6</title>
<g id="a_edge6_Node000003_Node000006"><a xlink:title=" ">
<path fill="none" stroke="#63b8ff" d="M1114.05,-186.09C1022.11,-180.84 832.62,-168.18 663.14,-144.4"/>
<polygon fill="#63b8ff" stroke="#63b8ff" points="663.64,-140.93 653.24,-142.99 662.65,-147.86 663.64,-140.93"/>
</a>
</g>
</g>
<!-- Node14 -->
<g id="Node000014" class="node">
<title>Node14</title>
<g id="a_Node000014"><a xlink:href="IFileReader_8hpp.html" target="_top" xlink:title=" ">
<polygon fill="white" stroke="#666666" points="290.38,-138 131.12,-138 131.12,-118 290.38,-118 290.38,-138"/>
<text xml:space="preserve" text-anchor="middle" x="210.75" y="-124.5" font-family="Helvetica,sans-Serif" font-size="10.00">Utils/Filesystem/IFileReader.hpp</text>
</a>
</g>
</g>
<!-- Node3&#45;&gt;Node14 -->
<g id="edge15_Node000003_Node000014" class="edge">
<title>Node3&#45;&gt;Node14</title>
<g id="a_edge15_Node000003_Node000014"><a xlink:title=" ">
<path fill="none" stroke="#63b8ff" d="M1114.03,-188.38C975.66,-186.36 605.39,-177.94 298.75,-144 289.77,-143.01 280.32,-141.69 271.07,-140.24"/>
<polygon fill="#63b8ff" stroke="#63b8ff" points="271.87,-136.83 261.44,-138.67 270.74,-143.74 271.87,-136.83"/>
</a>
</g>
</g>
<!-- Node15 -->
<g id="Node000015" class="node">
<title>Node15</title>
<g id="a_Node000015"><a xlink:href="IFileWriter_8hpp.html" target="_top" xlink:title=" ">
<polygon fill="white" stroke="#666666" points="461.38,-138 308.12,-138 308.12,-118 461.38,-118 461.38,-138"/>
<text xml:space="preserve" text-anchor="middle" x="384.75" y="-124.5" font-family="Helvetica,sans-Serif" font-size="10.00">Utils/Filesystem/IFileWriter.hpp</text>
</a>
</g>
</g>
<!-- Node3&#45;&gt;Node15 -->
<g id="edge21_Node000003_Node000015" class="edge">
<title>Node3&#45;&gt;Node15</title>
<g id="a_edge21_Node000003_Node000015"><a xlink:title=" ">
<path fill="none" stroke="#63b8ff" d="M1114.26,-187.26C996.37,-183.16 712.36,-171.11 475.75,-144 466.7,-142.96 457.18,-141.65 447.85,-140.23"/>
<polygon fill="#63b8ff" stroke="#63b8ff" points="448.52,-136.79 438.09,-138.69 447.43,-143.7 448.52,-136.79"/>
</a>
</g>
</g>
<!-- Node16 -->
<g id="Node000016" class="node">
<title>Node16</title>
<g id="a_Node000016"><a xlink:href="IPathResolver_8hpp.html" target="_top" xlink:title=" ">
<polygon fill="white" stroke="#666666" points="1016.38,-138 845.12,-138 845.12,-118 1016.38,-118 1016.38,-138"/>
<text xml:space="preserve" text-anchor="middle" x="930.75" y="-124.5" font-family="Helvetica,sans-Serif" font-size="10.00">Utils/Filesystem/IPathResolver.hpp</text>
</a>
</g>
</g>
<!-- Node3&#45;&gt;Node16 -->
<g id="edge27_Node000003_Node000016" class="edge">
<title>Node3&#45;&gt;Node16</title>
<g id="a_edge27_Node000003_Node000016"><a xlink:title=" ">
<path fill="none" stroke="#63b8ff" d="M1132.14,-179.56C1090.94,-169.22 1024.71,-152.59 979.53,-141.25"/>
<polygon fill="#63b8ff" stroke="#63b8ff" points="980.55,-137.89 970,-138.85 978.85,-144.68 980.55,-137.89"/>
</a>
</g>
</g>
<!-- Node17 -->
<g id="Node000017" class="node">
<title>Node17</title>
<g id="a_Node000017"><a xlink:href="ICustomStringsLoader_8hpp.html" target="_top" xlink:title=" ">
<polygon fill="white" stroke="#666666" points="1467.5,-144 1336,-144 1336,-112 1467.5,-112 1467.5,-144"/>
<text xml:space="preserve" text-anchor="start" x="1344" y="-130.5" font-family="Helvetica,sans-Serif" font-size="10.00">Utils/Json/ICustomStrings</text>
<text xml:space="preserve" text-anchor="middle" x="1401.75" y="-118.5" font-family="Helvetica,sans-Serif" font-size="10.00">Loader.hpp</text>
</a>
</g>
</g>
<!-- Node3&#45;&gt;Node17 -->
<g id="edge32_Node000003_Node000017" class="edge">
<title>Node3&#45;&gt;Node17</title>
<g id="a_edge32_Node000003_Node000017"><a xlink:title=" ">
<path fill="none" stroke="#63b8ff" d="M1206.26,-179.56C1239.57,-170.94 1289.74,-157.97 1330.91,-147.32"/>
<polygon fill="#63b8ff" stroke="#63b8ff" points="1331.72,-150.73 1340.52,-144.83 1329.96,-143.95 1331.72,-150.73"/>
</a>
</g>
</g>
<!-- Node19 -->
<g id="Node000019" class="node">
<title>Node19</title>
<g id="a_Node000019"><a xlink:href="IJsonSerializer_8hpp.html" target="_top" xlink:title=" ">
<polygon fill="white" stroke="#666666" points="1318,-138 1171.5,-138 1171.5,-118 1318,-118 1318,-138"/>
<text xml:space="preserve" text-anchor="middle" x="1244.75" y="-124.5" font-family="Helvetica,sans-Serif" font-size="10.00">Utils/Json/IJsonSerializer.hpp</text>
</a>
</g>
</g>
<!-- Node3&#45;&gt;Node19 -->
<g id="edge37_Node000003_Node000019" class="edge">
<title>Node3&#45;&gt;Node19</title>
<g id="a_edge37_Node000003_Node000019"><a xlink:title=" ">
<path fill="none" stroke="#63b8ff" d="M1181.47,-179.62C1192.98,-170.41 1210.78,-156.17 1224.58,-145.14"/>
<polygon fill="#63b8ff" stroke="#63b8ff" points="1226.55,-148.04 1232.18,-139.06 1222.18,-142.57 1226.55,-148.04"/>
</a>
</g>
</g>
<!-- Node20 -->
<g id="Node000020" class="node">
<title>Node20</title>
<g id="a_Node000020"><a xlink:href="ILogger_8hpp.html" target="_top" xlink:title=" ">
<polygon fill="white" stroke="#666666" points="1739,-76 1616.5,-76 1616.5,-56 1739,-56 1739,-76"/>
<text xml:space="preserve" text-anchor="middle" x="1677.75" y="-62.5" font-family="Helvetica,sans-Serif" font-size="10.00">Utils/Logger/ILogger.hpp</text>
</a>
</g>
</g>
<!-- Node3&#45;&gt;Node20 -->
<g id="edge42_Node000003_Node000020" class="edge">
<title>Node3&#45;&gt;Node20</title>
<g id="a_edge42_Node000003_Node000020"><a xlink:title=" ">
<path fill="none" stroke="#63b8ff" d="M1225.32,-187.76C1291.59,-184.84 1404.93,-175.24 1496.75,-144 1523.89,-134.77 1526.72,-124.01 1552.75,-112 1579.81,-99.51 1611.4,-88.17 1636.05,-79.99"/>
<polygon fill="#63b8ff" stroke="#63b8ff" points="1636.99,-83.37 1645.41,-76.94 1634.82,-76.71 1636.99,-83.37"/>
</a>
</g>
</g>
<!-- Node3&#45;&gt;Node22 -->
<g id="edge62_Node000003_Node000022" class="edge">
<title>Node3&#45;&gt;Node22</title>
<g id="a_edge62_Node000003_Node000022"><a xlink:title=" ">
<path fill="none" stroke="#63b8ff" d="M1225.44,-189.09C1383.46,-188.83 1826.49,-184.48 1876.75,-144 1910.62,-116.72 1915.59,-61.46 1915.59,-31.48"/>
<polygon fill="#63b8ff" stroke="#63b8ff" points="1919.1,-31.76 1915.39,-21.84 1912.1,-31.91 1919.1,-31.76"/>
</a>
</g>
</g>
<!-- Node24 -->
<g id="Node000024" class="node">
<title>Node24</title>
<g id="a_Node000024"><a xlink:href="LoggerFactory_8hpp.html" target="_top" xlink:title=" ">
<polygon fill="white" stroke="#666666" points="1713.62,-138 1561.88,-138 1561.88,-118 1713.62,-118 1713.62,-138"/>
<text xml:space="preserve" text-anchor="middle" x="1637.75" y="-124.5" font-family="Helvetica,sans-Serif" font-size="10.00">Utils/Logger/LoggerFactory.hpp</text>
</a>
</g>
</g>
<!-- Node3&#45;&gt;Node24 -->
<g id="edge48_Node000003_Node000024" class="edge">
<title>Node3&#45;&gt;Node24</title>
<g id="a_edge48_Node000003_Node000024"><a xlink:title=" ">
<path fill="none" stroke="#63b8ff" d="M1225.26,-183.21C1299.04,-175.33 1433.42,-160.32 1547.75,-144 1555.73,-142.86 1564.09,-141.58 1572.37,-140.26"/>
<polygon fill="#63b8ff" stroke="#63b8ff" points="1572.75,-143.75 1582.06,-138.69 1571.63,-136.84 1572.75,-143.75"/>
</a>
</g>
</g>
<!-- Node25 -->
<g id="Node000025" class="node">
<title>Node25</title>
<g id="a_Node000025"><a xlink:href="NullLogger_8hpp.html" target="_top" xlink:title=" ">
<polygon fill="white" stroke="#666666" points="1868.12,-138 1731.38,-138 1731.38,-118 1868.12,-118 1868.12,-138"/>
<text xml:space="preserve" text-anchor="middle" x="1799.75" y="-124.5" font-family="Helvetica,sans-Serif" font-size="10.00">Utils/Logger/NullLogger.hpp</text>
</a>
</g>
</g>
<!-- Node3&#45;&gt;Node25 -->
<g id="edge52_Node000003_Node000025" class="edge">
<title>Node3&#45;&gt;Node25</title>
<g id="a_edge52_Node000003_Node000025"><a xlink:title=" ">
<path fill="none" stroke="#63b8ff" d="M1225.31,-186.53C1325.22,-181.62 1541.68,-168.92 1722.75,-144 1729.74,-143.04 1737.06,-141.85 1744.29,-140.57"/>
<polygon fill="#63b8ff" stroke="#63b8ff" points="1744.82,-144.03 1754.02,-138.77 1743.55,-137.14 1744.82,-144.03"/>
</a>
</g>
</g>
<!-- Node26 -->
<g id="Node000026" class="node">
<title>Node26</title>
<g id="a_Node000026"><a xlink:href="IPlatformInfo_8hpp.html" target="_top" xlink:title=" ">
<polygon fill="white" stroke="#666666" points="1153.12,-144 1034.38,-144 1034.38,-112 1153.12,-112 1153.12,-144"/>
<text xml:space="preserve" text-anchor="start" x="1042.38" y="-130.5" font-family="Helvetica,sans-Serif" font-size="10.00">Utils/Platform/IPlatform</text>
<text xml:space="preserve" text-anchor="middle" x="1093.75" y="-118.5" font-family="Helvetica,sans-Serif" font-size="10.00">Info.hpp</text>
</a>
</g>
</g>
<!-- Node3&#45;&gt;Node26 -->
<g id="edge54_Node000003_Node000026" class="edge">
<title>Node3&#45;&gt;Node26</title>
<g id="a_edge54_Node000003_Node000026"><a xlink:title=" ">
<path fill="none" stroke="#63b8ff" d="M1157.88,-179.62C1148.27,-172.04 1134.34,-161.05 1121.92,-151.24"/>
<polygon fill="#63b8ff" stroke="#63b8ff" points="1124.43,-148.76 1114.41,-145.31 1120.09,-154.26 1124.43,-148.76"/>
</a>
</g>
</g>
<!-- Node27 -->
<g id="Node000027" class="node">
<title>Node27</title>
<g id="a_Node000027"><a xlink:href="IStringFormatter_8hpp.html" target="_top" xlink:title=" ">
<polygon fill="white" stroke="#666666" points="1560.25,-76 1403.25,-76 1403.25,-56 1560.25,-56 1560.25,-76"/>
<text xml:space="preserve" text-anchor="middle" x="1481.75" y="-62.5" font-family="Helvetica,sans-Serif" font-size="10.00">Utils/String/IStringFormatter.hpp</text>
</a>
</g>
</g>
<!-- Node3&#45;&gt;Node27 -->
<g id="edge59_Node000003_Node000027" class="edge">
<title>Node3&#45;&gt;Node27</title>
<g id="a_edge59_Node000003_Node000027"><a xlink:title=" ">
<path fill="none" stroke="#63b8ff" d="M1225.18,-188.9C1304.3,-187.47 1443.74,-179.78 1476.75,-144 1490.49,-129.1 1489.74,-104.92 1486.82,-87.63"/>
<polygon fill="#63b8ff" stroke="#63b8ff" points="1490.28,-87.05 1484.8,-77.98 1483.42,-88.48 1490.28,-87.05"/>
</a>
</g>
</g>
<!-- Node4&#45;&gt;Node5 -->
<g id="edge5_Node000004_Node000005" class="edge">
<title>Node4&#45;&gt;Node5</title>
<g id="a_edge5_Node000004_Node000005"><a xlink:title=" ">
<path fill="none" stroke="#63b8ff" d="M739.62,-117.62C732.03,-108.86 720.48,-95.53 711.13,-84.75"/>
<polygon fill="#63b8ff" stroke="#63b8ff" points="713.83,-82.52 704.64,-77.26 708.54,-87.11 713.83,-82.52"/>
</a>
</g>
</g>
<!-- Node6&#45;&gt;Node5 -->
<g id="edge13_Node000006_Node000005" class="edge">
<title>Node6&#45;&gt;Node5</title>
<g id="a_edge13_Node000006_Node000005"><a xlink:title=" ">
<path fill="none" stroke="#63b8ff" d="M613.34,-111.55C630.36,-102.35 651.84,-90.74 668.6,-81.68"/>
<polygon fill="#63b8ff" stroke="#63b8ff" points="669.88,-84.96 677.01,-77.13 666.55,-78.8 669.88,-84.96"/>
</a>
</g>
</g>
<!-- Node7 -->
<g id="Node000007" class="node">
<title>Node7</title>
<g id="a_Node000007"><a xlink:href="UtilsError_8hpp.html" target="_top" xlink:title=" ">
<polygon fill="white" stroke="#666666" points="1063.38,-76 964.12,-76 964.12,-56 1063.38,-56 1063.38,-76"/>
<text xml:space="preserve" text-anchor="middle" x="1013.75" y="-62.5" font-family="Helvetica,sans-Serif" font-size="10.00">Utils/UtilsError.hpp</text>
</a>
</g>
</g>
<!-- Node6&#45;&gt;Node7 -->
<g id="edge7_Node000006_Node000007" class="edge">
<title>Node6&#45;&gt;Node7</title>
<g id="a_edge7_Node000006_Node000007"><a xlink:title=" ">
<path fill="none" stroke="#63b8ff" d="M651.36,-113.42C654.19,-112.93 657,-112.45 659.75,-112 761.98,-95.3 881.67,-81.22 952.41,-73.46"/>
<polygon fill="#63b8ff" stroke="#63b8ff" points="952.69,-76.95 962.25,-72.39 951.93,-69.99 952.69,-76.95"/>
</a>
</g>
</g>
<!-- Node13 -->
<g id="Node000013" class="node">
<title>Node13</title>
<g id="a_Node000013"><a xlink:title=" ">
<polygon fill="#e0e0e0" stroke="#999999" points="601.25,-76 558.25,-76 558.25,-56 601.25,-56 601.25,-76"/>
<text xml:space="preserve" text-anchor="middle" x="579.75" y="-62.5" font-family="Helvetica,sans-Serif" font-size="10.00">vector</text>
</a>
</g>
</g>
<!-- Node6&#45;&gt;Node13 -->
<g id="edge14_Node000006_Node000013" class="edge">
<title>Node6&#45;&gt;Node13</title>
<g id="a_edge14_Node000006_Node000013"><a xlink:title=" ">
<path fill="none" stroke="#63b8ff" d="M583.46,-111.55C582.85,-104.26 582.12,-95.45 581.47,-87.6"/>
<polygon fill="#63b8ff" stroke="#63b8ff" points="584.98,-87.59 580.66,-77.92 578,-88.17 584.98,-87.59"/>
</a>
</g>
</g>
<!-- Node8 -->
<g id="Node000008" class="node">
<title>Node8</title>
<g id="a_Node000008"><a xlink:title=" ">
<polygon fill="#e0e0e0" stroke="#999999" points="938.38,-20 893.12,-20 893.12,0 938.38,0 938.38,-20"/>
<text xml:space="preserve" text-anchor="middle" x="915.75" y="-6.5" font-family="Helvetica,sans-Serif" font-size="10.00">cstdint</text>
</a>
</g>
</g>
<!-- Node7&#45;&gt;Node8 -->
<g id="edge8_Node000007_Node000008" class="edge">
<title>Node7&#45;&gt;Node8</title>
<g id="a_edge8_Node000007_Node000008"><a xlink:title=" ">
<path fill="none" stroke="#63b8ff" d="M996.68,-55.59C981.87,-47.44 960.18,-35.48 942.98,-26"/>
<polygon fill="#63b8ff" stroke="#63b8ff" points="944.73,-22.97 934.28,-21.21 941.35,-29.1 944.73,-22.97"/>
</a>
</g>
</g>
<!-- Node9 -->
<g id="Node000009" class="node">
<title>Node9</title>
<g id="a_Node000009"><a xlink:title=" ">
<polygon fill="#e0e0e0" stroke="#999999" points="1145.62,-20 1095.88,-20 1095.88,0 1145.62,0 1145.62,-20"/>
<text xml:space="preserve" text-anchor="middle" x="1120.75" y="-6.5" font-family="Helvetica,sans-Serif" font-size="10.00">optional</text>
</a>
</g>
</g>
<!-- Node7&#45;&gt;Node9 -->
<g id="edge9_Node000007_Node000009" class="edge">
<title>Node7&#45;&gt;Node9</title>
<g id="a_edge9_Node000007_Node000009"><a xlink:title=" ">
<path fill="none" stroke="#63b8ff" d="M1032.39,-55.59C1048.78,-47.32 1072.91,-35.14 1091.81,-25.6"/>
<polygon fill="#63b8ff" stroke="#63b8ff" points="1093.26,-28.79 1100.62,-21.16 1090.11,-22.54 1093.26,-28.79"/>
</a>
</g>
</g>
<!-- Node10 -->
<g id="Node000010" class="node">
<title>Node10</title>
<g id="a_Node000010"><a xlink:title=" ">
<polygon fill="#e0e0e0" stroke="#999999" points="1078.12,-20 1019.38,-20 1019.38,0 1078.12,0 1078.12,-20"/>
<text xml:space="preserve" text-anchor="middle" x="1048.75" y="-6.5" font-family="Helvetica,sans-Serif" font-size="10.00">stdexcept</text>
</a>
</g>
</g>
<!-- Node7&#45;&gt;Node10 -->
<g id="edge10_Node000007_Node000010" class="edge">
<title>Node7&#45;&gt;Node10</title>
<g id="a_edge10_Node000007_Node000010"><a xlink:title=" ">
<path fill="none" stroke="#63b8ff" d="M1019.85,-55.59C1024.46,-48.47 1030.96,-38.45 1036.62,-29.72"/>
<polygon fill="#63b8ff" stroke="#63b8ff" points="1039.4,-31.86 1041.9,-21.57 1033.52,-28.06 1039.4,-31.86"/>
</a>
</g>
</g>
<!-- Node7&#45;&gt;Node11 -->
<g id="edge11_Node000007_Node000011" class="edge">
<title>Node7&#45;&gt;Node11</title>
<g id="a_edge11_Node000007_Node000011"><a xlink:title=" ">
<path fill="none" stroke="#63b8ff" d="M1043.36,-55.59C1074.03,-45.85 1121.74,-30.7 1152.87,-20.81"/>
<polygon fill="#63b8ff" stroke="#63b8ff" points="1153.62,-24.24 1162.09,-17.88 1151.5,-17.57 1153.62,-24.24"/>
</a>
</g>
</g>
<!-- Node12 -->
<g id="Node000012" class="node">
<title>Node12</title>
<g id="a_Node000012"><a xlink:title=" ">
<polygon fill="#e0e0e0" stroke="#999999" points="1001.38,-20 956.12,-20 956.12,0 1001.38,0 1001.38,-20"/>
<text xml:space="preserve" text-anchor="middle" x="978.75" y="-6.5" font-family="Helvetica,sans-Serif" font-size="10.00">variant</text>
</a>
</g>
</g>
<!-- Node7&#45;&gt;Node12 -->
<g id="edge12_Node000007_Node000012" class="edge">
<title>Node7&#45;&gt;Node12</title>
<g id="a_edge12_Node000007_Node000012"><a xlink:title=" ">
<path fill="none" stroke="#63b8ff" d="M1007.65,-55.59C1003.04,-48.47 996.54,-38.45 990.88,-29.72"/>
<polygon fill="#63b8ff" stroke="#63b8ff" points="993.98,-28.06 985.6,-21.57 988.1,-31.86 993.98,-28.06"/>
</a>
</g>
</g>
<!-- Node14&#45;&gt;Node5 -->
<g id="edge18_Node000014_Node000005" class="edge">
<title>Node14&#45;&gt;Node5</title>
<g id="a_edge18_Node000014_Node000005"><a xlink:title=" ">
<path fill="none" stroke="#63b8ff" d="M263.26,-117.56C274.92,-115.59 287.24,-113.63 298.75,-112 366.54,-102.39 565.88,-80.84 653.56,-71.48"/>
<polygon fill="#63b8ff" stroke="#63b8ff" points="653.84,-74.97 663.41,-70.43 653.09,-68.01 653.84,-74.97"/>
</a>
</g>
</g>
<!-- Node14&#45;&gt;Node7 -->
<g id="edge16_Node000014_Node000007" class="edge">
<title>Node14&#45;&gt;Node7</title>
<g id="a_edge16_Node000014_Node000007"><a xlink:title=" ">
<path fill="none" stroke="#63b8ff" d="M260.88,-117.51C273.22,-115.44 286.43,-113.43 298.75,-112 539.61,-83.97 828.3,-72.54 952.27,-68.67"/>
<polygon fill="#63b8ff" stroke="#63b8ff" points="952.34,-72.17 962.23,-68.37 952.13,-65.18 952.34,-72.17"/>
</a>
</g>
</g>
<!-- Node14&#45;&gt;Node8 -->
<g id="edge17_Node000014_Node000008" class="edge">
<title>Node14&#45;&gt;Node8</title>
<g id="a_edge17_Node000014_Node000008"><a xlink:title=" ">
<path fill="none" stroke="#63b8ff" d="M237.74,-117.61C283.18,-102.21 378.08,-71.7 460.75,-56 616.2,-26.48 805.44,-15.65 881.59,-12.3"/>
<polygon fill="#63b8ff" stroke="#63b8ff" points="881.46,-15.81 891.31,-11.89 881.17,-8.81 881.46,-15.81"/>
</a>
</g>
</g>
<!-- Node14&#45;&gt;Node11 -->
<g id="edge19_Node000014_Node000011" class="edge">
<title>Node14&#45;&gt;Node11</title>
<g id="a_edge19_Node000014_Node000011"><a xlink:title=" ">
<path fill="none" stroke="#63b8ff" d="M261.1,-117.55C306.45,-108.54 374.7,-93.74 432.75,-76 456.43,-68.77 460.53,-61.17 484.75,-56 772.82,5.53 859.12,-70.69 1152.34,-19.97"/>
<polygon fill="#63b8ff" stroke="#63b8ff" points="1152.58,-23.48 1161.82,-18.29 1151.36,-16.59 1152.58,-23.48"/>
</a>
</g>
</g>
<!-- Node14&#45;&gt;Node13 -->
<g id="edge20_Node000014_Node000013" class="edge">
<title>Node14&#45;&gt;Node13</title>
<g id="a_edge20_Node000014_Node000013"><a xlink:title=" ">
<path fill="none" stroke="#63b8ff" d="M265.66,-117.55C276.62,-115.69 288.05,-113.77 298.75,-112 388.29,-97.2 494.01,-80.47 546.59,-72.2"/>
<polygon fill="#63b8ff" stroke="#63b8ff" points="547.05,-75.67 556.38,-70.66 545.96,-68.76 547.05,-75.67"/>
</a>
</g>
</g>
<!-- Node15&#45;&gt;Node5 -->
<g id="edge24_Node000015_Node000005" class="edge">
<title>Node15&#45;&gt;Node5</title>
<g id="a_edge24_Node000015_Node000005"><a xlink:title=" ">
<path fill="none" stroke="#63b8ff" d="M433.69,-117.56C494.34,-105.86 596.67,-86.12 653.86,-75.08"/>
<polygon fill="#63b8ff" stroke="#63b8ff" points="654.37,-78.55 663.52,-73.22 653.04,-71.67 654.37,-78.55"/>
</a>
</g>
</g>
<!-- Node15&#45;&gt;Node7 -->
<g id="edge22_Node000015_Node000007" class="edge">
<title>Node15&#45;&gt;Node7</title>
<g id="a_edge22_Node000015_Node000007"><a xlink:title=" ">
<path fill="none" stroke="#63b8ff" d="M459.79,-117.54C475.93,-115.61 492.9,-113.66 508.75,-112 668.63,-95.21 857.41,-79.47 952.48,-71.83"/>
<polygon fill="#63b8ff" stroke="#63b8ff" points="952.69,-75.33 962.37,-71.04 952.13,-68.35 952.69,-75.33"/>
</a>
</g>
</g>
<!-- Node15&#45;&gt;Node8 -->
<g id="edge23_Node000015_Node000008" class="edge">
<title>Node15&#45;&gt;Node8</title>
<g id="a_edge23_Node000015_Node000008"><a xlink:title=" ">
<path fill="none" stroke="#63b8ff" d="M396.74,-117.68C417.71,-101.95 462.99,-70.42 506.75,-56 576.18,-33.12 795.99,-18.06 881.37,-12.94"/>
<polygon fill="#63b8ff" stroke="#63b8ff" points="881.44,-16.45 891.22,-12.36 881.03,-9.46 881.44,-16.45"/>
</a>
</g>
</g>
<!-- Node15&#45;&gt;Node11 -->
<g id="edge25_Node000015_Node000011" class="edge">
<title>Node15&#45;&gt;Node11</title>
<g id="a_edge25_Node000015_Node000011"><a xlink:title=" ">
<path fill="none" stroke="#63b8ff" d="M400.85,-117.75C429.5,-101.81 491.71,-69.59 548.75,-56 807.62,5.69 887.14,-66.32 1152.18,-20.01"/>
<polygon fill="#63b8ff" stroke="#63b8ff" points="1152.59,-23.49 1161.82,-18.28 1151.36,-16.6 1152.59,-23.49"/>
</a>
</g>
</g>
<!-- Node15&#45;&gt;Node13 -->
<g id="edge26_Node000015_Node000013" class="edge">
<title>Node15&#45;&gt;Node13</title>
<g id="a_edge26_Node000015_Node000013"><a xlink:title=" ">
<path fill="none" stroke="#63b8ff" d="M415.22,-117.62C451.14,-106.57 510.58,-88.28 547.32,-76.98"/>
<polygon fill="#63b8ff" stroke="#63b8ff" points="547.97,-80.44 556.5,-74.15 545.91,-73.75 547.97,-80.44"/>
</a>
</g>
</g>
<!-- Node16&#45;&gt;Node5 -->
<g id="edge29_Node000016_Node000005" class="edge">
<title>Node16&#45;&gt;Node5</title>
<g id="a_edge29_Node000016_Node000005"><a xlink:title=" ">
<path fill="none" stroke="#63b8ff" d="M893.77,-117.56C851.32,-106.72 781.86,-88.98 737.5,-77.66"/>
<polygon fill="#63b8ff" stroke="#63b8ff" points="738.54,-74.31 727.99,-75.23 736.81,-81.1 738.54,-74.31"/>
</a>
</g>
</g>
<!-- Node16&#45;&gt;Node7 -->
<g id="edge28_Node000016_Node000007" class="edge">
<title>Node16&#45;&gt;Node7</title>
<g id="a_edge28_Node000016_Node000007"><a xlink:title=" ">
<path fill="none" stroke="#63b8ff" d="M943.72,-117.62C956.51,-108.38 976.31,-94.07 991.6,-83.01"/>
<polygon fill="#63b8ff" stroke="#63b8ff" points="993.59,-85.89 999.65,-77.2 989.49,-80.22 993.59,-85.89"/>
</a>
</g>
</g>
<!-- Node16&#45;&gt;Node11 -->
<g id="edge30_Node000016_Node000011" class="edge">
<title>Node16&#45;&gt;Node11</title>
<g id="a_edge30_Node000016_Node000011"><a xlink:title=" ">
<path fill="none" stroke="#63b8ff" d="M962.16,-117.57C991.39,-108.36 1035.85,-93.25 1072.75,-76 1104.19,-61.3 1138.36,-40.5 1160.36,-26.42"/>
<polygon fill="#63b8ff" stroke="#63b8ff" points="1162.07,-29.48 1168.57,-21.11 1158.27,-23.6 1162.07,-29.48"/>
</a>
</g>
</g>
<!-- Node16&#45;&gt;Node13 -->
<g id="edge31_Node000016_Node000013" class="edge">
<title>Node16&#45;&gt;Node13</title>
<g id="a_edge31_Node000016_Node000013"><a xlink:title=" ">
<path fill="none" stroke="#63b8ff" d="M875.52,-117.56C801.67,-104.94 673.09,-82.96 612.77,-72.64"/>
<polygon fill="#63b8ff" stroke="#63b8ff" points="613.59,-69.23 603.14,-71 612.41,-76.13 613.59,-69.23"/>
</a>
</g>
</g>
<!-- Node17&#45;&gt;Node7 -->
<g id="edge33_Node000017_Node000007" class="edge">
<title>Node17&#45;&gt;Node7</title>
<g id="a_edge33_Node000017_Node000007"><a xlink:title=" ">
<path fill="none" stroke="#63b8ff" d="M1335.53,-113.55C1332.57,-113.01 1329.63,-112.49 1326.75,-112 1239.65,-97.04 1138.32,-83.1 1075.1,-74.81"/>
<polygon fill="#63b8ff" stroke="#63b8ff" points="1075.62,-71.35 1065.26,-73.53 1074.72,-78.29 1075.62,-71.35"/>
</a>
</g>
</g>
<!-- Node17&#45;&gt;Node9 -->
<g id="edge35_Node000017_Node000009" class="edge">
<title>Node17&#45;&gt;Node9</title>
<g id="a_edge35_Node000017_Node000009"><a xlink:title=" ">
<path fill="none" stroke="#63b8ff" d="M1388.16,-111.76C1372.72,-95.43 1345.99,-69.97 1317.75,-56 1254.37,-24.64 1229.23,-36.25 1156.98,-20.35"/>
<polygon fill="#63b8ff" stroke="#63b8ff" points="1157.98,-16.99 1147.45,-18.14 1156.4,-23.81 1157.98,-16.99"/>
</a>
</g>
</g>
<!-- Node17&#45;&gt;Node11 -->
<g id="edge36_Node000017_Node000011" class="edge">
<title>Node17&#45;&gt;Node11</title>
<g id="a_edge36_Node000017_Node000011"><a xlink:title=" ">
<path fill="none" stroke="#63b8ff" d="M1394.65,-111.57C1386.39,-95.32 1371.21,-70.17 1350.75,-56 1309.49,-27.44 1250.94,-16.99 1215.25,-13.18"/>
<polygon fill="#63b8ff" stroke="#63b8ff" points="1215.87,-9.72 1205.59,-12.27 1215.21,-16.69 1215.87,-9.72"/>
</a>
</g>
</g>
<!-- Node18 -->
<g id="Node000018" class="node">
<title>Node18</title>
<g id="a_Node000018"><a xlink:title=" ">
<polygon fill="#e0e0e0" stroke="#999999" points="1308.62,-76 1210.88,-76 1210.88,-56 1308.62,-56 1308.62,-76"/>
<text xml:space="preserve" text-anchor="middle" x="1259.75" y="-62.5" font-family="Helvetica,sans-Serif" font-size="10.00">nlohmann/json.hpp</text>
</a>
</g>
</g>
<!-- Node17&#45;&gt;Node18 -->
<g id="edge34_Node000017_Node000018" class="edge">
<title>Node17&#45;&gt;Node18</title>
<g id="a_edge34_Node000017_Node000018"><a xlink:title=" ">
<path fill="none" stroke="#63b8ff" d="M1365.18,-111.55C1342.69,-102.04 1314.11,-89.97 1292.38,-80.79"/>
<polygon fill="#63b8ff" stroke="#63b8ff" points="1293.98,-77.67 1283.41,-77 1291.26,-84.11 1293.98,-77.67"/>
</a>
</g>
</g>
<!-- Node19&#45;&gt;Node5 -->
<g id="edge39_Node000019_Node000005" class="edge">
<title>Node19&#45;&gt;Node5</title>
<g id="a_edge39_Node000019_Node000005"><a xlink:title=" ">
<path fill="none" stroke="#63b8ff" d="M1196.14,-117.52C1184.88,-115.52 1172.92,-113.55 1161.75,-112 1006.16,-90.47 819.93,-75.8 737.98,-69.9"/>
<polygon fill="#63b8ff" stroke="#63b8ff" points="738.39,-66.43 728.17,-69.21 737.9,-73.41 738.39,-66.43"/>
</a>
</g>
</g>
<!-- Node19&#45;&gt;Node7 -->
<g id="edge38_Node000019_Node000007" class="edge">
<title>Node19&#45;&gt;Node7</title>
<g id="a_edge38_Node000019_Node000007"><a xlink:title=" ">
<path fill="none" stroke="#63b8ff" d="M1208.4,-117.56C1168.66,-107.24 1104.83,-90.66 1061.18,-79.32"/>
<polygon fill="#63b8ff" stroke="#63b8ff" points="1062.29,-75.99 1051.73,-76.87 1060.53,-82.77 1062.29,-75.99"/>
</a>
</g>
</g>
<!-- Node19&#45;&gt;Node11 -->
<g id="edge41_Node000019_Node000011" class="edge">
<title>Node19&#45;&gt;Node11</title>
<g id="a_edge41_Node000019_Node000011"><a xlink:title=" ">
<path fill="none" stroke="#63b8ff" d="M1234.79,-117.78C1225.03,-108.21 1210.39,-92.39 1201.75,-76 1194.38,-62.03 1189.78,-44.73 1187.08,-31.5"/>
<polygon fill="#63b8ff" stroke="#63b8ff" points="1190.54,-30.99 1185.31,-21.78 1183.66,-32.25 1190.54,-30.99"/>
</a>
</g>
</g>
<!-- Node19&#45;&gt;Node18 -->
<g id="edge40_Node000019_Node000018" class="edge">
<title>Node19&#45;&gt;Node18</title>
<g id="a_edge40_Node000019_Node000018"><a xlink:title=" ">
<path fill="none" stroke="#63b8ff" d="M1247.09,-117.62C1249.13,-109.48 1252.15,-97.39 1254.73,-87.07"/>
<polygon fill="#63b8ff" stroke="#63b8ff" points="1258.07,-88.13 1257.1,-77.58 1251.28,-86.43 1258.07,-88.13"/>
</a>
</g>
</g>
<!-- Node20&#45;&gt;Node8 -->
<g id="edge44_Node000020_Node000008" class="edge">
<title>Node20&#45;&gt;Node8</title>
<g id="a_edge44_Node000020_Node000008"><a xlink:title=" ">
<path fill="none" stroke="#63b8ff" d="M1616.09,-59.59C1600.94,-58.34 1584.76,-57.06 1569.75,-56 1296.73,-36.74 1222.06,-66.17 949.66,-20.15"/>
<polygon fill="#63b8ff" stroke="#63b8ff" points="950.58,-16.76 940.13,-18.52 949.4,-23.66 950.58,-16.76"/>
</a>
</g>
</g>
<!-- Node20&#45;&gt;Node11 -->
<g id="edge47_Node000020_Node000011" class="edge">
<title>Node20&#45;&gt;Node11</title>
<g id="a_edge47_Node000020_Node000011"><a xlink:title=" ">
<path fill="none" stroke="#63b8ff" d="M1616.36,-57.57C1611.76,-57.03 1607.18,-56.5 1602.75,-56 1458.06,-39.55 1285.06,-21.48 1215.25,-14.25"/>
<polygon fill="#63b8ff" stroke="#63b8ff" points="1215.63,-10.77 1205.33,-13.22 1214.91,-17.73 1215.63,-10.77"/>
</a>
</g>
</g>
<!-- Node21 -->
<g id="Node000021" class="node">
<title>Node21</title>
<g id="a_Node000021"><a xlink:title=" ">
<polygon fill="#e0e0e0" stroke="#999999" points="1670.88,-20 1610.62,-20 1610.62,0 1670.88,0 1670.88,-20"/>
<text xml:space="preserve" text-anchor="middle" x="1640.75" y="-6.5" font-family="Helvetica,sans-Serif" font-size="10.00">fmt/core.h</text>
</a>
</g>
</g>
<!-- Node20&#45;&gt;Node21 -->
<g id="edge43_Node000020_Node000021" class="edge">
<title>Node20&#45;&gt;Node21</title>
<g id="a_edge43_Node000020_Node000021"><a xlink:title=" ">
<path fill="none" stroke="#63b8ff" d="M1671.31,-55.59C1666.42,-48.47 1659.56,-38.45 1653.57,-29.72"/>
<polygon fill="#63b8ff" stroke="#63b8ff" points="1656.52,-27.82 1647.98,-21.55 1650.74,-31.77 1656.52,-27.82"/>
</a>
</g>
</g>
<!-- Node20&#45;&gt;Node22 -->
<g id="edge45_Node000020_Node000022" class="edge">
<title>Node20&#45;&gt;Node22</title>
<g id="a_edge45_Node000020_Node000022"><a xlink:title=" ">
<path fill="none" stroke="#63b8ff" d="M1719.3,-55.53C1764.05,-45.34 1834.6,-29.26 1877.57,-19.47"/>
<polygon fill="#63b8ff" stroke="#63b8ff" points="1878.21,-22.92 1887.18,-17.28 1876.66,-16.09 1878.21,-22.92"/>
</a>
</g>
</g>
<!-- Node23 -->
<g id="Node000023" class="node">
<title>Node23</title>
<g id="a_Node000023"><a xlink:title=" ">
<polygon fill="#e0e0e0" stroke="#999999" points="1740.38,-20 1689.12,-20 1689.12,0 1740.38,0 1740.38,-20"/>
<text xml:space="preserve" text-anchor="middle" x="1714.75" y="-6.5" font-family="Helvetica,sans-Serif" font-size="10.00">sstream</text>
</a>
</g>
</g>
<!-- Node20&#45;&gt;Node23 -->
<g id="edge46_Node000020_Node000023" class="edge">
<title>Node20&#45;&gt;Node23</title>
<g id="a_edge46_Node000020_Node000023"><a xlink:title=" ">
<path fill="none" stroke="#63b8ff" d="M1684.19,-55.59C1689.08,-48.47 1695.94,-38.45 1701.93,-29.72"/>
<polygon fill="#63b8ff" stroke="#63b8ff" points="1704.76,-31.77 1707.52,-21.55 1698.98,-27.82 1704.76,-31.77"/>
</a>
</g>
</g>
<!-- Node24&#45;&gt;Node11 -->
<g id="edge51_Node000024_Node000011" class="edge">
<title>Node24&#45;&gt;Node11</title>
<g id="a_edge51_Node000024_Node000011"><a xlink:title=" ">
<path fill="none" stroke="#63b8ff" d="M1631.99,-117.66C1621.69,-101.88 1598.48,-70.29 1569.75,-56 1507.55,-25.07 1295.65,-14.78 1215.14,-11.94"/>
<polygon fill="#63b8ff" stroke="#63b8ff" points="1215.44,-8.45 1205.33,-11.61 1215.2,-15.45 1215.44,-8.45"/>
</a>
</g>
</g>
<!-- Node24&#45;&gt;Node20 -->
<g id="edge49_Node000024_Node000020" class="edge">
<title>Node24&#45;&gt;Node20</title>
<g id="a_edge49_Node000024_Node000020"><a xlink:title=" ">
<path fill="none" stroke="#63b8ff" d="M1644,-117.62C1649.73,-109.03 1658.37,-96.07 1665.48,-85.41"/>
<polygon fill="#63b8ff" stroke="#63b8ff" points="1668.2,-87.63 1670.84,-77.37 1662.38,-83.75 1668.2,-87.63"/>
</a>
</g>
</g>
<!-- Node24&#45;&gt;Node22 -->
<g id="edge50_Node000024_Node000022" class="edge">
<title>Node24&#45;&gt;Node22</title>
<g id="a_edge50_Node000024_Node000022"><a xlink:title=" ">
<path fill="none" stroke="#63b8ff" d="M1660.42,-117.51C1709.24,-97.06 1824.5,-48.8 1881.56,-24.9"/>
<polygon fill="#63b8ff" stroke="#63b8ff" points="1882.89,-28.14 1890.76,-21.05 1880.19,-21.68 1882.89,-28.14"/>
</a>
</g>
</g>
<!-- Node25&#45;&gt;Node20 -->
<g id="edge53_Node000025_Node000020" class="edge">
<title>Node25&#45;&gt;Node20</title>
<g id="a_edge53_Node000025_Node000020"><a xlink:title=" ">
<path fill="none" stroke="#63b8ff" d="M1780.69,-117.62C1760.9,-107.89 1729.71,-92.55 1706.84,-81.31"/>
<polygon fill="#63b8ff" stroke="#63b8ff" points="1708.55,-78.25 1698.04,-76.98 1705.47,-84.53 1708.55,-78.25"/>
</a>
</g>
</g>
<!-- Node26&#45;&gt;Node5 -->
<g id="edge57_Node000026_Node000005" class="edge">
<title>Node26&#45;&gt;Node5</title>
<g id="a_edge57_Node000026_Node000005"><a xlink:title=" ">
<path fill="none" stroke="#63b8ff" d="M1034.1,-113.55C1031.28,-113.01 1028.49,-112.49 1025.75,-112 922.8,-93.66 800.62,-78.77 737.76,-71.62"/>
<polygon fill="#63b8ff" stroke="#63b8ff" points="738.2,-68.14 727.87,-70.5 737.41,-75.1 738.2,-68.14"/>
</a>
</g>
</g>
<!-- Node26&#45;&gt;Node7 -->
<g id="edge55_Node000026_Node000007" class="edge">
<title>Node26&#45;&gt;Node7</title>
<g id="a_edge55_Node000026_Node000007"><a xlink:title=" ">
<path fill="none" stroke="#63b8ff" d="M1073.15,-111.55C1061.57,-102.87 1047.14,-92.04 1035.4,-83.24"/>
<polygon fill="#63b8ff" stroke="#63b8ff" points="1037.6,-80.52 1027.5,-77.32 1033.4,-86.12 1037.6,-80.52"/>
</a>
</g>
</g>
<!-- Node26&#45;&gt;Node8 -->
<g id="edge56_Node000026_Node000008" class="edge">
<title>Node26&#45;&gt;Node8</title>
<g id="a_edge56_Node000026_Node000008"><a xlink:title=" ">
<path fill="none" stroke="#63b8ff" d="M1040.73,-111.57C1007.46,-101.14 968.37,-87.26 954.75,-76 940.19,-63.96 929.69,-44.97 923.28,-30.62"/>
<polygon fill="#63b8ff" stroke="#63b8ff" points="926.66,-29.62 919.59,-21.73 920.19,-32.3 926.66,-29.62"/>
</a>
</g>
</g>
<!-- Node26&#45;&gt;Node11 -->
<g id="edge58_Node000026_Node000011" class="edge">
<title>Node26&#45;&gt;Node11</title>
<g id="a_edge58_Node000026_Node000011"><a xlink:title=" ">
<path fill="none" stroke="#63b8ff" d="M1105.52,-111.84C1121.95,-90.65 1151.75,-52.24 1169.45,-29.43"/>
<polygon fill="#63b8ff" stroke="#63b8ff" points="1172.14,-31.68 1175.5,-21.63 1166.6,-27.39 1172.14,-31.68"/>
</a>
</g>
</g>
<!-- Node27&#45;&gt;Node11 -->
<g id="edge60_Node000027_Node000011" class="edge">
<title>Node27&#45;&gt;Node11</title>
<g id="a_edge60_Node000027_Node000011"><a xlink:title=" ">
<path fill="none" stroke="#63b8ff" d="M1429.5,-55.53C1367.53,-44.3 1266.23,-25.95 1215.21,-16.7"/>
<polygon fill="#63b8ff" stroke="#63b8ff" points="1215.91,-13.27 1205.44,-14.93 1214.66,-20.16 1215.91,-13.27"/>
</a>
</g>
</g>
</g>
</svg>
