<?xml version="1.0" encoding="UTF-8" standalone="no"?>
<!DOCTYPE svg PUBLIC "-//W3C//DTD SVG 1.1//EN"
 "http://www.w3.org/Graphics/SVG/1.1/DTD/svg11.dtd">
<!-- Generated by graphviz version 13.1.2 (20250808.2320)
 -->
<!-- Title: src/Utils/Filesystem/IFileWriter.hpp Pages: 1 -->
<svg width="660pt" height="232pt"
 viewBox="0.00 0.00 660.00 232.00" xmlns="http://www.w3.org/2000/svg" xmlns:xlink="http://www.w3.org/1999/xlink">
<g id="graph0" class="graph" transform="scale(1 1) rotate(0) translate(4 228)">
<title>src/Utils/Filesystem/IFileWriter.hpp</title>
<!-- Node1 -->
<g id="Node000001" class="node">
<title>Node1</title>
<g id="a_Node000001"><a xlink:title=" ">
<polygon fill="#999999" stroke="#666666" points="387.75,-224 284,-224 284,-192 387.75,-192 387.75,-224"/>
<text xml:space="preserve" text-anchor="start" x="292" y="-210.5" font-family="Helvetica,sans-Serif" font-size="10.00">src/Utils/Filesystem</text>
<text xml:space="preserve" text-anchor="middle" x="335.88" y="-198.5" font-family="Helvetica,sans-Serif" font-size="10.00">/IFileWriter.hpp</text>
</a>
</g>
</g>
<!-- Node2 -->
<g id="Node000002" class="node">
<title>Node2</title>
<g id="a_Node000002"><a xlink:href="FileWriter_8hpp.html" target="_top" xlink:title=" ">
<polygon fill="white" stroke="#666666" points="237.75,-156 134,-156 134,-124 237.75,-124 237.75,-156"/>
<text xml:space="preserve" text-anchor="start" x="142" y="-142.5" font-family="Helvetica,sans-Serif" font-size="10.00">src/Utils/Filesystem</text>
<text xml:space="preserve" text-anchor="middle" x="185.88" y="-130.5" font-family="Helvetica,sans-Serif" font-size="10.00">/FileWriter.hpp</text>
</a>
</g>
</g>
<!-- Node1&#45;&gt;Node2 -->
<g id="edge1_Node000001_Node000002" class="edge">
<title>Node1&#45;&gt;Node2</title>
<g id="a_edge1_Node000001_Node000002"><a xlink:title=" ">
<path fill="none" stroke="#63b8ff" d="M290.18,-186.89C267.97,-177.12 241.7,-165.56 221.08,-156.49"/>
<polygon fill="#63b8ff" stroke="#63b8ff" points="288.76,-190.09 299.32,-190.92 291.58,-183.69 288.76,-190.09"/>
</a>
</g>
</g>
<!-- Node5 -->
<g id="Node000005" class="node">
<title>Node5</title>
<g id="a_Node000005"><a xlink:href="JsonSerializer_8hpp.html" target="_top" xlink:title=" ">
<polygon fill="white" stroke="#666666" points="415.88,-150 255.88,-150 255.88,-130 415.88,-130 415.88,-150"/>
<text xml:space="preserve" text-anchor="middle" x="335.88" y="-136.5" font-family="Helvetica,sans-Serif" font-size="10.00">src/Utils/Json/JsonSerializer.hpp</text>
</a>
</g>
</g>
<!-- Node1&#45;&gt;Node5 -->
<g id="edge4_Node000001_Node000005" class="edge">
<title>Node1&#45;&gt;Node5</title>
<g id="a_edge4_Node000001_Node000005"><a xlink:title=" ">
<path fill="none" stroke="#63b8ff" d="M335.88,-180.31C335.88,-169.67 335.88,-158.13 335.88,-150.32"/>
<polygon fill="#63b8ff" stroke="#63b8ff" points="332.38,-180.18 335.88,-190.18 339.38,-180.18 332.38,-180.18"/>
</a>
</g>
</g>
<!-- Node7 -->
<g id="Node000007" class="node">
<title>Node7</title>
<g id="a_Node000007"><a xlink:href="UtilsFactory_8hpp.html" target="_top" xlink:title=" ">
<polygon fill="white" stroke="#666666" points="561.38,-150 434.38,-150 434.38,-130 561.38,-130 561.38,-150"/>
<text xml:space="preserve" text-anchor="middle" x="497.88" y="-136.5" font-family="Helvetica,sans-Serif" font-size="10.00">src/Utils/UtilsFactory.hpp</text>
</a>
</g>
</g>
<!-- Node1&#45;&gt;Node7 -->
<g id="edge7_Node000001_Node000007" class="edge">
<title>Node1&#45;&gt;Node7</title>
<g id="a_edge7_Node000001_Node000007"><a xlink:title=" ">
<path fill="none" stroke="#63b8ff" d="M384.5,-187.19C414.35,-175.03 451.23,-160 474.65,-150.46"/>
<polygon fill="#63b8ff" stroke="#63b8ff" points="383.2,-183.94 375.26,-190.95 385.84,-190.42 383.2,-183.94"/>
</a>
</g>
</g>
<!-- Node3 -->
<g id="Node000003" class="node">
<title>Node3</title>
<g id="a_Node000003"><a xlink:href="FileWriter_8cpp.html" target="_top" xlink:title=" ">
<polygon fill="white" stroke="#666666" points="103.75,-88 0,-88 0,-56 103.75,-56 103.75,-88"/>
<text xml:space="preserve" text-anchor="start" x="8" y="-74.5" font-family="Helvetica,sans-Serif" font-size="10.00">src/Utils/Filesystem</text>
<text xml:space="preserve" text-anchor="middle" x="51.88" y="-62.5" font-family="Helvetica,sans-Serif" font-size="10.00">/FileWriter.cpp</text>
</a>
</g>
</g>
<!-- Node2&#45;&gt;Node3 -->
<g id="edge2_Node000002_Node000003" class="edge">
<title>Node2&#45;&gt;Node3</title>
<g id="a_edge2_Node000002_Node000003"><a xlink:title=" ">
<path fill="none" stroke="#63b8ff" d="M144.2,-118.47C124.46,-108.75 101.29,-97.34 83.1,-88.38"/>
<polygon fill="#63b8ff" stroke="#63b8ff" points="142.58,-121.58 153.1,-122.86 145.68,-115.3 142.58,-121.58"/>
</a>
</g>
</g>
<!-- Node4 -->
<g id="Node000004" class="node">
<title>Node4</title>
<g id="a_Node000004"><a xlink:href="UtilsFactory_8cpp.html" target="_top" xlink:title=" ">
<polygon fill="white" stroke="#666666" points="427.38,-82 300.38,-82 300.38,-62 427.38,-62 427.38,-82"/>
<text xml:space="preserve" text-anchor="middle" x="363.88" y="-68.5" font-family="Helvetica,sans-Serif" font-size="10.00">src/Utils/UtilsFactory.cpp</text>
</a>
</g>
</g>
<!-- Node2&#45;&gt;Node4 -->
<g id="edge3_Node000002_Node000004" class="edge">
<title>Node2&#45;&gt;Node4</title>
<g id="a_edge3_Node000002_Node000004"><a xlink:title=" ">
<path fill="none" stroke="#63b8ff" d="M238.01,-119.67C271.03,-107.42 312.28,-92.13 338.36,-82.46"/>
<polygon fill="#63b8ff" stroke="#63b8ff" points="237.19,-116.24 229.03,-123 239.62,-122.8 237.19,-116.24"/>
</a>
</g>
</g>
<!-- Node5&#45;&gt;Node4 -->
<g id="edge6_Node000005_Node000004" class="edge">
<title>Node5&#45;&gt;Node4</title>
<g id="a_edge6_Node000005_Node000004"><a xlink:title=" ">
<path fill="none" stroke="#63b8ff" d="M344.35,-119.03C349.5,-106.89 355.84,-91.94 359.87,-82.44"/>
<polygon fill="#63b8ff" stroke="#63b8ff" points="341.16,-117.58 340.48,-128.15 347.61,-120.31 341.16,-117.58"/>
</a>
</g>
</g>
<!-- Node6 -->
<g id="Node000006" class="node">
<title>Node6</title>
<g id="a_Node000006"><a xlink:href="JsonSerializer_8cpp.html" target="_top" xlink:title=" ">
<polygon fill="white" stroke="#666666" points="281.88,-82 121.88,-82 121.88,-62 281.88,-62 281.88,-82"/>
<text xml:space="preserve" text-anchor="middle" x="201.88" y="-68.5" font-family="Helvetica,sans-Serif" font-size="10.00">src/Utils/Json/JsonSerializer.cpp</text>
</a>
</g>
</g>
<!-- Node5&#45;&gt;Node6 -->
<g id="edge5_Node000005_Node000006" class="edge">
<title>Node5&#45;&gt;Node6</title>
<g id="a_edge5_Node000005_Node000006"><a xlink:title=" ">
<path fill="none" stroke="#63b8ff" d="M306.64,-124.6C280.66,-111.8 243.41,-93.46 221.04,-82.44"/>
<polygon fill="#63b8ff" stroke="#63b8ff" points="304.8,-127.6 315.32,-128.88 307.89,-121.32 304.8,-127.6"/>
</a>
</g>
</g>
<!-- Node7&#45;&gt;Node4 -->
<g id="edge12_Node000007_Node000004" class="edge">
<title>Node7&#45;&gt;Node4</title>
<g id="a_edge12_Node000007_Node000004"><a xlink:title=" ">
<path fill="none" stroke="#63b8ff" d="M468.64,-124.6C442.66,-111.8 405.41,-93.46 383.04,-82.44"/>
<polygon fill="#63b8ff" stroke="#63b8ff" points="466.8,-127.6 477.32,-128.88 469.89,-121.32 466.8,-127.6"/>
</a>
</g>
</g>
<!-- Node8 -->
<g id="Node000008" class="node">
<title>Node8</title>
<g id="a_Node000008"><a xlink:href="Application_8cpp.html" target="_top" xlink:title=" ">
<polygon fill="white" stroke="#666666" points="652.25,-20 503.5,-20 503.5,0 652.25,0 652.25,-20"/>
<text xml:space="preserve" text-anchor="middle" x="577.88" y="-6.5" font-family="Helvetica,sans-Serif" font-size="10.00">application/src/Application.cpp</text>
</a>
</g>
</g>
<!-- Node7&#45;&gt;Node8 -->
<g id="edge8_Node000007_Node000008" class="edge">
<title>Node7&#45;&gt;Node8</title>
<g id="a_edge8_Node000007_Node000008"><a xlink:title=" ">
<path fill="none" stroke="#63b8ff" d="M523.58,-123.17C535.98,-114.28 550.05,-102.14 558.88,-88 572.44,-66.28 576.32,-35.47 577.43,-20.25"/>
<polygon fill="#63b8ff" stroke="#63b8ff" points="521.69,-120.22 515.37,-128.73 525.62,-126.02 521.69,-120.22"/>
</a>
</g>
</g>
<!-- Node9 -->
<g id="Node000009" class="node">
<title>Node9</title>
<g id="a_Node000009"><a xlink:href="DotNameLib_8hpp.html" target="_top" xlink:title=" ">
<polygon fill="white" stroke="#666666" points="550.12,-88 445.62,-88 445.62,-56 550.12,-56 550.12,-88"/>
<text xml:space="preserve" text-anchor="start" x="453.62" y="-74.5" font-family="Helvetica,sans-Serif" font-size="10.00">include/DotNameLib</text>
<text xml:space="preserve" text-anchor="middle" x="497.88" y="-62.5" font-family="Helvetica,sans-Serif" font-size="10.00">/DotNameLib.hpp</text>
</a>
</g>
</g>
<!-- Node7&#45;&gt;Node9 -->
<g id="edge9_Node000007_Node000009" class="edge">
<title>Node7&#45;&gt;Node9</title>
<g id="a_edge9_Node000007_Node000009"><a xlink:title=" ">
<path fill="none" stroke="#63b8ff" d="M497.88,-118.1C497.88,-108.43 497.88,-97.16 497.88,-88.3"/>
<polygon fill="#63b8ff" stroke="#63b8ff" points="494.38,-118.03 497.88,-128.03 501.38,-118.03 494.38,-118.03"/>
</a>
</g>
</g>
<!-- Node9&#45;&gt;Node8 -->
<g id="edge10_Node000009_Node000008" class="edge">
<title>Node9&#45;&gt;Node8</title>
<g id="a_edge10_Node000009_Node000008"><a xlink:title=" ">
<path fill="none" stroke="#63b8ff" d="M527.61,-48.7C540.64,-38.92 555.24,-27.98 565.33,-20.41"/>
<polygon fill="#63b8ff" stroke="#63b8ff" points="525.59,-45.84 519.69,-54.64 529.79,-51.44 525.59,-45.84"/>
</a>
</g>
</g>
<!-- Node10 -->
<g id="Node000010" class="node">
<title>Node10</title>
<g id="a_Node000010"><a xlink:href="DotNameLib_8cpp.html" target="_top" xlink:title=" ">
<polygon fill="white" stroke="#666666" points="485.88,-20 379.88,-20 379.88,0 485.88,0 485.88,-20"/>
<text xml:space="preserve" text-anchor="middle" x="432.88" y="-6.5" font-family="Helvetica,sans-Serif" font-size="10.00">src/DotNameLib.cpp</text>
</a>
</g>
</g>
<!-- Node9&#45;&gt;Node10 -->
<g id="edge11_Node000009_Node000010" class="edge">
<title>Node9&#45;&gt;Node10</title>
<g id="a_edge11_Node000009_Node000010"><a xlink:title=" ">
<path fill="none" stroke="#63b8ff" d="M472.79,-47.84C462.44,-38.29 451.03,-27.76 443.07,-20.41"/>
<polygon fill="#63b8ff" stroke="#63b8ff" points="470.3,-50.31 480.02,-54.52 475.05,-45.17 470.3,-50.31"/>
</a>
</g>
</g>
</g>
</svg>
